<svg width="310" height="121" viewBox="0 0 310 121" fill="none" xmlns="http://www.w3.org/2000/svg">
<path d="M92.217 120.034H31.5217V114.781H53.3098V90.0753L1.75761 89.8808L0.590393 84.0447C4.48112 80.9321 8.17731 77.7547 11.679 74.5124C27.3716 59.598 38.4601 42.7381 44.9447 23.9329C48.4464 13.8171 50.3269 8.37004 50.5863 7.59189C53.1801 2.53394 57.2653 0.00497025 62.842 0.00497025C64.139 0.00497025 65.3062 0.134661 66.3437 0.394043C72.5689 1.56126 75.6814 5.25745 75.6814 11.4826C75.5518 19.2641 68.5484 30.223 54.6715 44.3593C47.4088 51.622 32.2998 64.8504 9.34453 84.0447L53.3098 84.2392V61.0894H55.2551C57.3302 61.0894 59.081 60.9597 60.5076 60.7003C64.2686 59.9222 66.8625 57.1338 68.2891 52.3353L70.818 44.1647H75.0978V84.4338H92.217V90.2699H75.0978V114.781H87.5482C88.3263 114.781 89.0396 114.846 89.6881 114.976C91.3741 115.235 92.217 116.921 92.217 120.034ZM159.036 0.58858C168.504 0.58858 176.804 2.85817 183.937 7.39735C197.684 16.4757 204.558 32.3629 204.558 55.0588C204.558 68.6763 201.445 80.2188 195.22 89.6863C186.79 102.526 174.405 108.945 158.064 108.945C147.559 108.945 138.48 106.092 130.829 100.386C118.119 90.6589 111.764 75.2906 111.764 54.2806C111.764 40.6631 114.941 29.1206 121.296 19.6531C129.986 6.94344 142.566 0.58858 159.036 0.58858ZM158.647 103.693C162.279 103.693 165.456 102.785 168.18 100.969C176.091 95.5224 180.046 79.8946 180.046 54.0861C180.046 41.8951 179.139 32.1035 177.323 24.7111C174.34 12.1311 168.05 5.84106 158.453 5.84106C155.47 5.84106 152.811 6.42467 150.477 7.59189C141.009 12.2608 136.276 28.0831 136.276 55.0588C136.276 68.4169 137.313 78.8571 139.388 86.3791C142.501 97.9216 148.921 103.693 158.647 103.693ZM309.117 120.034H248.422V114.781H270.21V90.0753L218.658 89.8808L217.491 84.0447C221.381 80.9321 225.078 77.7547 228.579 74.5124C244.272 59.598 255.36 42.7381 261.845 23.9329C265.347 13.8171 267.227 8.37004 267.487 7.59189C270.08 2.53394 274.166 0.00497025 279.742 0.00497025C281.039 0.00497025 282.207 0.134661 283.244 0.394043C289.469 1.56126 292.582 5.25745 292.582 11.4826C292.452 19.2641 285.449 30.223 271.572 44.3593C264.309 51.622 249.2 64.8504 226.245 84.0447L270.21 84.2392V61.0894H272.155C274.231 61.0894 275.981 60.9597 277.408 60.7003C281.169 59.9222 283.763 57.1338 285.189 52.3353L287.718 44.1647H291.998V84.4338H309.117V90.2699H291.998V114.781H304.449C305.227 114.781 305.94 114.846 306.588 114.976C308.274 115.235 309.117 116.921 309.117 120.034Z" fill="url(#paint0_linear_329_272)"/>
<defs>
<linearGradient id="paint0_linear_329_272" x1="-154.118" y1="164.83" x2="486.494" y2="94.3841" gradientUnits="userSpaceOnUse">
<stop stop-color="#2B0AFF"/>
<stop offset="0.49" stop-color="#FF5B8A"/>
<stop offset="0.55" stop-color="#FF5B8A"/>
<stop offset="0.77" stop-color="#FBA64B"/>
<stop offset="1" stop-color="#F99B52"/>
</linearGradient>
</defs>
</svg>
