<svg width="413" height="312" viewBox="0 0 413 312" fill="none" xmlns="http://www.w3.org/2000/svg">
<g opacity="0.2">
<path d="M182.003 231.802C181.877 231.644 181.75 231.457 181.65 231.268C154.424 256.156 139.043 274.685 142.894 279.878C149.712 289.072 214.147 252.841 286.84 198.969C359.506 145.098 412.925 94.0015 406.105 84.8088C402.255 79.6162 379.865 88.995 347.914 107.973C349.172 109.276 350.348 110.613 351.497 111.952L351.526 111.95C372.236 100.206 386.234 94.7406 388.79 98.1865C391.379 101.684 381.819 113.7 364.103 130.452C359.094 135.187 353.441 140.31 347.195 145.736C347.195 145.736 347.166 145.738 347.168 145.765C329.902 160.796 308.271 178.149 284.315 195.914C251.717 220.059 221.136 240.304 198.498 253.214C177.336 265.275 163.045 270.932 160.456 267.435C157.871 263.993 167.171 252.223 184.434 235.787C184.372 235.707 184.276 235.576 184.24 235.467C183.441 234.269 182.695 233.037 182.003 231.802Z" fill="white"/>
<path d="M178.318 224.854C178.287 224.827 178.227 224.776 178.22 224.693C178.189 224.667 178.16 224.642 178.157 224.613C178.155 224.585 178.155 224.585 178.124 224.56C177.885 224.046 177.621 223.561 177.44 223.071C105.239 283.338 59.8345 332.769 68.6368 344.611C80.3767 360.429 184.145 303.409 300.38 217.254C416.617 131.096 501.349 48.3756 489.638 32.5556C480.802 20.66 420.205 49.8354 341.379 101.539C341.325 101.571 341.325 101.571 341.299 101.602C341.747 101.931 342.146 102.347 342.512 102.712C342.657 102.756 342.691 102.838 342.753 102.916C342.778 102.885 342.778 102.885 342.778 102.885C399.314 66.9606 441.31 47.4725 447.716 56.111C457.028 68.6697 387.508 135.995 292.396 206.497C197.312 276.997 112.675 323.946 103.361 311.358C96.9587 302.749 127.683 268.362 178.318 224.854Z" fill="white"/>
<path d="M28.8328 381.123C31.3997 384.582 36.4614 385.86 43.5647 385.282C78.4821 382.441 162.695 334.764 241.759 281.088C254.464 284.884 267.653 286.208 280.611 285.153C300.127 283.566 319.118 276.617 335.162 264.725C361.839 244.952 377.782 213.376 377.933 180.149C467.421 107.885 550.757 25.9625 535.582 5.49641C520.321 -15.1076 419.218 41.1966 336.898 95.905L336.834 95.8523L336.8 95.8802C319.35 82.4197 298.453 74.8461 276.282 73.986C251.931 72.9746 228.688 80.1339 209.074 94.673C171.002 122.891 156.319 173.183 173.134 217.295C96.8391 280.153 13.5578 360.522 28.8328 381.123ZM40.2737 354.482C40.3028 354.435 40.3368 354.378 40.3598 354.328C46.724 343.43 58.8253 328.66 76.3251 310.444C76.3251 310.444 94.3361 292.571 95.6021 291.352C117.754 270.266 145.197 246.255 175.013 221.855C175.164 222.21 175.315 222.567 175.477 222.921C115.733 272.889 56.1026 331.248 67.0252 345.98C68.9407 348.561 72.7007 349.431 77.7525 349.02C93.5076 347.74 121.799 333.991 145.669 320.871C189.596 296.727 244.836 260.417 301.214 218.626C324.077 201.681 345.993 184.659 366.4 168.067C393.74 150.805 409.445 136.747 414.841 126.92C425.478 117.42 435.338 108.253 444.269 99.5359C470.011 74.4145 499.04 42.234 491.153 31.5971C480.196 16.8253 406.87 57.043 341.565 99.8095C341.269 99.5551 340.976 99.3044 340.68 99.056C369.172 79.9454 395.85 63.142 420.023 49.0885C420.784 48.6553 439.624 38.0439 439.624 38.0439C441.393 37.0629 454.453 30.1599 454.453 30.1599C476.961 18.7221 494.597 11.4411 506.871 8.51879L506.905 8.51021C506.959 8.502 507.014 8.49554 507.067 8.47964C514.988 6.82794 520.021 7.36962 522.029 10.0771C527.998 18.1268 508.175 45.2006 467.641 84.3509C426.242 124.335 367.735 172.828 302.893 220.889C238.053 268.951 174.642 310.833 124.347 338.816C75.0988 366.215 43.433 377.318 37.4601 369.26C35.4514 366.555 36.3945 361.581 40.2737 354.482ZM523.156 9.24106C522.598 8.48804 521.849 7.88396 520.938 7.40709C522.962 7.83203 524.458 8.648 525.361 9.86975C531.686 18.3989 511.966 46.114 471.257 85.9068C429.694 126.535 370.759 175.627 305.304 224.143C239.852 272.66 175.74 314.774 124.78 342.729C74.8702 370.106 42.6166 380.924 36.2877 372.389C35.3841 371.169 35.0378 369.504 35.2203 367.446C35.4125 368.453 35.7731 369.344 36.3313 370.097C38.1994 372.618 41.9526 373.452 46.9814 373.042C65.6446 371.526 101.909 352.902 125.023 340.043C175.372 312.032 238.836 270.115 303.725 222.017C440.22 120.843 536.605 27.3808 523.156 9.24106ZM406.882 84.355C406.031 83.2083 404.474 82.6989 402.382 82.701C406.269 82.0657 408.575 82.5102 409.489 83.7447C410.742 85.4348 411.411 91.7505 390.6 113.762L390.571 113.78C368.215 137.501 330.873 169.281 288.12 200.97C277.968 208.496 267.902 215.72 258.201 222.441C197.112 264.967 146.597 291.006 140.66 283.008C139.511 281.46 140.094 278.742 141.967 275.215C141.134 277.527 141.058 279.414 142.005 280.692C142.991 282.023 144.956 282.529 147.759 282.301C167.69 280.681 230.15 242.059 287.219 199.757C352.321 151.5 414.879 95.1415 406.882 84.355ZM348.266 106.222C347.258 105.167 346.187 104.152 345.121 103.141C409.029 62.6613 442.313 50.6832 446.901 56.8578C451.041 62.4406 435.75 82.7506 405.041 112.011C401.679 111.898 397.668 112.271 393.103 113.128C407.833 97.2982 413.743 87.1239 410.616 82.9048C404.662 74.8868 369.493 93.7517 348.266 106.222ZM393.488 71.45C444.181 41.2187 478.88 26.6412 484.45 34.1647C490.433 42.2344 462.685 74.158 415.812 116.084C414.489 114.202 412.088 112.955 408.729 112.376C437.622 84.7036 454.811 62.8182 449.155 55.1896C443.582 47.6704 418.975 57.8811 393.488 71.45ZM481.064 31.055C484.859 30.8119 487.57 31.4787 488.899 33.2691C490.795 35.8271 493.04 48.0173 442.31 97.5282C434.521 105.129 425.986 113.093 416.88 121.304C417.062 120.001 417.007 118.803 416.662 117.741C416.636 117.658 416.591 117.583 416.559 117.502C464.772 74.4308 492.149 42.1973 485.576 33.3287C484.66 32.0925 483.134 31.3525 481.064 31.055ZM293.488 207.669C303.403 202.889 312.676 198.235 321.327 193.721C313.236 199.914 304.991 206.137 296.579 212.374C184.636 295.352 81.5405 353.939 71.4308 340.311C65.8619 332.799 89.9504 303.783 133.681 264.005C113.25 284.464 96.2237 305.122 101.81 312.656C103.306 314.673 106.199 315.504 110.478 315.156C120.891 314.309 139.506 306.473 166.111 291.719C201.953 271.84 247.099 242.058 293.232 207.859C293.316 207.797 293.402 207.732 293.488 207.669ZM348.493 178.853C332.845 191.264 316.454 203.84 299.546 216.374C243.266 258.091 188.14 294.328 144.32 318.413C82.1941 352.562 71.1794 346.869 69.285 344.309C67.958 342.521 68.1085 339.736 69.447 336.176C69.1297 338.242 69.3935 339.916 70.3078 341.148C71.6939 343.023 74.5278 343.749 78.6423 343.414C106.881 341.123 195.796 288.83 297.417 213.502C308.206 205.504 318.702 197.571 328.864 189.742C335.832 186.01 342.391 182.374 348.493 178.853ZM177.595 227.377C179.43 230.967 178.976 229.991 179.657 231.25C161.677 247.843 133.603 275.839 139.535 283.841C140.656 285.355 142.888 285.919 146.039 285.663C164.452 284.165 214.344 254.666 258.839 223.705L258.911 223.686C266.232 220.426 273.271 217.215 280.049 214.053C238.063 244.616 197.497 271.099 164.745 289.264C124.623 311.521 107.09 315.078 104.066 310.986C99.494 304.822 120.512 276.589 177.595 227.377ZM183.944 238.265C187.239 243.313 191.139 248.229 195.981 253.229C164.721 270.864 161.404 267.139 161.278 266.972C161.154 266.804 158.577 262.6 183.944 238.265ZM357.657 138.519C360.311 136.122 365.15 131.599 365.213 131.54C394.738 103.61 391.25 98.9046 390.103 97.3565C388.978 95.8434 385.579 91.256 351.912 110.202C351.211 109.389 350.478 108.598 349.743 107.807C387 85.8104 403.137 81.6535 405.757 85.1909C411.523 92.967 364.934 140.405 286.388 198.626C207.846 256.847 148.91 287.637 143.138 279.854C140.529 276.331 149.117 262.185 180.743 233.126C181.142 233.851 181.72 234.825 182.395 235.862C154.502 262.541 157.903 267.126 159.028 268.643C166.015 278.041 225.078 238.953 235.167 232.29C238.33 230.199 252.286 220.747 256.101 218.092C261.823 214.109 281.233 200.121 285.125 197.235C287.632 195.376 311.451 177.158 312.868 176.041C313.542 175.511 341.269 152.857 341.363 152.778C347.172 147.839 352.644 143.058 357.657 138.519ZM353.747 112.386C384.441 95.1667 387.723 98.859 387.849 99.0285C387.975 99.2 390.58 103.456 364.568 128.276C360.557 121.042 357.314 116.735 353.747 112.386ZM256.123 77.9094C180.379 99.6833 174.657 175.082 174.518 175.374C172.411 195.761 176.706 214.93 178.08 217.246L178.008 217.26C180.951 227.549 182.379 230.131 182.792 231.117C182.434 230.552 179.08 224.099 179.05 224.063C175.562 215.982 176.339 217.666 176.14 217.4C159.164 174.069 173.411 124.598 210.74 96.9288C224.366 86.8286 239.792 80.4136 256.123 77.9094ZM347.182 109.291L347.327 109.314C353.419 115.747 358.606 123.087 362.5 130.233C361.534 131.141 346.385 144.748 346.385 144.748C327.865 156.654 310.189 166.332 293.731 173.712C313.249 158.071 332.351 141.923 350.592 124.851C328.005 144.165 304.31 162.095 280.182 179.362C274.513 181.551 269.014 183.447 263.706 185.033C266.851 182.627 270.018 180.245 273.144 177.816C297.9 158.483 322.137 138.458 345.047 117.02C321.206 137.409 296.152 156.284 270.632 174.438C263.968 179.152 257.266 183.815 250.525 188.417C249.263 188.686 248.017 188.935 246.783 189.165C254.247 183.593 261.669 177.968 269.017 172.251C292.95 153.531 316.381 134.144 338.526 113.39C315.449 133.095 291.201 151.334 266.505 168.873C255.9 176.363 245.177 183.689 234.362 190.86C230.101 191.199 226.055 191.24 222.212 191.015C235.59 181.764 248.755 172.218 261.731 162.429C284.653 145.046 307.114 127.024 328.393 107.673C306.806 126.674 284.071 144.316 260.895 161.305C247.034 171.41 232.964 181.238 218.677 190.719C212.612 190.058 207.123 188.66 202.309 186.462C219.515 174.92 236.211 162.708 252.583 150.093C272.655 134.545 292.312 118.434 310.903 101.173C291.69 117.735 271.488 133.079 250.907 147.842C233.372 160.35 215.494 172.397 197.177 183.631C196.959 183.489 196.724 183.363 196.507 183.218C214.578 171.308 232.028 158.59 249.102 145.404C268.049 130.693 286.603 115.454 304.149 99.1284C285.982 114.754 266.884 129.228 247.426 143.153C229.397 155.984 210.995 168.315 192.081 179.671C191.052 178.716 190.066 177.718 189.147 176.642C187.786 151.53 207.165 94.9114 276.427 76.7929C302.714 77.8382 327.364 88.4915 347.182 109.291ZM40.3941 351.47C39.9531 352.205 39.536 352.924 39.1497 353.618L39.1293 353.653C39.1107 353.685 39.0926 353.725 39.0799 353.759L39.051 353.808C33.7167 362.963 32.4041 369.502 35.1648 373.227C37.1414 375.894 41.1604 376.928 46.9769 376.457C82.9032 373.54 187.583 313.155 306.142 225.274C443.897 123.164 540.684 28.1799 526.491 9.03552C523.732 5.31226 517.091 4.6636 506.783 7.10885L506.702 7.12708L506.612 7.14019C506.454 7.17429 506.269 7.22994 506.11 7.26611C512.118 5.51677 517.189 4.48553 521.286 4.15216C527.491 3.64735 531.5 4.70918 533.327 7.1724C545.151 23.1186 478.844 95.122 375.666 178.381C354.255 195.656 331.9 212.939 309.223 229.752C286.532 246.569 263.486 262.94 240.722 278.408C131.072 352.907 42.9065 395.396 31.0873 379.459C27.9069 375.161 30.7334 365.746 40.3941 351.47Z" fill="#C39F73"/>
</g>
</svg>
