<svg width="246" height="153" viewBox="0 0 246 153" fill="none" xmlns="http://www.w3.org/2000/svg">
<path d="M244.954 151.697C244.931 151.659 244.945 151.611 244.914 151.576L195.929 94.0608L192.979 89.5586C191.225 86.8933 188.879 84.6034 186.192 82.9068L182.2 77.7052C180.443 75.4097 178.306 73.4809 175.882 71.9219L174.766 56.1137C174.598 53.6605 173.258 51.448 171.192 50.2071L168.102 48.287C168.071 48.2641 168.045 48.2468 168.011 48.2296L124.345 21.0725C122.282 19.7915 119.71 19.5823 117.458 20.5166L102.845 26.5321C100.364 25.0447 97.68 23.9986 94.8443 23.4455L88.4176 22.1759C85.7078 20.5194 82.6146 19.4303 79.4471 19.0377L74.1162 18.393L0.89847 0.0025181C0.855549 -0.00894543 0.818352 0.0226136 0.775431 0.0197477C0.663836 0.01115 0.557962 0.0283201 0.460674 0.0655766C0.389139 0.0942355 0.331904 0.117173 0.274676 0.165893C0.2432 0.191686 0.200292 0.188856 0.171678 0.22038C0.123034 0.274832 0.123034 0.349305 0.0915585 0.412355C0.0686672 0.461075 0.0143071 0.48402 0 0.538472L0.0114394 0.610101C-0.00572911 0.730469 0.0228801 0.839405 0.0600784 0.948309C0.0801083 1.01136 0.0772389 1.07149 0.114437 1.12594L0.128758 1.16897L40.2772 54.3941C40.3316 54.4686 40.4002 54.5317 40.4775 54.5775L46.7554 58.4752L50.9932 66.3105C51.7143 67.6288 52.4783 68.8497 53.2509 69.9301C56.3297 74.4525 60.433 78.3816 65.1143 81.2876L69.1517 83.7952L70.0302 85.4403C72.7886 90.6619 76.9004 95.0697 81.9279 98.1935L121.069 122.505C126.097 125.628 131.871 127.36 137.76 127.511L139.623 127.569L143.66 130.076C149.563 133.745 156.367 135.823 163.338 136.092L172.228 136.413L178.506 140.313C178.583 140.362 178.669 140.394 178.761 140.411L244.21 152.78C244.256 152.789 244.302 152.794 244.347 152.794C244.505 152.794 244.659 152.731 244.791 152.631L244.825 152.617C244.854 152.594 244.848 152.553 244.871 152.528C244.931 152.462 245.003 152.407 245.034 152.321C245.051 152.281 245.028 152.241 245.037 152.201C245.051 152.127 245.048 152.066 245.043 151.989C245.04 151.889 245.008 151.788 244.954 151.697ZM78.9921 23.1102L97.0447 34.3244L57.0079 34.8115L25.4522 15.2118L78.9921 23.1102ZM115.129 45.5586L155.086 70.38L159.484 78.267L117.221 53.712L161.258 81.4452L162.05 82.8667L113.146 54.4543L164.099 86.5437L164.935 88.0424L109.995 56.1251L167.238 92.1722L167.822 93.2182L106.848 57.7931L170.377 97.8008L176.724 109.181L90.7067 55.7497L115.129 45.5586ZM118.027 21.8864C119.839 21.1327 121.91 21.2989 123.567 22.3307L125.642 23.6203L115.369 29.226C115.137 29.355 114.991 29.5928 114.983 29.8593C114.977 30.1229 115.109 30.3695 115.332 30.5099L127.235 37.9038C127.356 37.9784 127.493 38.0156 127.627 38.0156C127.802 38.0156 127.977 37.9526 128.114 37.8322L136.567 30.421L157.409 43.3835L154.548 54.2538C154.465 54.569 154.596 54.9043 154.874 55.0733L166.777 62.4674C166.897 62.5419 167.032 62.5791 167.166 62.5791C167.287 62.5791 167.404 62.5505 167.513 62.4932C167.744 62.3699 167.893 62.132 167.905 61.8684L168.377 50.2071L170.42 51.4795C172.082 52.4797 173.155 54.2508 173.29 56.2226L174.326 70.916L104.421 27.4921L118.027 21.8864ZM94.5639 24.9014C97.3509 25.443 99.992 26.4833 102.41 27.985L165.573 67.219L167.121 71.0507L92.0144 24.397L94.5639 24.9014ZM79.2725 20.5108C82.277 20.8834 85.2157 21.9208 87.7766 23.5114L159.967 68.3539L161.747 72.7702L77.2152 20.2614L79.2725 20.5108ZM164.205 103.146C163.203 103.154 162.136 103.108 161.02 103.022L17.6577 15.9368L153.898 102.005C153.626 101.951 153.352 101.896 153.074 101.839L30.9919 28.5496L143.96 99.486C143.38 99.3111 142.796 99.1363 142.201 98.95L40.9897 38.3824L131.021 95.0352C129.602 94.4936 128.154 93.9232 126.677 93.33L55.2481 50.4364L114.13 87.9508C91.857 77.8829 64.7394 63.095 34.5687 44.3578L3.71124 3.45307L164.205 103.146ZM52.3009 65.6055L49.2992 60.0543L103.964 94.0092C94.0631 91.5933 72.2592 80.0524 54.3954 68.9671C53.6743 67.9497 52.9676 66.8235 52.3009 65.6055Z" fill="#AE7E34" fill-opacity="0.2"/>
</svg>
