<svg width="13" height="9" viewBox="0 0 13 9" fill="none" xmlns="http://www.w3.org/2000/svg">
<path d="M8.56099 8.34185C8.5419 8.32277 8.52675 8.30012 8.51641 8.27519C8.50608 8.25026 8.50076 8.22354 8.50076 8.19655C8.50076 8.16956 8.50608 8.14284 8.51641 8.11791C8.52675 8.09298 8.5419 8.07033 8.56099 8.05125L11.9069 4.70533L1.00513 4.7598C0.950668 4.7598 0.898433 4.73816 0.859919 4.69965C0.821406 4.66113 0.799769 4.6089 0.799769 4.55443C0.799769 4.49997 0.821406 4.44773 0.859919 4.40922C0.898433 4.3707 0.950668 4.34907 1.00513 4.34907L11.9069 4.2946L8.56099 0.948677C8.54191 0.929596 8.52677 0.906944 8.51645 0.882014C8.50612 0.857084 8.50081 0.830364 8.50081 0.80338C8.50081 0.776396 8.50612 0.749676 8.51645 0.724746C8.52677 0.699816 8.54191 0.677164 8.56099 0.658084C8.58007 0.639003 8.60272 0.623868 8.62765 0.613541C8.65258 0.603215 8.6793 0.5979 8.70629 0.5979C8.73327 0.5979 8.75999 0.603215 8.78492 0.613541C8.80985 0.623868 8.8325 0.639003 8.85158 0.658084L12.5482 4.35467C12.5673 4.37374 12.5824 4.39639 12.5927 4.42132C12.6031 4.44625 12.6084 4.47298 12.6084 4.49997C12.6084 4.52695 12.6031 4.55368 12.5927 4.57861C12.5824 4.60354 12.5673 4.62619 12.5482 4.64526L8.85158 8.34185C8.83251 8.36094 8.80986 8.37609 8.78493 8.38642C8.76 8.39676 8.73328 8.40208 8.70629 8.40208C8.6793 8.40208 8.65257 8.39676 8.62764 8.38642C8.60271 8.37609 8.58006 8.36094 8.56099 8.34185Z" fill="#AE7D33"/>
</svg>
