<svg width="415" height="242" viewBox="0 0 415 242" fill="none" xmlns="http://www.w3.org/2000/svg">
<g clip-path="url(#clip0_766_5874)">
<rect width="415" height="242" transform="translate(0 -0.00878906)" fill="url(#paint0_linear_766_5874)"/>
<g clip-path="url(#clip1_766_5874)">
<path d="M117.919 156.633L135.336 237.855H270.69L222.962 173.843" stroke="white" stroke-width="1.56527" stroke-linecap="round" stroke-linejoin="round"/>
<path d="M123.144 39.4171C115.555 38.0435 101.133 35.6964 92.3614 35.9487C87.5301 35.6024 82.7481 37.1086 78.9874 40.1611C75.2266 43.2139 72.7694 47.5839 72.115 52.3833C71.4604 57.1826 72.6579 62.051 75.4641 65.9993C78.2702 69.9474 82.4742 72.679 87.2219 73.6388L111.843 141.989" stroke="white" stroke-width="1.56527" stroke-linecap="round" stroke-linejoin="round"/>
<path d="M254.05 215.537H153.023L140.377 159.407" stroke="white" stroke-width="1.56527" stroke-linecap="round" stroke-linejoin="round"/>
<path d="M110.029 54.9564C110.029 58.7257 108.911 62.4105 106.817 65.5447C104.723 68.6787 101.746 71.1216 98.2638 72.5641C94.7812 74.0066 90.9493 74.3839 87.2524 73.6485C83.5553 72.9132 80.1595 71.098 77.4941 68.4326C74.8287 65.7672 73.0136 62.3714 72.2782 58.6745C71.5428 54.9774 71.9203 51.1455 73.3628 47.663C74.8051 44.1804 77.248 41.204 80.3822 39.1099C83.5162 37.0156 87.201 35.8979 90.9705 35.8979C96.025 35.8979 100.873 37.9058 104.447 41.48C108.021 45.0542 110.029 49.9017 110.029 54.9564Z" stroke="white" stroke-width="1.56527" stroke-linecap="round" stroke-linejoin="round"/>
<path d="M108.277 62.9355C108.277 62.9355 107.763 83.7819 110.39 93.3213" stroke="white" stroke-width="1.56527" stroke-linecap="round" stroke-linejoin="round"/>
<path d="M239.235 169.776L287.656 218.524C292.673 216.777 297.505 214.547 302.089 211.863C291.536 198.397 247.507 142.959 234.639 138.744H191.009C191.009 131.695 190.892 133.044 191.362 131.58L184.74 130.49C179.682 135.959 173.769 140.571 167.231 144.144H192.787C196.458 144.144 199.979 145.602 202.575 148.198C205.171 150.793 206.629 154.314 206.629 157.985L141.487 159.387C144.975 162.501 154.694 172.988 179.301 169.821C196.989 167.548 203.813 159.435 215.941 167.914C224.066 173.594 253.053 203.473 272.293 222.963C276.936 221.916 281.521 220.625 286.029 219.094L238.131 170.876C238.048 170.806 237.981 170.719 237.935 170.622C237.888 170.525 237.862 170.419 237.858 170.312C237.854 170.203 237.872 170.096 237.913 169.996C237.952 169.896 238.013 169.804 238.089 169.73C238.165 169.653 238.257 169.594 238.358 169.555C238.46 169.518 238.567 169.501 238.674 169.505C238.782 169.51 238.888 169.538 238.984 169.586C239.081 169.635 239.167 169.703 239.235 169.786V169.776Z" fill="#6153BD"/>
<path d="M191.363 131.581L184.741 130.486" stroke="white" stroke-width="1.56527" stroke-linecap="round" stroke-linejoin="round"/>
<path d="M141.487 159.381C144.975 162.496 154.694 172.982 179.301 169.816C196.989 167.542 203.813 159.429 215.94 167.908C224.066 173.588 253.053 203.467 272.293 222.957C278.847 221.481 291.917 217.992 302.089 211.856C291.536 198.39 247.507 142.951 234.639 138.737" stroke="white" stroke-width="1.56527" stroke-linecap="round" stroke-linejoin="round"/>
<path d="M342.256 235.433C332.009 229.269 312.353 218.953 306.241 215.764C304.558 214.822 303.131 213.481 302.089 211.858C291.921 217.995 278.847 221.483 272.294 222.96C277.002 227.73 281.123 231.872 284.214 234.888C294.662 235.19 322.177 235.882 342.256 235.433Z" fill="white"/>
<path d="M342.256 235.433C332.009 229.269 312.353 218.953 306.241 215.764C304.558 214.822 303.131 213.481 302.089 211.858C291.921 217.995 278.847 221.483 272.294 222.96C277.002 227.73 281.123 231.872 284.214 234.888C294.662 235.19 322.177 235.882 342.256 235.433Z" stroke="white" stroke-width="1.56527" stroke-linecap="round" stroke-linejoin="round"/>
<path d="M342.256 235.434C322.177 235.884 294.662 235.192 284.215 234.889C285.981 236.779 287.909 238.511 289.977 240.066C293.262 241.329 348.36 240.784 348.6 240.066C348.763 239.57 346.209 237.809 342.256 235.434Z" stroke="white" stroke-width="1.56527" stroke-linecap="round" stroke-linejoin="round"/>
<path d="M195.104 119.989L191.01 132.674H271.363L247.937 109.798" stroke="white" stroke-width="1.56527" stroke-linecap="round" stroke-linejoin="round"/>
<path d="M271.363 132.675H191.01V138.74H271.363V132.675Z" stroke="white" stroke-width="1.56527" stroke-linecap="round" stroke-linejoin="round"/>
<path d="M211.557 105.779L227.788 105.745L237.453 126.045H197.916L198.45 119.231" stroke="white" stroke-width="1.56527" stroke-linecap="round" stroke-linejoin="round"/>
<path d="M239.811 77.7954L227.788 105.744L237.453 126.044L254.509 85.0235L239.811 77.7954ZM232.101 104.143L239.811 87.0108L247.116 91.4744L237.615 112.784L232.101 104.143Z" fill="white"/>
<path d="M227.788 105.744L237.453 126.044L254.509 85.0235L239.811 77.7954L227.788 105.744Z" stroke="white" stroke-width="1.56527" stroke-linecap="round" stroke-linejoin="round"/>
<path d="M237.453 126.043H238.724C239.442 126.043 240.145 125.829 240.743 125.432C241.341 125.033 241.806 124.466 242.084 123.805L256.582 89.1139C256.787 88.6222 256.833 88.0779 256.711 87.5589C256.588 87.04 256.305 86.5729 255.901 86.2248L254.509 85.0225L237.453 126.043Z" stroke="white" stroke-width="1.56527" stroke-linecap="round" stroke-linejoin="round"/>
<path d="M238.28 81.3525L252.534 89.7721" stroke="white" stroke-width="1.56527" stroke-linecap="round" stroke-linejoin="round"/>
<path d="M232.101 104.145L237.622 112.777L247.116 91.4675L239.812 87.0039L232.101 104.145Z" stroke="white" stroke-width="1.56527" stroke-linecap="round" stroke-linejoin="round"/>
<path d="M238.091 90.8311L245.215 95.737" stroke="white" stroke-width="1.56527" stroke-linecap="round" stroke-linejoin="round"/>
<path d="M237.453 126.043H197.916C197.969 127.043 198.415 127.981 199.158 128.652C199.9 129.323 200.878 129.674 201.878 129.626H237.453V126.043Z" stroke="white" stroke-width="1.56527" stroke-linecap="round" stroke-linejoin="round"/>
<path d="M221.681 113.027L220.169 108.732H215.378" stroke="white" stroke-width="1.56527" stroke-linecap="round" stroke-linejoin="round"/>
<path d="M213.675 110.006L213.956 111.83" stroke="white" stroke-width="1.56527" stroke-linecap="round" stroke-linejoin="round"/>
<path d="M214.353 114.407L214.889 117.894H223.393L221.681 113.028H214.97" stroke="white" stroke-width="1.56527" stroke-linecap="round" stroke-linejoin="round"/>
<path d="M226.999 113.027L225.06 108.732H220.169L221.681 113.027H226.999Z" fill="#6153BD"/>
<path d="M226.999 113.027L225.06 108.732H220.169L221.681 113.027H226.999Z" stroke="white" stroke-width="1.56527" stroke-linecap="round" stroke-linejoin="round"/>
<path d="M202.697 120.128L202.634 122.441H215.59" stroke="white" stroke-width="1.56527" stroke-linecap="round" stroke-linejoin="round"/>
<path d="M221.681 113.028L223.393 117.894H229.196L226.998 113.028H221.681Z" stroke="white" stroke-width="1.56527" stroke-linecap="round" stroke-linejoin="round"/>
<path d="M224.994 122.442H231.25L229.196 117.894H223.393L224.994 122.442Z" stroke="white" stroke-width="1.56527" stroke-linecap="round" stroke-linejoin="round"/>
<path d="M214.889 117.894L215.59 122.442H224.993L223.392 117.894H214.889Z" stroke="white" stroke-width="1.56527" stroke-linecap="round" stroke-linejoin="round"/>
<path d="M201.673 28.5674H192.539C190.242 28.5674 187.968 29.0197 185.846 29.8987C183.725 30.7775 181.797 32.0657 180.173 33.6897C178.549 35.3138 177.261 37.2416 176.382 39.3634C175.504 41.4853 175.052 43.7593 175.052 46.0559V68.0501L186.46 54.6779L198.284 70.8504L208.359 58.5108L219.16 69.6231V46.0559C219.16 43.7593 218.709 41.4853 217.83 39.3634C216.95 37.2416 215.662 35.3138 214.039 33.6897C212.415 32.0657 210.487 30.7775 208.366 29.8987C206.244 29.0197 203.97 28.5674 201.673 28.5674ZM205.321 51.6456C204.221 51.6456 203.147 51.3196 202.232 50.7088C201.318 50.0979 200.606 49.2298 200.185 48.2142C199.765 47.1985 199.655 46.0808 199.869 45.0026C200.083 43.9244 200.613 42.9339 201.39 42.1565C202.167 41.3792 203.158 40.8498 204.237 40.6354C205.315 40.4208 206.433 40.5309 207.448 40.9517C208.464 41.3724 209.331 42.0847 209.942 42.9988C210.554 43.913 210.879 44.9877 210.879 46.0871C210.879 46.817 210.736 47.5398 210.456 48.2142C210.177 48.8886 209.767 49.5013 209.252 50.0174C208.735 50.5337 208.123 50.943 207.448 51.2224C206.774 51.5018 206.051 51.6456 205.321 51.6456Z" fill="white"/>
<path d="M201.673 28.5674H192.539C190.242 28.5674 187.968 29.0197 185.846 29.8987C183.725 30.7775 181.797 32.0657 180.173 33.6897C178.549 35.3138 177.261 37.2416 176.382 39.3634C175.504 41.4853 175.052 43.7593 175.052 46.0559V68.0501L186.46 54.6779L198.284 70.8504L208.359 58.5108L219.16 69.6231V46.0559C219.16 43.7593 218.709 41.4853 217.83 39.3634C216.95 37.2416 215.662 35.3138 214.039 33.6897C212.415 32.0657 210.487 30.7775 208.366 29.8987C206.244 29.0197 203.97 28.5674 201.673 28.5674Z" stroke="white" stroke-width="1.56527" stroke-linecap="round" stroke-linejoin="round"/>
<path d="M208.359 58.508L198.284 70.8476L186.46 54.6782L175.052 68.0504V70.9675C175.052 75.6051 176.895 80.0526 180.174 83.3318C183.454 86.6108 187.901 88.4529 192.539 88.4529H201.673C206.311 88.4529 210.758 86.6108 214.038 83.3318C217.318 80.0526 219.16 75.6051 219.16 70.9675V69.625L208.359 58.508Z" stroke="white" stroke-width="1.56527" stroke-linecap="round" stroke-linejoin="round"/>
<path d="M205.322 51.6459C206.422 51.6459 207.496 51.3198 208.41 50.7091C209.325 50.0983 210.036 49.2302 210.457 48.2146C210.877 47.1988 210.988 46.0812 210.773 45.003C210.56 43.9248 210.03 42.9342 209.253 42.1569C208.476 41.3796 207.485 40.8501 206.406 40.6356C205.328 40.4211 204.21 40.5313 203.194 40.9519C202.179 41.3727 201.312 42.0851 200.701 42.9992C200.089 43.9132 199.763 44.988 199.763 46.0874C199.763 46.8173 199.907 47.5401 200.187 48.2146C200.466 48.889 200.875 49.5017 201.391 50.0178C201.908 50.5339 202.52 50.9434 203.194 51.2228C203.869 51.502 204.592 51.6459 205.322 51.6459Z" stroke="white" stroke-width="1.56527" stroke-linecap="round" stroke-linejoin="round"/>
<path d="M201.674 90.5915H192.539C187.337 90.584 182.35 88.5141 178.671 84.8356C174.993 81.1571 172.923 76.17 172.916 70.9677V46.0486C172.923 40.8463 174.993 35.8592 178.671 32.1806C182.35 28.5021 187.337 26.4323 192.539 26.4248H201.674C206.876 26.4323 211.862 28.5021 215.541 32.1806C219.22 35.8592 221.29 40.8463 221.297 46.0486V70.9677C221.29 76.17 219.22 81.1571 215.541 84.8356C211.862 88.5141 206.876 90.584 201.674 90.5915ZM192.539 30.7093C188.472 30.7138 184.572 32.3313 181.696 35.2068C178.819 38.0823 177.2 41.9812 177.194 46.0486V70.9677C177.198 75.0363 178.817 78.937 181.693 81.8142C184.57 84.6912 188.471 86.3097 192.539 86.3147H201.674C205.742 86.3097 209.643 84.6912 212.52 81.8142C215.398 78.9371 217.016 75.0365 217.021 70.9677V46.0486C217.016 41.9799 215.398 38.0795 212.52 35.2026C209.643 32.3258 205.742 30.7076 201.674 30.7031L192.539 30.7093Z" fill="#6153BD"/>
<path d="M201.674 90.5915H192.539C187.337 90.584 182.35 88.5141 178.671 84.8356C174.993 81.1571 172.923 76.17 172.916 70.9677V46.0486C172.923 40.8463 174.993 35.8592 178.671 32.1806C182.35 28.5021 187.337 26.4323 192.539 26.4248H201.674C206.876 26.4323 211.862 28.5021 215.541 32.1806C219.22 35.8592 221.29 40.8463 221.297 46.0486V70.9677C221.29 76.17 219.22 81.1571 215.541 84.8356C211.862 88.5141 206.876 90.584 201.674 90.5915ZM192.539 30.7093C188.472 30.7138 184.572 32.3313 181.696 35.2068C178.819 38.0823 177.2 41.9812 177.194 46.0486V70.9677C177.198 75.0363 178.817 78.937 181.693 81.8142C184.57 84.6912 188.471 86.3097 192.539 86.3147H201.674C205.742 86.3097 209.643 84.6912 212.52 81.8142C215.398 78.9371 217.016 75.0365 217.021 70.9677V46.0486C217.016 41.9799 215.398 38.0795 212.52 35.2026C209.643 32.3258 205.742 30.7076 201.674 30.7031L192.539 30.7093Z" stroke="white" stroke-width="1.56527" stroke-miterlimit="10"/>
<path d="M133.766 144.141H128.485L124.406 140.309C122.924 138.917 120.972 138.132 118.938 138.112C116.904 138.09 114.937 138.834 113.426 140.196C111.41 142.012 110.194 144.55 110.042 147.259C109.891 149.967 110.816 152.626 112.616 154.655L126.177 159.712L206.628 157.982C206.628 154.311 205.17 150.791 202.574 148.195C199.979 145.6 196.458 144.141 192.787 144.141H167.231" stroke="white" stroke-width="1.56527" stroke-linecap="round" stroke-linejoin="round"/>
<path d="M118.99 151.067C120.983 151.067 122.598 149.452 122.598 147.458C122.598 145.466 120.983 143.85 118.99 143.85C116.997 143.85 115.381 145.466 115.381 147.458C115.381 149.452 116.997 151.067 118.99 151.067Z" fill="#6153BD"/>
<path d="M130.701 40.9559C130.719 36.8883 131.588 32.8694 133.25 29.1567C131.971 29.075 130.689 29.2572 129.483 29.692C128.277 30.1269 127.174 30.8051 126.242 31.6845C124.351 33.9755 123.258 36.8206 123.131 39.7885C123.003 42.7563 123.847 45.6848 125.535 48.1295C125.557 46.5485 126.064 45.0123 126.988 43.7291C127.912 42.4461 129.208 41.478 130.701 40.9559Z" fill="#6153BD"/>
<path d="M130.701 40.9559C130.719 36.8883 131.588 32.8694 133.25 29.1567C131.971 29.075 130.689 29.2572 129.483 29.692C128.277 30.1269 127.174 30.8051 126.242 31.6845C124.351 33.9755 123.258 36.8206 123.131 39.7885C123.003 42.7563 123.847 45.6848 125.535 48.1295C125.557 46.5485 126.064 45.0123 126.988 43.7291C127.912 42.4461 129.208 41.478 130.701 40.9559Z" stroke="white" stroke-width="1.56527" stroke-linecap="round" stroke-linejoin="round"/>
<path d="M134.247 40.6011C134.305 36.6807 135.158 32.8128 136.754 29.2317C135.94 29.3392 134.73 29.1725 133.25 29.1694C131.588 32.8819 130.719 36.9009 130.701 40.9686C131.838 40.5712 133.052 40.4453 134.247 40.6011Z" stroke="white" stroke-width="1.56527" stroke-linecap="round" stroke-linejoin="round"/>
<path d="M145.946 25.8749C140.125 26.9402 138.692 28.9602 136.757 29.2203C135.161 32.8013 134.308 36.6692 134.25 40.5896C135.313 40.7304 136.335 41.0914 137.251 41.6495C138.167 42.2075 138.956 42.9504 139.569 43.8307C140.539 42.4407 141.246 40.8845 141.654 39.2393C141.654 39.2393 144.602 39.3125 148.183 39.0104C149.515 38.9159 150.799 38.4712 151.904 37.7213C153.009 36.9714 153.897 35.9428 154.476 34.7399C156.612 30.1096 153.202 24.5449 145.946 25.8749Z" fill="#6153BD"/>
<path d="M145.946 25.8749C140.125 26.9402 138.692 28.9602 136.757 29.2203C135.161 32.8013 134.308 36.6692 134.25 40.5896C135.313 40.7304 136.335 41.0914 137.251 41.6495C138.167 42.2075 138.956 42.9504 139.569 43.8307C140.539 42.4407 141.246 40.8845 141.654 39.2393C141.654 39.2393 144.602 39.3125 148.183 39.0104C149.515 38.9159 150.799 38.4712 151.904 37.7213C153.009 36.9714 153.897 35.9428 154.476 34.7399C156.612 30.1096 153.202 24.5449 145.946 25.8749Z" stroke="white" stroke-width="1.56527" stroke-linecap="round" stroke-linejoin="round"/>
<path d="M214.781 110.444C214.976 110.466 215.174 110.424 215.344 110.325C215.515 110.226 215.649 110.077 215.727 109.896C215.806 109.716 215.825 109.515 215.781 109.323C215.739 109.132 215.635 108.959 215.487 108.829C212.662 106.295 209.444 104.236 205.96 102.732C205.96 102.732 201.979 94.5196 186.061 96.2888C182.629 97.879 179.351 99.7806 176.269 101.973C173.493 104.015 170.533 105.792 167.426 107.281C167.426 107.281 156.232 84.3292 140.949 69.926L142.479 63.0608C149.739 64.2413 150.538 59.7637 150.432 52.4265C150.358 47.8864 149.8 43.3674 148.769 38.9453C146.406 39.1831 144.031 39.2834 141.656 39.2459C141.247 40.8909 140.541 42.4471 139.571 43.8372C140.481 45.16 140.957 46.7336 140.931 48.3392C140.905 49.9449 140.379 51.5025 139.427 52.7952C138.474 54.0879 137.142 55.0513 135.616 55.5514C134.09 56.0513 132.446 56.0632 130.913 55.585C129.075 59.4575 126.418 62.8848 123.126 65.6305C109.399 76.1246 108.526 93.7081 112.342 109.298C115.109 120.23 120.482 130.33 128.001 138.734C131.405 142.409 135.287 145.612 139.541 148.258C141.341 149.399 143.358 150.156 145.464 150.483C147.571 150.809 149.722 150.697 151.783 150.153C159.828 148.102 167.427 144.588 174.202 139.79C180.415 135.329 184.35 130.757 195.214 119.867C195.214 119.867 199.574 118.266 202.534 120.034C203.924 120.959 205.434 121.691 207.019 122.214C207.226 122.267 207.446 122.251 207.644 122.169C207.841 122.086 208.008 121.941 208.116 121.756C208.225 121.572 208.271 121.357 208.248 121.144C208.223 120.931 208.131 120.731 207.985 120.576C206.318 118.827 203.387 115.958 201.777 115.61C199.441 115.104 196.386 114.556 196.386 114.556C196.386 114.556 202.323 115.272 203.208 115.272C204.069 115.272 209.449 119.7 211.984 119.478C212.205 119.459 212.416 119.376 212.59 119.239C212.764 119.104 212.897 118.918 212.969 118.71C213.042 118.501 213.051 118.274 212.998 118.059C212.944 117.844 212.83 117.649 212.668 117.498C210.545 115.514 205.982 111.396 204.387 111.141C202.281 110.804 197.097 109.92 197.097 109.92C198.526 109.979 199.955 110.044 201.383 110.117C203.462 110.223 205.803 109.736 207.656 110.907C209.509 112.078 211.481 114.355 213.778 114.509C214.017 114.514 214.25 114.447 214.45 114.316C214.649 114.187 214.805 114 214.897 113.779C214.987 113.559 215.01 113.318 214.962 113.084C214.914 112.851 214.797 112.637 214.626 112.472C212.637 110.549 208.159 106.328 206.831 106.004C206.259 105.895 205.68 105.833 205.097 105.819C206.943 105.819 207.287 105.735 207.877 106.166C208.904 106.914 213.534 110.284 214.781 110.444Z" stroke="white" stroke-width="1.56527" stroke-linecap="round" stroke-linejoin="round"/>
<path d="M205.961 102.732C205.961 102.732 191.944 101.847 189.156 102.732C185.774 104.104 182.719 106.169 180.186 108.797C174.2 115.16 154.489 129.757 151.374 127.622C147.052 124.662 142.761 117.592 140.715 112.826C138.021 105.867 136.131 98.6236 135.081 91.2354" stroke="white" stroke-width="1.56527" stroke-linecap="round" stroke-linejoin="round"/>
<path d="M126.237 62.9346C126.237 62.9346 130.87 72.952 140.944 69.9259" stroke="white" stroke-width="1.56527" stroke-linecap="round" stroke-linejoin="round"/>
<path d="M114.978 117.57C114.978 117.57 132.601 112.967 138.768 107.534" stroke="white" stroke-width="1.56527" stroke-linecap="round" stroke-linejoin="round"/>
<path d="M118.99 125.995C118.99 125.995 136.548 121.179 142.04 115.586" stroke="white" stroke-width="1.56527" stroke-linecap="round" stroke-linejoin="round"/>
<path d="M167.426 107.281C168.996 110.236 170.315 113.318 171.369 116.494" stroke="white" stroke-width="1.56527" stroke-linecap="round" stroke-linejoin="round"/>
<path d="M133.994 55.9047C138.229 55.4869 141.324 51.7148 140.906 47.4793C140.489 43.2438 136.717 40.1489 132.481 40.5666C128.245 40.9844 125.151 44.7566 125.568 48.992C125.986 53.2275 129.758 56.3225 133.994 55.9047Z" stroke="white" stroke-width="1.56527" stroke-linecap="round" stroke-linejoin="round"/>
<path d="M133.238 55.9434C133.238 55.9434 134.45 86.055 147.59 96.2889C160.73 106.523 170.52 114.006 170.52 114.006" stroke="white" stroke-width="1.56527" stroke-linecap="round" stroke-linejoin="round"/>
<path d="M142.473 63.0611L138.587 61.4507L141.095 69.2488L142.473 63.0611Z" fill="#6153BD"/>
<path d="M142.473 63.0611L138.587 61.4507L141.095 69.2488L142.473 63.0611Z" stroke="white" stroke-width="1.56527" stroke-linecap="round" stroke-linejoin="round"/>
</g>
</g>
<defs>
<linearGradient id="paint0_linear_766_5874" x1="405.874" y1="28.7801" x2="-339.102" y2="175.828" gradientUnits="userSpaceOnUse">
<stop stop-color="#1E1244"/>
<stop offset="1" stop-color="#4B2DAA"/>
</linearGradient>
<clipPath id="clip0_766_5874">
<rect width="415" height="242" fill="white" transform="translate(0 -0.00878906)"/>
</clipPath>
<clipPath id="clip1_766_5874">
<rect width="283" height="229.771" fill="white" transform="translate(66 12)"/>
</clipPath>
</defs>
</svg>
