<svg width="57" height="57" viewBox="0 0 57 57" fill="none" xmlns="http://www.w3.org/2000/svg">
<rect x="0.765503" y="0.623901" width="55.6814" height="55.7578" rx="6.21696" stroke="url(#paint0_linear_70_996)"/>
<path d="M19.4561 23.9334H19.5457C20.1301 23.9536 20.7126 23.8559 21.2584 23.6462C21.8043 23.4365 22.3023 23.1191 22.7228 22.7128C23.1434 22.3066 23.4778 21.8198 23.7062 21.2815C23.9347 20.7433 24.0524 20.1645 24.0524 19.5798C24.0524 18.9951 23.9347 18.4163 23.7062 17.8781C23.4778 17.3398 23.1434 16.853 22.7228 16.4468C22.3023 16.0405 21.8043 15.7231 21.2584 15.5134C20.7126 15.3037 20.1301 15.206 19.5457 15.2262H19.4158C18.2827 15.265 17.2093 15.7436 16.4234 16.5607C15.6374 17.3778 15.2007 18.4689 15.206 19.6026C15.2112 20.7363 15.658 21.8234 16.4515 22.6331C17.2449 23.4429 18.3227 23.9116 19.4561 23.9399V23.9334ZM17.2754 17.3056C17.8442 16.733 18.6093 16.3981 19.4158 16.3686H19.5457C20.3981 16.3686 21.2156 16.7072 21.8183 17.3099C22.421 17.9126 22.7596 18.73 22.7596 19.5824C22.7596 20.4348 22.421 21.2522 21.8183 21.8549C21.2156 22.4577 20.3981 22.7963 19.5457 22.7963H19.4158C18.7923 22.7709 18.1898 22.5644 17.6818 22.2021C17.1738 21.8398 16.7823 21.3373 16.5553 20.7562C16.3282 20.175 16.2754 19.5402 16.4033 18.9295C16.5312 18.3188 16.8342 17.7585 17.2754 17.3172V17.3056Z" fill="url(#paint1_linear_70_996)"/>
<path d="M11.1909 11.3509C11.0261 11.5683 10.8763 11.7967 10.7426 12.0345C9.23768 14.7233 9.93165 18.6727 12.6919 23.1549C14.9116 26.7535 18.3971 30.6002 22.5089 33.9895L22.5817 34.0493L22.5466 34.1363C22.0385 35.4325 21.8491 36.8317 21.9944 38.2162C22.1397 39.6008 22.6154 40.9302 23.3814 42.0926C24.1475 43.255 25.1816 44.2164 26.3966 44.896C27.6116 45.5755 28.9721 45.9533 30.3636 45.9976C30.4685 46.0007 30.5722 45.9748 30.6634 45.9229C30.7546 45.871 30.8297 45.7949 30.8806 45.7031C30.9315 45.6113 30.9561 45.5073 30.9518 45.4025C30.9474 45.2976 30.9144 45.1959 30.8561 45.1087C30.2913 44.2589 30.0379 43.2399 30.1391 42.2246C30.2402 41.2093 30.6896 40.2603 31.411 39.5387L31.9906 38.9591L32.1674 39.1358H32.1739L32.2674 39.2398C32.4824 39.4541 32.7376 39.6237 33.0184 39.7388C33.2993 39.8539 33.6001 39.9122 33.9036 39.9104H34.0232C34.5939 39.8838 35.1344 39.6462 35.5398 39.2437L35.7087 39.0747L36.6366 40.0026C37.0757 40.4283 37.6632 40.6663 38.2747 40.6663C38.8862 40.6663 39.4738 40.4283 39.9128 40.0026L39.9375 39.9766C40.3725 39.5435 40.6206 38.9572 40.6286 38.3434C40.6366 37.7296 40.4039 37.137 39.9804 36.6926C39.9683 36.6775 39.9553 36.6632 39.9414 36.6497L39.0317 35.74L39.1864 35.5828C39.6162 35.1539 39.8612 34.5739 39.8689 33.9668C39.8767 33.3596 39.6467 32.7736 39.228 32.3338L39.1903 32.2922L38.9213 32.0232L39.4996 31.4449C40.2211 30.7239 41.1698 30.2746 42.1849 30.1735C43.1999 30.0724 44.2187 30.3255 45.0683 30.89C45.1556 30.9483 45.2572 30.9813 45.3621 30.9857C45.4669 30.99 45.5709 30.9654 45.6627 30.9145C45.7545 30.8636 45.8306 30.7885 45.8825 30.6973C45.9344 30.6061 45.9603 30.5024 45.9572 30.3975C45.9117 29.0071 45.5333 27.648 44.8537 26.4341C44.1742 25.2203 43.2132 24.1873 42.0517 23.4218C40.8901 22.6564 39.5618 22.1808 38.1784 22.0351C36.7949 21.8894 35.3967 22.0778 34.1011 22.5844L34.0141 22.6195L33.9543 22.5467C30.565 18.4349 26.717 14.9494 23.1197 12.7297C18.6375 9.96555 14.6881 9.27158 11.998 10.7804C11.7602 10.9146 11.5318 11.0648 11.3144 11.23L11.2728 11.2638L11.265 11.256L11.1727 11.178L11.2624 11.2729L11.1597 11.191L11.2481 11.2859C11.2277 11.3064 11.2086 11.3281 11.1909 11.3509ZM30.0348 39.3996C29.459 40.1962 29.1047 41.1311 29.0081 42.1092C28.9281 42.932 29.0306 43.7622 29.3083 44.5407L29.3863 44.7565L29.1615 44.7123C27.6754 44.4119 26.314 43.6715 25.2542 42.5874C24.1944 41.5032 23.4851 40.1254 23.2185 38.6329C23.0042 37.4137 23.0908 36.1606 23.4706 34.9824L23.5278 34.8056L23.828 35.0395L24.188 35.3164C26.0409 36.7356 27.9806 38.0377 29.9958 39.2151L30.1257 39.2866L30.0348 39.3996ZM30.9159 38.4197L30.8301 38.3704C29.1945 37.4295 27.609 36.4041 26.0802 35.2982L25.9502 35.2085L28.9028 32.2572L32.99 36.3443L30.9159 38.4197ZM34.7457 38.4197C34.5571 38.6096 34.3088 38.7284 34.0427 38.7563H33.9127C33.7575 38.7572 33.6037 38.7272 33.4603 38.6681C33.3168 38.609 33.1866 38.5219 33.0771 38.412L32.9796 38.3158L32.8068 38.1429L33.7996 37.1501L34.903 38.2521L34.7457 38.4197ZM39.1383 37.4633L39.1604 37.4841L39.1708 37.4944C39.3809 37.7244 39.4948 38.0262 39.489 38.3376C39.4832 38.649 39.3581 38.9463 39.1396 39.1683L39.0564 39.2515C38.8246 39.44 38.5313 39.5362 38.2329 39.5215C37.9345 39.5069 37.652 39.3825 37.4398 39.1722L27.8229 29.5553C27.5968 29.3294 27.4697 29.0229 27.4696 28.7033C27.4695 28.3836 27.5963 28.0771 27.8222 27.851C28.0482 27.6248 28.3547 27.4978 28.6743 27.4976C28.9939 27.4975 29.3005 27.6244 29.5266 27.8503L39.1383 37.4633ZM36.3104 33.0187L32.2207 28.9277L35.1668 25.9763L35.2565 26.1063C36.3653 27.6372 37.3929 29.2253 38.3352 30.864L38.3845 30.9498L36.3104 33.0187ZM38.404 33.1253L38.4144 33.1344C38.6201 33.3597 38.7316 33.6553 38.7261 33.9604C38.7205 34.2654 38.5983 34.5567 38.3845 34.7744L38.2923 34.8667L38.2247 34.933L37.1227 33.8309L38.1155 32.8368L38.3897 33.111L38.404 33.1253ZM34.9511 23.4941C36.1292 23.1142 37.3824 23.0277 38.6016 23.242C39.8279 23.4622 40.981 23.9812 41.9589 24.7533C42.9368 25.5254 43.7093 26.5266 44.2079 27.6684C44.4181 28.156 44.5767 28.6643 44.681 29.185L44.7252 29.4098L44.5094 29.3318C43.7304 29.0542 42.8998 28.9517 42.0766 29.0316C41.099 29.1283 40.1644 29.4826 39.3683 30.0583L39.2514 30.1428L39.1799 30.0128C38.0025 27.9976 36.7004 26.0579 35.2812 24.205L35.0044 23.845L34.9225 23.741L34.7691 23.5435L34.9511 23.4941ZM11.7485 12.5933C11.8411 12.4261 11.9444 12.2651 12.0578 12.1111L12.0863 12.0825C12.2409 11.9701 12.4019 11.8669 12.5685 11.7733C14.9077 10.4594 18.3594 11.1235 22.5297 13.6992C26.1802 15.9514 30.0673 19.5278 33.489 23.7722L33.619 23.9256C33.749 24.0945 33.8971 24.2752 34.0479 24.4701L34.118 24.5585L34.3884 24.9094L34.4949 25.0497L31.4292 28.1206L30.335 27.0264C29.8918 26.595 29.2966 26.3555 28.6782 26.3598C28.0598 26.364 27.4679 26.6116 27.0307 27.049C26.5935 27.4864 26.3461 28.0783 26.3421 28.6968C26.3381 29.3152 26.5778 29.9103 27.0094 30.3533L28.1049 31.4488L25.0392 34.5197L24.8742 34.4106L24.522 34.1402L24.4258 34.0662C24.2491 33.9362 24.0827 33.7985 23.9281 33.6763L23.7721 33.5463C19.5108 30.122 15.9201 26.2193 13.6614 22.5571C11.0987 18.3842 10.4281 14.939 11.7485 12.5933Z" fill="url(#paint2_linear_70_996)"/>
<defs>
<linearGradient id="paint0_linear_70_996" x1="0.163675" y1="54.4255" x2="59.0968" y2="51.9823" gradientUnits="userSpaceOnUse">
<stop stop-color="#2B0AFF"/>
<stop offset="0.49" stop-color="#FF5B8A"/>
<stop offset="0.55" stop-color="#FF5B8A"/>
<stop offset="0.77" stop-color="#FBA64B"/>
<stop offset="1" stop-color="#F99B52"/>
</linearGradient>
<linearGradient id="paint1_linear_70_996" x1="15.19" y1="23.5627" x2="24.3874" y2="23.1752" gradientUnits="userSpaceOnUse">
<stop stop-color="#2B0AFF"/>
<stop offset="0.49" stop-color="#FF5B8A"/>
<stop offset="0.55" stop-color="#FF5B8A"/>
<stop offset="0.77" stop-color="#FBA64B"/>
<stop offset="1" stop-color="#F99B52"/>
</linearGradient>
<linearGradient id="paint2_linear_70_996" x1="9.90006" y1="44.44" x2="47.3224" y2="42.8867" gradientUnits="userSpaceOnUse">
<stop stop-color="#2B0AFF"/>
<stop offset="0.49" stop-color="#FF5B8A"/>
<stop offset="0.55" stop-color="#FF5B8A"/>
<stop offset="0.77" stop-color="#FBA64B"/>
<stop offset="1" stop-color="#F99B52"/>
</linearGradient>
</defs>
</svg>
