<svg width="415" height="242" viewBox="0 0 415 242" fill="none" xmlns="http://www.w3.org/2000/svg">
<g clip-path="url(#clip0_766_5718)">
<rect width="415" height="242" transform="translate(0 -0.00878906)" fill="url(#paint0_linear_766_5718)"/>
<path d="M257.592 80.1708C256.846 75.3254 252.746 70.3206 248.913 67.898C248.513 67.6323 248.115 67.3919 247.715 67.1528C239.036 73.1641 223.168 82.887 204.531 85.8424C203.094 86.0814 201.337 85.7347 200.245 86.7203C196.812 89.7819 196.12 100.485 187.627 100.724C186.454 103.707 185.39 106.581 184.245 109.031C185.634 107.086 195.779 108.93 198.355 109.51C200.883 110.069 211.785 113.04 211.321 115.368C213.238 111.239 212.493 107.061 211.242 102.694C226.443 99.7662 247.502 89.0102 257.592 80.1708Z" fill="white"/>
<path d="M124.638 125.085C121.934 127.684 118.52 129.423 114.828 130.082C111.136 130.74 107.331 130.289 103.895 128.786C100.459 127.282 97.5466 124.794 95.5251 121.635C93.5037 118.476 92.4644 114.788 92.5387 111.039C92.613 107.289 93.7975 103.646 95.9426 100.569C98.0876 97.4926 101.097 95.1214 104.589 93.7551C108.082 92.3889 111.901 92.0891 115.565 92.8935C119.228 93.698 122.57 95.5707 125.169 98.2747C126.896 100.069 128.252 102.186 129.16 104.506C130.069 106.825 130.511 109.3 130.461 111.79C130.412 114.28 129.872 116.736 128.873 119.017C127.874 121.299 126.434 123.361 124.638 125.085Z" fill="white"/>
<path d="M328.409 199.603C330.326 192.974 336.716 194.996 340.23 191.002C340.869 197.1 337.514 203.224 331.444 203.516L328.409 199.603Z" fill="#DFDFDF"/>
<path d="M183.926 212.728C181.503 214.14 176.978 211.212 172.027 205.62C172.113 207.549 172.661 209.43 173.623 211.105C176.978 217.388 176.819 232.883 180.546 231.795C181.585 231.475 182.809 226.203 183.901 220.161C184.466 217.242 185.213 214.361 186.138 211.534C185.675 211.771 184.39 212.419 183.926 212.728Z" fill="#6153BD"/>
<path d="M199.422 79.2144C199.911 80.6357 200.63 81.9667 201.552 83.1538C203.894 82.8085 206.497 82.0984 206.982 81.0247C207.066 80.843 207.139 80.6571 207.196 80.4655C206.584 82.4087 203.042 81.1044 199.422 79.2144Z" fill="#6153BD"/>
<path d="M202.563 64.9168C197.851 59.9652 182.49 63.8515 172.08 71.3866C161.618 78.9469 164.626 86.029 178.177 82.7815C177.379 83.0206 168.699 85.6292 163.028 92.1479C154.695 101.732 161.937 105.406 171.276 103.49C182.431 101.2 192.015 92.0417 195.263 85.7047C196.755 81.971 197.766 78.0633 198.274 74.0749C194.388 70.9071 196.757 68.0315 198.886 70.2151C200.031 71.3866 201.309 70.8274 199.899 66.9998C201.32 66.1176 203.027 65.8352 202.563 64.9168Z" fill="#6153BD"/>
<path d="M238.105 219.703C237.613 213.382 237.685 207.029 238.318 200.72C233.267 202.146 227.908 202.063 222.904 200.481C223.01 204.901 221.626 207.137 222.771 209.88C223.459 211.417 224.434 212.808 225.645 213.978C230.651 219.038 234.938 233.946 238.212 231.817C239.118 231.228 238.771 225.826 238.105 219.703Z" fill="#6153BD"/>
<path d="M188.027 108.181C187.787 109.416 187.411 110.622 186.908 111.775C182.569 109.618 183.581 108.207 188.027 108.181Z" fill="#6153BD"/>
<path d="M211.349 115.336C211.242 115.842 210.523 116.163 209.325 116.315C209.778 115.49 210.178 114.744 210.523 113.999C211.135 114.516 211.427 114.969 211.349 115.336Z" fill="#6153BD"/>
<path d="M223.276 156.181L220.48 164.194C220.374 161.08 220.267 158.018 220.213 155.01L223.276 156.181Z" fill="#6153BD"/>
<path d="M127.664 212.754C120.514 200.516 111.028 190.093 106.546 191.819C100.48 194.157 108.71 212.901 113.429 221.087C121.363 234.825 130.948 244.143 134.946 241.993C140.757 238.755 131.263 218.915 127.664 212.754Z" fill="#6153BD"/>
<path d="M176.819 183.922C168.939 170.29 159.381 161.079 155.44 163.372C151.474 165.66 154.668 178.547 162.522 192.177C170.376 205.807 179.96 214.993 183.9 212.727C187.867 210.439 184.673 197.552 176.819 183.922Z" fill="#6153BD"/>
<path d="M186.137 211.53C185.215 214.357 184.468 217.238 183.901 220.156C182.821 226.201 181.587 231.48 180.545 231.79C176.825 232.909 176.965 217.391 173.623 211.1C172.658 209.426 172.11 207.545 172.026 205.615" stroke="white" stroke-width="1.405" stroke-linecap="round" stroke-linejoin="round"/>
<path d="M243.802 146.252L239.836 148.647" stroke="white" stroke-width="1.405" stroke-linecap="round" stroke-linejoin="round"/>
<path d="M240.981 141.671L237.067 144.04" stroke="white" stroke-width="1.405" stroke-linecap="round" stroke-linejoin="round"/>
<path d="M220.348 160.494L178.071 186.158" stroke="white" stroke-width="1.405" stroke-linecap="round" stroke-linejoin="round"/>
<path d="M219.496 154.716L175.381 181.526" stroke="white" stroke-width="1.405" stroke-linecap="round" stroke-linejoin="round"/>
<path d="M257.034 80.6508C266.503 79.7747 276.023 81.653 284.449 86.0596C292.875 90.4663 299.848 97.2137 304.53 105.49C318.672 129.794 311.264 161.183 287.997 175.589C273.442 184.6 269.403 179.836 241.141 187.891" stroke="white" stroke-width="1.405" stroke-linecap="round" stroke-linejoin="round"/>
<path d="M184.205 212.52C197.133 205.778 208.688 199.884 220.587 195.023" stroke="white" stroke-width="1.405" stroke-linecap="round" stroke-linejoin="round"/>
<path d="M185.685 140.686C176.714 147.874 166.889 154.876 155.414 163.343" stroke="white" stroke-width="1.405" stroke-linecap="round" stroke-linejoin="round"/>
<path d="M224.234 98.8877C218.655 107.276 212.395 115.192 205.518 122.555" stroke="white" stroke-width="1.405" stroke-linecap="round" stroke-linejoin="round"/>
<path d="M247.69 67.1794C252.188 69.7083 256.768 74.9004 257.593 80.1708C247.502 89.0102 226.445 99.7662 211.243 102.694C212.494 107.061 213.239 111.241 211.323 115.368C211.787 113.043 201.043 110.11 198.356 109.51C195.734 108.924 185.624 107.104 184.247 109.031C185.392 106.581 186.457 103.706 187.628 100.724C196.121 100.485 196.799 89.7665 200.247 86.7203C201.333 85.7613 203.042 86.0828 204.533 85.8424C223.158 82.8129 239.038 73.1697 247.716 67.1528L247.69 67.1794Z" stroke="white" stroke-width="1.405" stroke-linecap="round" stroke-linejoin="round"/>
<path d="M185.77 113.771C193.392 113.65 200.899 115.643 207.456 119.53" stroke="white" stroke-width="1.405" stroke-linecap="round" stroke-linejoin="round"/>
<path d="M207.073 80.7482C206.205 82.2664 202.85 81.0027 199.422 79.2104C199.911 80.6319 200.63 81.963 201.553 83.1499" stroke="white" stroke-width="1.405" stroke-linecap="round" stroke-linejoin="round"/>
<path d="M203.546 85.9425C201.691 85.4868 202.188 84.5837 201.553 83.1536C206.558 82.414 207.424 81.4928 207.219 78.9848C206.918 75.3417 204.779 67.404 202.564 64.917" stroke="white" stroke-width="1.405" stroke-linecap="round" stroke-linejoin="round"/>
<path d="M211.243 102.695C209.699 102.989 208.208 103.201 206.823 103.336" stroke="white" stroke-width="1.405" stroke-linecap="round" stroke-linejoin="round"/>
<path d="M199.901 66.9938C201.312 70.827 200.041 71.3862 198.889 70.2091C196.759 68.0269 194.39 70.9081 198.277 74.0689C197.77 78.0586 196.759 81.9678 195.268 85.7029C192.021 92.0399 182.436 101.198 171.282 103.488C161.936 105.405 154.695 101.731 163.034 92.1461C168.704 85.6232 177.384 83.0146 178.182 82.7797C164.632 86.0272 161.626 78.9492 172.086 71.3848C182.498 63.8539 197.856 59.9634 202.569 64.915C203.019 65.8265 201.27 66.148 199.901 66.9938Z" stroke="white" stroke-width="1.405" stroke-linecap="round" stroke-linejoin="round"/>
<path d="M187.629 100.724C189.035 96.9199 190.847 93.2781 193.034 89.862C193.898 88.5688 194.638 87.1963 195.242 85.7632" stroke="white" stroke-width="1.405" stroke-linecap="round" stroke-linejoin="round"/>
<path d="M205.559 122.513C207.405 119.794 209.068 116.956 210.537 114.016" stroke="white" stroke-width="1.405" stroke-linecap="round" stroke-linejoin="round"/>
<path d="M263.398 65.8759C267.417 64.9169 270.726 66.7287 270.452 68.272C270.39 68.5816 270.264 68.8745 270.08 69.1315C269.897 69.3884 269.661 69.6034 269.388 69.7623" stroke="white" stroke-width="1.405" stroke-linecap="round" stroke-linejoin="round"/>
<path d="M263.024 63.4259C267.257 62.4138 271.464 64.5443 269.653 66.781" stroke="white" stroke-width="1.405" stroke-linecap="round" stroke-linejoin="round"/>
<path d="M257.141 78.2553C259.646 75.3959 262.86 73.2473 266.46 72.0259" stroke="white" stroke-width="1.405" stroke-linecap="round" stroke-linejoin="round"/>
<path d="M263.237 68.7504C267.151 67.9521 269.729 69.4955 269.574 71.0137C269.382 72.8772 265.66 75.6997 262.518 73.8893" stroke="white" stroke-width="1.405" stroke-linecap="round" stroke-linejoin="round"/>
<path d="M259.936 62.0148C259.989 61.9617 261.614 59.6998 260.895 58.9798C260.283 58.3675 251.443 65.6356 248.967 67.952" stroke="white" stroke-width="1.405" stroke-linecap="round" stroke-linejoin="round"/>
<path d="M265.02 63.1603C272.049 59.78 273.937 55.7021 272.609 56.45C268.177 58.6686 263.626 60.6418 258.977 62.3607C255.379 63.7296 251.998 65.6132 248.941 67.9526" stroke="white" stroke-width="1.405" stroke-linecap="round" stroke-linejoin="round"/>
<path d="M238.318 200.72C237.69 207.029 237.619 213.381 238.106 219.703C238.784 225.825 239.116 231.229 238.212 231.816C234.935 233.943 230.642 219.047 225.645 213.978C224.432 212.81 223.456 211.418 222.771 209.879C221.623 207.132 223.014 204.893 222.903 200.458" stroke="white" stroke-width="1.405" stroke-linecap="round" stroke-linejoin="round"/>
<path d="M176.82 183.922C184.683 197.547 187.871 210.443 183.9 212.72C179.964 214.988 170.376 205.799 162.523 192.17C154.669 178.541 151.477 165.663 155.44 163.369C159.404 161.075 168.949 170.285 176.82 183.922Z" stroke="white" stroke-width="1.405" stroke-linecap="round" stroke-linejoin="round"/>
<path d="M136.411 234.489C134.42 222.099 122.453 201.484 112.738 194.04C107.719 190.152 104.125 190.84 104.536 197.36C105.316 209.732 119.093 233.601 129.376 240.605C135.086 244.492 137.54 241.522 136.411 234.489Z" stroke="white" stroke-width="1.405" stroke-linecap="round" stroke-linejoin="round"/>
<path d="M135.21 241.853L143.115 237.28C143.875 236.683 144.393 235.829 144.569 234.878C144.746 233.928 144.57 232.945 144.074 232.115C147.219 236.852 153.391 231.961 150.915 227.855C153.212 231.769 160.434 229.242 157.465 223.303C158.137 224.176 159.096 224.783 160.173 225.017C161.249 225.25 162.374 225.096 163.347 224.581C166.563 222.529 165.37 218.538 163.375 212.041C159.644 200.884 153.724 190.582 145.964 181.74C144.099 179.518 141.963 177.538 139.607 175.846C135.881 173.535 131.69 175.267 133.132 181.554C131.946 179.579 130.555 178.287 128.205 178.918C127.612 179.083 127.065 179.383 126.607 179.795C126.149 180.207 125.793 180.719 125.566 181.291C125.339 181.864 125.247 182.481 125.299 183.095C125.351 183.708 125.544 184.302 125.864 184.828C125.864 184.828 123.105 181.342 119.979 183.817C119.204 184.423 118.681 185.295 118.514 186.264C118.346 187.234 118.546 188.231 119.074 189.061C118.695 188.392 118.125 187.851 117.437 187.508C116.749 187.165 115.974 187.036 115.212 187.136C114.706 187.202 114.218 187.368 113.777 187.624L106.337 191.905" stroke="white" stroke-width="1.405" stroke-linecap="round" stroke-linejoin="round"/>
<path d="M328.411 199.604C325.127 201.417 321.978 203.463 318.987 205.727C310.199 212.514 301.628 221.034 302.77 222.526C303.913 224.018 314.301 217.897 323.11 211.105C326.062 208.784 328.839 206.248 331.416 203.516" stroke="white" stroke-width="1.405" stroke-linecap="round" stroke-linejoin="round"/>
<path d="M328.41 199.604C330.327 192.975 336.717 194.997 340.232 191.003C340.871 197.101 337.515 203.225 331.445 203.517L328.41 199.604Z" stroke="white" stroke-width="1.405" stroke-linecap="round" stroke-linejoin="round"/>
<path d="M320.091 204.892L324.204 210.225" stroke="white" stroke-width="1.405" stroke-linecap="round" stroke-linejoin="round"/>
<path d="M334.667 72.0791L331.179 79.8924H337.568L334.054 87.7071" stroke="white" stroke-width="1.405" stroke-linecap="round" stroke-linejoin="round"/>
<path d="M188.027 108.18C187.788 109.416 187.412 110.621 186.909 111.774C182.569 109.617 183.581 108.207 188.027 108.18Z" stroke="white" stroke-width="1.405" stroke-linecap="round" stroke-linejoin="round"/>
<path d="M211.323 115.368C211.195 115.85 210.511 116.165 209.355 116.322" stroke="white" stroke-width="1.405" stroke-linecap="round" stroke-linejoin="round"/>
<path d="M188.027 108.18C187.591 111.205 186.056 113.962 183.715 115.926C173.252 124.233 173.09 135.867 180.733 144.574" stroke="white" stroke-width="1.405" stroke-linecap="round" stroke-linejoin="round"/>
<path d="M105.87 192.195L94.0744 198.883" stroke="white" stroke-width="1.405" stroke-linecap="round" stroke-linejoin="round"/>
<path d="M134.669 242.146L124.079 248.323" stroke="white" stroke-width="1.405" stroke-linecap="round" stroke-linejoin="round"/>
<path d="M88.5905 202.319L80.5773 206.872" stroke="white" stroke-width="1.405" stroke-linecap="round" stroke-linejoin="round"/>
<path d="M113.456 221.088L87.6582 236.343" stroke="white" stroke-width="1.405" stroke-linecap="round" stroke-linejoin="round"/>
<path d="M82.5206 239.564L74.6933 244.116" stroke="white" stroke-width="1.405" stroke-linecap="round" stroke-linejoin="round"/>
<path d="M124.638 125.086C121.934 127.685 118.52 129.424 114.828 130.083C111.136 130.741 107.332 130.29 103.896 128.787C100.46 127.283 97.5472 124.795 95.5257 121.636C93.5042 118.477 92.465 114.789 92.5392 111.04C92.6135 107.29 93.7981 103.647 95.9431 100.57C98.0881 97.4936 101.097 95.1223 104.59 93.7561C108.083 92.3899 111.902 92.09 115.565 92.8945C119.228 93.699 122.571 95.5717 125.169 98.2757C126.896 100.07 128.253 102.187 129.161 104.507C130.069 106.826 130.511 109.301 130.462 111.791C130.413 114.281 129.873 116.737 128.873 119.018C127.874 121.3 126.435 123.361 124.638 125.086Z" stroke="white" stroke-width="1.405" stroke-linecap="round" stroke-linejoin="round"/>
<path d="M130.442 112.54C136.326 115.336 139.809 117.992 139.308 119.67C138.412 122.699 125.17 121.533 109.703 117.06C94.236 112.586 82.4106 106.501 83.2927 103.467C83.796 101.735 88.2709 101.363 94.8959 102.189" stroke="white" stroke-width="1.405" stroke-linecap="round" stroke-linejoin="round"/>
<path d="M181.778 132.326C182.55 137.172 185.273 141.614 188.94 142.764C200.391 146.345 220.221 155.036 220.221 155.036C220.469 168.748 221.71 183.835 220.382 199.604C226.732 202.276 233.859 202.438 240.323 200.055C241.441 185.174 242.158 170.903 241.893 157.725C241.833 154.445 241.072 151.217 239.663 148.255C238.253 145.294 236.227 142.668 233.72 140.553C223.373 132 211.838 124.996 199.475 119.761" stroke="white" stroke-width="1.405" stroke-linecap="round" stroke-linejoin="round"/>
<path d="M220.215 155.037L223.276 156.182L220.482 164.195" stroke="white" stroke-width="1.405" stroke-linecap="round" stroke-linejoin="round"/>
<path d="M220.934 189.086C227.406 191.307 234.376 191.649 241.034 190.072" stroke="white" stroke-width="1.405" stroke-linecap="round" stroke-linejoin="round"/>
<path d="M215.077 8.63574V13.0827" stroke="white" stroke-width="1.405" stroke-linecap="round" stroke-linejoin="round"/>
<path d="M223.728 17.2881H219.281" stroke="white" stroke-width="1.405" stroke-linecap="round" stroke-linejoin="round"/>
<path d="M215.077 25.9411V21.4941" stroke="white" stroke-width="1.405" stroke-linecap="round" stroke-linejoin="round"/>
<path d="M206.425 17.2881H210.873" stroke="white" stroke-width="1.405" stroke-linecap="round" stroke-linejoin="round"/>
<path d="M219.281 17.2876C218.729 17.2893 218.181 17.1817 217.67 16.9709C217.159 16.7602 216.695 16.4505 216.304 16.0597C215.913 15.6689 215.604 15.2046 215.393 14.6937C215.182 14.1828 215.074 13.6352 215.076 13.0825C215.079 13.9146 214.834 14.7287 214.372 15.4209C213.91 16.1131 213.252 16.652 212.483 16.9689C211.972 17.1802 211.425 17.2885 210.872 17.2876C211.425 17.2863 211.973 17.3943 212.483 17.6053C212.994 17.8162 213.458 18.1261 213.849 18.517C214.239 18.9079 214.549 19.3721 214.76 19.8831C214.97 20.394 215.078 20.9415 215.076 21.4941C215.074 20.9414 215.182 20.3938 215.393 19.8827C215.604 19.3717 215.913 18.9074 216.304 18.5165C216.695 18.1256 217.159 17.8157 217.67 17.6049C218.181 17.394 218.728 17.2862 219.281 17.2876Z" stroke="white" stroke-width="1.405" stroke-linecap="round" stroke-linejoin="round"/>
<g clip-path="url(#clip1_766_5718)">
<path d="M243.172 130.755L262.578 134.002C262.776 134.035 263 133.9 263.062 133.71L269.235 115.027M236.384 127.081L269.148 107.309C270.377 106.567 271.989 106.966 272.73 108.194L286.66 131.278C288.143 133.736 287.346 136.959 284.889 138.442L256.592 155.518C254.135 157.001 250.911 156.204 249.428 153.746L235.498 130.663C234.757 129.434 235.155 127.822 236.384 127.081Z" stroke="white" stroke-width="1.69717" stroke-linecap="round" stroke-linejoin="round"/>
</g>
</g>
<defs>
<linearGradient id="paint0_linear_766_5718" x1="405.874" y1="28.7801" x2="-339.102" y2="175.828" gradientUnits="userSpaceOnUse">
<stop stop-color="#1E1244"/>
<stop offset="1" stop-color="#4B2DAA"/>
</linearGradient>
<clipPath id="clip0_766_5718">
<rect width="415" height="242" fill="white" transform="translate(0 -0.00878906)"/>
</clipPath>
<clipPath id="clip1_766_5718">
<rect width="52.1833" height="52.1833" fill="white" transform="translate(225.934 123.229) rotate(-31.1094)"/>
</clipPath>
</defs>
</svg>
