<svg width="224" height="31" viewBox="0 0 224 31" fill="none" xmlns="http://www.w3.org/2000/svg">
<g clip-path="url(#clip0_574_13785)">
<rect width="42" height="31" rx="4" fill="white"/>
<path fill-rule="evenodd" clip-rule="evenodd" d="M20.0314 19.9482V16.2491H21.9406C22.7229 16.2491 23.3832 15.987 23.9215 15.47L24.0507 15.3389C25.034 14.2685 24.9694 12.601 23.9215 11.6106C23.3976 11.0864 22.6799 10.8024 21.9406 10.8169H18.8759V19.9482H20.0314ZM20.0315 15.1277V11.9383H21.9697C22.3861 11.9383 22.7809 12.0985 23.0752 12.3898C23.6997 13.0015 23.7141 14.0209 23.1111 14.6544C22.8168 14.9675 22.4004 15.1423 21.9697 15.1277H20.0315ZM29.441 14.1886C28.9458 13.7299 28.2711 13.4969 27.417 13.4969C26.3189 13.4969 25.4935 13.9047 24.948 14.7129L25.9672 15.361C26.3404 14.8076 26.85 14.5309 27.4959 14.5309C27.9051 14.5309 28.2998 14.6838 28.6084 14.9605C28.9099 15.2227 29.0821 15.6013 29.0821 16.0018V16.2712C28.6371 16.0236 28.0773 15.8926 27.3883 15.8926C26.5844 15.8926 25.9385 16.0819 25.4576 16.4678C24.9767 16.8538 24.7327 17.3635 24.7327 18.0116C24.7183 18.6014 24.9695 19.1621 25.4145 19.5407C25.8667 19.9485 26.4409 20.1524 27.1155 20.1524C27.9122 20.1524 28.5438 19.7956 29.0247 19.082H29.075V19.9485H30.1803V16.0965C30.1803 15.2882 29.9362 14.6474 29.441 14.1886ZM26.3047 18.7982C26.0678 18.6234 25.9242 18.3394 25.9242 18.0336C25.9242 17.6913 26.0821 17.4074 26.3908 17.1816C26.7066 16.9559 27.1015 16.8394 27.5681 16.8394C28.2141 16.8321 28.7166 16.9777 29.0756 17.269C29.0756 17.7642 28.8817 18.1938 28.5013 18.5579C28.1567 18.9074 27.6901 19.104 27.202 19.104C26.8789 19.1113 26.5631 19.002 26.3047 18.7982ZM32.6636 22.6937L36.525 13.7008H35.269L33.4818 18.1863H33.4603L31.6301 13.7008H30.374L32.9076 19.548L31.4722 22.6937H32.6636Z" fill="#3C4043"/>
<path d="M16.042 15.4498C16.042 15.093 16.0133 14.7362 15.9559 14.3867H11.0824V16.4038H13.8744C13.7596 17.0518 13.3864 17.6344 12.8409 17.9985V19.3092H14.506C15.4822 18.3989 16.042 17.0518 16.042 15.4498Z" fill="#4285F4"/>
<path d="M11.0827 20.5759C12.4751 20.5759 13.6522 20.1098 14.5063 19.3088L12.8412 17.9981C12.3746 18.3185 11.7789 18.5006 11.0827 18.5006C9.73336 18.5006 8.59216 17.5758 8.18305 16.3379H6.46766V17.6923C7.3433 19.4617 9.13047 20.5759 11.0827 20.5759Z" fill="#34A853"/>
<path d="M8.18321 16.3373C7.96785 15.6893 7.96785 14.9829 8.18321 14.3276V12.9805H6.46754C5.72816 14.4587 5.72816 16.2063 6.46754 17.6845L8.18321 16.3373Z" fill="#FBBC04"/>
<path d="M11.0827 12.1654C11.822 12.1509 12.5325 12.4349 13.0637 12.9519L14.5422 11.4518C13.602 10.5635 12.3675 10.0756 11.0827 10.0902C9.13047 10.0902 7.3433 11.2115 6.46766 12.981L8.18305 14.3354C8.59216 13.0902 9.73336 12.1654 11.0827 12.1654Z" fill="#EA4335"/>
</g>
<g clip-path="url(#clip1_574_13785)">
<rect x="46" width="40" height="31" rx="4" fill="white"/>
<path fill-rule="evenodd" clip-rule="evenodd" d="M56.954 10.6183C56.5921 11.0494 56.0131 11.3895 55.4342 11.3409C55.3618 10.758 55.6452 10.1386 55.9769 9.756C56.3388 9.31271 56.9721 8.99695 57.4847 8.97266C57.545 9.5799 57.3098 10.175 56.954 10.6183ZM57.4786 11.4562C56.9686 11.4267 56.5031 11.6107 56.1272 11.7593C55.8853 11.855 55.6804 11.936 55.5246 11.936C55.3497 11.936 55.1364 11.8506 54.8969 11.7548C54.583 11.6293 54.2242 11.4858 53.848 11.4927C52.9856 11.5048 52.1834 11.9967 51.7432 12.78C50.8385 14.3467 51.508 16.6664 52.3825 17.9416C52.8107 18.5731 53.3233 19.2654 53.9988 19.2411C54.2959 19.2298 54.5097 19.1385 54.7309 19.044C54.9856 18.9352 55.2502 18.8221 55.6633 18.8221C56.0621 18.8221 56.3151 18.9322 56.558 19.0379C56.7889 19.1384 57.0107 19.2349 57.3399 19.229C58.0395 19.2168 58.4798 18.5974 58.908 17.9659C59.3701 17.2881 59.5731 16.6266 59.6039 16.5262L59.6075 16.5146C59.6068 16.5138 59.6011 16.5112 59.591 16.5066C59.4365 16.4354 58.2559 15.8911 58.2446 14.4317C58.2332 13.2068 59.181 12.5861 59.3302 12.4884L59.3303 12.4884C59.3393 12.4825 59.3455 12.4785 59.3482 12.4764C58.7451 11.5777 57.8043 11.4805 57.4786 11.4562ZM62.3215 19.1623V9.69535H65.8496C67.671 9.69535 68.9435 10.9584 68.9435 12.8044C68.9435 14.6505 67.6468 15.9257 65.8014 15.9257H63.781V19.1623H62.3215ZM63.7809 10.9339H65.4635C66.73 10.9339 67.4537 11.6141 67.4537 12.8103C67.4537 14.0066 66.73 14.6928 65.4575 14.6928H63.7809V10.9339ZM73.7623 18.0267C73.3763 18.7675 72.5259 19.2351 71.6092 19.2351C70.2523 19.2351 69.3054 18.4214 69.3054 17.1948C69.3054 15.9803 70.2221 15.2819 71.9168 15.1787L73.7382 15.0694V14.5472C73.7382 13.776 73.2376 13.357 72.345 13.357C71.6092 13.357 71.0725 13.7395 70.9639 14.3225H69.6492C69.6914 13.0959 70.8373 12.2032 72.3872 12.2032C74.0578 12.2032 75.1434 13.0837 75.1434 14.45V19.1622H73.7924V18.0267H73.7623ZM72.0012 18.1117C71.2232 18.1117 70.7286 17.7352 70.7286 17.1583C70.7286 16.5632 71.2051 16.217 72.1158 16.1624L73.7381 16.0592V16.5935C73.7381 17.4801 72.9902 18.1117 72.0012 18.1117ZM79.6243 19.5326C79.0393 21.1904 78.3699 21.7369 76.9466 21.7369C76.838 21.7369 76.4762 21.7248 76.3917 21.7005V20.5649C76.4822 20.5771 76.7054 20.5892 76.8199 20.5892C77.4653 20.5892 77.8271 20.316 78.0503 19.6055L78.1829 19.1865L75.7102 12.2943H77.2361L78.9549 17.887H78.9851L80.7039 12.2943H82.1875L79.6243 19.5326Z" fill="black"/>
</g>
<rect x="90" width="43" height="31" rx="4" fill="white"/>
<path fill-rule="evenodd" clip-rule="evenodd" d="M104.315 20.2829H101.685L99.7118 12.5354C99.6182 12.179 99.4194 11.864 99.1269 11.7155C98.3971 11.3423 97.5929 11.0453 96.7155 10.8955V10.5973H100.953C101.538 10.5973 101.977 11.0453 102.05 11.5657L103.074 17.1542L105.703 10.5973H108.261L104.315 20.2829ZM109.723 20.2829H107.239L109.284 10.5973H111.769L109.723 20.2829ZM114.983 13.2806C115.056 12.759 115.495 12.4607 116.007 12.4607C116.811 12.3858 117.687 12.5356 118.418 12.9075L118.857 10.8221C118.126 10.5238 117.322 10.374 116.592 10.374C114.18 10.374 112.426 11.7156 112.426 13.5776C112.426 14.9941 113.669 15.7379 114.546 16.1859C115.495 16.6327 115.861 16.931 115.788 17.3778C115.788 18.0479 115.056 18.3462 114.327 18.3462C113.449 18.3462 112.572 18.1228 111.769 17.7496L111.33 19.8363C112.208 20.2082 113.157 20.358 114.034 20.358C116.738 20.4316 118.418 19.0913 118.418 17.0795C118.418 14.5461 114.983 14.3976 114.983 13.2806ZM127.114 20.2829L125.141 10.5973H123.022C122.583 10.5973 122.144 10.8955 121.998 11.3423L118.345 20.2829H120.903L121.413 18.8677H124.556L124.848 20.2829H127.114ZM123.387 13.2058L124.117 16.8562H122.071L123.387 13.2058Z" fill="black"/>
<g clip-path="url(#clip2_574_13785)">
<rect x="137" width="41" height="31" rx="4" fill="white"/>
<path fill-rule="evenodd" clip-rule="evenodd" d="M162.572 23.9691C167.08 23.9691 170.735 20.358 170.735 15.9035C170.735 11.449 167.08 7.83789 162.572 7.83789C160.552 7.83789 158.703 8.56325 157.277 9.7648C155.852 8.56339 154.003 7.83813 151.983 7.83813C147.475 7.83813 143.82 11.4492 143.82 15.9038C143.82 20.3583 147.475 23.9694 151.983 23.9694C154.003 23.9694 155.852 23.244 157.278 22.0425C158.703 23.2439 160.552 23.9691 162.572 23.9691Z" fill="#ED0006"/>
<path fill-rule="evenodd" clip-rule="evenodd" d="M157.277 22.0424C159.033 20.563 160.145 18.3617 160.145 15.9035C160.145 13.4454 159.033 11.244 157.277 9.76465C158.703 8.56319 160.552 7.83789 162.572 7.83789C167.08 7.83789 170.735 11.449 170.735 15.9035C170.735 20.358 167.08 23.9691 162.572 23.9691C160.552 23.9691 158.703 23.2438 157.277 22.0424Z" fill="#F9A000"/>
<path fill-rule="evenodd" clip-rule="evenodd" d="M157.278 22.0423C159.033 20.5629 160.145 18.3616 160.145 15.9035C160.145 13.4453 159.033 11.244 157.278 9.76465C155.522 11.244 154.41 13.4453 154.41 15.9035C154.41 18.3616 155.522 20.5629 157.278 22.0423Z" fill="#FF5E00"/>
</g>
<rect x="182" width="42" height="31" rx="4" fill="white"/>
<path d="M219.644 17.9159H218.629C218.419 17.9159 218.243 17.7768 218.243 17.6029C218.243 17.3942 218.419 17.2899 218.629 17.2899H220.484L220.905 16.3516H218.629C217.684 16.3516 217.158 16.9073 217.158 17.6377C217.158 18.3681 217.684 18.8542 218.489 18.8542H219.504C219.714 18.8542 219.889 18.9933 219.889 19.1672C219.889 19.3411 219.749 19.4803 219.504 19.4803H217.263V20.4186H219.504C220.449 20.4186 220.975 19.8628 220.975 19.0977C220.975 18.3325 220.484 17.9159 219.644 17.9159ZM215.548 17.9159H214.533C214.322 17.9159 214.147 17.7768 214.147 17.6029C214.147 17.3942 214.322 17.2899 214.533 17.2899H216.388L216.808 16.3516H214.533C213.587 16.3516 213.063 16.9073 213.063 17.6377C213.063 18.3681 213.587 18.8542 214.393 18.8542H215.408C215.619 18.8542 215.794 18.9933 215.794 19.1672C215.794 19.3411 215.654 19.4803 215.408 19.4803H213.168V20.4186H215.408C216.354 20.4186 216.878 19.8628 216.878 19.0977C216.913 18.3333 216.424 17.9159 215.548 17.9159ZM209.071 20.4526H212.573V19.5143H210.192V18.8542H212.538V17.9159H210.192V17.2559H212.573V16.3175H209.071V20.4533V20.4526ZM206.901 18.0898H205.745V17.2559H206.901C207.216 17.2559 207.391 17.4645 207.391 17.6732C207.391 17.9167 207.216 18.0905 206.901 18.0905M208.511 17.6384C208.511 16.8392 207.95 16.3175 207.04 16.3175H204.624V20.4533H205.745V19.0289H206.165L207.426 20.4533H208.756L207.39 18.9593C208.09 18.7854 208.511 18.2992 208.511 17.6384ZM202.524 18.1601H201.334V17.2566H202.524C202.84 17.2566 203.015 17.4653 203.015 17.7087C203.015 17.9522 202.875 18.1608 202.524 18.1608M202.664 16.319H200.248V20.4548H201.369V19.0991H202.664C203.61 19.0991 204.17 18.5086 204.17 17.7087C204.135 16.8747 203.575 16.3183 202.664 16.3183M200.039 16.3183H198.604L197.554 17.5696L196.468 16.3183H194.997L196.853 18.3688L194.962 20.4541H196.397L197.518 19.1332L198.638 20.4541H200.108L198.218 18.334L200.038 16.3183H200.039ZM191.322 20.4541H194.822V19.5158H192.406V18.8557H194.752V17.9174H192.406V17.2573H194.822V16.319H191.322V20.4548V20.4541ZM219.224 13.5367L217.508 11.0348H216.108V15.1358H217.228V12.5288L218.978 15.1351H220.309V11.0348H219.224V13.5374V13.5367ZM212.782 13.3976L213.376 12.0071L213.971 13.3976H212.781H212.782ZM212.641 11.0341L210.821 15.1698H212.047L212.397 14.3359H214.322L214.673 15.1698H215.933L214.078 11.0348H212.642L212.641 11.0341ZM209.001 13.1193V13.0498C209.001 12.4245 209.351 12.0071 210.051 12.0071H211.276V11H209.946C208.58 11 207.88 11.8687 207.88 13.0157V13.0853C207.88 14.3714 208.685 15.101 209.911 15.101H210.296L210.751 14.1627H210.086C209.421 14.1975 209.001 13.8149 209.001 13.1201M206.2 15.1358H207.32V11.0348H206.2V15.1358ZM204.029 12.7723H202.874V11.9383H204.029C204.345 11.9383 204.52 12.147 204.52 12.3557C204.52 12.5991 204.345 12.773 204.029 12.773M205.639 12.3557C205.639 11.5565 205.079 11.0348 204.169 11.0348H201.753V15.1706H202.874V13.7113H203.294L204.555 15.1365H205.92L204.521 13.6425C205.22 13.5034 205.641 12.9824 205.641 12.3564M197.519 15.1365H201.019V14.1982H198.638V13.5381H200.949V12.5998H198.638V11.9398H201.019V11.0348H197.519V15.1358V15.1365ZM193.983 13.607L193.037 11.0348H191.322V15.1358H192.407V12.1818L193.492 15.1358H194.473L195.558 12.1818V15.1358H196.678V11.0348H194.928L193.983 13.6062V13.607ZM187.961 13.3983L188.556 12.0079L189.151 13.3983H187.961H187.961ZM187.82 11.0348L186 15.1358H187.226L187.576 14.3018H189.501L189.852 15.1358H191.112L189.256 11.0348H187.82Z" fill="#006FCF"/>
<defs>
<clipPath id="clip0_574_13785">
<rect width="42" height="31" rx="4" fill="white"/>
</clipPath>
<clipPath id="clip1_574_13785">
<rect x="46" width="40" height="31" rx="4" fill="white"/>
</clipPath>
<clipPath id="clip2_574_13785">
<rect x="137" width="41" height="31" rx="4" fill="white"/>
</clipPath>
</defs>
</svg>
