<svg width="470" height="470" viewBox="0 0 470 470" fill="none" xmlns="http://www.w3.org/2000/svg">
<path d="M255.248 10.8837C255.248 10.8837 174.201 -3.42306 113.599 52.7137C52.9973 108.851 39.7997 201.469 27.1191 276.03C14.4385 350.59 51.4369 417.641 115.291 439.919C179.145 462.197 203.942 408.419 280.731 392.496C357.52 376.572 381.546 384.459 433.509 327.607C485.472 270.756 468.035 161.143 395.834 90.4735C323.633 19.8043 255.248 10.8837 255.248 10.8837Z" fill="url(#paint0_linear_507_802)" fill-opacity="0.4"/>
<path d="M237.557 300.564C304.153 300.564 358.14 246.577 358.14 179.981C358.14 113.384 304.153 59.3975 237.557 59.3975C170.961 59.3975 116.974 113.384 116.974 179.981C116.974 246.577 170.961 300.564 237.557 300.564Z" fill="white"/>
<path d="M317.99 260.413C362.412 215.992 362.412 143.969 317.99 99.5475C273.568 55.1256 201.546 55.1256 157.124 99.5475C112.702 143.969 112.702 215.992 157.124 260.413C201.546 304.835 273.568 304.835 317.99 260.413Z" fill="#DBDBDB"/>
<path d="M134.965 179.539C131.205 179.05 130.792 178.646 130.265 174.839C129.776 178.599 129.382 179.012 125.565 179.539C129.325 180.028 129.739 180.422 130.265 184.239C130.792 180.404 131.186 180.009 134.965 179.539Z" fill="#E5E5E5"/>
<path d="M408.524 265.651C412.822 265.651 416.307 262.167 416.307 257.868C416.307 253.57 412.822 250.085 408.524 250.085C404.225 250.085 400.741 253.57 400.741 257.868C400.741 262.167 404.225 265.651 408.524 265.651Z" fill="white"/>
<path d="M133.884 78.3389C138.183 78.3389 141.667 74.8542 141.667 70.5557C141.667 66.2571 138.183 62.7725 133.884 62.7725C129.586 62.7725 126.101 66.2571 126.101 70.5557C126.101 74.8542 129.586 78.3389 133.884 78.3389Z" fill="white"/>
<path d="M351.598 298.731C355.029 298.731 357.811 295.95 357.811 292.518C357.811 289.087 355.029 286.305 351.598 286.305C348.166 286.305 345.384 289.087 345.384 292.518C345.384 295.95 348.166 298.731 351.598 298.731Z" fill="white"/>
<path d="M366.274 252.613C367.663 249.475 366.245 245.805 363.108 244.416C359.97 243.027 356.3 244.444 354.911 247.582C353.522 250.72 354.939 254.39 358.077 255.779C361.215 257.168 364.885 255.751 366.274 252.613Z" fill="white"/>
<path d="M103.372 266.518C106.803 266.518 109.585 263.736 109.585 260.304C109.585 256.873 106.803 254.091 103.372 254.091C99.94 254.091 97.1582 256.873 97.1582 260.304C97.1582 263.736 99.94 266.518 103.372 266.518Z" fill="white"/>
<path d="M165.591 346.662C169.022 346.662 171.804 343.88 171.804 340.449C171.804 337.017 169.022 334.235 165.591 334.235C162.159 334.235 159.377 337.017 159.377 340.449C159.377 343.88 162.159 346.662 165.591 346.662Z" fill="white"/>
<path d="M87.341 173.697C89.7675 171.271 89.7675 167.337 87.341 164.91C84.9145 162.484 80.9804 162.484 78.5539 164.91C76.1275 167.337 76.1275 171.271 78.5539 173.697C80.9804 176.124 84.9145 176.124 87.341 173.697Z" fill="white"/>
<path d="M39.3012 302.801C41.2325 302.801 42.798 301.236 42.798 299.304C42.798 297.373 41.2325 295.808 39.3012 295.808C37.37 295.808 35.8044 297.373 35.8044 299.304C35.8044 301.236 37.37 302.801 39.3012 302.801Z" fill="white"/>
<path d="M377.307 309.297C379.238 309.297 380.804 307.732 380.804 305.801C380.804 303.869 379.238 302.304 377.307 302.304C375.376 302.304 373.81 303.869 373.81 305.801C373.81 307.732 375.376 309.297 377.307 309.297Z" fill="white"/>
<path d="M336.67 94.7973C338.602 94.7973 340.167 93.2317 340.167 91.3005C340.167 89.3693 338.602 87.8037 336.67 87.8037C334.739 87.8037 333.174 89.3693 333.174 91.3005C333.174 93.2317 334.739 94.7973 336.67 94.7973Z" fill="white"/>
<path d="M403.307 168.86C405.238 168.86 406.803 167.294 406.803 165.363C406.803 163.432 405.238 161.866 403.307 161.866C401.375 161.866 399.81 163.432 399.81 165.363C399.81 167.294 401.375 168.86 403.307 168.86Z" fill="white"/>
<path d="M153.521 339.021C155.452 339.021 157.018 337.455 157.018 335.524C157.018 333.593 155.452 332.027 153.521 332.027C151.589 332.027 150.024 333.593 150.024 335.524C150.024 337.455 151.589 339.021 153.521 339.021Z" fill="white"/>
<path d="M309.26 410.78H160.74V458.72H309.26V410.78Z" fill="#949494" stroke="#8C8C8C" stroke-width="0.94" stroke-linecap="round" stroke-linejoin="round"/>
<path d="M223.871 59.2207H177.811V458.721H223.871V59.2207Z" fill="#A3A3A3" stroke="#8C8C8C" stroke-width="0.94" stroke-linecap="round" stroke-linejoin="round"/>
<path d="M212.591 59.2207H189.091V458.721H212.591V59.2207Z" fill="#2D2D2D" stroke="#8C8C8C" stroke-width="0.94" stroke-linecap="round" stroke-linejoin="round"/>
<path d="M223.871 59.2207H177.811V78.9607H223.871V59.2207Z" fill="#A3A3A3" stroke="#8C8C8C" stroke-width="0.94" stroke-linecap="round" stroke-linejoin="round"/>
<path d="M222.235 84.2725H217.093V90.0159H222.235V84.2725Z" fill="#949494" stroke="#8C8C8C" stroke-width="0.94" stroke-linecap="round" stroke-linejoin="round"/>
<path d="M222.235 96.7285H217.093V102.472H222.235V96.7285Z" fill="#949494" stroke="#8C8C8C" stroke-width="0.94" stroke-linecap="round" stroke-linejoin="round"/>
<path d="M222.235 109.182H217.093V114.925H222.235V109.182Z" fill="#949494" stroke="#8C8C8C" stroke-width="0.94" stroke-linecap="round" stroke-linejoin="round"/>
<path d="M222.235 121.638H217.093V127.381H222.235V121.638Z" fill="#949494" stroke="#8C8C8C" stroke-width="0.94" stroke-linecap="round" stroke-linejoin="round"/>
<path d="M222.235 134.091H217.093V139.834H222.235V134.091Z" fill="#949494" stroke="#8C8C8C" stroke-width="0.94" stroke-linecap="round" stroke-linejoin="round"/>
<path d="M222.235 146.537H217.093V152.281H222.235V146.537Z" fill="#949494" stroke="#8C8C8C" stroke-width="0.94" stroke-linecap="round" stroke-linejoin="round"/>
<path d="M222.235 158.992H217.093V164.736H222.235V158.992Z" fill="#949494" stroke="#8C8C8C" stroke-width="0.94" stroke-linecap="round" stroke-linejoin="round"/>
<path d="M222.235 171.448H217.093V177.192H222.235V171.448Z" fill="#949494" stroke="#8C8C8C" stroke-width="0.94" stroke-linecap="round" stroke-linejoin="round"/>
<path d="M222.235 183.902H217.093V189.646H222.235V183.902Z" fill="#949494" stroke="#8C8C8C" stroke-width="0.94" stroke-linecap="round" stroke-linejoin="round"/>
<path d="M222.235 196.348H217.093V202.091H222.235V196.348Z" fill="#949494" stroke="#8C8C8C" stroke-width="0.94" stroke-linecap="round" stroke-linejoin="round"/>
<path d="M222.235 208.803H217.093V214.546H222.235V208.803Z" fill="#949494" stroke="#8C8C8C" stroke-width="0.94" stroke-linecap="round" stroke-linejoin="round"/>
<path d="M222.235 221.258H217.093V227.001H222.235V221.258Z" fill="#949494" stroke="#8C8C8C" stroke-width="0.94" stroke-linecap="round" stroke-linejoin="round"/>
<path d="M222.235 233.712H217.093V239.455H222.235V233.712Z" fill="#949494" stroke="#8C8C8C" stroke-width="0.94" stroke-linecap="round" stroke-linejoin="round"/>
<path d="M222.235 246.168H217.093V251.911H222.235V246.168Z" fill="#949494" stroke="#8C8C8C" stroke-width="0.94" stroke-linecap="round" stroke-linejoin="round"/>
<path d="M222.235 258.613H217.093V264.357H222.235V258.613Z" fill="#949494" stroke="#8C8C8C" stroke-width="0.94" stroke-linecap="round" stroke-linejoin="round"/>
<path d="M222.235 271.068H217.093V276.812H222.235V271.068Z" fill="#949494" stroke="#8C8C8C" stroke-width="0.94" stroke-linecap="round" stroke-linejoin="round"/>
<path d="M222.235 283.523H217.093V289.267H222.235V283.523Z" fill="#949494" stroke="#8C8C8C" stroke-width="0.94" stroke-linecap="round" stroke-linejoin="round"/>
<path d="M222.235 295.979H217.093V301.723H222.235V295.979Z" fill="#949494" stroke="#8C8C8C" stroke-width="0.94" stroke-linecap="round" stroke-linejoin="round"/>
<path d="M222.235 308.425H217.093V314.168H222.235V308.425Z" fill="#949494" stroke="#8C8C8C" stroke-width="0.94" stroke-linecap="round" stroke-linejoin="round"/>
<path d="M222.235 320.881H217.093V326.624H222.235V320.881Z" fill="#949494" stroke="#8C8C8C" stroke-width="0.94" stroke-linecap="round" stroke-linejoin="round"/>
<path d="M222.235 333.334H217.093V339.077H222.235V333.334Z" fill="#949494" stroke="#8C8C8C" stroke-width="0.94" stroke-linecap="round" stroke-linejoin="round"/>
<path d="M222.235 345.789H217.093V351.532H222.235V345.789Z" fill="#949494" stroke="#8C8C8C" stroke-width="0.94" stroke-linecap="round" stroke-linejoin="round"/>
<path d="M222.235 358.234H217.093V363.978H222.235V358.234Z" fill="#949494" stroke="#8C8C8C" stroke-width="0.94" stroke-linecap="round" stroke-linejoin="round"/>
<path d="M222.235 370.688H217.093V376.432H222.235V370.688Z" fill="#949494" stroke="#8C8C8C" stroke-width="0.94" stroke-linecap="round" stroke-linejoin="round"/>
<path d="M222.235 383.145H217.093V388.888H222.235V383.145Z" fill="#949494" stroke="#8C8C8C" stroke-width="0.94" stroke-linecap="round" stroke-linejoin="round"/>
<path d="M222.235 395.601H217.093V401.344H222.235V395.601Z" fill="#949494" stroke="#8C8C8C" stroke-width="0.94" stroke-linecap="round" stroke-linejoin="round"/>
<path d="M222.235 408.054H217.093V413.797H222.235V408.054Z" fill="#949494" stroke="#8C8C8C" stroke-width="0.94" stroke-linecap="round" stroke-linejoin="round"/>
<path d="M222.235 420.5H217.093V426.243H222.235V420.5Z" fill="#949494" stroke="#8C8C8C" stroke-width="0.94" stroke-linecap="round" stroke-linejoin="round"/>
<path d="M222.235 432.955H217.093V438.698H222.235V432.955Z" fill="#949494" stroke="#8C8C8C" stroke-width="0.94" stroke-linecap="round" stroke-linejoin="round"/>
<path d="M223.542 445.411H213.004V451.155H223.542V445.411Z" fill="#949494" stroke="#8C8C8C" stroke-width="0.94" stroke-linecap="round" stroke-linejoin="round"/>
<path d="M212.497 133.659H107.903V146.283H212.497V133.659Z" fill="url(#paint1_linear_507_802)"/>
<path d="M212.497 131.891H107.903V144.515H212.497V131.891Z" fill="#949494" stroke="#8C8C8C" stroke-width="0.94" stroke-linecap="round" stroke-linejoin="round"/>
<path d="M212.497 121.975H107.903V144.516H212.497V121.975Z" stroke="#8C8C8C" stroke-width="0.94" stroke-linecap="round" stroke-linejoin="round"/>
<path d="M212.497 131.891H179.202V144.515H212.497V131.891Z" fill="#707070" stroke="#8C8C8C" stroke-width="0.94" stroke-linecap="round" stroke-linejoin="round"/>
<path d="M107.903 131.893L119.437 122.427" stroke="#8C8C8C" stroke-width="0.94" stroke-linecap="round" stroke-linejoin="round"/>
<path d="M119.437 131.893L107.903 122.427" stroke="#8C8C8C" stroke-width="0.94" stroke-linecap="round" stroke-linejoin="round"/>
<path d="M119.954 131.893L131.488 122.427" stroke="#8C8C8C" stroke-width="0.94" stroke-linecap="round" stroke-linejoin="round"/>
<path d="M131.488 131.893L119.954 122.427" stroke="#8C8C8C" stroke-width="0.94" stroke-linecap="round" stroke-linejoin="round"/>
<path d="M132.004 131.893L143.538 122.427" stroke="#8C8C8C" stroke-width="0.94" stroke-linecap="round" stroke-linejoin="round"/>
<path d="M143.538 131.893L132.004 122.427" stroke="#8C8C8C" stroke-width="0.94" stroke-linecap="round" stroke-linejoin="round"/>
<path d="M144.065 131.893L155.599 122.427" stroke="#8C8C8C" stroke-width="0.94" stroke-linecap="round" stroke-linejoin="round"/>
<path d="M155.599 131.893L144.065 122.427" stroke="#8C8C8C" stroke-width="0.94" stroke-linecap="round" stroke-linejoin="round"/>
<path d="M156.115 131.893L167.649 122.427" stroke="#8C8C8C" stroke-width="0.94" stroke-linecap="round" stroke-linejoin="round"/>
<path d="M167.649 131.893L156.115 122.427" stroke="#8C8C8C" stroke-width="0.94" stroke-linecap="round" stroke-linejoin="round"/>
<path d="M168.166 131.893L179.7 122.427" stroke="#8C8C8C" stroke-width="0.94" stroke-linecap="round" stroke-linejoin="round"/>
<path d="M179.7 131.893L168.166 122.427" stroke="#8C8C8C" stroke-width="0.94" stroke-linecap="round" stroke-linejoin="round"/>
<path d="M180.226 131.893L191.76 122.427" stroke="#8C8C8C" stroke-width="0.94" stroke-linecap="round" stroke-linejoin="round"/>
<path d="M191.76 131.893L180.226 122.427" stroke="#8C8C8C" stroke-width="0.94" stroke-linecap="round" stroke-linejoin="round"/>
<path d="M192.277 131.893L203.811 122.427" stroke="#8C8C8C" stroke-width="0.94" stroke-linecap="round" stroke-linejoin="round"/>
<path d="M203.811 131.893L192.277 122.427" stroke="#8C8C8C" stroke-width="0.94" stroke-linecap="round" stroke-linejoin="round"/>
<path d="M212.497 206.237H107.903V218.862H212.497V206.237Z" fill="url(#paint2_linear_507_802)"/>
<path d="M212.497 204.47H107.903V217.094H212.497V204.47Z" fill="#949494" stroke="#8C8C8C" stroke-width="0.94" stroke-linecap="round" stroke-linejoin="round"/>
<path d="M212.497 194.551H107.903V217.092H212.497V194.551Z" stroke="#8C8C8C" stroke-width="0.94" stroke-linecap="round" stroke-linejoin="round"/>
<path d="M212.497 204.47H179.202V217.094H212.497V204.47Z" fill="#707070" stroke="#8C8C8C" stroke-width="0.94" stroke-linecap="round" stroke-linejoin="round"/>
<path d="M107.903 204.471L119.437 195.005" stroke="#8C8C8C" stroke-width="0.94" stroke-linecap="round" stroke-linejoin="round"/>
<path d="M119.437 204.471L107.903 195.005" stroke="#8C8C8C" stroke-width="0.94" stroke-linecap="round" stroke-linejoin="round"/>
<path d="M119.954 204.471L131.488 195.005" stroke="#8C8C8C" stroke-width="0.94" stroke-linecap="round" stroke-linejoin="round"/>
<path d="M131.488 204.471L119.954 195.005" stroke="#8C8C8C" stroke-width="0.94" stroke-linecap="round" stroke-linejoin="round"/>
<path d="M132.004 204.471L143.538 195.005" stroke="#8C8C8C" stroke-width="0.94" stroke-linecap="round" stroke-linejoin="round"/>
<path d="M143.538 204.471L132.004 195.005" stroke="#8C8C8C" stroke-width="0.94" stroke-linecap="round" stroke-linejoin="round"/>
<path d="M144.065 204.471L155.599 195.005" stroke="#8C8C8C" stroke-width="0.94" stroke-linecap="round" stroke-linejoin="round"/>
<path d="M155.599 204.471L144.065 195.005" stroke="#8C8C8C" stroke-width="0.94" stroke-linecap="round" stroke-linejoin="round"/>
<path d="M156.115 204.471L167.649 195.005" stroke="#8C8C8C" stroke-width="0.94" stroke-linecap="round" stroke-linejoin="round"/>
<path d="M167.649 204.471L156.115 195.005" stroke="#8C8C8C" stroke-width="0.94" stroke-linecap="round" stroke-linejoin="round"/>
<path d="M168.166 204.471L179.7 195.005" stroke="#8C8C8C" stroke-width="0.94" stroke-linecap="round" stroke-linejoin="round"/>
<path d="M179.7 204.471L168.166 195.005" stroke="#8C8C8C" stroke-width="0.94" stroke-linecap="round" stroke-linejoin="round"/>
<path d="M180.226 204.471L191.76 195.005" stroke="#8C8C8C" stroke-width="0.94" stroke-linecap="round" stroke-linejoin="round"/>
<path d="M191.76 204.471L180.226 195.005" stroke="#8C8C8C" stroke-width="0.94" stroke-linecap="round" stroke-linejoin="round"/>
<path d="M192.277 204.471L203.811 195.005" stroke="#8C8C8C" stroke-width="0.94" stroke-linecap="round" stroke-linejoin="round"/>
<path d="M203.811 204.471L192.277 195.005" stroke="#8C8C8C" stroke-width="0.94" stroke-linecap="round" stroke-linejoin="round"/>
<path d="M247.953 458.722H294.013L294.013 59.2217H247.953L247.953 458.722Z" fill="#A3A3A3" stroke="#8C8C8C" stroke-width="0.94" stroke-linecap="round" stroke-linejoin="round"/>
<path d="M259.233 458.722H282.733L282.733 59.2217H259.233L259.233 458.722Z" fill="#2D2D2D" stroke="#8C8C8C" stroke-width="0.94" stroke-linecap="round" stroke-linejoin="round"/>
<path d="M247.953 78.9609H294.013V59.2209L247.953 59.2209V78.9609Z" fill="#A3A3A3" stroke="#8C8C8C" stroke-width="0.94" stroke-linecap="round" stroke-linejoin="round"/>
<path d="M249.598 90.0234H254.74V84.28H249.598V90.0234Z" fill="#949494" stroke="#8C8C8C" stroke-width="0.94" stroke-linecap="round" stroke-linejoin="round"/>
<path d="M249.598 102.479H254.74V96.7361H249.598V102.479Z" fill="#949494" stroke="#8C8C8C" stroke-width="0.94" stroke-linecap="round" stroke-linejoin="round"/>
<path d="M249.598 114.924H254.74V109.18H249.598V114.924Z" fill="#949494" stroke="#8C8C8C" stroke-width="0.94" stroke-linecap="round" stroke-linejoin="round"/>
<path d="M249.598 127.381H254.74V121.637H249.598V127.381Z" fill="#949494" stroke="#8C8C8C" stroke-width="0.94" stroke-linecap="round" stroke-linejoin="round"/>
<path d="M249.598 139.836H254.74V134.093H249.598V139.836Z" fill="#949494" stroke="#8C8C8C" stroke-width="0.94" stroke-linecap="round" stroke-linejoin="round"/>
<path d="M249.598 152.29H254.74V146.547H249.598V152.29Z" fill="#949494" stroke="#8C8C8C" stroke-width="0.94" stroke-linecap="round" stroke-linejoin="round"/>
<path d="M249.598 164.744H254.74V159.001H249.598V164.744Z" fill="#949494" stroke="#8C8C8C" stroke-width="0.94" stroke-linecap="round" stroke-linejoin="round"/>
<path d="M249.598 177.19H254.74V171.447H249.598V177.19Z" fill="#949494" stroke="#8C8C8C" stroke-width="0.94" stroke-linecap="round" stroke-linejoin="round"/>
<path d="M249.598 189.646H254.74V183.902H249.598V189.646Z" fill="#949494" stroke="#8C8C8C" stroke-width="0.94" stroke-linecap="round" stroke-linejoin="round"/>
<path d="M249.598 202.102H254.74V196.358H249.598V202.102Z" fill="#949494" stroke="#8C8C8C" stroke-width="0.94" stroke-linecap="round" stroke-linejoin="round"/>
<path d="M249.598 214.555H254.74V208.811H249.598V214.555Z" fill="#949494" stroke="#8C8C8C" stroke-width="0.94" stroke-linecap="round" stroke-linejoin="round"/>
<path d="M249.598 227.001H254.74V221.258H249.598V227.001Z" fill="#949494" stroke="#8C8C8C" stroke-width="0.94" stroke-linecap="round" stroke-linejoin="round"/>
<path d="M249.598 239.456H254.74V233.713H249.598V239.456Z" fill="#949494" stroke="#8C8C8C" stroke-width="0.94" stroke-linecap="round" stroke-linejoin="round"/>
<path d="M249.598 251.902H254.74V246.159H249.598V251.902Z" fill="#949494" stroke="#8C8C8C" stroke-width="0.94" stroke-linecap="round" stroke-linejoin="round"/>
<path d="M249.598 264.367H254.74V258.624H249.598V264.367Z" fill="#949494" stroke="#8C8C8C" stroke-width="0.94" stroke-linecap="round" stroke-linejoin="round"/>
<path d="M249.598 276.822H254.74V271.079H249.598V276.822Z" fill="#949494" stroke="#8C8C8C" stroke-width="0.94" stroke-linecap="round" stroke-linejoin="round"/>
<path d="M249.598 289.268H254.74V283.524H249.598V289.268Z" fill="#949494" stroke="#8C8C8C" stroke-width="0.94" stroke-linecap="round" stroke-linejoin="round"/>
<path d="M249.598 301.723H254.74V295.979H249.598V301.723Z" fill="#949494" stroke="#8C8C8C" stroke-width="0.94" stroke-linecap="round" stroke-linejoin="round"/>
<path d="M249.598 314.177H254.74V308.433H249.598V314.177Z" fill="#949494" stroke="#8C8C8C" stroke-width="0.94" stroke-linecap="round" stroke-linejoin="round"/>
<path d="M249.598 326.633H254.74V320.889H249.598V326.633Z" fill="#949494" stroke="#8C8C8C" stroke-width="0.94" stroke-linecap="round" stroke-linejoin="round"/>
<path d="M249.598 339.076H254.74V333.333H249.598V339.076Z" fill="#949494" stroke="#8C8C8C" stroke-width="0.94" stroke-linecap="round" stroke-linejoin="round"/>
<path d="M249.598 351.531H254.74V345.788H249.598V351.531Z" fill="#949494" stroke="#8C8C8C" stroke-width="0.94" stroke-linecap="round" stroke-linejoin="round"/>
<path d="M249.598 363.987H254.74V358.244H249.598V363.987Z" fill="#949494" stroke="#8C8C8C" stroke-width="0.94" stroke-linecap="round" stroke-linejoin="round"/>
<path d="M249.598 376.442H254.74V370.699H249.598V376.442Z" fill="#949494" stroke="#8C8C8C" stroke-width="0.94" stroke-linecap="round" stroke-linejoin="round"/>
<path d="M249.598 388.889H254.74V383.145H249.598V388.889Z" fill="#949494" stroke="#8C8C8C" stroke-width="0.94" stroke-linecap="round" stroke-linejoin="round"/>
<path d="M249.598 401.344H254.74V395.6H249.598V401.344Z" fill="#949494" stroke="#8C8C8C" stroke-width="0.94" stroke-linecap="round" stroke-linejoin="round"/>
<path d="M249.598 413.799H254.74V408.055H249.598V413.799Z" fill="#949494" stroke="#8C8C8C" stroke-width="0.94" stroke-linecap="round" stroke-linejoin="round"/>
<path d="M249.598 426.254H254.74V420.51H249.598V426.254Z" fill="#949494" stroke="#8C8C8C" stroke-width="0.94" stroke-linecap="round" stroke-linejoin="round"/>
<path d="M249.598 438.707H254.74V432.964H249.598V438.707Z" fill="#949494" stroke="#8C8C8C" stroke-width="0.94" stroke-linecap="round" stroke-linejoin="round"/>
<path d="M248.292 451.153H258.829V445.41H248.292V451.153Z" fill="#949494" stroke="#8C8C8C" stroke-width="0.94" stroke-linecap="round" stroke-linejoin="round"/>
<path d="M259.214 146.274H363.808V133.65H259.214V146.274Z" fill="url(#paint3_linear_507_802)"/>
<path d="M259.214 144.525H363.808V131.901H259.214V144.525Z" fill="#949494" stroke="#8C8C8C" stroke-width="0.94" stroke-linecap="round" stroke-linejoin="round"/>
<path d="M259.214 144.525H363.808V121.984L259.214 121.984V144.525Z" stroke="#8C8C8C" stroke-width="0.94" stroke-linecap="round" stroke-linejoin="round"/>
<path d="M259.215 144.525H292.51V131.901H259.215V144.525Z" fill="#707070" stroke="#8C8C8C" stroke-width="0.94" stroke-linecap="round" stroke-linejoin="round"/>
<path d="M363.808 131.893L352.275 122.427" stroke="#8C8C8C" stroke-width="0.94" stroke-linecap="round" stroke-linejoin="round"/>
<path d="M352.275 131.893L363.808 122.427" stroke="#8C8C8C" stroke-width="0.94" stroke-linecap="round" stroke-linejoin="round"/>
<path d="M351.757 131.893L340.224 122.427" stroke="#8C8C8C" stroke-width="0.94" stroke-linecap="round" stroke-linejoin="round"/>
<path d="M340.224 131.893L351.757 122.427" stroke="#8C8C8C" stroke-width="0.94" stroke-linecap="round" stroke-linejoin="round"/>
<path d="M339.707 131.893L328.173 122.427" stroke="#8C8C8C" stroke-width="0.94" stroke-linecap="round" stroke-linejoin="round"/>
<path d="M328.173 131.893L339.707 122.427" stroke="#8C8C8C" stroke-width="0.94" stroke-linecap="round" stroke-linejoin="round"/>
<path d="M327.647 131.893L316.113 122.427" stroke="#8C8C8C" stroke-width="0.94" stroke-linecap="round" stroke-linejoin="round"/>
<path d="M316.113 131.893L327.647 122.427" stroke="#8C8C8C" stroke-width="0.94" stroke-linecap="round" stroke-linejoin="round"/>
<path d="M315.596 131.893L304.062 122.427" stroke="#8C8C8C" stroke-width="0.94" stroke-linecap="round" stroke-linejoin="round"/>
<path d="M304.062 131.893L315.596 122.427" stroke="#8C8C8C" stroke-width="0.94" stroke-linecap="round" stroke-linejoin="round"/>
<path d="M303.545 131.893L292.011 122.427" stroke="#8C8C8C" stroke-width="0.94" stroke-linecap="round" stroke-linejoin="round"/>
<path d="M292.011 131.893L303.545 122.427" stroke="#8C8C8C" stroke-width="0.94" stroke-linecap="round" stroke-linejoin="round"/>
<path d="M291.485 131.893L279.951 122.427" stroke="#8C8C8C" stroke-width="0.94" stroke-linecap="round" stroke-linejoin="round"/>
<path d="M279.951 131.893L291.485 122.427" stroke="#8C8C8C" stroke-width="0.94" stroke-linecap="round" stroke-linejoin="round"/>
<path d="M279.434 131.893L267.9 122.427" stroke="#8C8C8C" stroke-width="0.94" stroke-linecap="round" stroke-linejoin="round"/>
<path d="M267.9 131.893L279.434 122.427" stroke="#8C8C8C" stroke-width="0.94" stroke-linecap="round" stroke-linejoin="round"/>
<path d="M259.214 218.852H363.808V206.227H259.214V218.852Z" fill="url(#paint4_linear_507_802)"/>
<path d="M259.214 217.104H363.808V204.479H259.214V217.104Z" fill="#949494" stroke="#8C8C8C" stroke-width="0.94" stroke-linecap="round" stroke-linejoin="round"/>
<path d="M259.214 217.104H363.808V194.562H259.214V217.104Z" stroke="#8C8C8C" stroke-width="0.94" stroke-linecap="round" stroke-linejoin="round"/>
<path d="M259.215 217.104H292.51V204.479H259.215V217.104Z" fill="#707070" stroke="#8C8C8C" stroke-width="0.94" stroke-linecap="round" stroke-linejoin="round"/>
<path d="M363.808 204.471L352.275 195.005" stroke="#8C8C8C" stroke-width="0.94" stroke-linecap="round" stroke-linejoin="round"/>
<path d="M352.275 204.471L363.808 195.005" stroke="#8C8C8C" stroke-width="0.94" stroke-linecap="round" stroke-linejoin="round"/>
<path d="M351.757 204.471L340.224 195.005" stroke="#8C8C8C" stroke-width="0.94" stroke-linecap="round" stroke-linejoin="round"/>
<path d="M340.224 204.471L351.757 195.005" stroke="#8C8C8C" stroke-width="0.94" stroke-linecap="round" stroke-linejoin="round"/>
<path d="M339.707 204.471L328.173 195.005" stroke="#8C8C8C" stroke-width="0.94" stroke-linecap="round" stroke-linejoin="round"/>
<path d="M328.173 204.471L339.707 195.005" stroke="#8C8C8C" stroke-width="0.94" stroke-linecap="round" stroke-linejoin="round"/>
<path d="M327.647 204.471L316.113 195.005" stroke="#8C8C8C" stroke-width="0.94" stroke-linecap="round" stroke-linejoin="round"/>
<path d="M316.113 204.471L327.647 195.005" stroke="#8C8C8C" stroke-width="0.94" stroke-linecap="round" stroke-linejoin="round"/>
<path d="M315.596 204.471L304.062 195.005" stroke="#8C8C8C" stroke-width="0.94" stroke-linecap="round" stroke-linejoin="round"/>
<path d="M304.062 204.471L315.596 195.005" stroke="#8C8C8C" stroke-width="0.94" stroke-linecap="round" stroke-linejoin="round"/>
<path d="M303.545 204.471L292.011 195.005" stroke="#8C8C8C" stroke-width="0.94" stroke-linecap="round" stroke-linejoin="round"/>
<path d="M292.011 204.471L303.545 195.005" stroke="#8C8C8C" stroke-width="0.94" stroke-linecap="round" stroke-linejoin="round"/>
<path d="M291.485 204.471L279.951 195.005" stroke="#8C8C8C" stroke-width="0.94" stroke-linecap="round" stroke-linejoin="round"/>
<path d="M279.951 204.471L291.485 195.005" stroke="#8C8C8C" stroke-width="0.94" stroke-linecap="round" stroke-linejoin="round"/>
<path d="M279.434 204.471L267.9 195.005" stroke="#8C8C8C" stroke-width="0.94" stroke-linecap="round" stroke-linejoin="round"/>
<path d="M267.9 204.471L279.434 195.005" stroke="#8C8C8C" stroke-width="0.94" stroke-linecap="round" stroke-linejoin="round"/>
<path d="M249.354 59.2207H221.991V458.721H249.354V59.2207Z" fill="#D9D9D9" stroke="#8C8C8C" stroke-width="0.94" stroke-linecap="round" stroke-linejoin="round"/>
<path d="M300.801 400.439H293.111H179.71H172.021V420.179H179.71V458.719H293.111V420.179H300.801V400.439Z" fill="white" stroke="#8C8C8C" stroke-width="0.94" stroke-linecap="round" stroke-linejoin="round"/>
<path d="M367.268 458.72C368.885 456.291 369.981 453.555 370.489 450.682C370.997 447.809 370.906 444.862 370.22 442.026C369.534 439.19 368.268 436.527 366.503 434.204C364.738 431.881 362.512 429.948 359.964 428.527C357.416 427.106 354.601 426.228 351.697 425.947C348.793 425.666 345.863 425.99 343.09 426.896C340.317 427.803 337.761 429.273 335.584 431.216C333.407 433.158 331.655 435.529 330.438 438.181C329.53 435.713 327.969 433.538 325.922 431.888C323.875 430.237 321.418 429.172 318.814 428.807C316.21 428.441 313.556 428.788 311.133 429.812C308.711 430.835 306.612 432.496 305.058 434.618C304.225 433.462 303.15 432.5 301.909 431.799C300.667 431.098 299.288 430.674 297.867 430.558C298.269 429.344 298.475 428.075 298.478 426.798C298.472 424.715 297.933 422.668 296.913 420.851C295.893 419.035 294.426 417.51 292.65 416.42C292.751 415.656 292.805 414.887 292.81 414.117C292.809 409.632 291.163 405.303 288.183 401.95C285.203 398.598 281.097 396.455 276.642 395.928L273.897 334.217H253.979L250.905 393.117L247.53 327.317H224.519L220.628 391.754L218.08 334.17H198.162L194.937 395.74H194.58C189.719 395.74 185.057 397.671 181.619 401.109C178.181 404.546 176.25 409.209 176.25 414.07C176.25 414.343 176.25 414.615 176.25 414.888C175.327 414.664 174.38 414.547 173.43 414.54C170.189 414.54 167.081 415.827 164.789 418.119C162.498 420.411 161.21 423.519 161.21 426.76C161.214 428.038 161.42 429.307 161.821 430.52C160.4 430.637 159.022 431.06 157.78 431.761C156.539 432.462 155.464 433.424 154.63 434.581C153.077 432.459 150.978 430.798 148.555 429.774C146.133 428.751 143.479 428.403 140.874 428.769C138.27 429.134 135.814 430.199 133.767 431.85C131.72 433.501 130.159 435.676 129.25 438.143C128.011 435.524 126.247 433.188 124.068 431.278C121.888 429.369 119.34 427.928 116.58 427.045C113.821 426.161 110.909 425.854 108.026 426.143C105.143 426.431 102.35 427.309 99.82 428.722C97.2902 430.135 95.0777 432.052 93.3197 434.355C91.5616 436.658 90.2956 439.298 89.6001 442.111C88.9045 444.924 88.7944 447.849 89.2764 450.706C89.7585 453.564 90.8224 456.291 92.4023 458.72H367.268Z" fill="#FDF9F4"/>
<path d="M354.08 458.72C353.037 456.667 351.549 454.872 349.724 453.467C347.9 452.062 345.785 451.081 343.534 450.597C341.282 450.112 338.951 450.136 336.71 450.667C334.469 451.197 332.375 452.221 330.58 453.663C330.063 452.109 329.177 450.705 327.997 449.57C326.817 448.435 325.378 447.604 323.806 447.149C322.233 446.694 320.573 446.628 318.969 446.957C317.366 447.286 315.866 448.001 314.6 449.038C314.085 446.506 312.945 444.143 311.284 442.163C309.622 440.184 307.492 438.652 305.087 437.707C302.682 436.761 300.079 436.432 297.514 436.75C294.95 437.068 292.505 438.022 290.404 439.526C290.185 436.49 289.214 433.556 287.576 430.99C285.939 428.425 283.688 426.307 281.027 424.83C278.365 423.353 275.378 422.563 272.334 422.53C269.291 422.498 266.287 423.225 263.595 424.645C260.856 420.251 257.075 416.601 252.588 414.018C248.101 411.434 243.045 409.998 237.87 409.835C232.695 409.672 227.559 410.789 222.919 413.085C218.278 415.382 214.275 418.787 211.265 423C209.734 420.897 207.773 419.144 205.511 417.858C203.25 416.572 200.74 415.783 198.15 415.542C195.56 415.301 192.948 415.615 190.488 416.462C188.028 417.309 185.777 418.671 183.885 420.456C181.992 422.241 180.501 424.408 179.512 426.814C178.522 429.22 178.056 431.809 178.145 434.409C178.233 437.009 178.875 439.561 180.027 441.893C181.178 444.226 182.813 446.287 184.823 447.939C184.489 448.798 184.231 449.685 184.052 450.589C182.171 449.301 180.028 448.445 177.778 448.08C175.527 447.716 173.223 447.853 171.032 448.481C168.84 449.11 166.814 450.215 165.099 451.716C163.383 453.218 162.02 455.08 161.107 457.169C160.197 455.921 159.012 454.899 157.645 454.181C156.277 453.464 154.763 453.07 153.219 453.03C151.675 452.99 150.142 453.305 148.739 453.951C147.336 454.597 146.1 455.557 145.127 456.756C143.581 454.593 141.505 452.865 139.097 451.737C136.69 450.61 134.033 450.121 131.382 450.318C128.731 450.516 126.175 451.393 123.961 452.864C121.747 454.336 119.95 456.352 118.741 458.72H354.08Z" fill="#FDF9F4"/>
<path opacity="0.7" d="M354.08 458.72C353.037 456.667 351.549 454.872 349.724 453.467C347.9 452.062 345.785 451.081 343.534 450.597C341.282 450.112 338.951 450.136 336.71 450.667C334.469 451.197 332.375 452.221 330.58 453.663C330.063 452.109 329.177 450.705 327.997 449.57C326.817 448.435 325.378 447.604 323.806 447.149C322.233 446.694 320.573 446.628 318.969 446.957C317.366 447.286 315.866 448.001 314.6 449.038C314.085 446.506 312.945 444.143 311.284 442.163C309.622 440.184 307.492 438.652 305.087 437.707C302.682 436.761 300.079 436.432 297.514 436.75C294.95 437.068 292.505 438.022 290.404 439.526C290.185 436.49 289.214 433.556 287.576 430.99C285.939 428.425 283.688 426.307 281.027 424.83C278.365 423.353 275.378 422.563 272.334 422.53C269.291 422.498 266.287 423.225 263.595 424.645C260.856 420.251 257.075 416.601 252.588 414.018C248.101 411.434 243.045 409.998 237.87 409.835C232.695 409.672 227.559 410.789 222.919 413.085C218.278 415.382 214.275 418.787 211.265 423C209.734 420.897 207.773 419.144 205.511 417.858C203.25 416.572 200.74 415.783 198.15 415.542C195.56 415.301 192.948 415.615 190.488 416.462C188.028 417.309 185.777 418.671 183.885 420.456C181.992 422.241 180.501 424.408 179.512 426.814C178.522 429.22 178.056 431.809 178.145 434.409C178.233 437.009 178.875 439.561 180.027 441.893C181.178 444.226 182.813 446.287 184.823 447.939C184.489 448.798 184.231 449.685 184.052 450.589C182.171 449.301 180.028 448.445 177.778 448.08C175.527 447.716 173.223 447.853 171.032 448.481C168.84 449.11 166.814 450.215 165.099 451.716C163.383 453.218 162.02 455.08 161.107 457.169C160.197 455.921 159.012 454.899 157.645 454.181C156.277 453.464 154.763 453.07 153.219 453.03C151.675 452.99 150.142 453.305 148.739 453.951C147.336 454.597 146.1 455.557 145.127 456.756C143.581 454.593 141.505 452.865 139.097 451.737C136.69 450.61 134.033 450.121 131.382 450.318C128.731 450.516 126.175 451.393 123.961 452.864C121.747 454.336 119.95 456.352 118.741 458.72H354.08Z" fill="#51595B"/>
<path d="M218.531 311.807H197.701L195.097 319.919H221.135L218.531 311.807Z" fill="#D9D9D9" stroke="#263238" stroke-width="0.94" stroke-linecap="round" stroke-linejoin="round"/>
<path d="M216.087 326.066H200.154L198.162 334.169H218.08L216.087 326.066Z" fill="#263238" stroke="#263238" stroke-width="0.94" stroke-linecap="round" stroke-linejoin="round"/>
<path d="M218.466 326.265H197.767L195.182 319.92H221.06L218.466 326.265Z" fill="#FDF9F4" stroke="#263238" stroke-width="0.94" stroke-linecap="round" stroke-linejoin="round"/>
<path d="M218.898 174.746H197.344V312.87H218.898V174.746Z" fill="white" stroke="#263238" stroke-width="0.94" stroke-linecap="round" stroke-linejoin="round"/>
<path d="M212.327 182.191H203.303V185.275H212.327V182.191Z" fill="#263238"/>
<path d="M212.327 186.589H203.303V189.672H212.327V186.589Z" fill="#263238"/>
<path d="M208.116 148.972C207.123 148.971 206.156 149.295 205.364 149.894C204.572 150.493 203.996 151.334 203.726 152.29L197.344 174.85H218.898L212.506 152.29C212.235 151.334 211.66 150.493 210.868 149.894C210.076 149.295 209.109 148.971 208.116 148.972Z" fill="#D9D9D9" stroke="#263238" stroke-width="0.94" stroke-linecap="round" stroke-linejoin="round"/>
<path d="M274.565 311.807H253.744L251.14 319.919H277.169L274.565 311.807Z" fill="#D9D9D9" stroke="#263238" stroke-width="0.94" stroke-linecap="round" stroke-linejoin="round"/>
<path d="M272.121 326.066H256.188L254.195 334.169H274.114L272.121 326.066Z" fill="#263238" stroke="#263238" stroke-width="0.94" stroke-linecap="round" stroke-linejoin="round"/>
<path d="M274.508 326.265H253.8L251.215 319.92H277.093L274.508 326.265Z" fill="#FDF9F4" stroke="#263238" stroke-width="0.94" stroke-linecap="round" stroke-linejoin="round"/>
<path d="M274.931 174.746H253.377V312.87H274.931V174.746Z" fill="white" stroke="#263238" stroke-width="0.94" stroke-linecap="round" stroke-linejoin="round"/>
<path d="M262.73 188C262.73 186.797 263.332 186.017 264.535 186.017C265.738 186.017 266.349 186.797 266.349 188V192.07C266.349 193.273 265.757 194.063 264.535 194.063C263.313 194.063 262.73 193.273 262.73 192.07V188ZM263.595 192.127C263.595 192.841 263.905 193.264 264.535 193.264C265.165 193.264 265.475 192.841 265.475 192.127V188C265.475 187.286 265.174 186.853 264.535 186.853C263.896 186.853 263.595 187.286 263.595 188V192.127Z" fill="#263238"/>
<path d="M263.689 202.87C263.806 202.664 263.977 202.494 264.185 202.38C264.392 202.265 264.628 202.21 264.864 202.222C265.879 202.222 266.331 202.964 266.331 204.102V205.643C266.331 206.847 265.757 207.636 264.545 207.636C263.332 207.636 262.777 206.847 262.777 205.643V205.117H263.595V205.7C263.595 206.414 263.896 206.837 264.535 206.837C265.174 206.837 265.475 206.414 265.475 205.7V204.168C265.475 203.453 265.184 203.03 264.535 203.03C264.417 203.017 264.296 203.029 264.183 203.066C264.069 203.102 263.964 203.162 263.875 203.242C263.787 203.322 263.716 203.42 263.667 203.529C263.619 203.638 263.595 203.757 263.595 203.876V204.055H262.768L262.984 199.665H266.096V200.455H263.774L263.689 202.87Z" fill="#263238"/>
<path d="M266.34 215.091V215.261H265.512V215.054C265.512 214.339 265.221 213.926 264.572 213.926C263.924 213.926 263.632 214.358 263.632 215.195V216.971C263.722 216.711 263.895 216.487 264.124 216.334C264.353 216.182 264.626 216.108 264.901 216.125C265.917 216.125 266.368 216.859 266.368 218.005V219.199C266.368 220.402 265.776 221.192 264.563 221.192C263.35 221.192 262.749 220.402 262.749 219.199V215.176C262.749 213.926 263.313 213.146 264.563 213.146C265.813 213.146 266.34 213.888 266.34 215.091ZM263.623 218.081V219.265C263.623 219.979 263.914 220.402 264.563 220.402C265.212 220.402 265.503 219.979 265.503 219.265V218.081C265.503 217.376 265.202 216.943 264.563 216.943C263.924 216.943 263.623 217.338 263.623 218.081Z" fill="#263238"/>
<path d="M266.34 228.637V232.66C266.34 233.91 265.776 234.7 264.516 234.7C263.257 234.7 262.73 233.929 262.73 232.716V232.575H263.558V232.773C263.558 233.487 263.858 233.901 264.498 233.901C265.137 233.901 265.438 233.478 265.438 232.641V230.874C265.346 231.132 265.172 231.352 264.943 231.501C264.713 231.651 264.441 231.721 264.169 231.701C263.153 231.701 262.702 230.987 262.702 229.821V228.608C262.702 227.405 263.285 226.625 264.507 226.625C265.729 226.625 266.34 227.48 266.34 228.637ZM263.586 228.637V229.821C263.586 230.535 263.896 230.958 264.526 230.958C265.156 230.958 265.466 230.535 265.466 229.821V228.637C265.466 227.922 265.174 227.499 264.526 227.499C263.877 227.499 263.586 227.875 263.586 228.59V228.637Z" fill="#263238"/>
<path d="M264.498 244.756L263.2 248.159H262.364L263.952 244.089L262.467 240.263H263.407L264.629 243.421L265.861 240.263H266.678L265.203 244.089L266.782 248.159H265.842L264.498 244.756Z" fill="#263238"/>
<path d="M264.14 148.972C263.147 148.973 262.182 149.297 261.39 149.896C260.598 150.494 260.022 151.335 259.75 152.29L253.368 174.85H274.922L268.53 152.29C268.26 151.334 267.685 150.493 266.892 149.894C266.1 149.295 265.134 148.971 264.14 148.972Z" fill="#D9D9D9" stroke="#263238" stroke-width="0.94" stroke-linecap="round" stroke-linejoin="round"/>
<path d="M250.445 52.499H221.511V97.2712H250.445V52.499Z" fill="white" stroke="#263238" stroke-width="0.94" stroke-linecap="round" stroke-linejoin="round"/>
<path d="M247.559 103.352H224.407L221.511 97.3457H250.454L247.559 103.352Z" fill="#FDF9F4" stroke="#263238" stroke-width="0.94" stroke-linecap="round" stroke-linejoin="round"/>
<path d="M247.559 159.387H224.407L221.511 153.381H250.454L247.559 159.387Z" fill="#263238" stroke="#263238" stroke-width="0.94" stroke-linecap="round" stroke-linejoin="round"/>
<path d="M250.445 109.256H221.511V154.028H250.445V109.256Z" fill="white" stroke="#263238" stroke-width="0.94" stroke-linecap="round" stroke-linejoin="round"/>
<path d="M247.559 103.164H224.407L221.511 109.171H250.454L247.559 103.164Z" fill="#D9D9D9" stroke="#263238" stroke-width="0.94" stroke-linecap="round" stroke-linejoin="round"/>
<path d="M250.445 165.289H221.511V310.19H250.445V165.289Z" fill="white" stroke="#263238" stroke-width="0.94" stroke-linecap="round" stroke-linejoin="round"/>
<path d="M221.54 178.6H250.463" stroke="#263238" stroke-width="0.94" stroke-linecap="round" stroke-linejoin="round"/>
<path d="M221.54 199.637H250.463" stroke="#263238" stroke-width="0.94" stroke-linecap="round" stroke-linejoin="round"/>
<path d="M221.54 220.673H250.463" stroke="#263238" stroke-width="0.94" stroke-linecap="round" stroke-linejoin="round"/>
<path d="M221.54 241.711H250.463" stroke="#263238" stroke-width="0.94" stroke-linecap="round" stroke-linejoin="round"/>
<path d="M221.54 262.739H250.463" stroke="#263238" stroke-width="0.94" stroke-linecap="round" stroke-linejoin="round"/>
<path d="M235.564 241.711V262.306" stroke="#263238" stroke-width="0.94" stroke-linecap="round" stroke-linejoin="round"/>
<path d="M245.613 319.487H226.7L224.341 327.59H247.982L245.613 319.487Z" fill="#263238" stroke="#263238" stroke-width="0.94" stroke-linecap="round" stroke-linejoin="round"/>
<path d="M247.474 320.078H224.482L221.615 310.198H250.351L247.474 320.078Z" fill="#FDF9F4" stroke="#263238" stroke-width="0.94" stroke-linecap="round" stroke-linejoin="round"/>
<path d="M235.941 291.081C232.957 291.093 230.1 292.287 227.995 294.401C225.889 296.516 224.707 299.378 224.708 302.361V319.554H247.221V302.323C247.211 299.338 246.018 296.479 243.903 294.372C241.789 292.264 238.926 291.081 235.941 291.081Z" stroke="#263238" stroke-width="0.94" stroke-linecap="round" stroke-linejoin="round"/>
<path d="M247.559 159.208H224.407L221.511 165.205H250.454L247.559 159.208Z" fill="#263238" stroke="#263238" stroke-width="0.94" stroke-linecap="round" stroke-linejoin="round"/>
<path d="M235.94 25.3799C234.265 25.3842 232.635 25.9198 231.284 26.9096C229.932 27.8995 228.93 29.2925 228.42 30.8883L221.493 52.5741H250.426L243.507 30.8883C242.996 29.2849 241.986 27.8863 240.625 26.8958C239.265 25.9052 237.624 25.3742 235.94 25.3799Z" fill="#D9D9D9" stroke="#263238" stroke-width="0.94" stroke-linecap="round" stroke-linejoin="round"/>
<path d="M224.406 268.512H216.125V270.946H224.406V268.512Z" fill="white" stroke="#263238" stroke-width="0.94" stroke-linecap="round" stroke-linejoin="round"/>
<path d="M255.596 268.512H247.314V270.946H255.596V268.512Z" fill="white" stroke="#263238" stroke-width="0.94" stroke-linecap="round" stroke-linejoin="round"/>
<path d="M35.7197 458.721H437.1" stroke="#263238" stroke-width="0.94" stroke-linecap="round" stroke-linejoin="round"/>
<defs>
<linearGradient id="paint0_linear_507_802" x1="-83.6599" y1="445.559" x2="445.649" y2="467.997" gradientUnits="userSpaceOnUse">
<stop stop-color="#2B0AFF"/>
<stop offset="0.49" stop-color="#FF5B8A"/>
<stop offset="0.55" stop-color="#FF5B8A"/>
<stop offset="0.77" stop-color="#FBA64B"/>
<stop offset="1" stop-color="#F99B52"/>
</linearGradient>
<linearGradient id="paint1_linear_507_802" x1="107.715" y1="145.737" x2="205.127" y2="112.233" gradientUnits="userSpaceOnUse">
<stop stop-color="#2B0AFF"/>
<stop offset="0.49" stop-color="#FF5B8A"/>
<stop offset="0.55" stop-color="#FF5B8A"/>
<stop offset="0.77" stop-color="#FBA64B"/>
<stop offset="1" stop-color="#F99B52"/>
</linearGradient>
<linearGradient id="paint2_linear_507_802" x1="107.715" y1="218.315" x2="205.127" y2="184.811" gradientUnits="userSpaceOnUse">
<stop stop-color="#2B0AFF"/>
<stop offset="0.49" stop-color="#FF5B8A"/>
<stop offset="0.55" stop-color="#FF5B8A"/>
<stop offset="0.77" stop-color="#FBA64B"/>
<stop offset="1" stop-color="#F99B52"/>
</linearGradient>
<linearGradient id="paint3_linear_507_802" x1="363.996" y1="134.197" x2="266.584" y2="167.7" gradientUnits="userSpaceOnUse">
<stop stop-color="#2B0AFF"/>
<stop offset="0.49" stop-color="#FF5B8A"/>
<stop offset="0.55" stop-color="#FF5B8A"/>
<stop offset="0.77" stop-color="#FBA64B"/>
<stop offset="1" stop-color="#F99B52"/>
</linearGradient>
<linearGradient id="paint4_linear_507_802" x1="363.996" y1="206.774" x2="266.584" y2="240.278" gradientUnits="userSpaceOnUse">
<stop stop-color="#2B0AFF"/>
<stop offset="0.49" stop-color="#FF5B8A"/>
<stop offset="0.55" stop-color="#FF5B8A"/>
<stop offset="0.77" stop-color="#FBA64B"/>
<stop offset="1" stop-color="#F99B52"/>
</linearGradient>
</defs>
</svg>
