<svg width="237" height="37" viewBox="0 0 237 37" fill="none" xmlns="http://www.w3.org/2000/svg">
<path d="M10.3062 23.6914H0.867188V22.7909H3.53546V4.57993H0.867188V3.67939H10.3062V4.57993H7.63792V22.7909H9.40565C9.8726 22.8353 10.1728 23.1355 10.3062 23.6914ZM18.7779 22.8242C18.9114 22.8242 19.0448 22.8353 19.1782 22.8576C19.4672 22.9243 19.6118 23.2022 19.6118 23.6914H11.9405V22.8242C12.3407 22.8242 12.6854 22.7909 12.9745 22.7242C13.7082 22.5685 14.0751 22.0015 14.0751 21.0231V10.25H11.9405V9.41617H17.5439L17.7106 12.1845C17.933 11.7175 18.2221 11.2728 18.5778 10.8504C19.6896 9.58293 21.046 8.94922 22.6469 8.94922C23.314 8.94922 23.9366 9.07151 24.5147 9.31611C26.338 10.0721 27.2497 11.762 27.2497 14.3858V22.8242H28.5505C28.6839 22.8242 28.8173 22.8353 28.9507 22.8576C29.2398 22.9243 29.3843 23.2022 29.3843 23.6914H21.7464V22.8242C22.2133 22.8242 22.5691 22.7797 22.8137 22.6908C23.3251 22.5129 23.5808 21.957 23.5808 21.0231V13.8855C23.5808 13.3963 23.5252 12.9516 23.4141 12.5514C23.0805 11.2395 22.2912 10.5835 21.046 10.5835C20.6235 10.5835 20.201 10.6947 19.7785 10.9171C18.6001 11.5841 17.933 12.8071 17.7773 14.5859L17.744 22.8242H18.7779ZM40.491 24.0249C38.4008 24.0027 36.811 23.1244 35.7215 21.39L35.4213 23.6914H30.6184V22.8242C31.0409 22.8242 31.3966 22.7909 31.6857 22.7242C32.3528 22.5463 32.6863 21.9681 32.6863 20.9898V2.87891H30.6184V2.01172H36.3885V12.4847C36.4108 12.4402 36.433 12.3957 36.4552 12.3513C37.5448 10.0832 39.268 8.94922 41.625 8.94922C42.8702 8.94922 43.9709 9.32722 44.927 10.0832C46.5724 11.3951 47.3951 13.4297 47.3951 16.1869C47.3951 18.3882 46.7948 20.2115 45.5941 21.6569C44.2822 23.2356 42.5811 24.0249 40.491 24.0249ZM40.1908 10.4835C39.5015 10.4835 38.8678 10.7281 38.2897 11.2172C37 12.329 36.3552 14.3191 36.3552 17.1875C36.3552 18.3882 36.4886 19.4333 36.7554 20.3227C37.3113 22.2127 38.3564 23.1578 39.8906 23.1578C40.2019 23.1578 40.5132 23.1022 40.8245 22.991C42.5367 22.3906 43.3927 20.2449 43.3927 16.5538C43.3927 16.3092 43.3927 16.0646 43.3927 15.82C43.2593 12.2623 42.192 10.4835 40.1908 10.4835ZM74.6115 23.6914C74.6115 23.5358 74.6226 23.3912 74.6448 23.2578C74.6893 23.0132 74.8672 22.8798 75.1785 22.8576C75.8456 22.7464 76.4126 22.4129 76.8795 21.857L80.7819 16.954L76.2458 10.25H74.6782V9.41617H82.0826V10.25H80.1148L83.2166 14.8861L86.7188 10.25H84.4841V9.41617H89.4537C89.4537 9.57181 89.4426 9.71635 89.4204 9.84976C89.3537 10.0721 89.1535 10.1944 88.82 10.2166C88.1307 10.3056 87.5637 10.6502 87.119 11.2506L83.7837 15.6866L88.5532 22.8242H89.2203C89.5983 22.8687 89.8762 23.1578 90.0541 23.6914H82.8164V22.8242H84.7175L81.3155 17.7545L77.2797 22.8242H79.6812V23.6914H74.6115Z" fill="white"/>
<path d="M111.767 4.57993V3.67939H118.538V4.57993H115.87V23.5246L114.102 23.8582L101.161 8.41556V22.7909H103.095C103.562 22.8353 103.862 23.1355 103.996 23.6914H97.125V22.7909H99.7933V4.57993H97.125V3.67939H102.428L114.502 18.1214V4.57993H111.767ZM131.746 24.0249C129.989 24.0027 128.933 22.991 128.577 20.9898C128.422 21.39 128.21 21.7791 127.944 22.1572C126.965 23.4023 125.598 24.0249 123.841 24.0249C123.218 24.0249 122.64 23.936 122.107 23.7581C120.439 23.2022 119.605 21.9681 119.605 20.0559C119.627 17.0986 122.551 15.5754 128.377 15.4865V13.3519C128.377 12.9294 128.355 12.5403 128.31 12.1845C128.088 10.6058 127.31 9.81641 125.976 9.81641C125.62 9.81641 125.297 9.88311 125.008 10.0165C124.586 10.2389 124.241 10.8059 123.974 11.7175C123.886 11.9844 123.819 12.1734 123.774 12.2846C123.463 13.1073 122.907 13.5186 122.107 13.5186C121.907 13.5186 121.706 13.4853 121.506 13.4186C120.795 13.1962 120.439 12.707 120.439 11.951C120.439 11.5508 120.561 11.1728 120.806 10.817C121.629 9.57181 123.441 8.94922 126.242 8.94922C126.865 8.94922 127.454 9.00481 128.01 9.11599C130.723 9.64964 132.079 11.3507 132.079 14.2191V21.2233C132.079 22.2906 132.335 22.8465 132.846 22.8909C133.514 22.8687 133.914 22.0793 134.047 20.5228L134.914 20.5562C134.87 21.1788 134.792 21.7124 134.681 22.1572C134.303 23.4023 133.325 24.0249 131.746 24.0249ZM125.375 22.6241C125.642 22.6241 125.931 22.5574 126.242 22.424C127.288 21.957 127.999 20.9675 128.377 19.4555V16.4204C127.265 16.4426 126.354 16.5538 125.642 16.7539C124.13 17.1541 123.374 18.1103 123.374 19.6223C123.374 19.7335 123.374 19.8447 123.374 19.9558C123.463 21.7347 124.13 22.6241 125.375 22.6241ZM142.452 10.25H140.184L144.053 20.723L148.056 10.25H145.421V9.41617H150.724C150.724 9.70523 150.702 9.91647 150.657 10.0499C150.613 10.1833 150.401 10.25 150.023 10.25C149.89 10.25 149.757 10.2611 149.623 10.2834C149.267 10.3501 148.978 10.6836 148.756 11.284L143.953 23.8582H142.986C142.541 23.8582 142.197 23.7915 141.952 23.6581C141.574 23.4357 141.151 22.7019 140.684 21.4567L136.515 10.25H135.148V9.41617H142.452V10.25ZM158.895 22.8242C159.007 22.8242 159.107 22.8353 159.196 22.8576C159.529 22.902 159.696 23.18 159.696 23.6914H151.691V22.8242C152.136 22.8242 152.492 22.7909 152.758 22.7242C153.492 22.5463 153.859 21.9793 153.859 21.0231V10.25H151.691V9.41617H157.528V22.8242H158.895ZM157.861 4.88011C157.861 5.25811 157.773 5.61388 157.595 5.94742C157.172 6.72566 156.505 7.11478 155.593 7.11478C155.238 7.11478 154.893 7.03696 154.56 6.88131C153.737 6.48107 153.325 5.814 153.325 4.88011C153.325 4.52434 153.414 4.16857 153.592 3.8128C154.015 2.99008 154.682 2.57873 155.593 2.57873C155.949 2.57873 156.294 2.66767 156.627 2.84555C157.45 3.29026 157.861 3.96845 157.861 4.88011ZM165.733 14.4859C165.733 15.6199 165.8 16.4982 165.933 17.1208C166.244 18.4772 167.045 19.1553 168.334 19.1553C168.957 19.1553 169.468 19.0108 169.869 18.7218C170.625 18.1436 171.003 16.7094 171.003 14.4192C171.003 13.2407 170.925 12.3401 170.769 11.7175C170.458 10.4501 169.657 9.81641 168.368 9.81641C167.701 9.81641 167.178 9.97206 166.8 10.2834C166.089 10.8392 165.733 12.2401 165.733 14.4859ZM168.468 8.94922C169.913 8.94922 171.158 9.26052 172.203 9.88311C172.292 9.59405 172.415 9.30499 172.57 9.01593C173.215 7.8152 174.093 7.21484 175.205 7.21484C175.561 7.21484 175.895 7.27043 176.206 7.38161C176.962 7.69291 177.34 8.23768 177.34 9.01593C177.34 9.10487 177.329 9.20493 177.306 9.31611C177.173 9.91647 176.795 10.2166 176.172 10.2166C175.928 10.2166 175.65 10.0944 175.339 9.84976C174.916 9.47175 174.56 9.28275 174.271 9.28275C173.671 9.30499 173.215 9.67187 172.904 10.3834C174.105 11.4062 174.716 12.7293 174.738 14.3525C174.738 15.5754 174.36 16.6872 173.604 17.6878C172.404 19.2443 170.647 20.0225 168.334 20.0225H168.234L164.966 19.9892C164.855 19.9892 164.732 20.0003 164.599 20.0225C163.999 20.1337 163.698 20.445 163.698 20.9564C163.698 21.0231 163.709 21.101 163.732 21.1899C163.843 21.7458 164.243 22.0349 164.932 22.0571L171.57 22.1905C171.948 22.1905 172.315 22.2239 172.67 22.2906C174.916 22.6463 176.039 23.8471 176.039 25.8927C176.039 26.4931 175.872 27.0712 175.539 27.6271C174.449 29.2948 172.126 30.1286 168.568 30.1286C167.123 30.1286 165.889 29.9285 164.866 29.5282C163.331 28.9279 162.564 28.0273 162.564 26.8266C162.564 26.0928 162.876 25.3813 163.498 24.692C162.653 24.0472 162.22 23.18 162.197 22.0904C162.197 21.668 162.275 21.2566 162.431 20.8564C162.92 19.6779 163.809 19.0998 165.099 19.122C164.855 18.9663 164.61 18.7996 164.365 18.6217C162.787 17.4432 161.997 16.0424 161.997 14.4192C161.997 13.2184 162.353 12.1623 163.065 11.2506C164.265 9.71635 166.066 8.94922 168.468 8.94922ZM168.568 29.2614C169.635 29.2614 170.625 29.1614 171.536 28.9612C173.471 28.5388 174.438 27.8161 174.438 26.7933C174.438 26.5709 174.394 26.3708 174.305 26.1929C174.082 25.7037 173.26 25.448 171.837 25.4258L165.599 25.3591C165.177 25.3591 164.743 25.2813 164.299 25.1256C163.921 25.637 163.721 26.1484 163.698 26.6599C163.698 26.9489 163.765 27.2269 163.898 27.4937C164.499 28.6722 166.055 29.2614 168.568 29.2614ZM190.081 24.0249C188.324 24.0027 187.268 22.991 186.912 20.9898C186.757 21.39 186.545 21.7791 186.279 22.1572C185.3 23.4023 183.933 24.0249 182.176 24.0249C181.553 24.0249 180.975 23.936 180.442 23.7581C178.774 23.2022 177.94 21.9681 177.94 20.0559C177.962 17.0986 180.886 15.5754 186.712 15.4865V13.3519C186.712 12.9294 186.69 12.5403 186.645 12.1845C186.423 10.6058 185.645 9.81641 184.311 9.81641C183.955 9.81641 183.633 9.88311 183.343 10.0165C182.921 10.2389 182.576 10.8059 182.309 11.7175C182.221 11.9844 182.154 12.1734 182.109 12.2846C181.798 13.1073 181.242 13.5186 180.442 13.5186C180.242 13.5186 180.041 13.4853 179.841 13.4186C179.13 13.1962 178.774 12.707 178.774 11.951C178.774 11.5508 178.896 11.1728 179.141 10.817C179.964 9.57181 181.776 8.94922 184.578 8.94922C185.2 8.94922 185.789 9.00481 186.345 9.11599C189.058 9.64964 190.414 11.3507 190.414 14.2191V21.2233C190.414 22.2906 190.67 22.8465 191.181 22.8909C191.849 22.8687 192.249 22.0793 192.382 20.5228L193.249 20.5562C193.205 21.1788 193.127 21.7124 193.016 22.1572C192.638 23.4023 191.66 24.0249 190.081 24.0249ZM183.71 22.6241C183.977 22.6241 184.266 22.5574 184.578 22.424C185.623 21.957 186.334 20.9675 186.712 19.4555V16.4204C185.6 16.4426 184.689 16.5538 183.977 16.7539C182.465 17.1541 181.709 18.1103 181.709 19.6223C181.709 19.7335 181.709 19.8447 181.709 19.9558C181.798 21.7347 182.465 22.6241 183.71 22.6241ZM193.983 10.3834V9.51623H196.285V6.34766L199.953 5.64724V9.51623H204.623V10.3834H199.953V20.4895C199.953 20.7118 199.965 20.9342 199.987 21.1566C200.142 22.424 200.687 23.0577 201.621 23.0577C202.711 23.0355 203.5 22.0349 203.989 20.0559L204.89 20.1893C204.756 20.8786 204.578 21.4678 204.356 21.957C203.733 23.3579 202.544 24.0583 200.787 24.0583C197.986 23.9471 196.485 22.2794 196.285 19.0553V10.3834H193.983ZM210.193 16.4871C210.193 18.0658 210.304 19.3332 210.526 20.2894C210.971 22.2016 212.027 23.1578 213.695 23.1578C214.251 23.1578 214.751 23.0466 215.196 22.8242C216.552 22.0904 217.23 19.9336 217.23 16.3537C217.23 14.8416 217.119 13.6187 216.897 12.6848C216.452 10.7725 215.385 9.81641 213.695 9.81641C213.05 9.81641 212.483 9.96094 211.994 10.25C210.793 11.0282 210.193 13.1073 210.193 16.4871ZM213.828 8.94922C215.607 8.94922 217.142 9.42728 218.431 10.3834C220.299 11.762 221.233 13.7521 221.233 16.3537C221.233 18.2882 220.655 19.9558 219.498 21.3567C218.031 23.1355 216.063 24.0249 213.595 24.0249C211.794 24.0249 210.226 23.4913 208.892 22.424C207.069 20.9564 206.157 18.933 206.157 16.3537C206.157 14.4859 206.713 12.8849 207.825 11.5508C209.292 9.81641 211.294 8.94922 213.828 8.94922ZM231.372 22.8242C231.483 22.8242 231.584 22.8353 231.672 22.8576C232.006 22.902 232.173 23.18 232.173 23.6914H223.134V22.8242C223.579 22.8242 223.946 22.7909 224.235 22.7242C224.902 22.5463 225.235 21.9793 225.235 21.0231V10.25H223.134V9.41617H228.637L228.837 12.5514C229.104 11.9066 229.471 11.3284 229.938 10.817C231.005 9.70523 232.217 9.14934 233.574 9.14934C233.84 9.14934 234.107 9.18269 234.374 9.2494C235.419 9.51623 235.942 10.1833 235.942 11.2506C235.942 11.5174 235.886 11.7731 235.775 12.0177C235.441 12.796 234.874 13.1851 234.074 13.1851C233.852 13.1851 233.64 13.1517 233.44 13.085C233.018 12.9516 232.617 12.5291 232.239 11.8176C231.95 11.3062 231.661 11.0505 231.372 11.0505C231.194 11.0505 230.983 11.1283 230.739 11.284C229.694 12.0177 229.093 13.4519 228.938 15.5865V22.8242H231.372Z" fill="url(#paint0_linear_574_13564)"/>
<g clip-path="url(#clip0_574_13564)">
<path d="M61.0482 -2.1489C61.2844 -2.1489 61.4758 -1.9575 61.4758 -1.72127C61.4758 -1.48503 61.2844 -1.29363 61.0482 -1.29363C60.812 -1.29363 60.6206 -1.48503 60.6206 -1.72127C60.6206 -1.9575 60.8123 -2.1489 61.0482 -2.1489ZM60.6206 -3.91352C60.6206 -4.14975 60.812 -4.34115 61.0482 -4.34115C61.2844 -4.34115 61.4758 -4.14975 61.4758 -3.91352C61.4758 -3.67729 61.2844 -3.48588 61.0482 -3.48588C60.8123 -3.48624 60.6206 -3.67764 60.6206 -3.91352ZM59.8923 -6.97954C59.8923 -7.61814 60.41 -8.13579 61.0486 -8.13579C61.6872 -8.13579 62.2048 -7.61814 62.2048 -6.97954C62.2048 -6.34093 61.6872 -5.82329 61.0486 -5.82329C60.41 -5.82329 59.8923 -6.34093 59.8923 -6.97954ZM66.1649 21.6168L71.7789 18.3295C71.8252 17.9346 71.8465 17.529 71.8465 17.1235C71.8465 15.9886 71.6722 14.8964 71.3449 13.8682L53.1757 24.5092C55.1432 26.6118 57.9431 27.9211 61.0489 27.9211C65.5245 27.9211 69.3597 25.1994 70.9998 21.3251L67.2713 23.506C67.1006 23.6056 66.9084 23.6554 66.7234 23.6554C66.3463 23.6554 65.9799 23.4597 65.7735 23.1146C65.4676 22.5916 65.6455 21.9228 66.1649 21.6168ZM65.2897 7.1904L57.2279 11.915C57.0536 12.0146 56.8651 12.0644 56.6729 12.0644C56.2994 12.0644 55.933 11.8688 55.7302 11.5201C55.4242 10.9971 55.5985 10.3283 56.1215 10.0223L62.3083 6.39703H62.2977C62.2799 6.38992 62.2621 6.38636 62.2443 6.37924C61.8423 6.19424 61.6181 5.7602 61.6181 5.31549V3.0777H62.9167C63.1053 3.0777 63.2369 2.8927 63.1764 2.71482L62.9025 1.92145C63.1479 1.71155 63.3579 1.3878 63.5144 0.900395L65.3004 1.2704C65.6348 1.34155 65.9016 0.98578 65.7415 0.683376L63.8275 -2.90633C63.6532 -7.26451 62.0558 -11.918 61.0489 -11.918C60.0385 -11.918 58.4447 -7.26451 58.2668 -2.90633L56.3563 0.683376C56.1962 0.98578 56.4595 1.34155 56.7975 1.2704L58.5834 0.900395C58.74 1.3878 58.9463 1.71155 59.1918 1.92145L58.9214 2.71482C58.8609 2.8927 58.9926 3.0777 59.1776 3.0777H60.4797V5.31549C60.4797 5.7602 60.252 6.19424 59.8535 6.37924C59.8322 6.38992 59.8108 6.39347 59.7895 6.40059C54.4209 7.02318 50.2513 11.5877 50.2513 17.1235C50.2513 17.5575 50.2762 17.988 50.326 18.4114L62.4649 11.2995C62.6392 11.1964 62.8278 11.1501 63.0163 11.1501C63.3899 11.1501 63.7599 11.3458 63.9627 11.6909C64.2686 12.2139 64.0943 12.8863 63.5713 13.1922L50.8383 20.6491C51.0945 21.3927 51.4325 22.1007 51.8345 22.7553L70.4661 11.8439C69.3063 9.77684 67.4883 8.12963 65.2897 7.1904Z" fill="url(#paint1_linear_574_13564)"/>
</g>
<defs>
<linearGradient id="paint0_linear_574_13564" x1="-83.882" y1="70.0247" x2="228.427" y2="-31.3105" gradientUnits="userSpaceOnUse">
<stop stop-color="#2B0AFF"/>
<stop offset="0.49" stop-color="#FF5B8A"/>
<stop offset="0.55" stop-color="#FF5B8A"/>
<stop offset="0.77" stop-color="#FBA64B"/>
<stop offset="1" stop-color="#F99B52"/>
</linearGradient>
<linearGradient id="paint1_linear_574_13564" x1="47.8299" y1="31.7058" x2="72.1075" y2="28.2682" gradientUnits="userSpaceOnUse">
<stop stop-color="#2B0AFF"/>
<stop offset="0.49" stop-color="#FF5B8A"/>
<stop offset="0.55" stop-color="#FF5B8A"/>
<stop offset="0.77" stop-color="#FBA64B"/>
<stop offset="1" stop-color="#F99B52"/>
</linearGradient>
<clipPath id="clip0_574_13564">
<rect width="25.2596" height="21.3462" fill="white" transform="translate(48.7404 6.40332)"/>
</clipPath>
</defs>
</svg>
