<svg width="178" height="28" viewBox="0 0 178 28" fill="none" xmlns="http://www.w3.org/2000/svg">
<path d="M7.76572 18.5869H0.653426V17.9084H2.66397V4.18641H0.653426V3.50785H7.76572V4.18641H5.75518V17.9084H7.08716C7.43901 17.9419 7.66519 18.1681 7.76572 18.5869ZM14.1492 17.9335C14.2497 17.9335 14.3502 17.9419 14.4508 17.9586C14.6686 18.0089 14.7775 18.2183 14.7775 18.5869H8.99718V17.9335C9.29876 17.9335 9.55845 17.9084 9.77626 17.8581C10.3292 17.7408 10.6056 17.3136 10.6056 16.5764V8.45881H8.99718V7.83051H13.2193L13.345 9.91645C13.5125 9.56461 13.7303 9.22952 13.9984 8.91118C14.8361 7.95617 15.8582 7.47867 17.0645 7.47867C17.5671 7.47867 18.0362 7.57082 18.4719 7.75512C19.8457 8.32477 20.5327 9.59812 20.5327 11.5751V17.9335H21.5128C21.6133 17.9335 21.7139 17.9419 21.8144 17.9586C22.0322 18.0089 22.1411 18.2183 22.1411 18.5869H16.3859V17.9335C16.7378 17.9335 17.0058 17.9 17.1901 17.833C17.5755 17.6989 17.7682 17.2801 17.7682 16.5764V11.1982C17.7682 10.8296 17.7263 10.4945 17.6425 10.1929C17.3912 9.20438 16.7964 8.71013 15.8582 8.71013C15.5398 8.71013 15.2215 8.7939 14.9031 8.96144C14.0152 9.46408 13.5125 10.3856 13.3952 11.7259L13.3701 17.9335H14.1492ZM30.51 18.8382C28.9351 18.8215 27.7371 18.1597 26.9161 16.8528L26.6899 18.5869H23.071V17.9335C23.3893 17.9335 23.6574 17.9084 23.8752 17.8581C24.3778 17.7241 24.6291 17.2884 24.6291 16.5512V2.90469H23.071V2.25126H27.4188V10.1426C27.4355 10.1091 27.4523 10.0756 27.469 10.0421C28.29 8.33315 29.5885 7.47867 31.3645 7.47867C32.3027 7.47867 33.1321 7.7635 33.8525 8.33315C35.0923 9.32167 35.7123 10.8547 35.7123 12.9323C35.7123 14.591 35.2599 15.9648 34.3551 17.0539C33.3666 18.2434 32.0849 18.8382 30.51 18.8382ZM30.2838 8.63473C29.7644 8.63473 29.2869 8.81903 28.8513 9.18763C27.8795 10.0254 27.3936 11.5249 27.3936 13.6862C27.3936 14.591 27.4942 15.3784 27.6952 16.0486C28.1141 17.4727 28.9015 18.1848 30.0576 18.1848C30.2922 18.1848 30.5267 18.1429 30.7613 18.0591C32.0514 17.6068 32.6964 15.99 32.6964 13.2087C32.6964 13.0244 32.6964 12.8401 32.6964 12.6558C32.5959 9.97509 31.7917 8.63473 30.2838 8.63473ZM56.2198 18.5869C56.2198 18.4696 56.2282 18.3607 56.2449 18.2602C56.2784 18.0759 56.4125 17.9754 56.647 17.9586C57.1497 17.8748 57.5769 17.6235 57.9287 17.2047L60.8692 13.5103L57.4512 8.45881H56.27V7.83051H61.8493V8.45881H60.3665L62.7038 11.9521L65.3426 8.45881H63.6588V7.83051H67.4034C67.4034 7.9478 67.395 8.0567 67.3783 8.15723C67.328 8.32477 67.1772 8.41692 66.9259 8.43368C66.4065 8.50069 65.9793 8.76039 65.6442 9.21276L63.131 12.5553L66.7249 17.9335H67.2275C67.5123 17.967 67.7218 18.1848 67.8558 18.5869H62.4022V17.9335H63.8347L61.2713 14.1135L58.2303 17.9335H60.0398V18.5869H56.2198Z" fill="black"/>
<path d="M84.2166 4.18641V3.50785H89.3183V4.18641H87.3078V18.4613L85.9758 18.7126L76.2247 7.07656V17.9084H77.6823C78.0342 17.9419 78.2604 18.1681 78.3609 18.5869H73.1837V17.9084H75.1943V4.18641H73.1837V3.50785H77.1797L86.2774 14.3899V4.18641H84.2166ZM99.2705 18.8382C97.9469 18.8215 97.1511 18.0591 96.883 16.5512C96.7657 16.8528 96.6065 17.146 96.4055 17.4309C95.6683 18.3691 94.6379 18.8382 93.3143 18.8382C92.8452 18.8382 92.4095 18.7712 92.0074 18.6372C90.7508 18.2183 90.1225 17.2884 90.1225 15.8476C90.1393 13.6192 92.3425 12.4715 96.7322 12.4045V10.7961C96.7322 10.4777 96.7155 10.1845 96.6819 9.91645C96.5144 8.72688 95.928 8.13209 94.9227 8.13209C94.6546 8.13209 94.4117 8.18236 94.1939 8.28289C93.8756 8.45043 93.6159 8.87767 93.4148 9.56461C93.3478 9.76566 93.2975 9.90807 93.264 9.99185C93.0295 10.6118 92.6106 10.9217 92.0074 10.9217C91.8566 10.9217 91.7059 10.8966 91.5551 10.8463C91.0189 10.6788 90.7508 10.3102 90.7508 9.74053C90.7508 9.43895 90.843 9.15412 91.0273 8.88605C91.6472 7.9478 93.0127 7.47867 95.1238 7.47867C95.5929 7.47867 96.0369 7.52055 96.4558 7.60433C98.4998 8.00644 99.5218 9.28816 99.5218 11.4495V16.7272C99.5218 17.5314 99.7145 17.9502 100.1 17.9838C100.603 17.967 100.904 17.3722 101.005 16.1994L101.658 16.2245C101.625 16.6937 101.566 17.0958 101.482 17.4309C101.197 18.3691 100.46 18.8382 99.2705 18.8382ZM94.4703 17.7827C94.6714 17.7827 94.8892 17.7324 95.1238 17.6319C95.9112 17.2801 96.4474 16.5345 96.7322 15.3952V13.1082C95.8945 13.1249 95.2075 13.2087 94.6714 13.3595C93.5321 13.6611 92.9624 14.3815 92.9624 15.5208C92.9624 15.6046 92.9624 15.6884 92.9624 15.7722C93.0295 17.1125 93.5321 17.7827 94.4703 17.7827ZM107.338 8.45881H105.629L108.544 16.3502L111.56 8.45881H109.575V7.83051H113.571C113.571 8.04832 113.554 8.20749 113.52 8.30802C113.487 8.40854 113.328 8.45881 113.043 8.45881C112.942 8.45881 112.842 8.46719 112.741 8.48394C112.473 8.5342 112.255 8.78552 112.088 9.23789L108.469 18.7126H107.74C107.405 18.7126 107.145 18.6623 106.961 18.5618C106.676 18.3942 106.358 17.8413 106.006 16.9031L102.864 8.45881H101.834V7.83051H107.338V8.45881ZM119.728 17.9335C119.812 17.9335 119.887 17.9419 119.954 17.9586C120.205 17.9921 120.331 18.2016 120.331 18.5869H114.299V17.9335C114.634 17.9335 114.902 17.9084 115.104 17.8581C115.656 17.7241 115.933 17.2968 115.933 16.5764V8.45881H114.299V7.83051H118.697V17.9335H119.728ZM118.949 4.41259C118.949 4.69742 118.882 4.96549 118.748 5.21681C118.429 5.80322 117.927 6.09642 117.24 6.09642C116.972 6.09642 116.712 6.03778 116.461 5.9205C115.841 5.61892 115.531 5.11628 115.531 4.41259C115.531 4.14452 115.598 3.87645 115.732 3.60838C116.05 2.98846 116.553 2.6785 117.24 2.6785C117.508 2.6785 117.768 2.74552 118.019 2.87955C118.639 3.21464 118.949 3.72566 118.949 4.41259ZM124.88 11.6505C124.88 12.505 124.93 13.1668 125.031 13.636C125.265 14.658 125.868 15.169 126.84 15.169C127.309 15.169 127.695 15.0601 127.996 14.8423C128.566 14.4067 128.851 13.326 128.851 11.6003C128.851 10.7123 128.792 10.0337 128.675 9.56461C128.44 8.6096 127.837 8.13209 126.865 8.13209C126.363 8.13209 125.969 8.24938 125.684 8.48394C125.148 8.9028 124.88 9.95834 124.88 11.6505ZM126.941 7.47867C128.03 7.47867 128.968 7.71323 129.755 8.18236C129.822 7.96455 129.915 7.74674 130.032 7.52893C130.518 6.62419 131.18 6.17182 132.017 6.17182C132.285 6.17182 132.537 6.2137 132.771 6.29748C133.341 6.53204 133.626 6.94252 133.626 7.52893C133.626 7.59595 133.617 7.67135 133.601 7.75512C133.5 8.20749 133.215 8.43368 132.746 8.43368C132.562 8.43368 132.352 8.34153 132.118 8.15723C131.799 7.8724 131.531 7.72999 131.314 7.72999C130.861 7.74674 130.518 8.02319 130.283 8.55934C131.188 9.33004 131.649 10.3269 131.665 11.55C131.665 12.4715 131.381 13.3092 130.811 14.0632C129.906 15.236 128.583 15.8224 126.84 15.8224H126.765L124.302 15.7973C124.218 15.7973 124.126 15.8057 124.025 15.8224C123.573 15.9062 123.347 16.1408 123.347 16.5261C123.347 16.5764 123.355 16.635 123.372 16.702C123.456 17.1209 123.757 17.3387 124.277 17.3555L129.278 17.456C129.563 17.456 129.839 17.4811 130.107 17.5314C131.799 17.7995 132.646 18.7042 132.646 20.2456C132.646 20.698 132.52 21.1336 132.269 21.5525C131.448 22.8091 129.697 23.4373 127.016 23.4373C125.927 23.4373 124.997 23.2866 124.226 22.985C123.07 22.5326 122.492 21.854 122.492 20.9493C122.492 20.3964 122.727 19.8603 123.196 19.3409C122.559 18.855 122.233 18.2016 122.216 17.3806C122.216 17.0623 122.274 16.7523 122.392 16.4507C122.76 15.5627 123.431 15.1271 124.402 15.1439C124.218 15.0266 124.034 14.9009 123.849 14.7669C122.66 13.8789 122.065 12.8234 122.065 11.6003C122.065 10.6955 122.333 9.8997 122.869 9.21276C123.774 8.0567 125.131 7.47867 126.941 7.47867ZM127.016 22.7839C127.82 22.7839 128.566 22.7085 129.253 22.5577C130.71 22.2394 131.439 21.6949 131.439 20.9242C131.439 20.7566 131.406 20.6058 131.339 20.4718C131.171 20.1032 130.551 19.9105 129.479 19.8938L124.779 19.8435C124.461 19.8435 124.134 19.7849 123.799 19.6676C123.514 20.0529 123.364 20.4383 123.347 20.8236C123.347 21.0415 123.397 21.2509 123.498 21.4519C123.95 22.3399 125.123 22.7839 127.016 22.7839ZM143.226 18.8382C141.902 18.8215 141.107 18.0591 140.838 16.5512C140.721 16.8528 140.562 17.146 140.361 17.4309C139.624 18.3691 138.593 18.8382 137.27 18.8382C136.801 18.8382 136.365 18.7712 135.963 18.6372C134.706 18.2183 134.078 17.2884 134.078 15.8476C134.095 13.6192 136.298 12.4715 140.688 12.4045V10.7961C140.688 10.4777 140.671 10.1845 140.637 9.91645C140.47 8.72688 139.883 8.13209 138.878 8.13209C138.61 8.13209 138.367 8.18236 138.149 8.28289C137.831 8.45043 137.571 8.87767 137.37 9.56461C137.303 9.76566 137.253 9.90807 137.22 9.99185C136.985 10.6118 136.566 10.9217 135.963 10.9217C135.812 10.9217 135.661 10.8966 135.511 10.8463C134.974 10.6788 134.706 10.3102 134.706 9.74053C134.706 9.43895 134.798 9.15412 134.983 8.88605C135.603 7.9478 136.968 7.47867 139.079 7.47867C139.548 7.47867 139.992 7.52055 140.411 7.60433C142.455 8.00644 143.477 9.28816 143.477 11.4495V16.7272C143.477 17.5314 143.67 17.9502 144.055 17.9838C144.558 17.967 144.86 17.3722 144.96 16.1994L145.614 16.2245C145.58 16.6937 145.521 17.0958 145.438 17.4309C145.153 18.3691 144.416 18.8382 143.226 18.8382ZM138.426 17.7827C138.627 17.7827 138.845 17.7324 139.079 17.6319C139.867 17.2801 140.403 16.5345 140.688 15.3952V13.1082C139.85 13.1249 139.163 13.2087 138.627 13.3595C137.488 13.6611 136.918 14.3815 136.918 15.5208C136.918 15.6046 136.918 15.6884 136.918 15.7722C136.985 17.1125 137.488 17.7827 138.426 17.7827ZM146.166 8.55934V7.90591H147.901V5.51839L150.665 4.99062V7.90591H154.183V8.55934H150.665V16.1743C150.665 16.3418 150.673 16.5094 150.69 16.6769C150.807 17.6319 151.218 18.1094 151.922 18.1094C152.743 18.0927 153.337 17.3387 153.706 15.8476L154.385 15.9481C154.284 16.4675 154.15 16.9115 153.982 17.2801C153.513 18.3356 152.617 18.8634 151.293 18.8634C149.182 18.7796 148.051 17.523 147.901 15.0936V8.55934H146.166ZM158.38 13.1585C158.38 14.348 158.464 15.303 158.632 16.0235C158.967 17.4644 159.763 18.1848 161.019 18.1848C161.438 18.1848 161.815 18.101 162.15 17.9335C163.172 17.3806 163.683 15.7554 163.683 13.0579C163.683 11.9186 163.599 10.9971 163.432 10.2934C163.097 8.85254 162.293 8.13209 161.019 8.13209C160.533 8.13209 160.106 8.241 159.738 8.45881C158.833 9.04522 158.38 10.6118 158.38 13.1585ZM161.12 7.47867C162.46 7.47867 163.616 7.83889 164.588 8.55934C165.995 9.59812 166.699 11.0976 166.699 13.0579C166.699 14.5156 166.263 15.7722 165.392 16.8277C164.286 18.1681 162.804 18.8382 160.944 18.8382C159.587 18.8382 158.406 18.4361 157.4 17.6319C156.026 16.5261 155.34 15.0014 155.34 13.0579C155.34 11.6505 155.758 10.4442 156.596 9.43895C157.702 8.13209 159.21 7.47867 161.12 7.47867ZM174.339 17.9335C174.423 17.9335 174.498 17.9419 174.565 17.9586C174.817 17.9921 174.942 18.2016 174.942 18.5869H168.132V17.9335C168.467 17.9335 168.743 17.9084 168.961 17.8581C169.464 17.7241 169.715 17.2968 169.715 16.5764V8.45881H168.132V7.83051H172.278L172.429 10.1929C172.63 9.70702 172.907 9.2714 173.258 8.88605C174.063 8.04832 174.976 7.62946 175.998 7.62946C176.199 7.62946 176.4 7.65459 176.601 7.70485C177.388 7.90591 177.782 8.40854 177.782 9.21276C177.782 9.41382 177.74 9.60649 177.657 9.79079C177.405 10.3772 176.978 10.6704 176.375 10.6704C176.207 10.6704 176.048 10.6453 175.897 10.595C175.579 10.4945 175.277 10.1761 174.993 9.64C174.775 9.25465 174.557 9.06197 174.339 9.06197C174.205 9.06197 174.046 9.12061 173.862 9.23789C173.074 9.79079 172.622 10.8715 172.505 12.4799V17.9335H174.339Z" fill="url(#paint0_linear_568_782)"/>
<g clip-path="url(#clip0_568_782)">
<path d="M45.9999 -1.61947C46.1779 -1.61947 46.3221 -1.47525 46.3221 -1.29725C46.3221 -1.11925 46.1779 -0.975027 45.9999 -0.975027C45.8219 -0.975027 45.6776 -1.11925 45.6776 -1.29725C45.6776 -1.47525 45.8221 -1.61947 45.9999 -1.61947ZM45.6776 -2.94911C45.6776 -3.12711 45.8219 -3.27133 45.9999 -3.27133C46.1779 -3.27133 46.3221 -3.12711 46.3221 -2.94911C46.3221 -2.77111 46.1779 -2.62689 45.9999 -2.62689C45.8221 -2.62715 45.6776 -2.77138 45.6776 -2.94911ZM45.1289 -5.25936C45.1289 -5.74055 45.5189 -6.13059 46.0001 -6.13059C46.4813 -6.13059 46.8714 -5.74055 46.8714 -5.25936C46.8714 -4.77817 46.4813 -4.38812 46.0001 -4.38812C45.5189 -4.38812 45.1289 -4.77817 45.1289 -5.25936ZM49.8553 16.288L54.0854 13.811C54.1203 13.5135 54.1364 13.2079 54.1364 12.9023C54.1364 12.0471 54.005 11.2241 53.7584 10.4494L40.068 18.4675C41.5504 20.0518 43.6601 21.0383 46.0004 21.0383C49.3727 21.0383 52.2626 18.9875 53.4984 16.0682L50.689 17.7115C50.5603 17.7865 50.4155 17.8241 50.2761 17.8241C49.992 17.8241 49.7159 17.6766 49.5604 17.4166C49.3298 17.0225 49.4639 16.5186 49.8553 16.288ZM49.1958 5.41769L43.1213 8.97769C42.9899 9.05275 42.8479 9.09028 42.7031 9.09028C42.4216 9.09028 42.1455 8.94284 41.9927 8.68013C41.7622 8.28607 41.8935 7.78209 42.2876 7.55155L46.9494 4.81989H46.9413C46.9279 4.81453 46.9145 4.81185 46.9011 4.80649C46.5982 4.66709 46.4293 4.34004 46.4293 4.00495V2.31878H47.4078C47.5499 2.31878 47.649 2.17938 47.6035 2.04534L47.397 1.44754C47.582 1.28938 47.7402 1.04543 47.8581 0.678175L49.2038 0.95697C49.4558 1.01058 49.6569 0.742513 49.5363 0.51465L48.094 -2.1902C47.9627 -5.47408 46.759 -8.98047 46.0004 -8.98047C45.2391 -8.98047 44.0381 -5.47408 43.9041 -2.1902L42.4645 0.51465C42.3439 0.742513 42.5423 1.01058 42.7969 0.95697L44.1427 0.678175C44.2606 1.04543 44.4161 1.28938 44.601 1.44754L44.3973 2.04534C44.3517 2.17938 44.4509 2.31878 44.5903 2.31878H45.5715V4.00495C45.5715 4.34004 45.3999 4.66709 45.0997 4.80649C45.0836 4.81453 45.0675 4.81721 45.0514 4.82257C41.0062 5.2917 37.8644 8.73107 37.8644 12.9023C37.8644 13.2293 37.8832 13.5537 37.9207 13.8727L47.0673 8.51393C47.1987 8.43619 47.3407 8.40134 47.4828 8.40134C47.7643 8.40134 48.0431 8.54878 48.1959 8.80881C48.4265 9.20287 48.2951 9.70953 47.901 9.94007L38.3067 15.5589C38.4997 16.1191 38.7544 16.6526 39.0573 17.1459L53.0963 8.92408C52.2223 7.36658 50.8525 6.1254 49.1958 5.41769Z" fill="url(#paint1_linear_568_782)"/>
</g>
<defs>
<linearGradient id="paint0_linear_568_782" x1="-0.319776" y1="26.2886" x2="174.466" y2="-16.7623" gradientUnits="userSpaceOnUse">
<stop stop-color="#2B0AFF"/>
<stop offset="0.49" stop-color="#FF5B8A"/>
<stop offset="0.55" stop-color="#FF5B8A"/>
<stop offset="0.77" stop-color="#FBA64B"/>
<stop offset="1" stop-color="#F99B52"/>
</linearGradient>
<linearGradient id="paint1_linear_568_782" x1="36.0399" y1="23.8901" x2="54.333" y2="21.2998" gradientUnits="userSpaceOnUse">
<stop stop-color="#2B0AFF"/>
<stop offset="0.49" stop-color="#FF5B8A"/>
<stop offset="0.55" stop-color="#FF5B8A"/>
<stop offset="0.77" stop-color="#FBA64B"/>
<stop offset="1" stop-color="#F99B52"/>
</linearGradient>
<clipPath id="clip0_568_782">
<rect width="19.0331" height="16.0843" fill="white" transform="translate(36.7259 4.8252)"/>
</clipPath>
</defs>
</svg>
