<svg width="26" height="25" viewBox="0 0 26 25" fill="none" xmlns="http://www.w3.org/2000/svg">
<path d="M21.3644 11.2135H23.4034C23.4034 5.98353 19.4549 2.03912 14.2178 2.03912V4.0781C18.3589 4.0781 21.3644 7.07846 21.3644 11.2135Z" fill="white"/>
<path d="M14.2279 8.15633C16.3719 8.15633 17.2864 9.07082 17.2864 11.2148H19.3254C19.3254 7.92695 17.5158 6.11735 14.2279 6.11735V8.15633ZM17.7166 13.7054C17.5207 13.5274 17.2633 13.4324 16.9987 13.4406C16.7341 13.4488 16.483 13.5594 16.2985 13.7493L13.8588 16.2582C13.2716 16.1461 12.0911 15.778 10.8758 14.5659C9.66059 13.3496 9.29255 12.166 9.18347 11.5828L11.6904 9.14218C11.8804 8.95778 11.9913 8.70668 11.9995 8.442C12.0076 8.17733 11.9125 7.91986 11.7342 7.72407L7.96722 3.58188C7.78885 3.38548 7.54095 3.26635 7.27616 3.24979C7.01137 3.23323 6.75055 3.32054 6.5491 3.49319L4.33681 5.39046C4.16055 5.56735 4.05535 5.80279 4.04116 6.05211C4.02587 6.30698 3.73429 12.3444 8.41579 17.0279C12.4999 21.111 17.6157 21.4097 19.0246 21.4097C19.2305 21.4097 19.357 21.4036 19.3906 21.4016C19.6399 21.3876 19.8752 21.2819 20.0512 21.1049L21.9475 18.8916C22.1203 18.6902 22.2077 18.4295 22.1914 18.1647C22.175 17.8999 22.0561 17.652 21.8598 17.4735L17.7166 13.7054Z" fill="white"/>
</svg>
