<svg width="18" height="18" viewBox="0 0 18 18" fill="none" xmlns="http://www.w3.org/2000/svg">
<g clip-path="url(#clip0_95_281)">
<g clip-path="url(#clip1_95_281)">
<g clip-path="url(#clip2_95_281)">
<path d="M16.9451 0.333984H1.05621C0.658984 0.333984 0.333984 0.658984 0.333984 1.05621V16.9451C0.333984 17.3423 0.658984 17.6673 1.05621 17.6673H16.9451C17.3423 17.6673 17.6673 17.3423 17.6673 16.9451V1.05621C17.6673 0.658984 17.3423 0.333984 16.9451 0.333984ZM5.46176 15.1035H2.89787V6.83399H5.46176V15.1035ZM4.19787 5.71454C3.36732 5.71454 2.71732 5.06454 2.71732 4.23399C2.71732 3.40343 3.36732 2.75343 4.19787 2.75343C5.02843 2.75343 5.67843 3.40343 5.67843 4.23399C5.67843 5.02843 5.02843 5.71454 4.19787 5.71454ZM15.1034 15.1035H12.5395V11.0951C12.5395 10.1201 12.5395 8.89232 11.2034 8.89232C9.86732 8.89232 9.65065 9.93954 9.65065 11.0229V15.1035H7.08676V6.83399H9.54232V7.95343H9.57843C9.90343 7.30343 10.7701 6.61732 11.9979 6.61732C14.5979 6.61732 15.0673 8.31454 15.0673 10.5535V15.1035H15.1034Z" fill="#F8F1DE"/>
</g>
</g>
</g>
<defs>
<clipPath id="clip0_95_281">
<rect width="18" height="18" fill="white"/>
</clipPath>
<clipPath id="clip1_95_281">
<rect width="18" height="18" fill="white"/>
</clipPath>
<clipPath id="clip2_95_281">
<rect width="18" height="18" fill="white"/>
</clipPath>
</defs>
</svg>
