<svg width="70" height="70" viewBox="0 0 70 70" fill="none" xmlns="http://www.w3.org/2000/svg">
<rect width="70" height="70" rx="35" fill="#CD72DD"/>
<path d="M20.6834 28.1226L20.6953 28.1477C20.7052 28.1749 20.7175 28.2011 20.7322 28.226L20.744 28.2511C20.744 28.2511 20.744 28.263 20.7543 28.2689C20.7795 28.3087 20.8087 28.3458 20.8415 28.3797L27.8583 35.3965L29.8733 40.552C29.8781 40.5615 29.882 40.5714 29.8851 40.5815C29.8965 40.6104 29.9099 40.6386 29.925 40.6657L29.9368 40.6894L29.9456 40.7086C29.9714 40.7497 30.0017 40.7878 30.0358 40.8223L39.2935 50.0801L39.2522 50.1717C39.0452 50.644 38.9381 51.154 38.9375 51.6696C38.9357 52.1593 39.0309 52.6445 39.2178 53.0971C39.4047 53.5497 39.6795 53.9607 40.0262 54.3065C40.0865 54.3674 40.1583 54.4157 40.2374 54.4487C40.3165 54.4818 40.4014 54.4987 40.4871 54.4987C40.5729 54.4987 40.6577 54.4818 40.7368 54.4487C40.8159 54.4157 40.8877 54.3674 40.948 54.3065L54.3096 40.9449C54.4315 40.8226 54.5 40.6568 54.5 40.4841C54.5 40.3113 54.4315 40.1455 54.3096 40.0232C53.9641 39.6766 53.5532 39.4022 53.1008 39.2158C52.6484 39.0294 52.1635 38.9348 51.6742 38.9374H51.5264C51.0608 38.9556 50.6028 39.0614 50.1763 39.2491L50.0832 39.2905L40.8254 30.0327C40.7608 29.9673 40.6826 29.9169 40.5964 29.8849L35.3937 27.8538L35.373 27.8316L28.3783 20.8384C28.3528 20.8138 28.3251 20.7916 28.2956 20.7719L28.2808 20.7586C28.2407 20.7329 28.1981 20.7111 28.1538 20.6936L16.4083 15.5544C16.3264 15.5193 16.2382 15.5012 16.1491 15.5012C16.06 15.5012 15.9718 15.5193 15.8898 15.5544C15.7323 15.6237 15.6085 15.7525 15.5454 15.9127C15.4823 16.0729 15.4851 16.2515 15.553 16.4097L20.6834 28.1226ZM51.5264 40.2359H51.6742C52.0201 40.2363 52.362 40.3104 52.6772 40.453L52.8707 40.5402L40.5433 52.8736L40.4561 52.6786C40.3149 52.363 40.2419 52.0212 40.2419 51.6755C40.2402 51.3574 40.3017 51.042 40.4229 50.7478C40.5441 50.4537 40.7226 50.1865 40.948 49.9619L49.9591 40.9509C50.3762 40.5292 50.9344 40.2767 51.5264 40.2418V40.2359ZM49.0048 40.0483L40.0587 48.9958L31.4184 40.3555L40.3645 31.4094L49.0048 40.0483ZM39.2005 30.7299L30.7404 39.1915L29.1745 35.1838L35.1928 29.1641L39.2005 30.7299ZM34.11 28.4033L28.4123 34.1128L22.2242 27.9247L27.9219 22.227L34.11 28.4033ZM26.7873 21.5061L21.5151 26.7783L19.4071 21.9582L21.9509 19.3981L26.7873 21.5061ZM20.6805 18.8338L18.8487 20.6848L17.4158 17.4112L20.6805 18.8338Z" fill="white"/>
<path d="M26.2067 30.0349L26.2495 30.0821C26.5013 30.3347 26.8007 30.5347 27.1304 30.6707C27.4601 30.8066 27.8135 30.8757 28.1701 30.874H28.303C28.9276 30.8452 29.5226 30.5997 29.9857 30.1796L30.0994 30.0777C30.5871 29.5872 30.8686 28.9287 30.8862 28.2373C30.9037 27.5459 30.6561 26.8739 30.194 26.3593L30.0876 26.2455C29.5875 25.7465 28.912 25.4629 28.2055 25.4555C27.499 25.448 26.8177 25.7173 26.3072 26.2056C26.285 26.2234 26.2717 26.2367 26.2584 26.2485C25.7578 26.7491 25.473 27.4258 25.465 28.1337C25.457 28.8416 25.7264 29.5245 26.2156 30.0363L26.2067 30.0349ZM27.1714 27.1689C27.18 27.1612 27.1879 27.1528 27.195 27.1437L27.2068 27.1334C27.4744 26.8854 27.8276 26.7504 28.1924 26.7568C28.5572 26.7631 28.9054 26.9102 29.1643 27.1674L29.2692 27.2723V27.2797C29.4875 27.5503 29.5983 27.8921 29.5803 28.2393C29.5623 28.5866 29.4168 28.9151 29.1717 29.1618L29.0668 29.2667L29.0594 29.2593C28.8485 29.4315 28.5916 29.5378 28.3207 29.5651V29.5739H28.173C27.9877 29.5738 27.8043 29.5369 27.6334 29.4654C27.4625 29.3939 27.3075 29.2892 27.1773 29.1573C27.1697 29.1487 27.1612 29.1408 27.1522 29.1337L27.1418 29.1234C26.8937 28.8557 26.7588 28.5024 26.7654 28.1375C26.772 27.7726 26.9196 27.4244 27.1773 27.1659L27.1714 27.1689Z" fill="white"/>
</svg>
