<svg width="500" height="500" viewBox="0 0 500 500" fill="none" xmlns="http://www.w3.org/2000/svg">
<g opacity="0.8">
<path d="M279.59 152.46C266.27 143.18 255.02 128.46 244.87 116.36C198.87 61.3602 120 67.3602 62.9901 106.13C41.5201 120.71 26.4101 136.63 18.1901 162.13C12.1301 181 15.0001 203.87 29.9001 216.83C39.5201 225.22 52.5001 228.34 64.0001 233.83C112.85 257.29 65.4501 299.65 43.3701 323.45C26.4801 341.65 19.3701 359.85 24.7101 385.01C32.9901 423.67 76.3901 448.85 111.1 458.47C162.78 472.79 213.67 462.71 233.33 455.77C272.82 441.85 308.6 418.18 339.09 389.69C360.61 369.57 379.99 347.01 403.61 329.4C417.96 318.7 433.7 309.97 448.08 299.3C462.46 288.63 475.74 275.59 482.74 259.11C492.82 235.36 484.74 206.35 465.37 189.71C446 173.07 418.31 166.31 393.54 165.57C351.74 164.34 313.27 175.93 279.59 152.46Z" fill="url(#paint0_linear_192_1209)" fill-opacity="0.4"/>
<path d="M288 138.36C315.6 158.59 353.38 153.36 386 152.25C394.55 151.96 405 148.69 410.34 141.97C417 133.49 413.22 124.4 406.78 115.76C395 100 377.64 89.2005 359.76 81.0005C337.9 71.0005 321.23 63.5005 274.81 60.3205C255.81 59.0205 241.5 62.6705 238.34 67.3205C232.49 76.0305 239.99 84.2005 245.83 92.6405C256.652 108.31 269.421 122.54 283.83 134.99C285.197 136.197 286.587 137.32 288 138.36Z" fill="url(#paint1_linear_192_1209)" fill-opacity="0.4"/>
<path opacity="0.3" d="M127.87 211.08C119.365 211.08 111.052 208.558 103.98 203.833C96.9091 199.108 91.3976 192.393 88.1431 184.535C84.8885 176.678 84.037 168.032 85.6961 159.691C87.3553 151.35 91.4506 143.688 97.4643 137.675C103.478 131.661 111.14 127.565 119.481 125.906C127.822 124.247 136.468 125.099 144.325 128.353C152.183 131.608 158.898 137.119 163.623 144.191C168.348 151.262 170.87 159.576 170.87 168.08C170.87 179.484 166.34 190.422 158.275 198.486C150.211 206.55 139.274 211.08 127.87 211.08ZM127.87 126.17C119.563 126.17 111.443 128.633 104.536 133.248C97.6291 137.863 92.2458 144.423 89.067 152.097C85.8881 159.772 85.0563 168.217 86.6769 176.364C88.2975 184.511 92.2976 191.995 98.1714 197.869C104.045 203.742 111.529 207.742 119.676 209.363C127.823 210.984 136.268 210.152 143.943 206.973C151.617 203.794 158.177 198.411 162.792 191.504C167.407 184.597 169.87 176.477 169.87 168.17C169.87 157.031 165.445 146.348 157.568 138.472C149.692 130.595 139.009 126.17 127.87 126.17Z" fill="white"/>
<path opacity="0.2" d="M127.87 214.2C118.758 214.2 109.851 211.498 102.275 206.435C94.6988 201.373 88.7939 194.178 85.3069 185.76C81.82 177.342 80.9077 168.078 82.6853 159.142C84.4629 150.205 88.8507 141.996 95.2937 135.553C101.737 129.11 109.946 124.722 118.882 122.945C127.819 121.167 137.082 122.08 145.5 125.566C153.918 129.053 161.114 134.958 166.176 142.534C171.238 150.111 173.94 159.018 173.94 168.13C173.927 180.344 169.069 192.054 160.432 200.691C151.795 209.328 140.085 214.186 127.87 214.2ZM127.87 123.06C118.956 123.06 110.242 125.703 102.831 130.655C95.4188 135.608 89.6421 142.647 86.2308 150.882C82.8196 159.118 81.927 168.18 83.6661 176.922C85.4051 185.665 89.6976 193.696 96.0008 199.999C102.304 206.302 110.335 210.595 119.077 212.334C127.82 214.073 136.882 213.18 145.118 209.769C153.353 206.358 160.392 200.581 165.344 193.169C170.297 185.757 172.94 177.044 172.94 168.13C172.929 156.18 168.178 144.722 159.728 136.272C151.278 127.822 139.82 123.07 127.87 123.06Z" fill="white"/>
<path opacity="0.1" d="M127.87 218C117.999 218 108.349 215.073 100.141 209.588C91.9338 204.104 85.5367 196.309 81.7592 187.189C77.9816 178.07 76.9932 168.034 78.919 158.353C80.8448 148.671 85.5982 139.778 92.5783 132.798C99.5583 125.818 108.451 121.065 118.133 119.139C127.815 117.213 137.85 118.201 146.97 121.979C156.09 125.756 163.884 132.154 169.369 140.361C174.853 148.569 177.78 158.218 177.78 168.09C177.756 181.319 172.49 194 163.135 203.355C153.781 212.71 141.1 217.976 127.87 218ZM127.87 119.18C118.197 119.18 108.74 122.048 100.697 127.423C92.6538 132.797 86.3849 140.436 82.683 149.373C78.9812 158.31 78.0126 168.144 79.8998 177.632C81.787 187.119 86.4452 195.834 93.2854 202.674C100.126 209.514 108.841 214.173 118.328 216.06C127.816 217.947 137.65 216.979 146.587 213.277C155.524 209.575 163.163 203.306 168.537 195.263C173.911 187.219 176.78 177.763 176.78 168.09C176.746 155.132 171.58 142.716 162.414 133.557C153.248 124.399 140.828 119.243 127.87 119.22V119.18Z" fill="white"/>
<path opacity="0.1" d="M127.87 222.81C117.053 222.81 106.479 219.602 97.4848 213.592C88.4908 207.582 81.4811 199.04 77.342 189.046C73.203 179.052 72.1205 168.056 74.2315 157.447C76.3426 146.837 81.5523 137.093 89.2018 129.445C96.8514 121.796 106.597 116.588 117.207 114.479C127.816 112.37 138.813 113.455 148.806 117.596C158.799 121.737 167.34 128.748 173.348 137.743C179.356 146.738 182.562 157.313 182.56 168.13C182.544 182.629 176.777 196.529 166.523 206.78C156.27 217.032 142.369 222.796 127.87 222.81ZM127.87 114.44C117.251 114.44 106.871 117.589 98.0414 123.488C89.2121 129.388 82.3305 137.773 78.2669 147.583C74.2032 157.394 73.14 168.189 75.2116 178.604C77.2832 189.019 82.3967 198.586 89.9054 206.094C97.4141 213.603 106.981 218.716 117.396 220.788C127.81 222.86 138.606 221.796 148.416 217.733C158.227 213.669 166.612 206.788 172.512 197.958C178.411 189.129 181.56 178.749 181.56 168.13C181.544 153.895 175.882 140.248 165.817 130.183C155.752 120.117 142.105 114.456 127.87 114.44Z" fill="white"/>
<path d="M127.87 207.569C149.652 207.569 167.31 189.912 167.31 168.129C167.31 146.347 149.652 128.689 127.87 128.689C106.088 128.689 88.4299 146.347 88.4299 168.129C88.4299 189.912 106.088 207.569 127.87 207.569Z" fill="black"/>
<path opacity="0.7" d="M127.87 207.569C149.652 207.569 167.31 189.912 167.31 168.129C167.31 146.347 149.652 128.689 127.87 128.689C106.088 128.689 88.4299 146.347 88.4299 168.129C88.4299 189.912 106.088 207.569 127.87 207.569Z" fill="white"/>
<path d="M123.46 144.46C123.18 143.78 122.88 143.12 122.58 142.46C122.03 141.31 115.99 130.46 115.58 130.62C113.193 131.399 110.886 132.404 108.69 133.62C111.09 137.18 114.1 140.62 116.23 144.34C117.679 147.111 118.861 150.014 119.76 153.01C120.139 154.288 120.702 155.504 121.43 156.62C121.8 157.178 122.279 157.655 122.837 158.025C123.395 158.394 124.022 158.647 124.68 158.77C124.891 158.808 125.108 158.791 125.31 158.72C125.78 158.52 125.91 157.92 125.95 157.41C126.116 152.96 125.264 148.531 123.46 144.46Z" fill="black"/>
<path d="M156.77 194.999C150.09 188.509 137.65 176.359 132.42 170.869C128.42 166.719 122.98 164.869 118.98 160.869C116.24 158.139 115.17 154.209 114.08 150.499C113.47 148.409 112.35 141.829 109.22 142.569C109.12 143.649 109.77 146.129 108.61 146.859C107.45 147.589 106.61 145.409 106.2 144.779C105.79 144.149 102.2 138.249 102.27 138.199C101.139 139.164 100.064 140.192 99.0498 141.279C102.52 147.679 108.05 157.959 109.37 160.079C111.24 163.209 109.37 166.669 107.04 163.309C105.6 161.219 99.1598 153.039 94.5098 147.159C92.9845 149.568 91.727 152.137 90.7598 154.819C94.4198 160.189 98.5898 166.819 104.56 169.819C105.532 170.374 106.62 170.696 107.737 170.758C108.855 170.821 109.972 170.623 111 170.179C112.35 169.499 113.42 168.249 114.89 167.909C116.73 167.479 118.54 168.609 120.07 169.719C123.24 172.009 126.33 174.419 129.26 177.009C130.783 178.144 132.175 179.445 133.41 180.889C134.01 181.769 134.13 183.699 133.13 184.419C133.13 184.789 131.69 184.729 131.49 184.679C130.962 184.486 130.474 184.198 130.05 183.829C128.74 182.949 127.34 182.179 125.99 181.359C124.99 180.719 123.61 180.069 122.57 180.709C122.58 181.254 122.706 181.791 122.938 182.284C123.171 182.777 123.506 183.215 123.92 183.569C126.563 186.452 129.48 189.07 132.63 191.389C133.212 191.857 133.867 192.226 134.57 192.479C134.922 192.605 135.299 192.647 135.67 192.602C136.042 192.557 136.398 192.426 136.71 192.219C137.33 191.759 137.62 190.939 138.29 190.549C138.615 190.391 138.975 190.319 139.335 190.34C139.696 190.361 140.045 190.475 140.35 190.669C141.77 191.479 142.85 193.039 144.21 194.009C146.533 195.941 148.709 198.044 150.72 200.299C152.911 198.742 154.938 196.966 156.77 194.999Z" fill="black"/>
<path d="M127.87 207.57C132.791 207.573 137.67 206.651 142.25 204.85C135.77 199.01 125.46 189.85 122.37 187.85C119.62 186.07 117.72 188.849 116.1 190.719C115.31 191.639 114.38 192.799 113.1 193.059C111.26 193.429 109.47 191.519 109.42 189.749C109.471 188.348 110.033 187.015 111 185.999C111.93 184.929 113.11 183.999 113.58 182.669C114.32 180.599 113.11 178.379 111.94 176.509C111.564 175.701 110.885 175.072 110.05 174.759C108.85 174.499 107.82 175.539 106.96 176.399C105.935 177.437 104.794 178.353 103.56 179.13C102.813 179.681 101.918 179.995 100.99 180.029C99.9792 179.889 99.031 179.458 98.2599 178.789C96.274 177.427 94.5157 175.76 93.0499 173.85C92.2399 172.85 91.4499 171.779 90.6599 170.729C90.2199 170.139 88.4199 168.409 88.4199 167.729C88.4199 167.859 88.4199 167.989 88.4199 168.119C88.4186 173.301 89.4381 178.431 91.4202 183.218C93.4023 188.005 96.3081 192.354 99.9716 196.018C103.635 199.681 107.985 202.587 112.772 204.569C117.558 206.551 122.689 207.571 127.87 207.57Z" fill="black"/>
<path d="M144 132.13C143.81 134.26 144.73 136.78 147.77 140.82C149.36 142.93 151.02 145 152.7 147.05C154.01 148.65 156.37 150.54 156.35 152.77C156.35 154.26 155.22 155.5 154.07 156.44C153.079 157.256 152.011 157.973 150.88 158.58C149.95 159.07 148.88 159.7 148.82 160.76C148.76 161.82 149.74 162.4 150.58 162.89C153.76 164.75 156.987 166.517 160.26 168.19C161.68 168.92 163.56 169.5 164.75 170.57C165.58 171.32 166.09 172.39 166.98 173.12C167.271 171.47 167.391 169.794 167.34 168.12C167.338 160.508 165.134 153.06 160.992 146.673C156.851 140.287 150.949 135.236 144 132.13Z" fill="black"/>
<path d="M143.75 155.74C144.245 155.374 144.763 155.04 145.3 154.74C146.47 154.11 147.83 153.41 148.14 152.12C148.54 150.38 146.8 148.96 145.27 148.03L140.51 145.12C139.718 144.687 138.994 144.141 138.36 143.5C137.754 142.758 137.278 141.919 136.95 141.02C135.983 138.712 135.168 136.343 134.51 133.93C134.26 133.04 133.77 129.08 132.4 128.93C129.275 128.574 126.119 128.598 123 129C123.8 128.95 125.62 133.76 125.88 134.47C127.095 137.6 128.068 140.82 128.79 144.1C129.39 147.32 133.39 148.93 135.91 150.68C136.29 150.897 136.599 151.22 136.8 151.61C136.929 152.122 136.85 152.665 136.58 153.12C135.771 154.563 134.88 155.959 133.91 157.3C132.943 158.662 132.548 160.349 132.81 162C133.318 163.457 134.23 164.741 135.44 165.7C143.86 173.76 152.76 181.52 160.73 189.96C162.431 187.408 163.827 184.666 164.89 181.79C165.18 181.01 160.58 177.3 159.98 176.79C157.27 174.64 154.22 172.88 151.5 170.68L143.93 164.54C142.706 163.74 141.757 162.585 141.21 161.23C141.051 160.554 141.048 159.851 141.2 159.174C141.353 158.496 141.657 157.862 142.09 157.32C142.562 156.713 143.121 156.181 143.75 155.74Z" fill="black"/>
<g opacity="0.2">
<path d="M132.29 191.8C132.57 192.48 132.86 193.13 133.17 193.8C133.72 194.95 139.76 205.8 140.17 205.64C142.56 204.869 144.867 203.864 147.06 202.64C144.66 199.08 141.65 195.64 139.52 191.93C138.066 189.157 136.884 186.25 135.99 183.25C135.609 181.971 135.043 180.755 134.31 179.64C133.94 179.085 133.462 178.61 132.906 178.243C132.35 177.875 131.725 177.622 131.07 177.5C130.864 177.44 130.646 177.44 130.44 177.5C129.97 177.69 129.84 178.29 129.8 178.8C129.617 183.267 130.469 187.716 132.29 191.8Z" fill="white"/>
<path d="M98.9998 141.289C105.68 147.789 118.11 159.929 123.35 165.419C127.35 169.579 132.79 171.419 136.79 175.419C139.52 178.149 140.6 182.079 141.68 185.789C142.29 187.879 143.42 194.459 146.55 193.719C146.65 192.639 146 190.159 147.16 189.429C148.32 188.699 149.16 190.869 149.56 191.509C149.96 192.149 153.56 198.029 153.5 198.089C154.62 197.115 155.688 196.084 156.7 194.999C153.23 188.589 147.64 178.319 146.38 176.199C144.51 173.059 146.38 169.599 148.7 172.959C150.15 175.049 156.58 183.239 161.24 189.109C162.763 186.699 164.02 184.13 164.99 181.449C161.33 176.079 157.15 169.449 151.19 166.449C150.218 165.894 149.13 165.572 148.012 165.51C146.895 165.447 145.778 165.646 144.75 166.089C143.4 166.769 142.33 168.019 140.86 168.359C139.02 168.789 137.21 167.649 135.68 166.539C132.51 164.249 129.42 161.839 126.49 159.259C125.17 158.089 123.34 156.829 122.34 155.369C121.74 154.489 121.62 152.559 122.62 151.839C122.62 151.469 124.05 151.529 124.26 151.579C124.783 151.782 125.269 152.069 125.7 152.429C127.01 153.309 128.41 154.089 129.76 154.909C130.76 155.549 132.13 156.189 133.18 155.549C133.171 155.004 133.044 154.468 132.81 153.976C132.575 153.484 132.238 153.049 131.82 152.699C129.187 149.809 126.273 147.19 123.12 144.879C122.537 144.41 121.882 144.039 121.18 143.779C120.825 143.658 120.447 143.618 120.075 143.663C119.703 143.708 119.345 143.837 119.03 144.039C118.42 144.499 118.12 145.329 117.46 145.709C117.136 145.871 116.776 145.947 116.415 145.927C116.054 145.908 115.704 145.795 115.4 145.599C113.98 144.779 112.89 143.219 111.54 142.259C109.207 140.338 107.021 138.245 105 135.999C102.827 137.556 100.817 139.328 98.9998 141.289Z" fill="white"/>
<path d="M127.87 128.689C122.949 128.689 118.072 129.608 113.49 131.399C119.98 137.249 130.29 146.399 133.38 148.399C136.13 150.179 138.03 147.399 139.65 145.519C140.44 144.609 141.37 143.439 142.65 143.189C144.49 142.809 146.28 144.729 146.33 146.499C146.275 147.899 145.71 149.229 144.74 150.239C143.82 151.309 142.64 152.239 142.16 153.559C141.42 155.639 142.64 157.859 143.81 159.719C144.186 160.531 144.864 161.162 145.7 161.479C146.89 161.739 147.93 160.699 148.79 159.829C149.811 158.795 150.949 157.883 152.18 157.109C152.928 156.553 153.828 156.235 154.76 156.199C155.77 156.342 156.717 156.773 157.49 157.439C159.476 158.802 161.234 160.469 162.7 162.379C163.5 163.379 164.3 164.459 165.09 165.509C165.53 166.089 167.33 167.819 167.33 168.509C167.33 168.379 167.33 168.249 167.33 168.119C167.328 162.939 166.307 157.81 164.323 153.025C162.339 148.24 159.432 143.892 155.767 140.231C152.103 136.569 147.753 133.665 142.967 131.685C138.18 129.705 133.05 128.687 127.87 128.689Z" fill="white"/>
<path d="M111.77 204.13C111.96 202 111.04 199.47 108 195.44C106.41 193.32 104.75 191.26 103.07 189.21C101.76 187.61 99.3898 185.71 99.4198 183.48C99.4198 181.99 100.55 180.76 101.7 179.81C102.691 178.997 103.759 178.283 104.89 177.68C105.81 177.18 106.89 176.55 106.89 175.5C106.89 174.45 105.97 173.86 105.14 173.37C101.96 171.51 98.7298 169.74 95.4498 168.06C94.0298 167.33 92.1598 166.76 90.9698 165.68C90.1298 164.93 89.6198 163.87 88.7398 163.13C88.45 164.78 88.3293 166.455 88.3798 168.13C88.3862 175.748 90.5983 183.202 94.749 189.59C98.8997 195.979 104.811 201.028 111.77 204.13Z" fill="white"/>
<path d="M112 180.52C111.508 180.89 110.99 181.224 110.45 181.52C109.29 182.16 107.92 182.85 107.62 184.15C107.21 185.89 108.96 187.31 110.49 188.24L115.25 191.15C116.041 191.579 116.766 192.121 117.4 192.76C118.005 193.502 118.482 194.34 118.81 195.24C119.778 197.55 120.593 199.922 121.25 202.34C121.49 203.23 121.99 207.19 123.35 207.34C124.854 207.516 126.366 207.606 127.88 207.61C129.515 207.608 131.148 207.505 132.77 207.3C131.97 207.35 130.14 202.54 129.89 201.82C128.675 198.688 127.698 195.469 126.97 192.19C126.38 188.98 122.38 187.37 119.86 185.61C119.475 185.398 119.165 185.073 118.97 184.68C118.903 184.426 118.887 184.162 118.925 183.902C118.963 183.643 119.053 183.394 119.19 183.17C120.001 181.733 120.889 180.341 121.85 179C122.82 177.639 123.219 175.951 122.96 174.3C122.452 172.842 121.54 171.559 120.33 170.6C111.9 162.49 103 154.74 94.9999 146.3C93.3009 148.852 91.9048 151.594 90.8399 154.47C90.5599 155.25 95.1599 158.95 95.7599 159.47C98.4699 161.63 101.52 163.39 104.23 165.59L111.81 171.73C113.028 172.531 113.976 173.681 114.53 175.03C114.686 175.707 114.688 176.411 114.536 177.09C114.384 177.769 114.081 178.404 113.65 178.95C113.18 179.551 112.624 180.08 112 180.52Z" fill="white"/>
</g>
<path opacity="0.1" d="M166.87 174.05C164 188.63 137.66 202 116.59 193C94.1798 183.41 89.9598 153.1 100.93 139.37C96.3368 143.668 92.8384 149.002 90.7264 154.926C88.6145 160.851 87.9502 167.195 88.7891 173.429C89.628 179.663 91.9457 185.606 95.5489 190.761C99.152 195.917 103.936 200.136 109.502 203.067C115.067 205.997 121.253 207.554 127.543 207.608C133.833 207.661 140.044 206.209 145.658 203.373C151.273 200.537 156.128 196.4 159.818 191.306C163.507 186.212 165.925 180.309 166.87 174.09V174.05Z" fill="black"/>
<path opacity="0.6" d="M151.268 152.3C152.739 143.239 146.586 134.702 137.526 133.231C128.466 131.761 119.929 137.913 118.458 146.974C116.987 156.034 123.14 164.571 132.2 166.042C141.261 167.513 149.798 161.36 151.268 152.3Z" fill="white"/>
<path opacity="0.6" d="M155.73 175.09C159.933 175.09 163.34 171.683 163.34 167.48C163.34 163.277 159.933 159.87 155.73 159.87C151.527 159.87 148.12 163.277 148.12 167.48C148.12 171.683 151.527 175.09 155.73 175.09Z" fill="white"/>
<path opacity="0.1" d="M88.4299 168.129C88.4328 176.71 91.2333 185.056 96.4067 191.901C101.58 198.747 108.845 203.719 117.098 206.064C125.352 208.409 134.146 207.999 142.146 204.896C150.146 201.793 156.916 196.167 161.43 188.869C160.54 190.259 149.38 207.809 121.81 202.759C93.0999 197.499 88.4299 168.139 88.9199 161.939C88.5943 163.987 88.4305 166.056 88.4299 168.129Z" fill="black"/>
<path d="M414.474 273.258C424.459 252.456 415.689 227.498 394.887 217.514C374.085 207.529 349.127 216.298 339.142 237.101C329.158 257.903 337.927 282.861 358.729 292.845C379.532 302.83 404.49 294.061 414.474 273.258Z" fill="black"/>
<path opacity="0.116667" d="M407.871 267.755C415.97 248.994 407.327 227.22 388.566 219.121C369.805 211.022 348.03 219.665 339.931 238.426C331.832 257.187 340.475 278.961 359.236 287.06C377.997 295.16 399.771 286.516 407.871 267.755Z" fill="white"/>
<path opacity="0.233333" d="M400.244 264.791C407.79 248.67 400.837 229.484 384.715 221.938C368.593 214.393 349.407 221.346 341.862 237.468C334.317 253.59 341.27 272.776 357.391 280.321C373.513 287.866 392.699 280.913 400.244 264.791Z" fill="white"/>
<path opacity="0.35" d="M393.543 259.492C399.306 245.469 392.61 229.43 378.587 223.668C364.565 217.906 348.526 224.602 342.764 238.624C337.001 252.646 343.697 268.685 357.72 274.447C371.742 280.21 387.781 273.514 393.543 259.492Z" fill="white"/>
<path opacity="0.466667" d="M386.281 255.592C391.002 243.996 385.428 230.768 373.831 226.048C362.235 221.327 349.008 226.901 344.287 238.497C339.567 250.093 345.14 263.321 356.737 268.041C368.333 272.762 381.56 267.188 386.281 255.592Z" fill="white"/>
<path opacity="0.583333" d="M369.457 261.469C378.546 257.579 382.76 247.058 378.87 237.97C374.981 228.881 364.46 224.667 355.371 228.557C346.283 232.446 342.068 242.967 345.958 252.056C349.848 261.144 360.369 265.359 369.457 261.469Z" fill="white"/>
<path opacity="0.7" d="M368.817 252.27C373.941 247.147 373.941 238.84 368.817 233.716C363.694 228.592 355.387 228.592 350.263 233.716C345.139 238.84 345.139 247.147 350.263 252.27C355.387 257.394 363.694 257.394 368.817 252.27Z" fill="white"/>
<path opacity="0.05" d="M415.58 270.689C413.54 275.783 410.517 280.424 406.683 284.349C402.849 288.274 398.279 291.406 393.235 293.565C388.191 295.724 382.771 296.868 377.285 296.932C371.799 296.997 366.353 295.98 361.26 293.939C360.58 293.669 359.92 293.379 359.26 293.079C368.805 293.136 378.081 289.924 385.547 283.978C393.013 278.031 398.218 269.708 400.296 260.392C402.375 251.076 401.203 241.33 396.973 232.773C392.744 224.217 385.713 217.366 377.05 213.359C383.855 213.411 390.545 215.123 396.539 218.346C402.533 221.569 407.65 226.206 411.445 231.855C415.241 237.504 417.6 243.994 418.319 250.761C419.038 257.529 418.094 264.369 415.57 270.689H415.58Z" fill="#455A64"/>
<path opacity="0.1" d="M402 225.71C408.186 231.14 412.485 238.397 414.275 246.431C416.066 254.465 415.256 262.861 411.963 270.405C408.669 277.948 403.062 284.249 395.952 288.397C388.842 292.545 380.598 294.325 372.41 293.48C380.164 292.305 387.422 288.94 393.328 283.78C399.235 278.621 403.545 271.881 405.751 264.355C407.957 256.829 407.968 248.83 405.781 241.298C403.595 233.766 399.303 227.015 393.41 221.84C391.727 220.364 389.928 219.026 388.03 217.84C393.186 219.457 397.945 222.138 402 225.71Z" fill="#455A64"/>
<path opacity="0.5" d="M371.228 275.94C374.192 269.328 371.233 261.565 364.621 258.602C358.009 255.639 350.246 258.597 347.283 265.209C344.32 271.821 347.278 279.584 353.89 282.547C360.502 285.511 368.265 282.553 371.228 275.94Z" fill="white"/>
<path opacity="0.5" d="M375.994 241.221C380.464 235.518 379.465 227.271 373.762 222.801C368.059 218.331 359.812 219.33 355.342 225.033C350.872 230.736 351.872 238.983 357.575 243.453C363.277 247.923 371.524 246.924 375.994 241.221Z" fill="white"/>
<path opacity="0.5" d="M342.86 254.34C341.672 253.864 340.651 253.047 339.928 251.992C339.204 250.936 338.81 249.69 338.795 248.41C338.779 247.13 339.144 245.875 339.842 244.803C340.541 243.73 341.542 242.889 342.718 242.385C343.895 241.882 345.194 241.738 346.452 241.973C347.71 242.208 348.87 242.811 349.785 243.705C350.701 244.6 351.331 245.745 351.595 246.997C351.859 248.25 351.746 249.552 351.27 250.74C350.632 252.332 349.387 253.606 347.81 254.281C346.233 254.956 344.453 254.977 342.86 254.34Z" fill="white"/>
<g opacity="0.1">
<path d="M460.21 215.129C458.83 212.689 455.31 208.609 447.21 208.609C438.79 208.609 425.01 212.869 406.21 221.279L403.94 222.279L403.06 222.659C403.35 222.889 403.64 223.119 403.92 223.379L404.34 223.199L406.62 222.199C425.27 213.849 438.92 209.619 447.19 209.619C454.77 209.619 458.04 213.389 459.31 215.619C464.91 225.499 454.13 238.689 423.31 259.729C421.503 260.969 419.653 262.206 417.76 263.439C409.54 268.839 400.66 274.249 391.29 279.549C381.68 284.999 371.93 290.109 362.75 294.499C360.7 295.499 358.68 296.429 356.7 297.329C336.77 306.449 322.27 311.069 313.58 311.069C305.99 311.069 302.73 307.299 301.46 305.069C296.06 295.539 305.26 283.619 333.2 263.939L335.25 262.499L335.62 262.229C335.55 261.869 335.5 261.509 335.45 261.139L334.67 261.689L332.67 263.129C304.2 283.129 294.92 295.469 300.67 305.559C302.04 307.999 305.57 312.079 313.67 312.079C322.5 312.079 337.15 307.429 357.21 298.249C359.49 297.249 361.82 296.109 364.21 294.969C373.13 290.669 382.58 285.709 391.9 280.429C400.97 275.289 409.57 270.069 417.57 264.839C419.763 263.406 421.903 261.979 423.99 260.559C455.26 239.149 466.12 225.559 460.21 215.129Z" fill="white"/>
</g>
<g opacity="0.1">
<path d="M421.61 257.25C420.54 257.98 419.46 258.7 418.37 259.43C409.58 265.29 400 271.18 389.8 277C379.39 282.89 368.8 288.39 359 293C357.8 293.57 356.61 294.12 355.44 294.66C342.01 300.8 323.85 308.12 313.57 308.12C307.81 308.12 305.22 305.68 304.06 303.63C299.73 295.98 309.25 284.51 334.92 266.44L336.29 265.44C336.37 265.78 336.47 266.12 336.57 266.44L335.5 267.2C310.34 284.92 300.91 295.99 304.93 303.09C305.93 304.9 308.29 307.09 313.57 307.09C323.67 307.09 341.69 299.82 355.03 293.72L357.85 292.41C367.85 287.73 378.66 282.13 389.31 276.1C399.73 270.19 409.53 264.17 418.48 258.18C419.35 257.61 420.2 257.03 421.05 256.45C457.78 231.45 458.51 222.3 455.86 217.62C454.86 215.81 452.5 213.62 447.22 213.62C437.62 213.62 420.75 220.27 408.29 225.85L407.1 226.39C406.85 226.13 406.61 225.87 406.35 225.62L407.88 224.94C420.43 219.32 437.45 212.62 447.22 212.62C452.98 212.62 455.57 215.06 456.73 217.11C459.57 222.12 459 231.74 421.61 257.25Z" fill="white"/>
</g>
<g opacity="0.2">
<path d="M419.92 254.77L418.58 255.68C409.34 261.92 399.17 268.19 388.32 274.33C377.23 280.61 365.98 286.43 355.66 291.21L354.2 291.88C335.6 300.38 321.2 305.07 313.57 305.07C310.11 305.07 307.78 304.07 306.67 302.07C303.36 296.23 313.17 285.35 336.67 268.81L337.21 268.43C337.32 268.76 337.43 269.08 337.56 269.43L337.24 269.65C309 289.54 305.5 298 307.54 301.61C308.46 303.24 310.49 304.07 313.54 304.07C321 304.07 335.28 299.42 353.75 290.97L354.6 290.58C365.06 285.76 376.53 279.86 387.8 273.46C398.8 267.2 409.18 260.82 418.55 254.46L419.33 253.93C444.28 236.93 456.33 224.53 453.22 219.06C452.3 217.43 450.27 216.6 447.22 216.6C440.14 216.6 426.75 220.85 409.51 228.6L409.17 228.75L408.51 227.96L409.11 227.69C426.47 219.91 440.01 215.63 447.22 215.63C450.68 215.63 453.01 216.63 454.12 218.63C457.61 224.74 446.11 236.92 419.92 254.77Z" fill="white"/>
</g>
<g opacity="0.3">
<path d="M428.6 231.36L428.4 231.91C428 233 426.08 236.28 416.89 243.43L416.4 243.81C405.843 251.728 394.761 258.922 383.23 265.34C369.81 272.94 356.8 279.27 346.58 283.16L345.98 283.39C339.81 285.7 334.98 286.98 332.33 286.98C331.995 286.983 331.66 286.956 331.33 286.9L330.76 286.78L330.96 286.23C331.32 285.23 332.96 282.36 340.67 276.13C340.83 276.43 341 276.72 341.18 277.01C334.98 282.01 332.89 284.76 332.18 286.01H332.32C334.82 286.01 339.39 284.81 345.26 282.62L346.26 282.26C356.43 278.38 369.4 272.07 382.77 264.5C394.251 258.089 405.283 250.906 415.79 243L416.58 242.39C424.02 236.56 426.41 233.47 427.17 232.15H427C424.47 232.15 419.77 233.4 413.73 235.67C413.58 235.37 413.42 235.07 413.25 234.78C419.45 232.44 424.33 231.15 427 231.15C427.335 231.146 427.67 231.173 428 231.23L428.6 231.36Z" fill="white"/>
</g>
<path d="M452 219.81C454.61 224.43 440.84 237.51 418.56 252.7C409.36 258.98 398.7 265.61 387.14 272.16C375.14 278.94 363.61 284.85 353.21 289.6C329.27 300.55 311.47 305.42 308.89 300.87C306.45 296.55 318.35 284.82 338.14 270.87C338.69 272.21 339.3 273.52 339.98 274.8C332.48 280.8 328.46 285.48 329.58 287.47C330.7 289.46 337.39 288.28 347.16 284.56C359.85 279.469 372.161 273.481 384 266.64C395.583 260.189 406.716 252.959 417.32 245C426.16 238.17 431.05 232.83 429.83 230.67C428.61 228.51 422.15 229.83 412.52 233.48C411.78 232.26 410.98 231.08 410.13 229.95C432.8 219.8 449.46 215.42 452 219.81Z" fill="url(#paint2_linear_192_1209)"/>
<path d="M238.9 282C238.813 280.41 238.353 278.863 237.557 277.484C236.762 276.104 235.653 274.931 234.32 274.06C233.901 273.777 233.425 273.589 232.925 273.512C232.426 273.434 231.915 273.467 231.43 273.61L211.59 281.33L221.3 298L237.86 284.72C238.223 284.371 238.504 283.946 238.684 283.476C238.864 283.006 238.938 282.502 238.9 282Z" fill="#F5F5F5"/>
<path d="M227.91 274.91C228.421 274.794 228.951 274.782 229.467 274.877C229.982 274.972 230.473 275.17 230.91 275.46C232.382 276.422 233.608 277.718 234.487 279.241C235.366 280.765 235.874 282.474 235.97 284.23C235.997 284.743 235.923 285.256 235.751 285.74C235.58 286.224 235.314 286.669 234.97 287.05L236.58 285.75L237.87 284.68C238.226 284.335 238.502 283.916 238.68 283.453C238.858 282.991 238.933 282.495 238.9 282C238.813 280.41 238.353 278.863 237.557 277.484C236.762 276.104 235.653 274.931 234.32 274.06C233.901 273.777 233.425 273.589 232.926 273.512C232.426 273.434 231.915 273.467 231.43 273.61L229.75 274.24L227.91 274.91Z" fill="black"/>
<path opacity="0.1" d="M238.49 279.55L217.59 291.61L221.3 298L237.86 284.72C238.223 284.371 238.504 283.946 238.684 283.476C238.864 283.006 238.938 282.502 238.9 282C238.892 281.167 238.753 280.34 238.49 279.55Z" fill="#455A64"/>
<path d="M216 282C217.999 283.305 219.663 285.062 220.857 287.129C222.05 289.197 222.74 291.516 222.87 293.9C222.87 298.28 219.79 300.05 216 297.9C214.001 296.595 212.337 294.838 211.144 292.771C209.95 290.703 209.26 288.384 209.13 286C209.13 281.54 212.21 279.77 216 282Z" fill="#E0E0E0"/>
<path d="M232.7 263.26C232.612 261.672 232.152 260.127 231.356 258.749C230.561 257.371 229.452 256.2 228.12 255.33C227.702 255.045 227.226 254.857 226.726 254.779C226.226 254.701 225.715 254.736 225.23 254.88L205.39 262.6L215.12 279.33L231.66 266C232.025 265.648 232.307 265.22 232.487 264.747C232.666 264.273 232.739 263.766 232.7 263.26Z" fill="#F5F5F5"/>
<path d="M221.71 256.22C222.213 256.107 222.734 256.097 223.242 256.192C223.749 256.286 224.231 256.483 224.66 256.77C226.134 257.729 227.362 259.022 228.243 260.544C229.124 262.066 229.633 263.774 229.73 265.53C229.758 266.043 229.684 266.557 229.513 267.041C229.341 267.525 229.075 267.97 228.73 268.35L230.34 267.06L231.63 265.99C231.986 265.636 232.26 265.208 232.433 264.736C232.605 264.265 232.673 263.761 232.63 263.26C232.542 261.672 232.082 260.127 231.286 258.749C230.491 257.371 229.382 256.2 228.05 255.33C227.632 255.045 227.156 254.857 226.656 254.779C226.156 254.701 225.645 254.736 225.16 254.88L223.48 255.5L221.71 256.22Z" fill="black"/>
<path opacity="0.1" d="M232.28 260.85L211.39 272.92L215.1 279.3L231.66 266C232.016 265.645 232.29 265.217 232.463 264.745C232.635 264.274 232.703 263.77 232.66 263.27C232.657 262.448 232.529 261.632 232.28 260.85Z" fill="#455A64"/>
<path d="M214.652 279.596C217.335 278.047 217.337 273.026 214.656 268.382C211.974 263.738 207.625 261.229 204.942 262.778C202.259 264.327 202.257 269.348 204.939 273.992C207.62 278.636 211.969 281.145 214.652 279.596Z" fill="#E0E0E0"/>
<path d="M111.36 323.29L133.76 297.42L139.36 255.38L150.56 248.91L195.37 274.79L111.36 323.29Z" fill="black"/>
<path opacity="0.6" d="M111.36 323.29L133.76 297.42L139.36 255.38L150.56 248.91L195.37 274.79L111.36 323.29Z" fill="white"/>
<path d="M150.56 248.91L139.36 255.38L184.17 281.25L195.37 274.79L150.56 248.91Z" fill="black"/>
<path opacity="0.3" d="M150.56 248.91L139.36 255.38L184.17 281.25L195.37 274.79L150.56 248.91Z" fill="#455A64"/>
<path d="M212.18 258.539C208.26 256.279 204.63 255.619 201.65 256.339C200.897 256.511 200.173 256.791 199.5 257.169L199.06 257.409L131.77 296.269C120.722 302.651 111.318 311.528 104.31 322.189L82.6699 355.089L86.9999 361.169L120.25 355.829C130.605 354.175 140.57 350.636 149.65 345.389L225.3 301.719C227.95 300.079 229.73 296.989 230.24 292.719C230.337 291.85 230.387 290.975 230.39 290.099C230.38 278.469 222.23 264.349 212.18 258.539Z" fill="black"/>
<path opacity="0.9" d="M212.18 258.539C208.26 256.279 204.63 255.619 201.65 256.339C200.897 256.511 200.173 256.791 199.5 257.169L199.06 257.409L131.77 296.269C120.722 302.651 111.318 311.528 104.31 322.189L82.6699 355.089L86.9999 361.169L120.25 355.829C130.605 354.175 140.57 350.636 149.65 345.389L225.3 301.719C227.95 300.079 229.73 296.989 230.24 292.719C230.337 291.85 230.387 290.975 230.39 290.099C230.38 278.469 222.23 264.349 212.18 258.539Z" fill="white"/>
<path d="M216.64 306.69C219.29 305.05 221.07 301.96 221.58 297.69C221.678 296.82 221.728 295.945 221.73 295.07C221.73 283.46 213.58 269.34 203.53 263.54C199.61 261.27 195.99 260.61 193.01 261.33C192.257 261.499 191.532 261.779 190.86 262.16L199.5 257.16C200.173 256.781 200.897 256.501 201.65 256.33C204.65 255.61 208.26 256.27 212.18 258.53C222.18 264.34 230.38 278.46 230.38 290.07C230.378 290.945 230.328 291.82 230.23 292.69C229.72 296.98 227.94 300.07 225.29 301.69L216.64 306.69Z" fill="black"/>
<path d="M89.4101 349.209C88.6838 348.745 87.8312 348.518 86.9701 348.559L84.5301 352.269L82.6701 355.099C82.2761 355.702 82.0519 356.399 82.021 357.118C81.9901 357.837 82.1538 358.551 82.4947 359.185C82.8356 359.818 83.3412 360.348 83.9582 360.719C84.5751 361.089 85.2805 361.286 86.0001 361.289C86.338 361.284 86.6739 361.237 87.0001 361.149L89.8401 360.699L93.6701 360.079C94.0123 359.569 94.222 358.981 94.2801 358.369C94.2801 358.149 94.2801 357.909 94.2801 357.659C94.1889 355.968 93.7004 354.321 92.8543 352.853C92.0083 351.385 90.8283 350.137 89.4101 349.209Z" fill="black"/>
<path opacity="0.6" d="M133.76 313.589C143.59 307.779 191.09 280.409 219.2 264.229C217.154 262.004 214.797 260.087 212.2 258.539C208.28 256.279 204.65 255.619 201.67 256.339C200.917 256.511 200.193 256.791 199.52 257.169L199.08 257.409L131.79 296.269C120.742 302.651 111.338 311.528 104.33 322.189L83.43 353.929L82.67 355.099C82.2343 355.754 82.0012 356.523 82 357.309C81.9964 358.28 82.3527 359.217 83 359.939C81 355.629 98.77 344.049 108.61 334.759C118.45 325.469 128.23 316.859 133.76 313.589Z" fill="white"/>
<path d="M123.93 335.87C121.11 330.07 116.85 325.22 112.24 322.57C110.201 321.319 107.879 320.604 105.49 320.49C105.1 321.06 104.69 321.61 104.31 322.19L95.3101 335.87L96.4001 335.77C96.5365 335.76 96.6736 335.76 96.8101 335.77C98.1145 335.827 99.3822 336.219 100.49 336.91C103.326 338.712 105.637 341.23 107.19 344.21L107.83 345.37L124.53 337.12L123.93 335.87Z" fill="black"/>
<path d="M111.55 323.76C109.465 322.431 107.02 321.778 104.55 321.89L96.27 334.4C97.9988 334.313 99.7117 334.768 101.17 335.7C104.233 337.622 106.728 340.324 108.4 343.53L122.69 336.47C120.11 331.16 116.08 326.37 111.55 323.76Z" fill="#455A64"/>
<path opacity="0.1" d="M111.55 323.76C109.465 322.431 107.02 321.778 104.55 321.89L96.27 334.4C96.8656 334.354 97.4647 334.391 98.05 334.51C99.18 333.25 100.32 331.23 102.27 331.59C104.53 332.01 106.27 334.29 108.11 335.45C108.588 335.779 109.129 336.005 109.698 336.115C110.268 336.225 110.854 336.217 111.42 336.09C112.393 335.671 113.271 335.059 114 334.29C114.366 333.91 114.817 333.621 115.315 333.447C115.814 333.274 116.347 333.22 116.87 333.29C117.99 333.59 118.43 334.67 118.87 335.62C119.261 336.354 119.595 337.116 119.87 337.9L122.73 336.48C120.11 331.16 116.08 326.37 111.55 323.76Z" fill="white"/>
<path opacity="0.05" d="M104.47 329L104.54 329.05C105.451 329.657 106.396 330.211 107.37 330.71C108.18 331.13 109.26 331.48 109.94 330.87C110.62 330.26 110.47 329.08 111.19 328.58C111.493 328.404 111.84 328.317 112.19 328.33C113.823 328.351 115.428 328.754 116.876 329.508C118.325 330.262 119.576 331.345 120.53 332.67C118.257 329.04 115.177 325.984 111.53 323.74C109.445 322.41 107 321.757 104.53 321.87L99.6899 329.21C101.44 327.92 102.68 327.86 104.47 329Z" fill="white"/>
<path opacity="0.15" d="M230.23 292.7C230.327 291.83 230.377 290.955 230.38 290.08C230.367 289.054 230.301 288.029 230.18 287.01C206.81 300.45 149.79 333.26 139.36 339.46C126.17 347.3 93.7099 358.46 85.3599 358.86C83.3599 358.97 82.6599 357.44 82.7099 355.05V355.1C82.3177 355.699 82.0936 356.393 82.061 357.108C82.0285 357.824 82.1886 358.535 82.5248 359.167C82.861 359.8 83.3608 360.331 83.9721 360.704C84.5834 361.077 85.2837 361.28 85.9999 361.29C86.3378 361.285 86.6737 361.238 86.9999 361.15L120.25 355.81C130.605 354.155 140.57 350.616 149.65 345.37L225.3 301.7C227.94 300.08 229.72 297 230.23 292.7Z" fill="black"/>
<path opacity="0.6" d="M86.9999 361.15L89.8399 360.7L93.6699 360.08C94.0121 359.57 94.2218 358.982 94.2799 358.37C94.2799 358.15 94.2799 357.91 94.2799 357.66C94.2799 357.41 94.2799 357.26 94.2799 357.06C91.3703 357.925 88.388 358.524 85.3699 358.85C83.3699 358.96 82.6699 357.43 82.7199 355.04V355.09C82.3255 355.689 82.0993 356.383 82.0649 357.099C82.0305 357.815 82.1893 358.527 82.5246 359.161C82.8599 359.795 83.3594 360.327 83.9708 360.701C84.5822 361.076 85.283 361.279 85.9999 361.29C86.307 361.287 86.6125 361.246 86.9099 361.17L86.9999 361.15Z" fill="#455A64"/>
<path d="M268.19 316.83L223.38 290.95L139.36 339.46L184.17 329.76L256.99 326.53L268.19 320.06V316.83Z" fill="black"/>
<path opacity="0.6" d="M268.19 316.83L223.38 290.95L139.36 339.46L184.17 329.76L256.99 326.53L268.19 320.06V316.83Z" fill="white"/>
<path d="M184.17 329.76V326.53L139.36 339.46L184.17 329.76Z" fill="black"/>
<path d="M184.17 326.53L256.99 323.29V326.53L184.17 329.76V326.53Z" fill="black"/>
<path opacity="0.3" d="M184.17 326.53L256.99 323.29V326.53L184.17 329.76V326.53Z" fill="white"/>
<path d="M212.18 297.42L256.99 323.29L268.19 316.83L223.38 290.95L212.18 297.42Z" fill="black"/>
<path opacity="0.3" d="M212.18 297.42L256.99 323.29L268.19 316.83L223.38 290.95L212.18 297.42Z" fill="#455A64"/>
<path d="M268.19 316.83L256.99 323.29V326.53L268.19 320.06V316.83Z" fill="black"/>
<path opacity="0.5" d="M268.19 316.83L256.99 323.29V326.53L268.19 320.06V316.83Z" fill="#455A64"/>
<path d="M220.59 218.21L214.99 221.45L186.98 269.95L189.77 271.55L212.24 258.58L223.38 219.81L220.59 218.21Z" fill="black"/>
<path d="M189.77 271.55L212.24 258.58L223.38 219.81L217.78 223.04L189.77 271.55Z" fill="black"/>
<path opacity="0.5" d="M214.99 221.45L217.78 223.04L223.38 219.81L220.59 218.21L214.99 221.45Z" fill="white"/>
<path opacity="0.6" d="M217.78 223.04L189.77 271.55L212.24 258.58L223.38 219.81L217.78 223.04Z" fill="#455A64"/>
<path opacity="0.8" d="M230 260.77C227.77 256.91 226.56 249.77 233.17 245.41C239.78 241.05 245.04 243.49 245.04 243.49C245.04 243.49 242.55 245.49 242.62 247.41C242.62 247.41 249.79 241.11 255.17 243.77C255.17 243.77 250.77 245.93 251.4 247.86C252.03 249.79 259.67 246.26 262.32 242.71C262.32 242.71 262.7 245.82 259.59 249.65C256.48 253.48 249.84 256.54 249.84 256.54C250.642 256.867 251.507 257.012 252.372 256.963C253.236 256.915 254.08 256.674 254.84 256.26C254.84 256.26 250.67 262.77 244.89 265.56C242.27 266.841 239.256 267.058 236.48 266.165C233.704 265.272 231.381 263.338 230 260.77Z" fill="black"/>
<path opacity="0.8" d="M233.28 258.84C231.23 255.29 234.7 249.98 241.58 250.6C241.58 250.6 238.41 252.71 239.38 254.52C240.35 256.33 246.8 252.86 248.1 251.82C248.1 251.82 245.93 257.37 241.67 259.82C238.62 261.59 235.2 262.18 233.28 258.84Z" fill="white"/>
<path opacity="0.8" d="M235.73 278.58C237.96 282.44 243.52 287.06 250.62 283.51C257.72 279.96 258.21 274.19 258.21 274.19C258.21 274.19 255.21 275.33 253.61 274.33C253.61 274.33 262.61 271.27 263.03 265.28C263.03 265.28 258.97 268.01 257.6 266.5C256.23 264.99 263.13 260.14 267.53 259.62C267.53 259.62 265.03 257.74 260.15 258.51C255.27 259.28 249.05 264.57 249.05 264.57C248.973 263.668 249.089 262.76 249.39 261.906C249.692 261.053 250.173 260.273 250.8 259.62C246.613 259.763 242.54 261.02 239 263.26C236.577 264.893 234.882 267.403 234.272 270.26C233.662 273.118 234.185 276.101 235.73 278.58Z" fill="black"/>
<path opacity="0.8" d="M239 276.73C241.05 280.27 247.38 279.92 250.28 273.65C250.28 273.65 246.87 275.35 245.79 273.59C244.71 271.83 250.94 268 252.49 267.4C252.49 267.4 246.59 266.5 242.34 268.96C239.31 270.72 237.1 273.39 239 276.73Z" fill="white"/>
<path opacity="0.5" d="M349.76 341.791C348.101 341.791 346.479 341.299 345.099 340.377C343.719 339.455 342.644 338.145 342.009 336.611C341.374 335.078 341.208 333.391 341.531 331.764C341.855 330.136 342.654 328.641 343.827 327.468C345.001 326.295 346.496 325.496 348.123 325.172C349.751 324.848 351.438 325.014 352.971 325.649C354.504 326.284 355.814 327.36 356.736 328.74C357.658 330.119 358.15 331.741 358.15 333.401C358.15 335.626 357.266 337.76 355.693 339.333C354.119 340.907 351.985 341.791 349.76 341.791ZM349.76 325.691C348.235 325.691 346.745 326.143 345.477 326.99C344.209 327.837 343.221 329.041 342.637 330.45C342.053 331.859 341.901 333.409 342.198 334.905C342.496 336.4 343.23 337.774 344.308 338.853C345.387 339.931 346.76 340.665 348.256 340.963C349.752 341.26 351.302 341.107 352.711 340.524C354.119 339.94 355.324 338.952 356.171 337.684C357.018 336.416 357.47 334.926 357.47 333.401C357.467 331.357 356.654 329.397 355.209 327.952C353.764 326.507 351.804 325.693 349.76 325.691Z" fill="black"/>
<path d="M352.12 333.4C352.12 333.867 351.981 334.323 351.722 334.711C351.463 335.099 351.094 335.402 350.663 335.58C350.232 335.759 349.757 335.806 349.299 335.715C348.842 335.624 348.421 335.399 348.091 335.069C347.761 334.739 347.536 334.318 347.445 333.86C347.354 333.403 347.401 332.928 347.58 332.497C347.758 332.066 348.061 331.697 348.449 331.438C348.837 331.178 349.293 331.04 349.76 331.04C350.386 331.04 350.986 331.289 351.429 331.731C351.871 332.174 352.12 332.774 352.12 333.4Z" fill="white"/>
<path opacity="0.5" d="M243.45 191.001C240.835 191.001 238.279 190.225 236.104 188.772C233.93 187.319 232.236 185.254 231.235 182.837C230.235 180.421 229.974 177.762 230.485 175.198C230.996 172.633 232.256 170.278 234.106 168.429C235.955 166.581 238.312 165.322 240.877 164.813C243.442 164.304 246.101 164.568 248.516 165.57C250.931 166.572 252.995 168.268 254.447 170.443C255.898 172.619 256.672 175.175 256.67 177.791C256.665 181.294 255.27 184.653 252.791 187.129C250.313 189.606 246.954 190.998 243.45 191.001ZM243.45 165.251C240.969 165.253 238.543 165.991 236.482 167.372C234.42 168.752 232.814 170.714 231.868 173.008C230.921 175.302 230.677 177.825 231.165 180.258C231.653 182.691 232.852 184.924 234.611 186.675C236.369 188.426 238.607 189.617 241.042 190.095C243.477 190.574 245.999 190.319 248.289 189.364C250.579 188.408 252.534 186.794 253.907 184.727C255.279 182.66 256.008 180.232 256 177.751C255.997 174.424 254.674 171.234 252.321 168.883C249.967 166.531 246.777 165.211 243.45 165.211V165.251Z" fill="black"/>
<path d="M247.23 177.751C247.23 178.498 247.008 179.229 246.593 179.851C246.178 180.472 245.587 180.957 244.896 181.243C244.206 181.529 243.446 181.604 242.712 181.458C241.979 181.312 241.306 180.952 240.777 180.424C240.248 179.895 239.888 179.221 239.743 178.488C239.597 177.755 239.672 176.995 239.958 176.304C240.244 175.613 240.728 175.023 241.35 174.608C241.971 174.192 242.702 173.971 243.45 173.971C243.947 173.969 244.439 174.066 244.898 174.256C245.357 174.445 245.774 174.724 246.126 175.075C246.477 175.426 246.755 175.843 246.945 176.303C247.134 176.762 247.231 177.254 247.23 177.751Z" fill="white"/>
<path opacity="0.5" d="M349.21 139.76C347.551 139.76 345.929 139.268 344.549 138.346C343.169 137.425 342.094 136.114 341.459 134.581C340.824 133.048 340.658 131.361 340.981 129.734C341.305 128.106 342.104 126.611 343.277 125.438C344.451 124.264 345.946 123.465 347.573 123.142C349.201 122.818 350.888 122.984 352.421 123.619C353.954 124.254 355.264 125.33 356.186 126.709C357.108 128.089 357.6 129.711 357.6 131.37C357.597 133.595 356.713 135.727 355.14 137.3C353.567 138.873 351.434 139.758 349.21 139.76ZM349.21 123.66C347.685 123.66 346.195 124.113 344.927 124.96C343.659 125.807 342.671 127.011 342.087 128.42C341.503 129.829 341.351 131.379 341.648 132.875C341.946 134.37 342.68 135.744 343.758 136.822C344.837 137.901 346.21 138.635 347.706 138.932C349.202 139.23 350.752 139.077 352.161 138.494C353.569 137.91 354.774 136.922 355.621 135.654C356.468 134.386 356.92 132.895 356.92 131.37C356.917 129.326 356.104 127.367 354.659 125.922C353.214 124.476 351.254 123.663 349.21 123.66Z" fill="black"/>
<path d="M351.58 131.371C351.582 131.84 351.445 132.299 351.186 132.69C350.926 133.081 350.557 133.387 350.124 133.567C349.691 133.748 349.214 133.797 348.754 133.706C348.293 133.616 347.87 133.391 347.538 133.06C347.205 132.729 346.979 132.307 346.886 131.847C346.794 131.387 346.84 130.91 347.02 130.476C347.199 130.042 347.502 129.672 347.892 129.411C348.282 129.15 348.741 129.011 349.21 129.011C349.521 129.009 349.829 129.07 350.116 129.188C350.404 129.306 350.665 129.479 350.885 129.698C351.106 129.918 351.28 130.178 351.399 130.465C351.519 130.752 351.58 131.06 351.58 131.371Z" fill="white"/>
<path opacity="0.5" d="M45.68 197.73C44.0207 197.73 42.3985 197.238 41.0188 196.316C39.6391 195.394 38.5637 194.084 37.9287 192.551C37.2937 191.018 37.1275 189.331 37.4513 187.703C37.775 186.076 38.5741 184.581 39.7474 183.408C40.9208 182.234 42.4157 181.435 44.0432 181.111C45.6707 180.788 47.3577 180.954 48.8908 181.589C50.4238 182.224 51.7342 183.299 52.6561 184.679C53.578 186.059 54.07 187.681 54.07 189.34C54.07 191.565 53.1861 193.699 51.6127 195.273C50.0392 196.846 47.9052 197.73 45.68 197.73ZM45.68 181.63C44.1552 181.63 42.6645 182.082 41.3966 182.93C40.1287 183.777 39.1405 184.981 38.5569 186.39C37.9734 187.799 37.8207 189.349 38.1182 190.844C38.4157 192.34 39.15 193.714 40.2283 194.792C41.3065 195.87 42.6803 196.605 44.1759 196.902C45.6715 197.2 47.2217 197.047 48.6305 196.463C50.0394 195.88 51.2435 194.892 52.0907 193.624C52.9379 192.356 53.39 190.865 53.39 189.34C53.3874 187.296 52.5742 185.337 51.1289 183.891C49.6836 182.446 47.7241 181.633 45.68 181.63Z" fill="black"/>
<path d="M47.9999 189.34C48.0039 189.81 47.8678 190.269 47.6091 190.661C47.3504 191.053 46.9808 191.358 46.5476 191.539C46.1144 191.719 45.6372 191.766 45.177 191.674C44.7168 191.582 44.2945 191.355 43.9641 191.022C43.6337 190.688 43.4101 190.264 43.322 189.803C43.2339 189.342 43.2852 188.865 43.4694 188.434C43.6536 188.002 43.9622 187.635 44.356 187.38C44.7498 187.125 45.2107 186.992 45.6799 187C46.2963 187.008 46.8848 187.258 47.3188 187.696C47.7527 188.133 47.9974 188.724 47.9999 189.34Z" fill="white"/>
<path d="M386.48 120.511C386.275 120.346 386.124 120.123 386.045 119.872C385.967 119.621 385.965 119.353 386.039 119.1C386.113 118.848 386.261 118.623 386.463 118.455C386.664 118.286 386.912 118.181 387.173 118.153C387.435 118.125 387.699 118.175 387.932 118.297C388.165 118.419 388.357 118.608 388.483 118.839C388.608 119.07 388.663 119.333 388.64 119.595C388.616 119.857 388.515 120.106 388.35 120.311C388.128 120.585 387.807 120.76 387.456 120.798C387.106 120.835 386.754 120.732 386.48 120.511Z" fill="#F0F0F0"/>
<path d="M382.54 124.34C382.46 124.277 382.393 124.199 382.344 124.109C382.294 124.02 382.263 123.922 382.252 123.821C382.241 123.719 382.25 123.617 382.279 123.519C382.308 123.421 382.356 123.33 382.42 123.25C382.549 123.091 382.736 122.989 382.94 122.967C383.144 122.944 383.349 123.003 383.51 123.13C383.667 123.261 383.767 123.448 383.79 123.651C383.812 123.855 383.755 124.059 383.63 124.22C383.567 124.301 383.488 124.367 383.399 124.417C383.31 124.466 383.211 124.497 383.11 124.508C383.009 124.52 382.906 124.511 382.808 124.482C382.71 124.453 382.619 124.405 382.54 124.34Z" fill="#FAFAFA"/>
<path d="M274.47 330.101C274.621 330.252 274.723 330.444 274.765 330.654C274.806 330.863 274.784 331.08 274.702 331.277C274.621 331.474 274.482 331.643 274.305 331.761C274.127 331.88 273.918 331.943 273.705 331.943C273.492 331.943 273.283 331.88 273.105 331.761C272.928 331.643 272.789 331.474 272.708 331.277C272.626 331.08 272.604 330.863 272.645 330.654C272.687 330.444 272.789 330.252 272.94 330.101C273.144 329.9 273.419 329.787 273.705 329.787C273.991 329.787 274.266 329.9 274.47 330.101Z" fill="#FAFAFA"/>
<path d="M284.45 334.83C284.618 334.989 284.753 335.181 284.846 335.392C284.94 335.604 284.991 335.833 284.995 336.064C285 336.296 284.959 336.526 284.874 336.742C284.788 336.957 284.662 337.154 284.5 337.32C284.259 337.571 283.949 337.744 283.609 337.819C283.269 337.894 282.914 337.866 282.59 337.739C282.266 337.612 281.987 337.392 281.788 337.107C281.589 336.821 281.479 336.483 281.472 336.135C281.465 335.787 281.561 335.445 281.749 335.152C281.936 334.859 282.206 334.628 282.525 334.488C282.844 334.348 283.197 334.306 283.539 334.367C283.882 334.428 284.199 334.589 284.45 334.83Z" fill="#FAFAFA"/>
<g opacity="0.5">
<path d="M314.35 205.42C314.548 205.341 314.765 205.322 314.974 205.366C315.183 205.41 315.373 205.515 315.523 205.668C315.672 205.82 315.772 206.014 315.812 206.223C315.851 206.433 315.828 206.649 315.744 206.846C315.661 207.042 315.521 207.209 315.342 207.326C315.164 207.443 314.955 207.504 314.742 207.503C314.528 207.501 314.32 207.436 314.144 207.316C313.967 207.197 313.83 207.027 313.75 206.83C313.644 206.563 313.648 206.265 313.76 206.002C313.873 205.738 314.085 205.529 314.35 205.42Z" fill="#FAFAFA"/>
<path d="M322.74 198.24C323.066 198.113 323.422 198.084 323.763 198.159C324.105 198.234 324.417 198.408 324.66 198.66C324.903 198.912 325.065 199.23 325.127 199.574C325.189 199.918 325.148 200.273 325.009 200.594C324.869 200.915 324.638 201.187 324.344 201.376C324.05 201.566 323.706 201.664 323.356 201.658C323.007 201.652 322.666 201.543 322.379 201.344C322.091 201.145 321.869 200.865 321.74 200.54C321.569 200.102 321.579 199.615 321.766 199.184C321.953 198.753 322.303 198.414 322.74 198.24Z" fill="#FAFAFA"/>
</g>
<g opacity="0.5">
<path d="M330.08 370.571C330.082 370.921 329.98 371.264 329.787 371.557C329.593 371.849 329.318 372.077 328.994 372.213C328.671 372.348 328.315 372.385 327.971 372.318C327.627 372.251 327.311 372.083 327.062 371.836C326.813 371.589 326.644 371.273 326.575 370.93C326.506 370.586 326.54 370.23 326.674 369.906C326.807 369.582 327.034 369.304 327.326 369.11C327.617 368.915 327.96 368.811 328.31 368.811C328.778 368.811 329.226 368.996 329.558 369.325C329.89 369.655 330.077 370.103 330.08 370.571Z" fill="#FAFAFA"/>
<path d="M324.81 375.39C324.812 375.601 324.751 375.807 324.635 375.983C324.52 376.159 324.354 376.296 324.16 376.378C323.966 376.459 323.752 376.481 323.546 376.44C323.339 376.4 323.149 376.299 323 376.15C322.852 376.001 322.75 375.811 322.71 375.604C322.669 375.398 322.691 375.184 322.773 374.99C322.854 374.796 322.991 374.63 323.167 374.515C323.343 374.399 323.549 374.338 323.76 374.34C323.9 374.333 324.039 374.355 324.17 374.405C324.301 374.456 324.419 374.533 324.518 374.632C324.617 374.731 324.694 374.849 324.745 374.98C324.795 375.111 324.817 375.25 324.81 375.39Z" fill="#FAFAFA"/>
<path d="M321.82 368.81C321.828 368.981 321.784 369.151 321.694 369.296C321.605 369.442 321.473 369.557 321.317 369.626C321.16 369.696 320.987 369.717 320.819 369.686C320.65 369.656 320.495 369.575 320.373 369.455C320.252 369.335 320.169 369.18 320.137 369.013C320.104 368.845 320.123 368.671 320.19 368.514C320.258 368.357 320.371 368.224 320.516 368.132C320.66 368.04 320.829 367.995 321 368C321.213 368.008 321.416 368.095 321.568 368.245C321.72 368.395 321.81 368.597 321.82 368.81Z" fill="#FAFAFA"/>
</g>
<g opacity="0.5">
<path d="M63.6799 365C63.6799 365.348 63.5767 365.689 63.3833 365.978C63.1899 366.267 62.915 366.493 62.5934 366.626C62.2718 366.759 61.918 366.794 61.5766 366.726C61.2351 366.659 60.9215 366.491 60.6754 366.245C60.4293 365.999 60.2616 365.685 60.1937 365.344C60.1258 365.002 60.1607 364.648 60.2939 364.327C60.4271 364.005 60.6527 363.73 60.9421 363.537C61.2315 363.343 61.5718 363.24 61.9199 363.24C62.3867 363.24 62.8344 363.426 63.1644 363.756C63.4945 364.086 63.6799 364.533 63.6799 365Z" fill="#FAFAFA"/>
<path d="M58.4099 369.861C58.4001 370.056 58.3332 370.244 58.2176 370.402C58.1019 370.56 57.9426 370.68 57.7592 370.748C57.5758 370.816 57.3765 370.829 57.1859 370.785C56.9954 370.741 56.8219 370.642 56.687 370.5C56.5521 370.359 56.4617 370.18 56.427 369.988C56.3923 369.795 56.4148 369.597 56.4917 369.417C56.5687 369.237 56.6967 369.084 56.8599 368.976C57.0231 368.868 57.2143 368.811 57.4099 368.811C57.5455 368.81 57.6798 368.838 57.8045 368.891C57.9292 368.944 58.0417 369.023 58.1353 369.121C58.2288 369.219 58.3014 369.335 58.3486 369.462C58.3958 369.59 58.4167 369.725 58.4099 369.861Z" fill="#FAFAFA"/>
<path d="M55.43 363.281C55.43 363.449 55.3801 363.613 55.2867 363.753C55.1933 363.893 55.0606 364.002 54.9053 364.066C54.7499 364.13 54.579 364.147 54.4142 364.114C54.2493 364.082 54.0978 364.001 53.9789 363.882C53.8601 363.763 53.7791 363.611 53.7463 363.447C53.7135 363.282 53.7303 363.111 53.7947 362.955C53.859 362.8 53.968 362.667 54.1077 362.574C54.2475 362.481 54.4119 362.431 54.58 362.431C54.8054 362.431 55.0216 362.52 55.181 362.68C55.3404 362.839 55.43 363.055 55.43 363.281Z" fill="#FAFAFA"/>
</g>
<path d="M192.78 121.77C192.78 121.984 192.717 122.193 192.598 122.37C192.479 122.548 192.311 122.686 192.113 122.768C191.916 122.85 191.699 122.871 191.489 122.83C191.28 122.788 191.087 122.685 190.936 122.534C190.785 122.383 190.682 122.191 190.641 121.981C190.599 121.772 190.62 121.554 190.702 121.357C190.784 121.16 190.922 120.991 191.1 120.872C191.277 120.754 191.486 120.69 191.7 120.69C191.986 120.69 192.261 120.804 192.464 121.007C192.666 121.209 192.78 121.484 192.78 121.77Z" fill="#FAFAFA"/>
<path d="M197.87 107.601L200.31 110.011L203.67 109.361C203.742 109.347 203.816 109.354 203.883 109.38C203.951 109.407 204.011 109.452 204.054 109.51C204.098 109.568 204.125 109.638 204.131 109.71C204.137 109.783 204.123 109.856 204.09 109.921L202.56 113.001L204.21 116.001C204.247 116.065 204.265 116.138 204.262 116.211C204.259 116.285 204.235 116.356 204.193 116.417C204.151 116.478 204.093 116.526 204.025 116.554C203.957 116.583 203.883 116.593 203.81 116.581L200.43 116.071L198.08 118.571C198.03 118.624 197.966 118.662 197.895 118.681C197.824 118.7 197.749 118.698 197.679 118.676C197.609 118.654 197.547 118.613 197.499 118.557C197.452 118.501 197.421 118.433 197.41 118.361L196.85 114.981L193.75 113.531C193.685 113.499 193.629 113.449 193.591 113.387C193.552 113.325 193.532 113.254 193.532 113.181C193.532 113.108 193.552 113.036 193.591 112.975C193.629 112.913 193.685 112.863 193.75 112.831L196.75 111.251L197.18 107.851C197.18 107.77 197.204 107.692 197.25 107.626C197.296 107.561 197.362 107.511 197.437 107.483C197.513 107.456 197.595 107.453 197.672 107.474C197.75 107.495 197.819 107.539 197.87 107.601Z" fill="#FAFAFA"/>
<path d="M113 263.71L113.38 266.34L115.75 267.51C115.801 267.535 115.844 267.573 115.873 267.621C115.903 267.669 115.919 267.724 115.919 267.78C115.919 267.837 115.903 267.892 115.873 267.94C115.844 267.987 115.801 268.026 115.75 268.05L113.38 269.22L112.99 271.85C112.981 271.905 112.957 271.956 112.92 271.998C112.884 272.039 112.837 272.07 112.784 272.087C112.731 272.103 112.675 272.105 112.621 272.091C112.568 272.078 112.519 272.05 112.48 272.01L110.63 270.11L108.02 270.56C107.964 270.571 107.906 270.566 107.853 270.545C107.799 270.524 107.753 270.489 107.72 270.442C107.686 270.396 107.666 270.341 107.663 270.284C107.659 270.227 107.672 270.17 107.7 270.12L108.93 267.78L107.7 265.43C107.68 265.382 107.672 265.33 107.677 265.277C107.683 265.225 107.702 265.176 107.732 265.133C107.761 265.09 107.802 265.055 107.849 265.032C107.896 265.009 107.948 264.998 108 265L110.61 265.45L112.46 263.56C112.498 263.516 112.549 263.483 112.605 263.466C112.661 263.449 112.721 263.449 112.778 263.464C112.834 263.48 112.885 263.512 112.924 263.555C112.964 263.599 112.99 263.653 113 263.71Z" fill="#FAFAFA"/>
<path d="M348.05 94.4303L350.65 93.9603L351.74 91.5403C351.764 91.4896 351.803 91.4468 351.851 91.4169C351.898 91.387 351.954 91.3711 352.01 91.3711C352.066 91.3711 352.121 91.387 352.169 91.4169C352.217 91.4468 352.255 91.4896 352.28 91.5403L353.54 93.8803L356.17 94.1703C356.225 94.1762 356.277 94.1973 356.321 94.2311C356.365 94.265 356.399 94.3103 356.418 94.362C356.438 94.4138 356.443 94.47 356.433 94.5244C356.422 94.5788 356.397 94.6293 356.36 94.6703L354.53 96.5903L355.07 99.1803C355.08 99.2358 355.075 99.293 355.055 99.3458C355.035 99.3985 355.002 99.4449 354.957 99.4799C354.913 99.5149 354.86 99.5371 354.804 99.5442C354.748 99.5514 354.691 99.5431 354.64 99.5203L352.25 98.3703L350 99.6603C349.951 99.6891 349.895 99.7036 349.839 99.7021C349.782 99.7006 349.728 99.6832 349.681 99.6519C349.633 99.6205 349.596 99.5765 349.573 99.5249C349.55 99.4733 349.542 99.4163 349.55 99.3603L349.91 96.7303L347.91 94.9503C347.868 94.9134 347.837 94.8653 347.82 94.8117C347.804 94.758 347.803 94.7009 347.818 94.6467C347.833 94.5926 347.862 94.5436 347.903 94.5054C347.944 94.4671 347.995 94.4411 348.05 94.4303Z" fill="#FAFAFA"/>
<path d="M189.87 373.3C190.097 373.433 190.28 373.63 190.395 373.866C190.51 374.102 190.553 374.368 190.517 374.628C190.482 374.889 190.37 375.133 190.196 375.33C190.022 375.527 189.793 375.668 189.539 375.735C189.285 375.802 189.016 375.792 188.767 375.707C188.519 375.621 188.301 375.464 188.142 375.255C187.982 375.046 187.888 374.794 187.872 374.531C187.856 374.269 187.918 374.008 188.05 373.78C188.137 373.628 188.253 373.495 188.392 373.388C188.531 373.282 188.69 373.204 188.859 373.159C189.029 373.114 189.205 373.104 189.379 373.128C189.552 373.152 189.719 373.211 189.87 373.3Z" fill="#F0F0F0"/>
<path d="M193.17 368.91C193.348 369.013 193.479 369.182 193.533 369.381C193.588 369.579 193.561 369.791 193.46 369.97C193.409 370.059 193.341 370.136 193.261 370.199C193.18 370.261 193.087 370.306 192.989 370.332C192.89 370.358 192.787 370.364 192.686 370.35C192.585 370.336 192.488 370.302 192.4 370.25C192.312 370.2 192.235 370.132 192.173 370.052C192.111 369.972 192.065 369.88 192.039 369.782C192.012 369.684 192.006 369.582 192.019 369.481C192.032 369.38 192.064 369.283 192.115 369.195C192.166 369.107 192.233 369.03 192.313 368.968C192.394 368.906 192.485 368.861 192.583 368.834C192.681 368.808 192.784 368.801 192.884 368.814C192.985 368.827 193.082 368.86 193.17 368.91Z" fill="#FAFAFA"/>
<path d="M231.85 393.171L229.34 394.04L228.64 396.59C228.625 396.645 228.595 396.694 228.554 396.732C228.513 396.77 228.462 396.796 228.406 396.806C228.351 396.817 228.294 396.811 228.242 396.791C228.189 396.77 228.144 396.736 228.11 396.69L226.51 394.58L223.86 394.701C223.803 394.704 223.745 394.692 223.695 394.664C223.645 394.636 223.603 394.595 223.576 394.544C223.548 394.493 223.536 394.436 223.54 394.379C223.545 394.321 223.565 394.266 223.6 394.22L225.11 392.05L224.18 389.57C224.158 389.518 224.152 389.459 224.162 389.403C224.172 389.346 224.198 389.294 224.237 389.252C224.276 389.21 224.326 389.18 224.382 389.165C224.437 389.151 224.496 389.153 224.55 389.171L227.09 389.94L229.16 388.29C229.204 388.255 229.257 388.232 229.313 388.225C229.369 388.218 229.426 388.227 229.478 388.251C229.529 388.275 229.572 388.313 229.603 388.361C229.633 388.409 229.65 388.464 229.65 388.52V391.171L231.86 392.63C231.91 392.656 231.952 392.695 231.982 392.743C232.011 392.792 232.025 392.847 232.024 392.904C232.023 392.96 232.006 393.015 231.976 393.062C231.945 393.109 231.901 393.147 231.85 393.171Z" fill="#FAFAFA"/>
<path d="M403.86 205.87C404.186 205.742 404.542 205.714 404.884 205.789C405.225 205.864 405.537 206.038 405.78 206.29C406.023 206.542 406.185 206.86 406.247 207.204C406.31 207.548 406.268 207.903 406.129 208.224C405.989 208.545 405.758 208.817 405.464 209.006C405.17 209.196 404.826 209.294 404.476 209.288C404.127 209.282 403.787 209.173 403.499 208.974C403.211 208.775 402.989 208.495 402.86 208.17C402.774 207.953 402.732 207.722 402.736 207.489C402.74 207.256 402.789 207.026 402.882 206.812C402.975 206.599 403.109 206.405 403.277 206.244C403.445 206.082 403.643 205.955 403.86 205.87Z" fill="#FAFAFA"/>
<path d="M114.38 389.12C113.948 388.685 113.706 388.097 113.706 387.485C113.706 386.872 113.948 386.284 114.38 385.85C114.815 385.418 115.402 385.176 116.015 385.176C116.628 385.176 117.215 385.418 117.65 385.85C117.65 385.85 163.79 433.43 162.88 434.34C161.97 435.25 114.38 389.12 114.38 389.12Z" fill="url(#paint3_linear_192_1209)"/>
<path d="M115.25 386.71C115.483 386.478 115.799 386.348 116.129 386.349C116.458 386.35 116.773 386.481 117.005 386.715C117.237 386.948 117.367 387.264 117.366 387.593C117.365 387.922 117.233 388.238 117 388.47C116.884 388.585 116.747 388.676 116.597 388.737C116.446 388.799 116.284 388.831 116.121 388.831C115.959 388.83 115.797 388.798 115.647 388.735C115.496 388.672 115.36 388.58 115.245 388.465C115.13 388.349 115.039 388.212 114.977 388.061C114.915 387.911 114.884 387.749 114.884 387.586C114.885 387.423 114.917 387.262 114.98 387.111C115.043 386.961 115.134 386.825 115.25 386.71Z" fill="#FAFAFA"/>
<path d="M114.09 398.15C113.845 397.904 113.708 397.572 113.708 397.225C113.708 396.878 113.845 396.545 114.09 396.3C114.211 396.176 114.356 396.077 114.516 396.01C114.675 395.943 114.847 395.908 115.02 395.908C115.193 395.908 115.365 395.943 115.525 396.01C115.684 396.077 115.829 396.176 115.95 396.3C115.95 396.3 134.83 416.1 134.31 416.62C133.79 417.14 114.09 398.15 114.09 398.15Z" fill="url(#paint4_linear_192_1209)"/>
<path d="M271.83 83.4397C271.398 83.005 271.156 82.4173 271.156 81.8047C271.156 81.192 271.398 80.6043 271.83 80.1697C272.044 79.9535 272.299 79.7819 272.579 79.6647C272.86 79.5476 273.161 79.4873 273.465 79.4873C273.769 79.4873 274.07 79.5476 274.351 79.6647C274.632 79.7819 274.886 79.9535 275.1 80.1697C275.1 80.1697 321.24 127.75 320.33 128.66C319.42 129.57 271.83 83.4397 271.83 83.4397Z" fill="url(#paint5_linear_192_1209)"/>
<path d="M272.69 80.9998C272.863 80.8258 273.084 80.7072 273.325 80.659C273.566 80.6107 273.815 80.635 274.042 80.7287C274.269 80.8224 274.463 80.9813 274.599 81.1853C274.736 81.3894 274.809 81.6293 274.809 81.8748C274.809 82.1202 274.736 82.3602 274.599 82.5642C274.463 82.7682 274.269 82.9272 274.042 83.0209C273.815 83.1146 273.566 83.1388 273.325 83.0906C273.084 83.0423 272.863 82.9237 272.69 82.7498C272.459 82.5174 272.329 82.2027 272.329 81.8748C272.329 81.5468 272.459 81.2322 272.69 80.9998Z" fill="#FAFAFA"/>
<path d="M301 98.8296C300.759 98.5861 300.624 98.2573 300.624 97.9146C300.624 97.5719 300.759 97.243 301 96.9996C301.246 96.7547 301.578 96.6172 301.925 96.6172C302.272 96.6172 302.605 96.7547 302.85 96.9996C302.85 96.9996 321.73 116.81 321.21 117.33C320.69 117.85 301 98.8296 301 98.8296Z" fill="url(#paint6_linear_192_1209)"/>
<path d="M271.54 92.4694C271.295 92.2238 271.158 91.8912 271.158 91.5444C271.158 91.1976 271.295 90.8649 271.54 90.6194C271.66 90.4957 271.804 90.3974 271.963 90.3302C272.122 90.2631 272.293 90.2285 272.465 90.2285C272.638 90.2285 272.808 90.2631 272.967 90.3302C273.126 90.3974 273.27 90.4957 273.39 90.6194C273.39 90.6194 292.28 110.419 291.76 110.939C291.24 111.459 271.54 92.4694 271.54 92.4694Z" fill="url(#paint7_linear_192_1209)"/>
</g>
<defs>
<linearGradient id="paint0_linear_192_1209" x1="14.3696" y1="448.876" x2="504.598" y2="424.232" gradientUnits="userSpaceOnUse">
<stop stop-color="#2B0AFF"/>
<stop offset="0.49" stop-color="#FF5B8A"/>
<stop offset="0.55" stop-color="#FF5B8A"/>
<stop offset="0.77" stop-color="#FBA64B"/>
<stop offset="1" stop-color="#F99B52"/>
</linearGradient>
<linearGradient id="paint1_linear_192_1209" x1="235.901" y1="149.626" x2="419.753" y2="135.147" gradientUnits="userSpaceOnUse">
<stop stop-color="#2B0AFF"/>
<stop offset="0.49" stop-color="#FF5B8A"/>
<stop offset="0.55" stop-color="#FF5B8A"/>
<stop offset="0.77" stop-color="#FBA64B"/>
<stop offset="1" stop-color="#F99B52"/>
</linearGradient>
<linearGradient id="paint2_linear_192_1209" x1="308.316" y1="298.913" x2="457.281" y2="288.389" gradientUnits="userSpaceOnUse">
<stop stop-color="#2B0AFF"/>
<stop offset="0.49" stop-color="#FF5B8A"/>
<stop offset="0.55" stop-color="#FF5B8A"/>
<stop offset="0.77" stop-color="#FBA64B"/>
<stop offset="1" stop-color="#F99B52"/>
</linearGradient>
<linearGradient id="paint3_linear_192_1209" x1="116.05" y1="387.52" x2="163.02" y2="434.49" gradientUnits="userSpaceOnUse">
<stop stop-color="#BA68C8"/>
<stop offset="0.8" stop-color="#455A64"/>
<stop offset="1" stop-color="#455A64" stop-opacity="0"/>
</linearGradient>
<linearGradient id="paint4_linear_192_1209" x1="124.014" y1="395.908" x2="124.014" y2="416.63" gradientUnits="userSpaceOnUse">
<stop stop-color="white"/>
<stop offset="1" stop-color="white" stop-opacity="0"/>
</linearGradient>
<linearGradient id="paint5_linear_192_1209" x1="295.75" y1="79.4873" x2="295.75" y2="128.673" gradientUnits="userSpaceOnUse">
<stop stop-color="white"/>
<stop offset="1" stop-color="white" stop-opacity="0"/>
</linearGradient>
<linearGradient id="paint6_linear_192_1209" x1="310.922" y1="96.6172" x2="310.922" y2="117.34" gradientUnits="userSpaceOnUse">
<stop stop-color="white"/>
<stop offset="1" stop-color="white" stop-opacity="0"/>
</linearGradient>
<linearGradient id="paint7_linear_192_1209" x1="281.464" y1="90.2285" x2="281.464" y2="110.95" gradientUnits="userSpaceOnUse">
<stop stop-color="white"/>
<stop offset="1" stop-color="white" stop-opacity="0"/>
</linearGradient>
</defs>
</svg>
