<svg width="381" height="95" viewBox="0 0 381 95" fill="none" xmlns="http://www.w3.org/2000/svg">
<path d="M47.2816 94.5632C73.3945 94.5632 94.5632 73.3945 94.5632 47.2816C94.5632 21.1687 73.3945 0 47.2816 0C21.1687 0 0 21.1687 0 47.2816C0 73.3945 21.1687 94.5632 47.2816 94.5632Z" fill="url(#paint0_linear_384_11)"/>
<path d="M43.5198 19.667C34.6896 19.667 27.5312 26.8253 27.5312 35.6557V73.8351C36.3616 73.8351 43.5198 66.6761 43.5198 57.8461V19.667Z" fill="white"/>
<path d="M65.6755 19.667C61.7795 19.667 59.8315 19.667 58.2395 20.1226C54.3245 21.2434 51.2635 24.3041 50.1425 28.2196C49.6875 29.8113 49.6875 31.7594 49.6875 35.6557V55.7791C58.5175 55.7791 65.6755 48.6201 65.6755 39.79V19.667Z" fill="white"/>
<path d="M313.104 33.6963C314.252 31.9952 315.826 30.613 317.824 29.5498C319.866 28.4865 322.184 27.9551 324.778 27.9551C327.798 27.9551 330.52 28.699 332.944 30.1875C335.411 31.676 337.346 33.803 338.749 36.5674C340.195 39.2893 340.918 42.4582 340.918 46.0732C340.918 49.688 340.195 52.899 338.749 55.706C337.346 58.47 335.411 60.618 332.944 62.149C330.52 63.68 327.798 64.446 324.778 64.446C322.142 64.446 319.823 63.936 317.824 62.915C315.868 61.852 314.294 60.491 313.104 58.832V63.872H304.172V16.6631H313.104V33.6963ZM362.847 27.9512C366.207 27.9512 369.205 28.6742 371.842 30.1201C374.521 31.5661 376.584 33.6292 378.03 36.3086C379.519 38.9453 380.263 41.9859 380.263 45.4307C380.263 46.7066 380.178 47.855 380.008 48.876H354.171C354.384 51.428 355.277 53.426 356.851 54.872C358.424 56.318 360.359 57.042 362.655 57.042C365.973 57.042 368.334 55.617 369.737 52.768H379.37C378.349 56.17 376.393 58.977 373.501 61.188C370.609 63.357 367.057 64.441 362.847 64.441C359.445 64.441 356.382 63.697 353.66 62.209C350.981 60.678 348.876 58.53 347.345 55.766C345.856 53.001 345.112 49.811 345.112 46.1963C345.112 42.5388 345.856 39.3279 347.345 36.5635C348.833 33.799 350.917 31.6721 353.597 30.1836C356.276 28.6951 359.36 27.9512 362.847 27.9512ZM295.351 63.863H286.42V28.5215H295.351V63.863ZM262.962 55.629L271.893 28.5156H281.399L268.32 63.858H257.476L244.461 28.5156H254.03L262.962 55.629ZM322.418 35.8018C320.802 35.8018 319.27 36.2275 317.824 37.0781C316.421 37.8862 315.273 39.0769 314.38 40.6504C313.529 42.2239 313.104 44.0738 313.104 46.2002C313.104 48.327 313.529 50.177 314.38 51.751C315.273 53.324 316.421 54.536 317.824 55.387C319.27 56.195 320.802 56.599 322.418 56.599C324.077 56.599 325.608 56.174 327.011 55.323C328.457 54.473 329.606 53.26 330.456 51.687C331.349 50.113 331.796 48.242 331.796 46.0732C331.796 43.9469 331.349 42.1179 330.456 40.5869C329.606 39.0133 328.457 37.8217 327.011 37.0137C325.608 36.2057 324.077 35.8018 322.418 35.8018ZM362.592 35.2871C360.38 35.2871 358.509 35.9682 356.978 37.3291C355.489 38.6475 354.575 40.4974 354.234 42.8789H371.013C370.97 40.5823 370.141 38.7535 368.525 37.3926C366.908 35.9893 364.931 35.2871 362.592 35.2871ZM290.949 13.8486C292.523 13.8487 293.82 14.3592 294.841 15.3799C295.904 16.3579 296.436 17.5909 296.436 19.0791C296.436 20.5676 295.904 21.823 294.841 22.8437C293.82 23.8219 292.523 24.3105 290.949 24.3105C289.376 24.3105 288.057 23.8217 286.994 22.8437C285.974 21.823 285.463 20.5676 285.463 19.0791C285.463 17.5907 285.974 16.358 286.994 15.3799C288.058 14.3592 289.376 13.8486 290.949 13.8486Z" fill="#FF4D49"/>
<path d="M226.985 64.4474C224.093 64.4474 221.499 63.9374 219.202 62.9164C216.905 61.8534 215.077 60.4284 213.716 58.6424C212.397 56.8564 211.674 54.8784 211.547 52.7094H220.542C220.712 54.0704 221.371 55.1974 222.519 56.0904C223.71 56.9834 225.177 57.4304 226.921 57.4304C228.622 57.4304 229.941 57.0904 230.876 56.4094C231.855 55.7294 232.344 54.8574 232.344 53.7944C232.344 52.6454 231.748 51.7954 230.557 51.2424C229.409 50.6464 227.559 50.0084 225.007 49.3284C222.37 48.6904 220.201 48.0314 218.5 47.3504C216.842 46.6702 215.396 45.6282 214.162 44.2247C212.971 42.8212 212.376 40.9287 212.376 38.547C212.376 36.5906 212.929 34.8043 214.035 33.1882C215.183 31.572 216.799 30.2961 218.883 29.3605C221.009 28.4248 223.497 27.957 226.347 27.957C230.557 27.957 233.917 29.0202 236.427 31.1467C238.936 33.2307 240.318 36.059 240.573 39.6315H232.025C231.897 38.228 231.302 37.1222 230.238 36.3141C229.218 35.4635 227.836 35.0382 226.092 35.0382C224.476 35.0382 223.221 35.336 222.328 35.9314C221.477 36.5268 221.052 37.3561 221.052 38.4194C221.052 39.6102 221.647 40.5246 222.838 41.1626C224.029 41.758 225.879 42.3747 228.388 43.0126C230.94 43.6506 233.045 44.3098 234.704 44.9903C236.363 45.6708 237.788 46.734 238.978 48.1804C240.212 49.5834 240.85 51.4544 240.892 53.7944C240.892 55.8354 240.318 57.6644 239.17 59.2804C238.064 60.8964 236.448 62.1724 234.321 63.1084C232.237 64.0014 229.792 64.4474 226.985 64.4474Z" fill="#262B43" fill-opacity="0.9"/>
<path d="M204.661 28.5283V63.8707H195.666V59.4047C194.518 60.9367 193.008 62.1487 191.137 63.0417C189.308 63.8917 187.309 64.3177 185.14 64.3177C182.375 64.3177 179.93 63.7427 177.803 62.5947C175.677 61.4037 173.997 59.6817 172.764 57.4277C171.573 55.1307 170.977 52.4087 170.977 49.2617V28.5283H179.909V47.9857C179.909 50.7927 180.61 52.9617 182.014 54.4927C183.417 55.9817 185.331 56.7257 187.755 56.7257C190.222 56.7257 192.157 55.9817 193.561 54.4927C194.964 52.9617 195.666 50.7927 195.666 47.9857V28.5283H204.661Z" fill="#262B43" fill-opacity="0.9"/>
<path d="M162.463 16.666V63.8744H153.531V16.666H162.463Z" fill="#262B43" fill-opacity="0.9"/>
<path d="M119.228 33.6348C120.377 32.0186 121.95 30.6789 123.949 29.6157C125.991 28.5099 128.309 27.957 130.903 27.957C133.922 27.957 136.644 28.7013 139.069 30.1898C141.535 31.6784 143.47 33.8049 144.874 36.5693C146.32 39.2913 147.043 42.4597 147.043 46.0748C147.043 49.6894 146.32 52.9004 144.874 55.7074C143.47 58.4724 141.535 60.6204 139.069 62.1514C136.644 63.6824 133.922 64.4474 130.903 64.4474C128.309 64.4474 126.012 63.9164 124.013 62.8524C122.057 61.7894 120.462 60.4504 119.228 58.8334V80.7154H110.297V28.5312H119.228V33.6348ZM137.92 46.0748C137.92 43.9483 137.474 42.1195 136.581 40.5884C135.73 39.0148 134.582 37.824 133.136 37.0159C131.732 36.2078 130.201 35.8038 128.542 35.8038C126.926 35.8038 125.395 36.2291 123.949 37.0797C122.546 37.8878 121.397 39.0786 120.504 40.6522C119.654 42.2258 119.228 44.0759 119.228 46.2024C119.228 48.3284 119.654 50.1794 120.504 51.7524C121.397 53.3264 122.546 54.5384 123.949 55.3884C125.395 56.1974 126.926 56.6014 128.542 56.6014C130.201 56.6014 131.732 56.1754 133.136 55.3254C134.582 54.4744 135.73 53.2624 136.581 51.6884C137.474 50.1154 137.92 48.2434 137.92 46.0748Z" fill="#262B43" fill-opacity="0.9"/>
<defs>
<linearGradient id="paint0_linear_384_11" x1="17.6216" y1="8.0989" x2="78.3646" y2="85.7156" gradientUnits="userSpaceOnUse">
<stop stop-color="#FF716D"/>
<stop offset="1" stop-color="#FF4D49"/>
</linearGradient>
</defs>
</svg>
