<svg width="39" height="41" viewBox="0 0 39 41" fill="none" xmlns="http://www.w3.org/2000/svg">
<path d="M12.4972 32.9218H26.5079C27.8576 32.9188 29.1512 32.3813 30.1057 31.4268C31.0601 30.4724 31.5976 29.1788 31.6007 27.829V19.0489C31.5969 17.6993 31.0591 16.4062 30.1048 15.4519C29.1506 14.4976 27.8574 13.9598 26.5079 13.9561H12.4972C11.1477 13.9598 9.85451 14.4976 8.90025 15.4519C7.94598 16.4062 7.4082 17.6993 7.40442 19.0489V27.829C7.40745 29.1788 7.94498 30.4724 8.89941 31.4268C9.85385 32.3813 11.1475 32.9188 12.4972 32.9218ZM8.6708 19.0489C8.67458 18.0351 9.07889 17.0639 9.79563 16.3469C10.5124 15.6299 11.4834 15.2252 12.4972 15.221H26.5079C27.5217 15.2252 28.4927 15.6299 29.2095 16.3469C29.9262 17.0639 30.3305 18.0351 30.3343 19.0489V27.829C30.3316 28.8433 29.9277 29.8153 29.2108 30.5328C28.4939 31.2503 27.5221 31.6549 26.5079 31.6583H12.4972C11.4832 31.6549 10.5117 31.2505 9.7948 30.5333C9.0779 29.8161 8.67383 28.8445 8.6708 27.8304V19.0489Z" fill="url(#paint0_linear_70_2886)"/>
<path d="M38.1122 18.9437C37.8327 18.6616 37.5001 18.4378 37.1335 18.2852C36.767 18.1326 36.3738 18.0542 35.9767 18.0545H35.3156L35.2811 17.9584C34.1837 14.8027 32.1657 12.0483 29.4876 10.0507C26.8095 8.05308 23.5941 6.90395 20.2565 6.7516H20.1203L20.093 4.04528L20.1848 4.00943C20.454 3.90904 20.6986 3.75206 20.9019 3.54906C21.2791 3.17627 21.4957 2.6709 21.5056 2.1407C21.5155 1.61051 21.3179 1.09741 20.955 0.710784L20.9062 0.662027C20.5265 0.29039 20.0168 0.0815976 19.4855 0.0800864C18.9542 0.0785751 18.4433 0.284468 18.0615 0.653938C17.6797 1.02341 17.4571 1.52729 17.4412 2.05835C17.4252 2.58942 17.6172 3.10574 17.9762 3.49743L18.0221 3.54762C18.2279 3.75336 18.4753 3.91277 18.7478 4.01517L18.8396 4.05102L18.8682 6.75304H18.7248C15.3902 6.90943 12.1788 8.06035 9.50391 10.0576C6.82906 12.0549 4.81324 14.807 3.71599 17.9598L3.68157 18.0559H3.02758C2.22566 18.0593 1.45755 18.3794 0.890505 18.9464C0.323459 19.5135 0.0033972 20.2816 0 21.0835V25.7962C0.0033972 26.5982 0.323459 27.3663 0.890505 27.9333C1.45755 28.5004 2.22566 28.8204 3.02758 28.8238H3.68157L3.71599 28.9199C4.54764 31.3023 5.90552 33.4665 7.6887 35.2519C9.23974 36.8033 11.0812 38.034 13.1079 38.8736C15.1347 39.7133 17.3069 40.1454 19.5007 40.1454C21.6945 40.1454 23.8668 39.7133 25.8935 38.8736C27.9202 38.034 29.7617 36.8033 31.3127 35.2519C33.095 33.4661 34.4523 31.3019 35.284 28.9199L35.3184 28.8238H35.9739C36.7759 28.8212 37.5443 28.5013 38.1112 27.9341C38.6782 27.3668 38.9977 26.5983 39 25.7962V21.0835C39.0005 20.6865 38.9223 20.2934 38.7699 19.9269C38.6175 19.5603 38.394 19.2276 38.1122 18.948V18.9437ZM3.03045 27.5574C2.56322 27.5571 2.11526 27.3712 1.78501 27.0407C1.45477 26.7101 1.26926 26.262 1.26926 25.7948V21.0821C1.26945 20.851 1.31516 20.6222 1.40376 20.4087C1.49237 20.1953 1.62215 20.0014 1.78569 19.8381C1.94924 19.6749 2.14334 19.5454 2.35691 19.4571C2.57049 19.3689 2.79936 19.3235 3.03045 19.3237H3.30868L3.26566 19.5001C3.04537 20.4058 2.90144 21.3284 2.8354 22.2581L2.79524 23.262V23.4614L2.82393 24.4295L2.83683 24.6259C2.90266 25.5557 3.04658 26.4783 3.26709 27.3839L3.31012 27.5617L3.03045 27.5574ZM18.6875 2.09622C18.6882 1.94417 18.7334 1.79566 18.8176 1.66906C18.9018 1.54246 19.0213 1.44333 19.1613 1.38395C19.3013 1.32458 19.4556 1.30755 19.6051 1.33499C19.7547 1.36243 19.8929 1.43312 20.0027 1.53832L20.1232 1.62724L20.0988 1.65449C20.1912 1.78334 20.2413 1.93768 20.2422 2.09622C20.2422 2.24957 20.1967 2.39947 20.1115 2.527C20.0264 2.65453 19.9053 2.75396 19.7637 2.81274C19.622 2.87151 19.4661 2.887 19.3157 2.85724C19.1653 2.82748 19.027 2.75379 18.9184 2.64551L18.8969 2.62401L18.8854 2.61252C18.7583 2.47057 18.6879 2.28679 18.6875 2.09622ZM34.9412 23.6263V23.84C34.9072 25.2509 34.6794 26.6503 34.2643 27.9992V28.0121L34.1209 27.982L34.2643 28.0293C33.2852 31.1739 31.3266 33.9233 28.6743 35.876C26.0221 37.8287 22.8152 38.8826 19.5216 38.8837C16.2281 38.8848 13.0204 37.8331 10.3669 35.8822C7.7133 33.9313 5.75281 31.1833 4.77156 28.0393C4.77156 28.0207 4.76295 28.0106 4.75865 27.9992C4.36408 26.716 4.13892 25.3867 4.08888 24.0451C4.08888 23.9777 4.08888 23.9189 4.08888 23.8587V23.8429C4.08888 23.7826 4.08888 23.7267 4.08888 23.6708V23.6263C4.08888 23.5646 4.08888 23.503 4.08888 23.4413C4.08888 23.3796 4.08888 23.318 4.08888 23.2577V23.2204C4.08888 23.1631 4.08888 23.1071 4.08888 23.0512L4.2323 23.0397H4.08888C4.08888 22.9766 4.08888 22.9164 4.08888 22.8576C4.23868 18.8496 5.94227 15.0573 8.83903 12.2833C11.7358 9.50937 15.5984 7.97155 19.609 7.9954C23.6197 8.01926 27.4637 9.60293 30.3272 12.4111C33.1908 15.2194 34.8492 19.0317 34.9513 23.0412C34.9513 23.1057 34.9513 23.1659 34.9513 23.2247V23.6263H34.9412ZM37.7379 25.7991C37.7372 26.2661 37.5514 26.7138 37.2213 27.0441C36.8912 27.3745 36.4437 27.5606 35.9767 27.5617H35.6899L35.7329 27.3839C35.949 26.4888 36.0905 25.5774 36.156 24.6589L36.189 24.0638C36.189 23.9992 36.189 23.9361 36.189 23.8716C36.189 23.807 36.189 23.7382 36.189 23.6736V23.6335C36.189 23.5675 36.189 23.5015 36.189 23.4356C36.189 23.3696 36.189 23.3036 36.189 23.2377V23.0039C36.189 22.935 36.189 22.8719 36.189 22.8074L36.156 22.2122C36.0905 21.2938 35.949 20.3823 35.7329 19.4872L35.6899 19.3108H35.9767C36.4437 19.3112 36.8914 19.4969 37.2216 19.8271C37.5518 20.1573 37.7375 20.605 37.7379 21.072V25.7991Z" fill="url(#paint1_linear_70_2886)"/>
<defs>
<linearGradient id="paint0_linear_70_2886" x1="7.36095" y1="32.1011" x2="32.4912" y2="30.7701" gradientUnits="userSpaceOnUse">
<stop stop-color="#2B0AFF"/>
<stop offset="0.49" stop-color="#FF5B8A"/>
<stop offset="0.55" stop-color="#FF5B8A"/>
<stop offset="0.77" stop-color="#FBA64B"/>
<stop offset="1" stop-color="#F99B52"/>
</linearGradient>
<linearGradient id="paint1_linear_70_2886" x1="-0.0700633" y1="38.4116" x2="40.4827" y2="36.7729" gradientUnits="userSpaceOnUse">
<stop stop-color="#2B0AFF"/>
<stop offset="0.49" stop-color="#FF5B8A"/>
<stop offset="0.55" stop-color="#FF5B8A"/>
<stop offset="0.77" stop-color="#FBA64B"/>
<stop offset="1" stop-color="#F99B52"/>
</linearGradient>
</defs>
</svg>
