<svg width="40" height="41" viewBox="0 0 40 41" fill="none" xmlns="http://www.w3.org/2000/svg">
<path d="M22.7119 37.1132C24.3683 38.7701 26.5479 39.8015 28.8795 40.0315C31.2111 40.2615 33.5503 39.676 35.4985 38.3746C37.4467 37.0733 38.8835 35.1367 39.5639 32.8948C40.2443 30.6529 40.1263 28.2444 39.23 26.0797C38.3337 23.9151 36.7146 22.1282 34.6485 21.0235C32.5824 19.9188 30.1972 19.5647 27.8993 20.0215C25.6013 20.4783 23.5329 21.7178 22.0464 23.5287C20.5599 25.3396 19.7473 27.61 19.7471 29.9528C19.7436 31.2831 20.0039 32.6008 20.5128 33.8298C21.0216 35.0588 21.7691 36.1748 22.7119 37.1132ZM23.6635 23.7396C25.3103 22.0932 27.5436 21.1684 29.8722 21.1684C32.2008 21.1684 34.4341 22.0932 36.0809 23.7396C37.3082 24.9675 38.1439 26.5316 38.4823 28.2344C38.8207 29.9371 38.6466 31.702 37.9821 33.3058C37.3175 34.9096 36.1924 36.2804 34.7488 37.2448C33.3053 38.2092 31.6083 38.724 29.8722 38.724C28.1362 38.724 26.4391 38.2092 24.9956 37.2448C23.552 36.2804 22.4269 34.9096 21.7623 33.3058C21.0978 31.702 20.9237 29.9371 21.2622 28.2344C21.6006 26.5316 22.4362 24.9675 23.6635 23.7396Z" fill="url(#paint0_linear_70_2914)"/>
<path d="M9.9135 5.17484C10.0397 5.30104 10.2109 5.37193 10.3893 5.37193C10.5678 5.37193 10.739 5.30104 10.8652 5.17484C10.9914 5.04864 11.0623 4.87748 11.0623 4.69901C11.0623 4.52054 10.9914 4.34938 10.8652 4.22318L9.35379 2.71028C9.22744 2.58437 9.05634 2.51367 8.87796 2.51367C8.69959 2.51367 8.52848 2.58437 8.40213 2.71028C8.33924 2.77254 8.2893 2.84665 8.25523 2.92832C8.22115 3.01 8.20361 3.09762 8.20361 3.18611C8.20361 3.27461 8.22115 3.36223 8.25523 3.4439C8.2893 3.52558 8.33924 3.59969 8.40213 3.66194L9.9135 5.17484Z" fill="url(#paint1_linear_70_2914)"/>
<path d="M24.1213 19.3806C24.2475 19.5068 24.4187 19.5777 24.5971 19.5777C24.7756 19.5777 24.9468 19.5068 25.073 19.3806C25.1992 19.2544 25.2701 19.0832 25.2701 18.9047C25.2701 18.7263 25.1992 18.5551 25.073 18.4289L13.1116 6.4676C12.9854 6.3414 12.8143 6.27051 12.6358 6.27051C12.4573 6.27051 12.2862 6.3414 12.16 6.4676C12.0338 6.5938 11.9629 6.76496 11.9629 6.94343C11.9629 7.1219 12.0338 7.29306 12.16 7.41926L24.1213 19.3806Z" fill="url(#paint2_linear_70_2914)"/>
<path d="M5.09293 9.99387L3.58309 8.48861C3.45674 8.36269 3.28563 8.29199 3.10726 8.29199C2.92888 8.29199 2.75778 8.36269 2.63143 8.48861C2.50551 8.61495 2.43481 8.78606 2.43481 8.96443C2.43481 9.14281 2.50551 9.31391 2.63143 9.44026L4.14433 10.9532C4.27053 11.0794 4.44169 11.1503 4.62016 11.1503C4.79863 11.1503 4.96979 11.0794 5.09599 10.9532C5.22218 10.827 5.29307 10.6558 5.29307 10.4773C5.29307 10.2989 5.22218 10.1277 5.09599 10.0015L5.09293 9.99387Z" fill="url(#paint3_linear_70_2914)"/>
<path d="M19.3355 20.3673C19.4617 20.4934 19.6329 20.5643 19.8113 20.5643C19.9898 20.5643 20.161 20.4934 20.2872 20.3673C20.4134 20.2411 20.4843 20.0699 20.4843 19.8914C20.4843 19.7129 20.4134 19.5418 20.2872 19.4156L1.14875 0.277173C1.08627 0.214686 1.01209 0.165118 0.930444 0.1313C0.848801 0.0974825 0.761296 0.0800781 0.672926 0.0800781C0.584556 0.0800781 0.497051 0.0974825 0.415408 0.1313C0.333765 0.165118 0.259584 0.214686 0.197097 0.277173C0.13461 0.33966 0.085042 0.413841 0.0512244 0.495484C0.0174067 0.577127 0 0.664632 0 0.753002C0 0.841371 0.0174067 0.928877 0.0512244 1.01052C0.085042 1.09216 0.13461 1.16634 0.197097 1.22883L19.3355 20.3673Z" fill="url(#paint4_linear_70_2914)"/>
<path d="M9.18758 20.1328C9.05449 20.1332 8.92449 20.1729 8.81394 20.247C8.70338 20.3211 8.61724 20.4262 8.56636 20.5492C8.51547 20.6722 8.50212 20.8074 8.528 20.938C8.55387 21.0685 8.61781 21.1885 8.71175 21.2828L17.3667 29.9361C17.4929 30.0623 17.664 30.1332 17.8425 30.1332C18.021 30.1332 18.1921 30.0623 18.3183 29.9361C18.4445 29.8099 18.5154 29.6388 18.5154 29.4603C18.5154 29.2818 18.4445 29.1107 18.3183 28.9845L9.66799 20.3296C9.60499 20.2665 9.53006 20.2166 9.44758 20.1829C9.3651 20.1491 9.27671 20.1321 9.18758 20.1328Z" fill="url(#paint5_linear_70_2914)"/>
<path d="M6.43045 19.0005C6.55665 19.1267 6.72781 19.1976 6.90628 19.1976C7.08475 19.1976 7.25591 19.1267 7.38211 19.0005C7.5083 18.8743 7.5792 18.7032 7.5792 18.5247C7.5792 18.3462 7.5083 18.1751 7.38211 18.0489L5.86921 16.536C5.80673 16.4735 5.73254 16.4239 5.65089 16.3901C5.56925 16.3563 5.48175 16.3389 5.39338 16.3389C5.30501 16.3389 5.21751 16.3563 5.13587 16.3901C5.05422 16.4239 4.98003 16.4735 4.91755 16.536C4.85506 16.5984 4.80549 16.6726 4.77167 16.7543C4.73786 16.8359 4.72046 16.9234 4.72046 17.0118C4.72046 17.1002 4.73786 17.1877 4.77167 17.2693C4.80549 17.3509 4.85506 17.4251 4.91755 17.4876L6.43045 19.0005Z" fill="url(#paint6_linear_70_2914)"/>
<path d="M17.9707 7.46048C18.033 7.52337 18.1071 7.5733 18.1888 7.60738C18.2704 7.64145 18.3581 7.659 18.4466 7.659C18.5351 7.659 18.6227 7.64145 18.7043 7.60738C18.786 7.5733 18.8601 7.52337 18.9224 7.46048C19.0483 7.33413 19.119 7.16302 19.119 6.98465C19.119 6.80627 19.0483 6.63517 18.9224 6.50882L17.4095 4.99593C17.347 4.93344 17.2728 4.88387 17.1912 4.85005C17.1095 4.81623 17.022 4.79883 16.9337 4.79883C16.8453 4.79883 16.7578 4.81623 16.6761 4.85005C16.5945 4.88387 16.5203 4.93344 16.4578 4.99593C16.3954 5.05841 16.3458 5.13259 16.312 5.21424C16.2781 5.29588 16.2607 5.38338 16.2607 5.47175C16.2607 5.56012 16.2781 5.64763 16.312 5.72927C16.3458 5.81091 16.3954 5.8851 16.4578 5.94758L17.9707 7.46048Z" fill="url(#paint7_linear_70_2914)"/>
<path d="M28.9054 18.4013C29.0335 18.5186 29.202 18.5819 29.3757 18.578C29.5494 18.5742 29.7149 18.5033 29.8377 18.3804C29.9604 18.2574 30.031 18.0918 30.0346 17.9181C30.0382 17.7444 29.9746 17.576 29.857 17.4481L21.2021 8.79316C21.076 8.66734 20.9052 8.59668 20.7271 8.59668C20.5489 8.59668 20.3781 8.66734 20.252 8.79316C20.1891 8.85542 20.1392 8.92952 20.1051 9.0112C20.071 9.09287 20.0535 9.18049 20.0535 9.26899C20.0535 9.35749 20.071 9.44511 20.1051 9.52678C20.1392 9.60846 20.1891 9.68256 20.252 9.74482L28.9054 18.4013Z" fill="url(#paint8_linear_70_2914)"/>
<path d="M19.302 25.1511C19.4279 25.0247 19.4986 24.8536 19.4986 24.6753C19.4986 24.4969 19.4279 24.3258 19.302 24.1994L7.34065 12.2381C7.21445 12.1119 7.04329 12.041 6.86482 12.041C6.68635 12.041 6.51519 12.1119 6.38899 12.2381C6.26279 12.3643 6.19189 12.5355 6.19189 12.7139C6.19189 12.8924 6.26279 13.0636 6.38899 13.1898L18.3503 25.1511C18.4767 25.277 18.6478 25.3477 18.8261 25.3477C19.0045 25.3477 19.1756 25.277 19.302 25.1511Z" fill="url(#paint9_linear_70_2914)"/>
<path d="M29.8724 31.6539C30.2658 31.6535 30.6469 31.5167 30.9507 31.2668C31.2546 31.017 31.4624 30.6695 31.5388 30.2836C31.6152 29.8977 31.5554 29.4972 31.3696 29.1504C31.1838 28.8037 30.8836 28.532 30.52 28.3818C30.1564 28.2316 29.752 28.2121 29.3757 28.3266C28.9993 28.4411 28.6743 28.6825 28.456 29.0098C28.2377 29.3371 28.1396 29.7299 28.1785 30.1214C28.2173 30.5129 28.3907 30.8787 28.6691 31.1567C28.827 31.3148 29.0146 31.4401 29.2212 31.5254C29.4277 31.6107 29.649 31.6544 29.8724 31.6539Z" fill="url(#paint10_linear_70_2914)"/>
<path d="M34.8318 26.5515C35.0713 26.5513 35.3032 26.4681 35.4882 26.316C35.6732 26.164 35.7997 25.9526 35.8464 25.7178C35.893 25.4829 35.8569 25.2392 35.7441 25.028C35.6312 24.8169 35.4487 24.6513 35.2276 24.5595C35.0064 24.4678 34.7603 24.4555 34.5311 24.5247C34.302 24.594 34.1039 24.7405 33.9705 24.9394C33.8372 25.1383 33.7769 25.3772 33.8 25.6155C33.823 25.8539 33.9279 26.0768 34.0968 26.2465C34.1932 26.3433 34.3077 26.42 34.4339 26.4724C34.56 26.5247 34.6953 26.5516 34.8318 26.5515Z" fill="url(#paint11_linear_70_2914)"/>
<path d="M33.7504 35.9082C33.9559 35.9086 34.1569 35.848 34.3279 35.734C34.4989 35.6199 34.6321 35.4577 34.7107 35.2678C34.7893 35.0779 34.8097 34.869 34.7693 34.6675C34.729 34.466 34.6297 34.281 34.484 34.1361C34.3633 34.0151 34.2146 33.9258 34.0511 33.876C33.8875 33.8263 33.7143 33.8177 33.5466 33.8509C33.379 33.8842 33.2221 33.9583 33.09 34.0667C32.9579 34.1752 32.8545 34.3145 32.7892 34.4724C32.7238 34.6303 32.6984 34.802 32.7153 34.972C32.7321 35.1421 32.7907 35.3054 32.8858 35.4474C32.9809 35.5895 33.1095 35.7058 33.2603 35.7862C33.4112 35.8666 33.5795 35.9085 33.7504 35.9082Z" fill="url(#paint12_linear_70_2914)"/>
<path d="M22.7838 29.4998C22.8951 29.6063 23.0432 29.6657 23.1972 29.6657C23.3511 29.6657 23.4992 29.6063 23.6104 29.4998C23.6783 29.4319 23.7284 29.3482 23.7562 29.2563C23.784 29.1644 23.7888 29.0671 23.77 28.9729C23.7512 28.8788 23.7096 28.7907 23.6486 28.7165C23.5877 28.6422 23.5095 28.5842 23.4207 28.5474C23.332 28.5107 23.2356 28.4963 23.1401 28.5057C23.0445 28.5151 22.9528 28.5479 22.8729 28.6012C22.793 28.6545 22.7275 28.7267 22.6822 28.8113C22.6369 28.896 22.6131 28.9905 22.613 29.0865C22.6131 29.2414 22.6745 29.39 22.7838 29.4998Z" fill="url(#paint13_linear_70_2914)"/>
<defs>
<linearGradient id="paint0_linear_70_2914" x1="19.7107" y1="39.204" x2="40.7685" y2="38.3298" gradientUnits="userSpaceOnUse">
<stop stop-color="#2B0AFF"/>
<stop offset="0.49" stop-color="#FF5B8A"/>
<stop offset="0.55" stop-color="#FF5B8A"/>
<stop offset="0.77" stop-color="#FBA64B"/>
<stop offset="1" stop-color="#F99B52"/>
</linearGradient>
<linearGradient id="paint1_linear_70_2914" x1="8.19848" y1="5.24824" x2="11.1707" y2="5.12484" gradientUnits="userSpaceOnUse">
<stop stop-color="#2B0AFF"/>
<stop offset="0.49" stop-color="#FF5B8A"/>
<stop offset="0.55" stop-color="#FF5B8A"/>
<stop offset="0.77" stop-color="#FBA64B"/>
<stop offset="1" stop-color="#F99B52"/>
</linearGradient>
<linearGradient id="paint2_linear_70_2914" x1="11.939" y1="19.0018" x2="25.7747" y2="18.4274" gradientUnits="userSpaceOnUse">
<stop stop-color="#2B0AFF"/>
<stop offset="0.49" stop-color="#FF5B8A"/>
<stop offset="0.55" stop-color="#FF5B8A"/>
<stop offset="0.77" stop-color="#FBA64B"/>
<stop offset="1" stop-color="#F99B52"/>
</linearGradient>
<linearGradient id="paint3_linear_70_2914" x1="2.42968" y1="11.0266" x2="5.40147" y2="10.9032" gradientUnits="userSpaceOnUse">
<stop stop-color="#2B0AFF"/>
<stop offset="0.49" stop-color="#FF5B8A"/>
<stop offset="0.55" stop-color="#FF5B8A"/>
<stop offset="0.77" stop-color="#FBA64B"/>
<stop offset="1" stop-color="#F99B52"/>
</linearGradient>
<linearGradient id="paint4_linear_70_2914" x1="-0.0367999" y1="19.6779" x2="21.2611" y2="18.7937" gradientUnits="userSpaceOnUse">
<stop stop-color="#2B0AFF"/>
<stop offset="0.49" stop-color="#FF5B8A"/>
<stop offset="0.55" stop-color="#FF5B8A"/>
<stop offset="0.77" stop-color="#FBA64B"/>
<stop offset="1" stop-color="#F99B52"/>
</linearGradient>
<linearGradient id="paint5_linear_70_2914" x1="8.49717" y1="29.7005" x2="18.8947" y2="29.2688" gradientUnits="userSpaceOnUse">
<stop stop-color="#2B0AFF"/>
<stop offset="0.49" stop-color="#FF5B8A"/>
<stop offset="0.55" stop-color="#FF5B8A"/>
<stop offset="0.77" stop-color="#FBA64B"/>
<stop offset="1" stop-color="#F99B52"/>
</linearGradient>
<linearGradient id="paint6_linear_70_2914" x1="4.71532" y1="19.0739" x2="7.68762" y2="18.9505" gradientUnits="userSpaceOnUse">
<stop stop-color="#2B0AFF"/>
<stop offset="0.49" stop-color="#FF5B8A"/>
<stop offset="0.55" stop-color="#FF5B8A"/>
<stop offset="0.77" stop-color="#FBA64B"/>
<stop offset="1" stop-color="#F99B52"/>
</linearGradient>
<linearGradient id="paint7_linear_70_2914" x1="16.2556" y1="7.53522" x2="19.2274" y2="7.41193" gradientUnits="userSpaceOnUse">
<stop stop-color="#2B0AFF"/>
<stop offset="0.49" stop-color="#FF5B8A"/>
<stop offset="0.55" stop-color="#FF5B8A"/>
<stop offset="0.77" stop-color="#FBA64B"/>
<stop offset="1" stop-color="#F99B52"/>
</linearGradient>
<linearGradient id="paint8_linear_70_2914" x1="20.0355" y1="18.1462" x2="30.4132" y2="17.7155" gradientUnits="userSpaceOnUse">
<stop stop-color="#2B0AFF"/>
<stop offset="0.49" stop-color="#FF5B8A"/>
<stop offset="0.55" stop-color="#FF5B8A"/>
<stop offset="0.77" stop-color="#FBA64B"/>
<stop offset="1" stop-color="#F99B52"/>
</linearGradient>
<linearGradient id="paint9_linear_70_2914" x1="6.16799" y1="24.7718" x2="20.0032" y2="24.1975" gradientUnits="userSpaceOnUse">
<stop stop-color="#2B0AFF"/>
<stop offset="0.49" stop-color="#FF5B8A"/>
<stop offset="0.55" stop-color="#FF5B8A"/>
<stop offset="0.77" stop-color="#FBA64B"/>
<stop offset="1" stop-color="#F99B52"/>
</linearGradient>
<linearGradient id="paint10_linear_70_2914" x1="28.1641" y1="31.5067" x2="31.7001" y2="31.3599" gradientUnits="userSpaceOnUse">
<stop stop-color="#2B0AFF"/>
<stop offset="0.49" stop-color="#FF5B8A"/>
<stop offset="0.55" stop-color="#FF5B8A"/>
<stop offset="0.77" stop-color="#FBA64B"/>
<stop offset="1" stop-color="#F99B52"/>
</linearGradient>
<linearGradient id="paint11_linear_70_2914" x1="33.7914" y1="26.4619" x2="35.9448" y2="26.3725" gradientUnits="userSpaceOnUse">
<stop stop-color="#2B0AFF"/>
<stop offset="0.49" stop-color="#FF5B8A"/>
<stop offset="0.55" stop-color="#FF5B8A"/>
<stop offset="0.77" stop-color="#FBA64B"/>
<stop offset="1" stop-color="#F99B52"/>
</linearGradient>
<linearGradient id="paint12_linear_70_2914" x1="32.7065" y1="35.8183" x2="34.8684" y2="35.7285" gradientUnits="userSpaceOnUse">
<stop stop-color="#2B0AFF"/>
<stop offset="0.49" stop-color="#FF5B8A"/>
<stop offset="0.55" stop-color="#FF5B8A"/>
<stop offset="0.77" stop-color="#FBA64B"/>
<stop offset="1" stop-color="#F99B52"/>
</linearGradient>
<linearGradient id="paint13_linear_70_2914" x1="22.6109" y1="29.6154" x2="23.8255" y2="29.5647" gradientUnits="userSpaceOnUse">
<stop stop-color="#2B0AFF"/>
<stop offset="0.49" stop-color="#FF5B8A"/>
<stop offset="0.55" stop-color="#FF5B8A"/>
<stop offset="0.77" stop-color="#FBA64B"/>
<stop offset="1" stop-color="#F99B52"/>
</linearGradient>
</defs>
</svg>
