<svg width="39" height="40" viewBox="0 0 39 40" fill="none" xmlns="http://www.w3.org/2000/svg">
<path d="M5.1832 12.7015L5.19501 12.7266C5.20491 12.7538 5.21728 12.78 5.23194 12.8049L5.24375 12.83C5.24375 12.83 5.24376 12.8418 5.2541 12.8477C5.27929 12.8875 5.30849 12.9247 5.34125 12.9585L12.3581 19.9753L14.373 25.1309C14.3778 25.1403 14.3818 25.1502 14.3848 25.1604C14.3963 25.1893 14.4096 25.2174 14.4247 25.2446L14.4365 25.2682L14.4454 25.2874C14.4712 25.3285 14.5014 25.3667 14.5355 25.4012L23.7933 34.659L23.7519 34.7506C23.545 35.2229 23.4379 35.7328 23.4373 36.2485C23.4354 36.7381 23.5307 37.2233 23.7176 37.6759C23.9044 38.1285 24.1792 38.5396 24.526 38.8853C24.5863 38.9462 24.6581 38.9946 24.7372 39.0276C24.8163 39.0606 24.9012 39.0776 24.9869 39.0776C25.0726 39.0776 25.1575 39.0606 25.2366 39.0276C25.3157 38.9946 25.3875 38.9462 25.4478 38.8853L38.8093 25.5238C38.9313 25.4014 38.9998 25.2357 38.9998 25.0629C38.9998 24.8901 38.9313 24.7244 38.8093 24.602C38.4639 24.2555 38.053 23.981 37.6006 23.7946C37.1482 23.6083 36.6632 23.5136 36.1739 23.5163H36.0262C35.5606 23.5345 35.1025 23.6402 34.676 23.8279L34.583 23.8693L25.3252 14.6115C25.2605 14.5462 25.1824 14.4958 25.0962 14.4638L19.8934 12.4326L19.8727 12.4105L12.8781 5.41727C12.8525 5.3927 12.8248 5.37046 12.7953 5.3508L12.7806 5.3375C12.7404 5.31173 12.6979 5.28996 12.6535 5.2725L0.908095 0.133229C0.826161 0.0981593 0.737964 0.0800781 0.648841 0.0800781C0.559717 0.0800781 0.47152 0.0981593 0.389587 0.133229C0.232027 0.2026 0.108242 0.331391 0.0451649 0.491574C-0.0179124 0.651757 -0.0151812 0.83037 0.0527746 0.988545L5.1832 12.7015ZM36.0262 24.8147H36.1739C36.5199 24.8152 36.8618 24.8892 37.177 25.0319L37.3705 25.119L25.043 37.4524L24.9559 37.2574C24.8147 36.9419 24.7417 36.6001 24.7417 36.2544C24.7399 35.9362 24.8015 35.6209 24.9227 35.3267C25.0439 35.0325 25.2224 34.7654 25.4478 34.5408L34.4589 25.5297C34.8759 25.1081 35.4342 24.8555 36.0262 24.8206V24.8147ZM33.5046 24.6271L24.5585 33.5747L15.9182 24.9344L24.8643 15.9883L33.5046 24.6271ZM23.7002 15.3088L15.2402 23.7703L13.6743 19.7626L19.6925 13.7429L23.7002 15.3088ZM18.6097 12.9821L12.912 18.6916L6.72394 12.5035L12.4216 6.80586L18.6097 12.9821ZM11.2871 6.08498L6.01488 11.3572L3.90687 6.53701L6.45065 3.97697L11.2871 6.08498ZM5.18024 3.41267L3.34848 5.26364L1.91557 1.9901L5.18024 3.41267Z" fill="url(#paint0_linear_70_2936)"/>
<path d="M10.7065 14.6137L10.7493 14.661C11.001 14.9136 11.3004 15.1136 11.6301 15.2495C11.9598 15.3855 12.3132 15.4546 12.6698 15.4528H12.8028C13.4273 15.4241 14.0223 15.1785 14.4854 14.7585L14.5992 14.6566C15.0869 14.1661 15.3683 13.5076 15.3859 12.8161C15.4035 12.1247 15.1558 11.4528 14.6937 10.9381L14.5874 10.8244C14.0873 10.3253 13.4117 10.0418 12.7053 10.0343C11.9988 10.0269 11.3174 10.2961 10.8069 10.7845C10.7848 10.8022 10.7715 10.8155 10.7582 10.8273C10.2576 11.328 9.97278 12.0046 9.96477 12.7125C9.95677 13.4205 10.2262 14.1034 10.7153 14.6152L10.7065 14.6137ZM11.6711 11.7477C11.6798 11.7401 11.6877 11.7317 11.6948 11.7226L11.7066 11.7123C11.9742 11.4642 12.3273 11.3293 12.6922 11.3356C13.057 11.342 13.4052 11.4891 13.664 11.7462L13.7689 11.8511V11.8585C13.9873 12.1292 14.098 12.4709 14.08 12.8182C14.062 13.1655 13.9166 13.4939 13.6714 13.7406L13.5666 13.8455L13.5592 13.8381C13.3483 14.0103 13.0914 14.1167 12.8205 14.1439V14.1528H12.6728C12.4875 14.1527 12.3041 14.1158 12.1332 14.0443C11.9622 13.9728 11.8072 13.868 11.6771 13.7362C11.6694 13.7276 11.661 13.7197 11.6519 13.7126L11.6416 13.7022C11.3934 13.4346 11.2585 13.0813 11.2651 12.7163C11.2717 12.3514 11.4194 12.0032 11.6771 11.7448L11.6711 11.7477Z" fill="url(#paint1_linear_70_2936)"/>
<defs>
<linearGradient id="paint0_linear_70_2936" x1="-0.0703074" y1="37.3899" x2="40.4788" y2="35.7065" gradientUnits="userSpaceOnUse">
<stop stop-color="#2B0AFF"/>
<stop offset="0.49" stop-color="#FF5B8A"/>
<stop offset="0.55" stop-color="#FF5B8A"/>
<stop offset="0.77" stop-color="#FBA64B"/>
<stop offset="1" stop-color="#F99B52"/>
</linearGradient>
<linearGradient id="paint1_linear_70_2936" x1="9.95486" y1="15.2184" x2="15.5924" y2="14.9842" gradientUnits="userSpaceOnUse">
<stop stop-color="#2B0AFF"/>
<stop offset="0.49" stop-color="#FF5B8A"/>
<stop offset="0.55" stop-color="#FF5B8A"/>
<stop offset="0.77" stop-color="#FBA64B"/>
<stop offset="1" stop-color="#F99B52"/>
</linearGradient>
</defs>
</svg>
