<svg width="39" height="39" viewBox="0 0 39 39" fill="none" xmlns="http://www.w3.org/2000/svg">
<path d="M27.2675 1.80909C25.9263 2.42182 24.623 3.11444 23.3648 3.88323L23.3213 3.9141L23.2652 3.90147C22.0335 3.60132 20.7705 3.44916 19.5028 3.44819C17.4176 3.44764 15.3527 3.85781 13.4259 4.65528C11.4992 5.45275 9.74847 6.62191 8.2736 8.096C6.79873 9.57009 5.62864 11.3202 4.83015 13.2465C4.03165 15.1728 3.62039 17.2375 3.61984 19.3227C3.62103 20.4935 3.75092 21.6606 4.00716 22.803L4.01979 22.8591L3.98892 22.9083C3.19994 24.1534 2.48578 25.4444 1.85023 26.7745C-0.411947 31.5528 -0.605604 35.2548 1.30153 37.197C3.20867 39.1393 6.91487 39.013 11.7325 36.8378C13.0714 36.225 14.3727 35.5334 15.6296 34.7665L15.6787 34.7356L15.7348 34.7496C16.9689 35.0494 18.2343 35.2006 19.5042 35.2001C21.8846 35.2003 24.2345 34.6649 26.3799 33.6337C28.5252 32.6024 30.4111 31.1017 31.8978 29.2426C33.3844 27.3836 34.4338 25.2139 34.9681 22.8943C35.5024 20.5747 35.508 18.1645 34.9844 15.8425L34.9718 15.7863L35.0027 15.7372C35.7946 14.4928 36.5116 13.2023 37.1498 11.8724C39.4119 7.09406 39.6056 3.39206 37.6985 1.44984C35.7913 -0.492378 32.0851 -0.366078 27.2675 1.80909ZM9.14758 8.97313C10.7338 7.38541 12.664 6.18403 14.789 5.46198C16.9139 4.73992 19.1765 4.51658 21.4017 4.80924C23.6268 5.1019 25.7547 5.9027 27.6207 7.14965C29.4866 8.39661 31.0406 10.0563 32.1623 12.0001L32.196 12.0591L32.1721 12.1222C32.015 12.5208 31.8395 12.9249 31.6529 13.3207C30.0882 16.6255 27.311 20.3275 23.8307 23.7432C20.3504 27.159 16.6021 29.8674 13.2678 31.3718C12.8706 31.5514 12.4637 31.7184 12.0609 31.8686L11.9978 31.8924L11.9402 31.8573C10.037 30.7108 8.41987 29.1459 7.21149 27.2813C6.00312 25.4167 5.23524 23.3014 4.96609 21.0959C4.69694 18.8904 4.93359 16.6525 5.65809 14.5521C6.3826 12.4516 7.57594 10.5437 9.14758 8.97313ZM28.5445 6.27592L28.8589 6.21277C30.446 5.89701 31.594 6.08787 32.2732 6.7741C32.9524 7.46033 33.1222 8.62089 32.7756 10.2053L32.7068 10.5196L32.523 10.2558C31.5111 8.78541 30.253 7.50074 28.8041 6.45835L28.5445 6.27592ZM10.4527 32.371L10.1369 32.4327C9.68965 32.5269 9.23417 32.5767 8.7771 32.5815C7.87756 32.5815 7.18853 32.3429 6.72122 31.8672C6.04481 31.1795 5.87921 30.0288 6.22022 28.4472L6.28758 28.1343L6.47142 28.3967C7.00721 29.1654 7.6092 29.8857 8.2705 30.5494C8.86706 31.1436 9.50995 31.6893 10.1931 32.1815L10.4527 32.371ZM29.8468 29.6737C28.4909 31.0372 26.878 32.1182 25.1015 32.8541C23.3249 33.59 21.4201 33.9662 19.4972 33.9609C18.8465 33.9569 18.1967 33.91 17.5522 33.8206L17.1845 33.7715L17.4918 33.5652C20.6442 31.4281 23.5934 29.0056 26.302 26.3282L26.3146 26.317L26.3483 26.2833C29.0905 23.6126 31.5803 20.6943 33.786 17.5658L33.9979 17.2612L34.04 17.6303C34.1044 18.1893 34.1368 18.7516 34.1368 19.3143C34.1429 21.2391 33.7669 23.1459 33.0304 24.9242C32.294 26.7024 31.2119 28.3169 29.8468 29.6737ZM36.0327 11.3518C33.9207 15.8144 30.1752 20.8075 25.4852 25.4146L25.4754 25.4245L25.4473 25.4511C20.7602 30.047 15.7096 33.6901 11.2189 35.7165C8.80377 36.8069 6.72823 37.3556 5.11299 37.3556C3.84016 37.3556 2.8438 37.0174 2.17581 36.3368C0.6588 34.7931 0.936657 31.5837 2.96167 27.3063C3.33917 26.5092 3.80368 25.6476 4.32572 24.7452L4.47588 24.487L4.57832 24.7677C4.8173 25.4151 5.09858 26.0461 5.42032 26.6566L5.44839 26.7099L5.43015 26.7674C4.52078 29.4689 4.66533 31.5388 5.85115 32.7386C7.31062 34.2262 10.1299 34.1462 13.7786 32.4987C17.2392 30.9382 21.118 28.1413 24.6994 24.6231C28.2807 21.105 31.1477 17.2809 32.7728 13.8469C34.4862 10.2277 34.6195 7.41121 33.1503 5.91385C31.9672 4.70839 29.9057 4.52595 27.1903 5.38479L27.1327 5.40163L27.0808 5.37357C26.4727 5.04371 25.8436 4.754 25.1975 4.5063L24.9169 4.39966L25.1765 4.25932C26.0732 3.75693 26.9461 3.31347 27.7713 2.94159C32.0837 0.99516 35.296 0.773434 36.8144 2.31991C38.3328 3.86639 38.0563 7.0688 36.0327 11.3518Z" fill="url(#paint0_linear_70_2909)"/>
<defs>
<linearGradient id="paint0_linear_70_2909" x1="-0.0700633" y1="36.9012" x2="40.4772" y2="35.1956" gradientUnits="userSpaceOnUse">
<stop stop-color="#2B0AFF"/>
<stop offset="0.49" stop-color="#FF5B8A"/>
<stop offset="0.55" stop-color="#FF5B8A"/>
<stop offset="0.77" stop-color="#FBA64B"/>
<stop offset="1" stop-color="#F99B52"/>
</linearGradient>
</defs>
</svg>
