<svg width="39" height="40" viewBox="0 0 39 40" fill="none" xmlns="http://www.w3.org/2000/svg">
<path d="M5.71321 33.3494C7.52046 35.1661 9.67002 36.6064 12.0375 37.587C14.405 38.5676 16.9435 39.069 19.506 39.0622C19.7422 39.0622 20.0035 39.0622 20.3277 39.0412H20.392C20.4702 39.0412 20.5499 39.0412 20.6282 39.03H20.6813H20.7204C21.0544 39.0105 21.3954 38.9797 21.7349 38.942H21.7741H21.7978H21.816C26.1967 38.418 30.2703 36.4239 33.3712 33.2855C36.4721 30.1471 38.4171 26.0499 38.8884 21.6632C39.3597 17.2765 38.3295 12.8596 35.966 9.13406C33.6026 5.40855 30.0456 2.59463 25.8762 1.152C21.7067 -0.29064 17.1713 -0.27673 13.0108 1.19147C8.85034 2.65967 5.31071 5.49537 2.97017 9.23532C0.629627 12.9753 -0.373462 17.3984 0.124765 21.7821C0.622993 26.1659 2.59309 30.2511 5.71321 33.3704V33.3494ZM20.8476 37.7779L20.7078 37.7905C20.6268 37.7905 20.5457 37.8045 20.4647 37.8087H20.4283C20.1153 37.824 19.8079 37.831 19.5102 37.831C18.5858 37.831 17.6628 37.7614 16.7488 37.6228H16.7265L16.6748 37.6144L16.6287 37.606L16.4456 37.5781L16.5239 37.409C16.6872 37.0619 16.9308 36.7587 17.2345 36.5245C17.5382 36.2902 17.8934 36.1316 18.2705 36.0618C18.6477 35.9921 19.0361 36.0131 19.4035 36.1232C19.771 36.2332 20.1069 36.4292 20.3836 36.6949C20.6445 36.9464 20.8459 37.2529 20.9733 37.5921L21.0376 37.7668L20.8476 37.7779ZM6.58521 6.63583C8.62381 4.59681 11.116 3.06914 13.858 2.1777C16.6001 1.28626 19.5142 1.05635 22.3621 1.50677C25.21 1.95719 27.9109 3.07514 30.244 4.76925C32.5771 6.46337 34.4762 8.68555 35.7861 11.2542C37.096 13.8228 37.7794 16.6649 37.7806 19.5482C37.7817 22.4315 37.1005 25.2742 35.7927 27.8438C34.4848 30.4135 32.5875 32.6372 30.2557 34.3331C27.9239 36.0291 25.2239 37.1492 22.3764 37.6018L22.252 37.6214L22.2198 37.4984C22.0218 36.7464 21.5882 36.0776 20.9825 35.5899C20.3767 35.1022 19.6308 34.8213 18.8538 34.7884C18.0769 34.7554 17.3098 34.9721 16.6649 35.4067C16.0201 35.8413 15.5314 36.471 15.2703 37.2036L15.227 37.3224L15.1054 37.293C11.9641 36.5139 9.08598 34.9144 6.76548 32.6582C4.44498 30.4019 2.76533 27.5699 1.89828 24.4516C1.03123 21.3334 1.00788 18.0408 1.83064 14.9105C2.6534 11.7803 4.29274 8.92473 6.58102 6.63583H6.58521Z" fill="url(#paint0_linear_70_2895)"/>
<path d="M10.4044 19.0528C10.4879 19.0567 10.5713 19.0437 10.6496 19.0145C10.7279 18.9853 10.7995 18.9405 10.86 18.8828C10.9205 18.8251 10.9686 18.7558 11.0016 18.6789C11.0345 18.6021 11.0514 18.5194 11.0514 18.4358C11.0514 18.3522 11.0345 18.2695 11.0016 18.1926C10.9686 18.1158 10.9205 18.0464 10.86 17.9888C10.7995 17.9311 10.7279 17.8863 10.6496 17.8571C10.5713 17.8279 10.4879 17.8148 10.4044 17.8188C9.92739 17.8185 9.46119 17.6768 9.06473 17.4116C8.66826 17.1464 8.35932 16.7696 8.17698 16.3289C7.99464 15.8881 7.94707 15.4032 8.0403 14.9354C8.13352 14.4676 8.36335 14.038 8.70073 13.7008C9.03811 13.3636 9.46789 13.134 9.93573 13.0411C10.4036 12.9481 10.8885 12.996 11.3291 13.1786C11.7698 13.3612 12.1464 13.6703 12.4114 14.0669C12.6763 14.4636 12.8178 14.9298 12.8178 15.4068C12.8178 15.5703 12.8827 15.727 12.9983 15.8426C13.1138 15.9582 13.2706 16.0231 13.434 16.0231C13.5975 16.0231 13.7542 15.9582 13.8698 15.8426C13.9854 15.727 14.0503 15.5703 14.0503 15.4068C14.05 14.6861 13.8361 13.9817 13.4355 13.3825C13.0349 12.7834 12.4657 12.3165 11.7998 12.0408C11.1339 11.7652 10.4013 11.6931 9.69442 11.8338C8.98758 11.9744 8.33831 12.3215 7.82869 12.8311C7.31908 13.3407 6.972 13.99 6.83133 14.6969C6.69066 15.4037 6.76272 16.1364 7.03839 16.8023C7.31406 17.4682 7.78098 18.0374 8.3801 18.438C8.97923 18.8385 9.68367 19.0525 10.4044 19.0528Z" fill="url(#paint1_linear_70_2895)"/>
<path d="M19.2672 23.0507C18.811 23.6828 18.5024 24.4092 18.364 25.1763C18.2257 25.9435 18.2611 26.7319 18.4677 27.4836C18.6743 28.2353 19.0469 28.931 19.5579 29.5197C20.0689 30.1084 20.7055 30.575 21.4207 30.8851C22.1359 31.1953 22.9115 31.3411 23.6905 31.3119C24.4695 31.2827 25.232 31.0792 25.922 30.7163C26.6119 30.3535 27.2117 29.8406 27.6772 29.2153C28.1428 28.59 28.4622 27.8683 28.6119 27.1033C28.6425 26.943 28.6081 26.7771 28.5164 26.6421C28.4247 26.5072 28.2831 26.4141 28.1228 26.3836C27.9625 26.353 27.7966 26.3874 27.6617 26.4791C27.5267 26.5708 27.4337 26.7124 27.4031 26.8727C27.3489 27.1607 27.2631 27.4419 27.1474 27.7111C26.841 28.4182 26.3363 29.0214 25.6944 29.4477C25.0525 29.874 24.3008 30.1052 23.5302 30.1134C22.7597 30.1216 22.0033 29.9064 21.3524 29.4938C20.7016 29.0812 20.1843 28.4889 19.8629 27.7885C19.5416 27.0881 19.43 26.3096 19.5417 25.5472C19.6534 24.7847 19.9836 24.071 20.4924 23.4922C21.0011 22.9134 21.6667 22.4944 22.4085 22.2859C23.1503 22.0773 23.9367 22.0881 24.6725 22.317C24.7496 22.3407 24.8306 22.3491 24.9109 22.3415C24.9912 22.3339 25.0692 22.3105 25.1404 22.2727C25.2117 22.235 25.2748 22.1835 25.3261 22.1214C25.3775 22.0592 25.4161 21.9875 25.4397 21.9103C25.4641 21.8333 25.4727 21.7522 25.465 21.6717C25.4574 21.5913 25.4335 21.5132 25.395 21.4422C25.3576 21.3706 25.3063 21.3072 25.2442 21.2556C25.182 21.2041 25.1103 21.1653 25.033 21.1417C23.9919 20.8202 22.8763 20.8324 21.8424 21.1764C20.8085 21.5205 19.9081 22.1792 19.2672 23.0604V23.0507Z" fill="url(#paint2_linear_70_2895)"/>
<path d="M28.1492 8.95516C28.3116 8.95976 28.4693 8.90063 28.5887 8.79043C28.708 8.68022 28.7795 8.52768 28.7878 8.36544C28.796 8.18134 28.8543 8.00295 28.9563 7.84949C29.0583 7.69603 29.2003 7.5733 29.3669 7.49453C29.5335 7.41576 29.7185 7.38391 29.9018 7.40243C30.0852 7.42095 30.26 7.48914 30.4075 7.59965H30.4145L30.5151 7.69746C30.6568 7.83877 30.7534 8.01899 30.7925 8.21526C30.8317 8.41153 30.8117 8.61501 30.735 8.79989C30.6584 8.98477 30.5286 9.14272 30.362 9.25371C30.1955 9.3647 29.9997 9.42373 29.7996 9.4233H29.7157L29.6347 9.41493C29.6045 9.41279 29.5741 9.41279 29.5439 9.41493C29.3903 9.41708 29.2431 9.4766 29.1312 9.58181C29.0193 9.68702 28.9509 9.8303 28.9393 9.98344C28.9278 10.1366 28.9739 10.2885 29.0687 10.4093C29.1635 10.5301 29.3001 10.6111 29.4516 10.6363C29.5257 10.6475 29.5844 10.6558 29.6249 10.6586C29.6892 10.6586 29.7465 10.6656 29.7968 10.6656C30.2418 10.6688 30.6777 10.5391 31.0485 10.2931C31.4194 10.0471 31.7085 9.69603 31.8786 9.28482C32.0488 8.87361 32.0924 8.42095 32.0039 7.98481C31.9153 7.54867 31.6986 7.14889 31.3815 6.83663L31.3102 6.76536C30.9947 6.47721 30.6034 6.28522 30.1824 6.21194C29.7614 6.13866 29.3283 6.18716 28.9339 6.35173C28.5396 6.51631 28.2005 6.79012 27.9565 7.14092C27.7125 7.49172 27.5738 7.90494 27.5567 8.33191C27.5547 8.49252 27.6156 8.64755 27.7263 8.76397C27.8369 8.88038 27.9887 8.94898 28.1492 8.95516Z" fill="url(#paint3_linear_70_2895)"/>
<path d="M6.198 30.2314C6.56435 30.5962 7.0458 30.8228 7.56041 30.8726C8.07503 30.9224 8.59099 30.7923 9.02047 30.5044C9.44996 30.2166 9.76643 29.7888 9.91601 29.2939C10.0656 28.799 10.039 28.2676 9.84087 27.7901C9.64271 27.3125 9.28518 26.9184 8.82914 26.6748C8.37311 26.4313 7.84675 26.3532 7.33966 26.4541C6.83257 26.5549 6.3761 26.8284 6.04794 27.2279C5.71978 27.6274 5.54021 28.1283 5.5398 28.6453C5.53911 28.9401 5.59693 29.232 5.70991 29.5043C5.8229 29.7766 5.9888 30.0237 6.198 30.2314ZM7.07 27.9298C7.23533 27.7646 7.45281 27.6619 7.68539 27.639C7.91797 27.6162 8.15127 27.6747 8.34557 27.8046C8.53986 27.9344 8.68312 28.1276 8.75095 28.3513C8.81879 28.5749 8.807 28.8152 8.7176 29.0311C8.62819 29.247 8.4667 29.4253 8.26063 29.5355C8.05455 29.6457 7.81664 29.6811 7.58741 29.6356C7.35819 29.5901 7.15182 29.4665 7.00345 29.286C6.85509 29.1054 6.77392 28.879 6.77375 28.6453C6.77499 28.5128 6.80243 28.3819 6.85447 28.2601C6.90652 28.1382 6.98214 28.0279 7.07699 27.9354L7.07 27.9298Z" fill="url(#paint4_linear_70_2895)"/>
<path d="M19.5143 8.78793C20.0976 8.78911 20.6682 8.6185 21.1551 8.29742C21.642 7.97634 22.0236 7.51899 22.2522 6.98244C22.4809 6.44588 22.5464 5.85389 22.4408 5.2803C22.3351 4.70672 22.0628 4.17697 21.658 3.75712C21.6412 3.73755 21.6287 3.72497 21.6161 3.71239C21.2467 3.3431 20.7865 3.07765 20.2819 2.94272C19.7772 2.80779 19.246 2.80816 18.7415 2.9438V2.95777L18.6018 2.98573C18.3138 3.0778 18.0415 3.21302 17.7941 3.38679C17.728 3.43331 17.6718 3.49239 17.6285 3.56065C17.5853 3.62892 17.5559 3.70502 17.5421 3.78463C17.5283 3.86425 17.5303 3.94579 17.548 4.02463C17.5657 4.10347 17.5987 4.17806 17.6452 4.24413C17.6918 4.31019 17.7508 4.36645 17.8191 4.40968C17.8874 4.45291 17.9635 4.48228 18.0431 4.4961C18.1227 4.50992 18.2043 4.50791 18.2831 4.49022C18.3619 4.47252 18.4365 4.43947 18.5026 4.39295C18.6485 4.28972 18.8091 4.20916 18.9791 4.15399L19.1189 4.11066V4.11905C19.2467 4.08955 19.3775 4.07454 19.5087 4.07432C19.7373 4.07376 19.9636 4.11856 20.1747 4.20612C20.3858 4.29368 20.5775 4.42225 20.7385 4.5844C20.7467 4.59304 20.7556 4.60099 20.765 4.60816C21.0753 4.93293 21.248 5.36502 21.2472 5.81416C21.2409 6.26517 21.0597 6.69611 20.7418 7.01609C20.4239 7.33608 19.9941 7.52009 19.5432 7.52934C19.0922 7.53858 18.6553 7.37232 18.3245 7.06563C17.9938 6.75894 17.7951 6.3358 17.7703 5.88543C17.7672 5.8047 17.7482 5.72539 17.7144 5.65201C17.6805 5.57864 17.6326 5.51264 17.5733 5.4578C17.4596 5.35168 17.3096 5.29318 17.154 5.29431H17.1289C17.0482 5.297 16.9688 5.31567 16.8954 5.34924C16.8219 5.38281 16.7559 5.43059 16.7011 5.48985C16.6462 5.54912 16.6037 5.61868 16.5759 5.69449C16.5481 5.7703 16.5356 5.85087 16.5392 5.93154C16.5692 6.70007 16.8959 7.42705 17.4507 7.95971C18.0055 8.49237 18.7452 8.78924 19.5143 8.78793Z" fill="url(#paint5_linear_70_2895)"/>
<defs>
<linearGradient id="paint0_linear_70_2895" x1="-0.0700633" y1="37.3752" x2="40.479" y2="35.6912" gradientUnits="userSpaceOnUse">
<stop stop-color="#2B0AFF"/>
<stop offset="0.49" stop-color="#FF5B8A"/>
<stop offset="0.55" stop-color="#FF5B8A"/>
<stop offset="0.77" stop-color="#FBA64B"/>
<stop offset="1" stop-color="#F99B52"/>
</linearGradient>
<linearGradient id="paint1_linear_70_2895" x1="6.74814" y1="18.738" x2="14.3267" y2="18.4234" gradientUnits="userSpaceOnUse">
<stop stop-color="#2B0AFF"/>
<stop offset="0.49" stop-color="#FF5B8A"/>
<stop offset="0.55" stop-color="#FF5B8A"/>
<stop offset="0.77" stop-color="#FBA64B"/>
<stop offset="1" stop-color="#F99B52"/>
</linearGradient>
<linearGradient id="paint2_linear_70_2895" x1="18.2627" y1="30.8652" x2="29.0152" y2="30.4216" gradientUnits="userSpaceOnUse">
<stop stop-color="#2B0AFF"/>
<stop offset="0.49" stop-color="#FF5B8A"/>
<stop offset="0.55" stop-color="#FF5B8A"/>
<stop offset="0.77" stop-color="#FBA64B"/>
<stop offset="1" stop-color="#F99B52"/>
</linearGradient>
<linearGradient id="paint3_linear_70_2895" x1="27.5486" y1="10.4715" x2="32.2189" y2="10.2774" gradientUnits="userSpaceOnUse">
<stop stop-color="#2B0AFF"/>
<stop offset="0.49" stop-color="#FF5B8A"/>
<stop offset="0.55" stop-color="#FF5B8A"/>
<stop offset="0.77" stop-color="#FBA64B"/>
<stop offset="1" stop-color="#F99B52"/>
</linearGradient>
<linearGradient id="paint4_linear_70_2895" x1="5.53176" y1="30.6894" x2="10.1812" y2="30.4964" gradientUnits="userSpaceOnUse">
<stop stop-color="#2B0AFF"/>
<stop offset="0.49" stop-color="#FF5B8A"/>
<stop offset="0.55" stop-color="#FF5B8A"/>
<stop offset="0.77" stop-color="#FBA64B"/>
<stop offset="1" stop-color="#F99B52"/>
</linearGradient>
<linearGradient id="paint5_linear_70_2895" x1="16.5279" y1="8.53061" x2="22.7156" y2="8.27352" gradientUnits="userSpaceOnUse">
<stop stop-color="#2B0AFF"/>
<stop offset="0.49" stop-color="#FF5B8A"/>
<stop offset="0.55" stop-color="#FF5B8A"/>
<stop offset="0.77" stop-color="#FBA64B"/>
<stop offset="1" stop-color="#F99B52"/>
</linearGradient>
</defs>
</svg>
