<svg width="415" height="242" viewBox="0 0 415 242" fill="none" xmlns="http://www.w3.org/2000/svg">
<g clip-path="url(#clip0_766_5919)">
<rect width="415" height="242" transform="translate(0 -0.00878906)" fill="url(#paint0_linear_766_5919)"/>
<path d="M282.816 120.51L241.999 117.458C238.045 117.159 234.078 117.813 230.429 119.366L219.572 123.993C218.112 126.644 216.317 129.097 214.232 131.291C208.994 136.885 188.907 147.285 178.303 149.471C175.805 149.916 173.23 149.466 171.031 148.2C166.227 152.054 161.194 155.613 155.958 158.857C155.958 158.857 165.875 187.106 202.798 171.138L232.166 158.399L225.733 173.833C225.911 182.657 225.962 194.226 225.377 201.937C232.272 204.037 239.626 204.107 246.56 202.139C249.33 183.323 251.44 153.624 244.27 142.411L279.361 142.08C283.782 134.116 283.393 129.587 282.816 120.51Z" fill="#7052CE"/>
<path d="M217.619 109.576L221.891 90.7857C221.937 90.5821 221.944 90.3712 221.909 90.1651C221.874 89.959 221.799 89.7618 221.688 89.5847C221.577 89.4076 221.432 89.2541 221.262 89.133C221.092 89.0119 220.899 88.9255 220.696 88.8787C220.492 88.832 220.281 88.8258 220.075 88.8605C219.869 88.8953 219.672 88.9703 219.495 89.0813C219.317 89.1923 219.164 89.337 219.043 89.5073C218.922 89.6776 218.835 89.8701 218.788 90.0738L213.754 112.221" fill="#7052CE"/>
<path d="M217.619 109.576L221.891 90.7857C221.937 90.5821 221.944 90.3712 221.909 90.1651C221.874 89.959 221.799 89.7618 221.688 89.5847C221.577 89.4076 221.432 89.2541 221.262 89.133C221.092 89.0119 220.899 88.9255 220.696 88.8787C220.492 88.832 220.281 88.8258 220.075 88.8605C219.869 88.8953 219.672 88.9703 219.495 89.0813C219.317 89.1923 219.164 89.337 219.043 89.5073C218.922 89.6776 218.835 89.8701 218.788 90.0738L213.754 112.221C214.387 114.556 216.088 117.688 217.619 109.576Z" fill="#7052CE"/>
<path d="M214.313 38.3779C214.313 41.5311 213.378 44.6135 211.626 47.2353C209.875 49.8571 207.385 51.9005 204.472 53.1072C201.558 54.3139 198.353 54.6296 195.26 54.0145C192.168 53.3993 189.327 51.8809 187.097 49.6512C184.867 47.4216 183.349 44.5808 182.734 41.4882C182.119 38.3956 182.434 35.19 183.641 32.2769C184.848 29.3637 186.891 26.8737 189.513 25.1219C192.135 23.3701 195.217 22.4351 198.37 22.4351C202.598 22.4379 206.651 24.1185 209.641 27.1077C212.63 30.097 214.31 34.1505 214.313 38.3779Z" fill="#7052CE"/>
<path d="M297.565 122.518C294.64 129.454 290.507 135.816 285.36 141.309C288.183 141.741 291.005 142.38 293.421 142.758C295.937 141.661 298.296 140.234 300.436 138.515C307.127 133.124 320.911 126.437 323.931 122.623C318.464 121.832 305.089 122.366 297.565 122.518Z" fill="#EEEEEE"/>
<path d="M245.842 217.617C238.796 214.957 232.278 211.065 226.594 206.123C226.263 208.946 225.755 211.794 225.45 214.235C226.642 216.711 228.155 219.019 229.95 221.101C235.571 227.559 242.767 241.086 246.679 243.985C247.292 238.493 246.276 225.143 245.842 217.617Z" fill="#EEEEEE"/>
<path d="M158.551 137.012C158.043 137.266 157.509 137.495 156.975 137.724C154.481 134.793 152.138 131.738 149.954 128.57C150.183 129.105 157.201 144.284 168.846 150.005C169.609 149.395 170.347 148.81 171.033 148.225C166.683 145.86 162.162 141.283 158.551 137.012Z" fill="#EEEEEE"/>
<path d="M225.424 161.295C225.424 161.295 225.653 166.66 225.78 173.805L232.163 158.396L225.424 161.295Z" fill="#EEEEEE"/>
<path d="M156.949 70.2903C156.949 70.2903 152.497 61.9488 142.023 67.0356C131.55 72.1224 133.581 92.5646 133.581 92.5646C133.581 92.5646 124.274 97.0143 119.315 104.515C111.636 116.136 115.503 133.68 139.381 133.68C138.243 128.672 137.849 123.522 138.212 118.399C138.848 109.372 142.128 101.108 145.026 92.6408C148.723 81.6951 147.929 82.5703 149.222 78.5542C146.144 75.63 149.807 72.1211 151.459 74.9676C152.159 76.1185 152.327 76.164 152.886 76.3393C155.916 77.2881 161.414 78.3467 164.395 77.3591C164.399 77.2815 164.653 70.2903 156.949 70.2903Z" fill="#EEEEEE"/>
<path d="M151.304 96.1758L148.583 89.3613C149.491 90.5778 150.56 91.6632 151.762 92.5906C151.538 93.7756 151.386 94.9727 151.304 96.1758Z" fill="#EEEEEE"/>
<path d="M187.284 211.641C187.459 212.501 187.376 213.394 187.045 214.207C186.714 215.019 186.149 215.715 185.422 216.207C184.695 216.699 183.838 216.964 182.96 216.968C182.083 216.973 181.223 216.718 180.491 216.234C179.758 215.751 179.186 215.061 178.845 214.252C178.505 213.443 178.412 212.551 178.579 211.689C178.745 210.828 179.163 210.035 179.78 209.41C180.397 208.786 181.186 208.359 182.046 208.183C182.617 208.062 183.206 208.056 183.78 208.166C184.353 208.275 184.899 208.498 185.386 208.82C185.873 209.142 186.292 209.556 186.618 210.041C186.943 210.525 187.17 211.069 187.284 211.641Z" fill="#EEEEEE"/>
<path d="M214.313 38.3779C214.313 41.5311 213.378 44.6135 211.626 47.2353C209.874 49.8571 207.384 51.9005 204.471 53.1072C201.558 54.3139 198.352 54.6296 195.259 54.0145C192.167 53.3993 189.326 51.8809 187.096 49.6512C184.867 47.4216 183.348 44.5808 182.733 41.4882C182.118 38.3956 182.434 35.19 183.64 32.2769C184.847 29.3637 186.891 26.8737 189.512 25.1219C192.134 23.3701 195.217 22.4351 198.37 22.4351C202.597 22.4379 206.651 24.1185 209.64 27.1077C212.629 30.097 214.31 34.1505 214.313 38.3779Z" stroke="white" stroke-width="1.345"/>
<path d="M249.173 170.575L262.319 177.212C265.018 178.57 268.144 178.802 271.014 177.859C273.884 176.915 276.262 174.872 277.628 172.177L292.681 142.376" stroke="white" stroke-width="1.345" stroke-linecap="round" stroke-linejoin="round"/>
<path d="M302.216 123.51L311.497 105.151C312.855 102.453 313.087 99.3266 312.144 96.4571C311.2 93.5877 309.157 91.2096 306.462 89.8442L213.571 42.9136M160.915 103.987L187.866 50.602" stroke="white" stroke-width="1.345" stroke-linecap="round" stroke-linejoin="round"/>
<path d="M311.929 95.7432L234.349 108.253L205.673 52.561" stroke="white" stroke-width="1.345" stroke-linecap="round" stroke-linejoin="round"/>
<path d="M191.842 174.823C183.124 184.409 171.704 191.126 159.089 194.086C146.474 197.046 133.258 196.109 121.186 191.401C113.172 188.276 105.87 183.569 99.7145 177.561C93.559 171.553 88.6763 164.367 85.3577 156.432C80.3598 144.478 79.1047 131.288 81.758 118.606C84.4113 105.923 90.8483 94.3434 100.219 85.395" stroke="white" stroke-width="1.345" stroke-linecap="round" stroke-linejoin="round"/>
<path d="M151.304 98.2866C151.233 96.3594 151.396 94.431 151.791 92.5427C154.89 94.6157 157.452 93.3269 159.332 90.645C161.744 86.7417 162.982 82.2271 162.899 77.6396" stroke="white" stroke-width="1.345" stroke-linecap="round" stroke-linejoin="round"/>
<path d="M149.954 128.57C152.136 131.739 154.479 134.794 156.972 137.724C160.979 136.045 164.67 133.694 167.886 130.773C170.269 128.61 172.407 126.192 174.262 123.561C169.875 117.824 165.809 111.848 162.084 105.66C160.269 102.643 157.546 100.277 154.304 98.9022C152.914 98.3619 151.412 98.1699 149.931 98.3428C148.831 98.6314 147.678 98.657 146.566 98.4176C145.454 98.1781 144.414 97.6803 143.53 96.9644" stroke="white" stroke-width="1.345" stroke-linecap="round" stroke-linejoin="round"/>
<path d="M283.019 122.493C286.477 122.62 293.342 122.594 297.538 122.518C294.62 129.452 290.497 135.814 285.36 141.309C284.063 141.105 281.317 140.826 280.071 140.749" stroke="white" stroke-width="1.345" stroke-linecap="round" stroke-linejoin="round"/>
<path d="M323.93 122.621C325.379 122.824 326.31 123.156 326.422 123.612C327.125 126.5 312.011 133.516 305.215 138.996C303.239 140.61 301.027 141.913 298.658 142.861C296.929 143.178 295.154 143.144 293.438 142.759C295.959 141.664 298.321 140.237 300.462 138.515C307.134 133.135 320.905 126.46 323.93 122.621Z" stroke="white" stroke-width="1.345" stroke-linecap="round" stroke-linejoin="round"/>
<path d="M297.565 122.518C305.092 122.366 318.467 121.832 323.929 122.62C320.904 126.434 307.127 133.128 300.435 138.512C298.295 140.234 295.935 141.662 293.417 142.758C291.001 142.377 288.179 141.741 285.356 141.309C290.505 135.816 294.639 129.454 297.565 122.518Z" stroke="white" stroke-width="1.345" stroke-linecap="round" stroke-linejoin="round"/>
<path d="M245.538 202.438C245.309 206.252 245.538 211.871 245.843 217.643C238.807 214.977 232.298 211.086 226.62 206.15C226.772 204.853 226.874 203.556 226.899 202.336" stroke="white" stroke-width="1.345" stroke-linecap="round" stroke-linejoin="round"/>
<path d="M246.681 243.986C246.529 245.458 246.252 246.382 245.791 246.529C242.956 247.432 235.362 232.47 229.645 225.882C227.951 223.961 226.561 221.791 225.526 219.449C225.154 217.731 225.128 215.957 225.45 214.229C226.638 216.708 228.152 219.017 229.95 221.095C235.571 227.581 242.766 241.087 246.681 243.986Z" stroke="white" stroke-width="1.345" stroke-linecap="round" stroke-linejoin="round"/>
<path d="M245.842 217.618C246.275 225.144 247.292 238.495 246.682 243.982C242.766 241.083 235.552 227.57 229.953 221.097C228.156 219.018 226.642 216.709 225.452 214.232C225.758 211.791 226.266 208.942 226.597 206.119C232.28 211.063 238.796 214.956 245.842 217.618Z" stroke="white" stroke-width="1.345" stroke-linecap="round" stroke-linejoin="round"/>
<path d="M168.849 150.005C157.203 144.284 150.185 129.104 149.954 128.57" stroke="white" stroke-width="1.345" stroke-linecap="round" stroke-linejoin="round"/>
<path d="M158.551 137.012C162.164 141.284 166.69 145.882 171.037 148.254C173.241 149.503 175.813 149.944 178.307 149.499C188.92 147.358 208.998 136.913 214.236 131.319C223.722 121.188 222.943 113.47 222.119 100.578C221.784 95.3395 221.126 95.4653 220.339 97.901C219.168 101.536 217.69 110.347 216.474 113.818C216.36 114.168 216.126 114.465 215.813 114.657C214.876 115.193 214.286 114.022 213.805 112.369C213.295 110.615 212.931 108.278 212.458 106.882C211.627 104.421 209.931 102.178 209.661 109.399C209.503 113.646 209.492 120.959 204.88 123.639C201.291 125.684 197.551 127.452 193.692 128.928C189.701 130.491 185.521 131.517 181.26 131.979C178.944 132.102 175.842 129.461 172.893 125.368" stroke="white" stroke-width="1.345" stroke-linecap="round" stroke-linejoin="round"/>
<path d="M217.618 109.576L221.89 90.7857C221.937 90.5821 221.943 90.3712 221.908 90.1651C221.874 89.959 221.799 89.7618 221.688 89.5847C221.577 89.4076 221.432 89.2541 221.262 89.133C221.091 89.0119 220.899 88.9255 220.695 88.8787C220.491 88.832 220.281 88.8258 220.074 88.8605C219.868 88.8953 219.671 88.9703 219.494 89.0813C219.317 89.1923 219.164 89.337 219.042 89.5073C218.921 89.6776 218.835 89.8701 218.788 90.0738L213.753 112.221" stroke="white" stroke-width="1.345" stroke-linecap="round" stroke-linejoin="round"/>
<path d="M225.432 161.319C229.399 159.615 232.169 158.396 232.169 158.396L225.78 173.805" stroke="white" stroke-width="1.345" stroke-linecap="round" stroke-linejoin="round"/>
<path d="M171.036 148.25C166.233 152.093 161.197 155.635 155.958 158.856C147.415 152.894 141.483 143.884 139.382 133.681" stroke="white" stroke-width="1.345" stroke-linecap="round" stroke-linejoin="round"/>
<path d="M219.551 123.993L231.476 118.933C234.429 117.685 237.636 117.154 240.833 117.382L282.815 120.51C283.76 129.295 283.647 134.349 279.357 142.072L244.317 142.403" stroke="white" stroke-width="1.345" stroke-linecap="round" stroke-linejoin="round"/>
<path d="M156.949 70.2903C156.949 70.2903 152.496 61.9488 142.023 67.0356C131.55 72.1224 133.581 92.5646 133.581 92.5646C133.581 92.5646 124.274 97.0143 119.315 104.515C111.636 116.136 115.503 133.68 139.381 133.68C138.243 128.672 137.849 123.522 138.212 118.399C138.847 109.372 142.128 101.108 145.026 92.6408C145.687 90.6829 147.264 85.9026 147.798 83.918C148.281 82.0631 148.51 80.765 149.222 78.5542C146.144 75.63 149.807 72.1211 151.459 74.9676C152.189 76.172 152.331 76.1024 153.129 76.3661C155.107 77.0165 160.436 78.4926 164.402 77.3029C164.399 77.3069 164.653 70.2903 156.949 70.2903Z" stroke="white" stroke-width="1.345" stroke-linecap="round" stroke-linejoin="round"/>
<path d="M106.754 74.6634C97.7401 79.0115 89.2588 84.3874 81.4796 90.6839C81.2607 90.8201 81.0781 91.0074 80.9474 91.2297C80.8167 91.4519 80.7419 91.7026 80.7294 91.9601C80.7169 92.2176 80.7671 92.4744 80.8756 92.7082C80.9841 92.9421 81.1478 93.1462 81.3525 93.3029L87.1499 97.9053C90.6629 93.2976 95.4258 89.4032 100.211 85.3804C96.528 90.1455 93.3018 95.2473 90.5759 100.618L96.8136 105.559C97.0148 105.719 97.2516 105.828 97.5039 105.878C97.7562 105.927 98.0167 105.915 98.2635 105.843C98.5102 105.771 98.736 105.64 98.9217 105.462C99.1075 105.285 99.2478 105.065 99.3309 104.821L109.144 76.5531C109.259 76.2362 109.271 75.8912 109.179 75.5671C109.087 75.2429 108.895 74.956 108.63 74.747C108.366 74.538 108.042 74.4175 107.706 74.4025C107.369 74.3875 107.036 74.4788 106.754 74.6634Z" stroke="white" stroke-width="1.345" stroke-linecap="round" stroke-linejoin="round"/>
<path d="M279.153 26.2001C274.093 23.6815 268.423 27.2708 269.236 32.5569L266.871 34.7423L270.126 34.9966C272.999 39.8532 280.297 40.058 282.687 35.2763C283.418 33.6036 283.457 31.7094 282.794 30.0084C282.132 28.3073 280.823 26.938 279.153 26.2001Z" stroke="white" stroke-width="1.345" stroke-linecap="round" stroke-linejoin="round"/>
<path d="M309.259 173.119C307.708 172.316 305.902 172.162 304.237 172.69C303.413 172.952 302.648 173.374 301.987 173.932C301.326 174.49 300.782 175.172 300.385 175.941C300.385 175.941 296.088 184.333 292.477 184.078L310.429 193.359C308.115 190.562 312.082 181.994 312.082 181.994C312.48 181.226 312.723 180.387 312.797 179.525C312.87 178.664 312.773 177.796 312.51 176.971C312.248 176.147 311.826 175.382 311.268 174.721C310.711 174.06 310.028 173.516 309.259 173.119Z" stroke="white" stroke-width="1.345" stroke-linecap="round" stroke-linejoin="round"/>
<path d="M304.403 190.256C304.208 190.654 303.937 191.008 303.603 191.299C303.27 191.59 302.882 191.812 302.462 191.951C302.042 192.09 301.598 192.143 301.157 192.108C300.716 192.073 300.286 191.951 299.893 191.747C299.5 191.544 299.152 191.264 298.868 190.924C298.585 190.585 298.372 190.192 298.243 189.768C298.113 189.345 298.07 188.901 298.115 188.46C298.159 188.02 298.292 187.593 298.504 187.205" stroke="white" stroke-width="1.345" stroke-linecap="round" stroke-linejoin="round"/>
<path d="M328.838 75.9863L324.083 92.3615" stroke="white" stroke-width="1.345" stroke-linecap="round" stroke-linejoin="round"/>
<path d="M334.636 86.5386L318.261 81.7837" stroke="white" stroke-width="1.345" stroke-linecap="round" stroke-linejoin="round"/>
<path d="M225.806 193.537C233.029 194.725 240.387 194.861 247.648 193.939" stroke="white" stroke-width="1.345" stroke-linecap="round" stroke-linejoin="round"/>
<path d="M273.102 119.849C274.247 127.477 273.013 135.273 269.567 142.174" stroke="white" stroke-width="1.345" stroke-linecap="round" stroke-linejoin="round"/>
<path d="M187.283 211.642C187.459 212.502 187.376 213.394 187.045 214.207C186.713 215.02 186.148 215.716 185.421 216.207C184.694 216.699 183.838 216.964 182.96 216.969C182.083 216.974 181.223 216.718 180.491 216.235C179.758 215.751 179.186 215.061 178.845 214.252C178.505 213.443 178.412 212.552 178.578 211.69C178.745 210.828 179.163 210.035 179.78 209.411C180.397 208.787 181.186 208.36 182.045 208.184C182.617 208.063 183.206 208.057 183.78 208.166C184.353 208.276 184.899 208.498 185.386 208.821C185.873 209.142 186.292 209.557 186.618 210.041C186.943 210.525 187.17 211.069 187.283 211.642Z" stroke="white" stroke-width="1.345" stroke-linecap="round" stroke-linejoin="round"/>
<path d="M185.275 197.734C186.979 196.139 189.118 195.086 191.422 194.708C193.725 194.329 196.088 194.643 198.213 195.609C200.339 196.573 202.131 198.147 203.362 200.13C204.593 202.113 205.209 204.416 205.13 206.749C205.052 209.082 204.284 211.339 202.922 213.235C201.561 215.131 199.668 216.581 197.483 217.401C195.298 218.221 192.919 218.375 190.646 217.843C188.374 217.312 186.31 216.118 184.716 214.414C182.579 212.127 181.438 209.086 181.543 205.958C181.648 202.831 182.99 199.872 185.275 197.734Z" stroke="white" stroke-width="1.345" stroke-linecap="round" stroke-linejoin="round"/>
<path d="M155.958 158.856C155.958 158.856 165.874 187.106 202.797 171.138L225.433 161.319C225.714 172.001 226.305 190.08 225.406 201.929C232.3 204.029 239.653 204.099 246.587 202.132C249.358 183.315 251.501 153.612 244.324 142.402C235.026 127.878 206.437 137.19 206.437 137.19" stroke="white" stroke-width="1.345" stroke-linecap="round" stroke-linejoin="round"/>
<path d="M151.791 92.5425C150.566 91.6692 149.49 90.6041 148.604 89.3882L151.304 96.1759" stroke="white" stroke-width="1.345" stroke-linecap="round" stroke-linejoin="round"/>
</g>
<defs>
<linearGradient id="paint0_linear_766_5919" x1="405.874" y1="28.7801" x2="-339.102" y2="175.828" gradientUnits="userSpaceOnUse">
<stop stop-color="#1E1244"/>
<stop offset="1" stop-color="#4B2DAA"/>
</linearGradient>
<clipPath id="clip0_766_5919">
<rect width="415" height="242" fill="white" transform="translate(0 -0.00878906)"/>
</clipPath>
</defs>
</svg>
