<svg width="523" height="200" viewBox="0 0 523 200" fill="none" xmlns="http://www.w3.org/2000/svg">
<path d="M162.353 101.176C162.353 111.765 161.165 121.176 158.791 131.765C155.228 147.059 144.541 157.647 129.104 161.176C108.917 165.882 87.5426 165.882 67.3557 161.176C53.1061 157.647 41.2315 145.882 38.8565 131.765C36.4816 121.176 35.2941 110.588 35.2941 101.176C35.2941 90.5882 36.4816 81.1764 38.8565 70.5882C42.4189 55.2941 53.1061 44.7058 68.5432 41.1764C78.0429 38.8235 88.7301 37.647 99.4173 37.647C110.104 37.647 119.604 38.8235 130.291 41.1764C145.728 44.7058 156.416 55.2941 159.978 70.5882C161.165 80 162.353 90.5882 162.353 101.176Z" fill="#80ADFD"/>
<ellipse cx="138.235" cy="61.7647" rx="32.3529" ry="32.3529" fill="#005AFF"/>
<path d="M221.45 141V66.45H245.495C252.425 66.45 257.43 67.15 260.51 68.55C264.29 70.3 267.265 72.925 269.435 76.425C271.605 79.925 272.69 84.09 272.69 88.92C272.69 93.47 271.535 97.635 269.225 101.415C266.985 105.125 263.94 107.75 260.09 109.29V109.5C260.79 110.2 261.63 111.425 262.61 113.175L277.94 141H262.82L248.015 113.175H234.995V141H221.45ZM234.995 101.415H247.175C250.815 101.415 253.685 100.4 255.785 98.37C257.885 96.27 258.935 93.365 258.935 89.655C258.935 85.805 257.92 82.935 255.89 81.045C253.86 79.085 250.325 78.105 245.285 78.105H234.995V101.415Z" fill="black"/>
<path d="M284.169 114.225C284.169 105.965 286.689 99.245 291.729 94.065C296.839 88.815 303.384 86.19 311.364 86.19C318.854 86.19 324.664 88.605 328.794 93.435C332.994 98.195 335.094 104.25 335.094 111.6L334.779 116.745H297.819C298.239 121.225 299.954 124.725 302.964 127.245C306.044 129.695 309.684 130.92 313.884 130.92C316.404 130.92 318.959 130.43 321.549 129.45C324.139 128.47 326.099 127.49 327.429 126.51L329.319 125.04L334.464 134.595C334.254 134.805 333.939 135.085 333.519 135.435C333.099 135.785 332.154 136.415 330.684 137.325C329.284 138.165 327.814 138.935 326.274 139.635C324.734 140.265 322.739 140.86 320.289 141.42C317.909 141.98 315.459 142.26 312.939 142.26C304.329 142.26 297.364 139.565 292.044 134.175C286.794 128.715 284.169 122.065 284.169 114.225ZM298.239 107.61H321.654C321.584 104.11 320.534 101.38 318.504 99.42C316.544 97.46 314.059 96.48 311.049 96.48C307.619 96.48 304.784 97.46 302.544 99.42C300.304 101.38 298.869 104.11 298.239 107.61Z" fill="black"/>
<path d="M346.088 162V87.45H358.268V91.335L358.058 95.01H358.268C358.408 94.8 358.583 94.485 358.793 94.065C359.073 93.645 359.703 92.945 360.683 91.965C361.663 90.915 362.748 90.005 363.938 89.235C365.128 88.465 366.738 87.765 368.768 87.135C370.868 86.505 373.108 86.19 375.488 86.19C382.698 86.19 388.438 88.78 392.708 93.96C397.048 99.14 399.218 105.895 399.218 114.225C399.218 122.625 396.908 129.415 392.288 134.595C387.738 139.705 381.893 142.26 374.753 142.26C372.793 142.26 370.903 142.015 369.083 141.525C367.333 141.035 365.898 140.44 364.778 139.74C363.658 138.97 362.643 138.235 361.733 137.535C360.893 136.765 360.298 136.135 359.948 135.645L359.423 134.91H359.213C359.353 136.17 359.423 137.71 359.423 139.53V162H346.088ZM359.003 114.54C359.003 119.02 360.158 122.905 362.468 126.195C364.848 129.415 368.138 131.025 372.338 131.025C376.188 131.025 379.373 129.555 381.893 126.615C384.483 123.605 385.778 119.545 385.778 114.435C385.778 109.395 384.553 105.335 382.103 102.255C379.653 99.175 376.433 97.635 372.443 97.635C368.663 97.635 365.478 99.07 362.888 101.94C360.298 104.74 359.003 108.94 359.003 114.54Z" fill="black"/>
<path d="M409.543 124.305V66.45H422.773V122.31C422.773 125.11 423.193 127.035 424.033 128.085C424.943 129.135 426.343 129.66 428.233 129.66L430.228 129.555V141.21C428.898 141.42 427.498 141.525 426.028 141.525C423.858 141.525 421.933 141.35 420.253 141C418.573 140.58 416.858 139.845 415.108 138.795C413.358 137.675 411.993 135.89 411.013 133.44C410.033 130.99 409.543 127.945 409.543 124.305Z" fill="black"/>
<path d="M432.872 159.585L437.282 149.61C439.242 151.08 441.237 151.815 443.267 151.815C447.467 151.815 450.547 149.505 452.507 144.885L454.502 140.16L431.927 87.45H446.942L458.177 118.32L460.172 125.565H460.382C460.942 122.765 461.537 120.42 462.167 118.53L472.667 87.45H487.262L463.322 149.085C461.502 153.775 458.877 157.275 455.447 159.585C452.087 161.895 448.272 163.05 444.002 163.05C442.112 163.05 440.222 162.77 438.332 162.21C436.512 161.65 435.147 161.09 434.237 160.53L432.872 159.585Z" fill="black"/>
</svg>
