<svg width="415" height="242" viewBox="0 0 415 242" fill="none" xmlns="http://www.w3.org/2000/svg">
<g clip-path="url(#clip0_766_5791)">
<rect width="415" height="242" transform="translate(0 -0.00878906)" fill="url(#paint0_linear_766_5791)"/>
<path d="M250.558 137.643L217.478 146.49C208.635 149.196 199.304 149.918 190.149 148.604C187.463 155.223 185.91 163.501 189.215 169.862V169.887C185.346 178.994 180.597 187.702 175.035 195.886C161.527 194.003 148.136 191.361 134.926 187.973C130.155 194.819 127.953 199.134 129.175 210.583C143.7 215.253 155.595 218.767 169.505 221.888C173.937 222.887 178.561 222.597 182.833 221.052C187.105 219.508 190.846 216.773 193.615 213.171C200.84 203.504 207.487 193.419 213.522 182.967L200.527 178.403C211.843 181.488 226.362 175.792 235.62 171.067V171.091L228.117 202.523C233.983 207.268 242.928 209.061 250.162 207.856L266.506 154.176C267.187 151.935 267.257 149.553 266.709 147.276C266.161 144.999 265.015 142.91 263.389 141.224C261.763 139.539 259.717 138.318 257.461 137.688C255.205 137.059 252.822 137.043 250.558 137.643Z" fill="#6153BD"/>
<path d="M262.38 103.113L268.769 101.958L253.409 17.4885L244.93 7.11719L262.38 103.113Z" fill="#6153BD"/>
<path d="M244.095 7.26514L239.794 19.9712L255.179 104.441L261.544 103.286L244.095 7.26514Z" fill="#6153BD"/>
<path d="M174.839 154.33C174.765 153.592 173.61 152.806 170.931 152.462L171.423 156.271C173.463 156.026 174.916 155.19 174.839 154.33Z" fill="#6153BD"/>
<path d="M161.295 152.757C157.932 153.275 156.587 154.132 156.553 154.92C156.512 155.854 158.347 156.69 160.879 156.591C161.092 156.406 161.254 156.17 161.346 155.903C161.463 154.857 161.446 153.8 161.297 152.757H161.295Z" fill="#6153BD"/>
<path d="M132.542 191.416C129.806 190.352 127.007 189.458 124.162 188.737C116.592 193.087 106.053 197.743 95.3826 206.948C95.1738 207.122 95.0201 207.352 94.9402 207.612C101.483 207.882 108.036 207.701 114.552 207.071C119.148 206.702 124.235 205.916 128.831 206.604C128.711 200.883 129.355 196.767 132.542 191.416Z" fill="white"/>
<path d="M246.995 222.873C246.607 218.154 245.79 212.895 246.577 208.257C241.294 208.43 236.058 207.218 231.389 204.742C230.392 207.367 229.531 210.041 228.808 212.754C233.379 220.447 238.098 231.334 247.534 242.736C247.807 236.111 247.626 229.474 246.995 222.873Z" fill="white"/>
<path d="M203.543 74.1862C203.355 73.7319 203.017 73.3556 202.586 73.1194C202.154 72.8832 201.655 72.8013 201.171 72.8873C200.686 72.9732 200.246 73.2219 199.922 73.5922C199.598 73.9624 199.411 74.4321 199.39 74.9235C199.341 74.9235 199.316 74.9481 199.267 74.9481C199.06 74.4802 198.695 74.1003 198.235 73.8751C197.776 73.6499 197.252 73.5938 196.755 73.7167C196.258 73.8399 195.821 74.135 195.52 74.5497C195.22 74.9645 195.076 75.4722 195.114 75.9829C195.089 75.9829 195.065 76.0075 195.04 76.0075C194.795 75.5048 194.365 75.1165 193.84 74.9241C193.315 74.7317 192.736 74.7502 192.224 74.9756C191.712 75.201 191.308 75.6159 191.095 76.1331C190.883 76.6504 190.879 77.2298 191.084 77.7498C190.859 77.3413 190.507 77.0172 190.082 76.8266C189.656 76.6359 189.18 76.589 188.725 76.693C188.381 76.7771 188.063 76.943 187.796 77.1766C187.53 77.4103 187.325 77.7047 187.197 78.0349C187.069 78.3651 187.023 78.7213 187.062 79.0732C187.101 79.4251 187.225 79.7623 187.423 80.0561C188.873 82.7841 196.295 97.3334 194.623 102.563C196.737 97.7952 195.658 91.135 195.213 90.7663C190.888 87.1781 194.083 83.1722 196.172 85.851C197.179 87.129 197.646 87.0798 197.917 86.2688C198.777 82.0908 203.963 75.9958 206.713 84.3764C203.185 72.9988 203.745 74.7929 203.543 74.1862Z" fill="#6153BD"/>
<path d="M185.431 127.91C183.31 128.657 181.255 129.577 179.287 130.663L184.128 125.182C184.611 126.067 185.047 126.978 185.431 127.91Z" fill="#6153BD"/>
<path d="M218.265 143.123L206.96 125.453L218.462 138.699C218.558 140.177 218.492 141.66 218.265 143.123Z" fill="#6153BD"/>
<path d="M216.201 178.292C215.316 179.844 214.431 181.389 213.497 182.962L199.341 177.997C204.38 179.791 210.573 179.496 216.201 178.292Z" fill="#6153BD"/>
<path d="M264.272 128.697L268.819 127.861L267.492 120.586C266.165 120.881 264.592 121.104 262.965 121.447L264.272 128.697Z" fill="#6153BD"/>
<path d="M264.789 105.841L264.224 102.793L259.677 103.629L260.242 106.677C261.064 106.529 264.305 105.941 264.789 105.841Z" fill="#6153BD"/>
<path d="M286.244 238.407C286.287 238.745 286.458 239.053 286.723 239.267C286.988 239.482 287.325 239.585 287.665 239.557C288.004 239.528 288.319 239.37 288.544 239.114C288.77 238.859 288.888 238.526 288.873 238.186L288.677 236.116C288.647 235.767 288.481 235.445 288.213 235.219C287.946 234.993 287.6 234.883 287.251 234.912C286.903 234.941 286.58 235.108 286.354 235.375C286.128 235.643 286.018 235.989 286.047 236.337L286.244 238.407Z" fill="#6153BD"/>
<path d="M238.466 236.17C231.854 242.734 224.37 248.358 216.225 252.882C199.242 247.106 183.758 236.17 170.709 222.137" stroke="white" stroke-width="1.3" stroke-linecap="round" stroke-linejoin="round"/>
<path d="M249.329 71.1882C231.808 64.3918 214.749 56.4614 198.259 47.4473C175.253 64.4842 151.257 80.1423 126.398 94.3392L129.617 131.007C131.714 152.141 138.13 172.619 148.467 191.171" stroke="white" stroke-width="1.3" stroke-linecap="round" stroke-linejoin="round"/>
<path d="M247.142 226.659C271.448 196.897 283.589 154.257 280.394 117.785L277.174 81.1415C272.82 79.7272 268.486 78.2525 264.173 76.7178" stroke="white" stroke-width="1.3" stroke-linecap="round" stroke-linejoin="round"/>
<path d="M190.125 106.923C197.744 104.293 195.833 91.3087 195.212 90.7758C190.933 87.1074 194.074 83.1868 196.171 85.8605C196.904 86.797 197.678 87.3764 197.93 86.2084C198.912 81.6618 204.978 74.9136 207.402 87.0893C210.715 103.729 198.653 96.7478 198.653 96.7478" stroke="white" stroke-width="1.3" stroke-linecap="round" stroke-linejoin="round"/>
<path d="M160.879 156.592C158.347 156.69 156.512 155.853 156.553 154.921C156.648 152.791 164.375 152.387 166.477 152.322C168.518 152.26 174.706 152.292 174.838 154.331C174.838 154.615 174.601 155.883 171.422 156.271" stroke="white" stroke-width="1.3" stroke-linecap="round" stroke-linejoin="round"/>
<path d="M171.471 157.01C171.915 160.004 172.153 163.026 172.184 166.054C171.889 167.7 167.786 175.98 165.229 179.571C163.604 181.855 161.396 182.521 163.336 177.924C164.447 175.164 165.366 172.331 166.089 169.445C168.107 161.778 162.45 160.156 160.215 163.277C157.008 167.756 154.561 169.077 155.644 165.661C156.306 163.572 156.651 162.318 157.118 160.721C157.481 159.491 159.896 157.662 160.846 156.64C161.06 156.444 161.223 156.2 161.321 155.928C161.424 154.882 161.409 153.826 161.272 152.783C164.453 152.311 167.679 152.22 170.881 152.512C170.881 152.512 171.043 153.636 171.471 157.01Z" stroke="white" stroke-width="1.3" stroke-linecap="round" stroke-linejoin="round"/>
<path d="M165.007 173.202C163.394 175.138 161.544 176.863 159.502 178.339C156.969 180.083 155.966 178.759 158.814 175.611C160.809 173.406 162.571 171.001 164.073 168.435" stroke="white" stroke-width="1.3" stroke-linecap="round" stroke-linejoin="round"/>
<path d="M162.11 167.061C163.3 168.053 164.633 168.858 166.067 169.445" stroke="white" stroke-width="1.3" stroke-linecap="round" stroke-linejoin="round"/>
<path d="M161.812 171.854C159.874 173.023 157.803 173.953 155.642 174.626C152.842 175.466 153.055 173.757 155.986 172.218C158.331 170.862 160.523 169.257 162.524 167.432" stroke="white" stroke-width="1.3" stroke-linecap="round" stroke-linejoin="round"/>
<path d="M158.839 170.403C157.329 170.798 155.779 171.021 154.218 171.067C152.105 170.984 151.418 169.843 154.538 169.101C156.999 168.529 159.356 167.575 161.523 166.275C161.63 164.715 162.074 163.197 162.825 161.826" stroke="white" stroke-width="1.3" stroke-linecap="round" stroke-linejoin="round"/>
<path d="M179.287 130.664L184.128 125.183C184.618 126.064 185.06 126.971 185.453 127.899" stroke="white" stroke-width="1.3" stroke-linecap="round" stroke-linejoin="round"/>
<path d="M218.264 143.123L206.959 125.478L218.461 138.724" stroke="white" stroke-width="1.3" stroke-linecap="round" stroke-linejoin="round"/>
<path d="M174.838 154.33C174.42 148.948 173.803 136.365 173.855 133.514C177.089 131.971 181.694 129.085 185.453 127.904C187.888 133.753 189.14 141.547 190.125 148.629C199.279 149.954 208.613 149.233 217.454 146.515C218.301 144.01 218.644 141.362 218.462 138.724C218.332 138.411 224.253 146.494 232.765 141.157L261.618 123.413C260.168 116.63 256.875 110.289 251.32 107.316L227.579 123.614C217.454 108.229 217.453 101.931 201.012 104.34C189.165 106.08 176.86 111.477 165.327 119.332C156.729 125.188 156.531 128.401 156.258 136.978C156.008 142.959 156.114 148.95 156.578 154.919" stroke="white" stroke-width="1.3" stroke-linecap="round" stroke-linejoin="round"/>
<path d="M242.669 167.135C242.669 167.135 239.917 168.905 235.616 171.092" stroke="white" stroke-width="1.3" stroke-linecap="round" stroke-linejoin="round"/>
<path d="M216.178 178.439C209.464 190.532 201.918 202.144 193.592 213.19C190.825 216.793 187.084 219.528 182.812 221.074C178.54 222.62 173.915 222.912 169.483 221.915C155.574 218.786 143.678 215.279 129.153 210.585C128.765 205.762 128.377 201.179 130.291 196.036C131.441 193.15 132.985 190.437 134.879 187.975C148.09 191.363 161.481 194.005 174.988 195.888C180.616 187.711 185.345 178.951 189.095 169.76" stroke="white" stroke-width="1.3" stroke-linecap="round" stroke-linejoin="round"/>
<path d="M202.363 98.0903C202.091 100.369 201.63 102.359 203.397 104.071" stroke="white" stroke-width="1.3" stroke-linecap="round" stroke-linejoin="round"/>
<path d="M94.9401 207.609C94.2028 207.56 93.4164 207.541 92.6791 207.486C92.48 207.472 92.2869 207.412 92.1142 207.312C91.9416 207.212 91.7938 207.074 91.6821 206.909C91.5704 206.744 91.4977 206.555 91.4694 206.358C91.4411 206.16 91.458 205.959 91.5188 205.769C91.6003 205.515 91.7555 205.291 91.9663 205.127C96.935 201.242 102.221 197.78 107.769 194.779C112.665 192.109 117.059 190.036 120.598 187.947C121.802 188.193 122.982 188.414 124.162 188.733" stroke="white" stroke-width="1.3" stroke-linecap="round" stroke-linejoin="round"/>
<path d="M132.542 191.417C129.373 196.737 128.708 200.849 128.831 206.605C124.235 205.917 119.148 206.702 114.552 207.072C108.036 207.701 101.483 207.88 94.9402 207.61C95.02 207.351 95.1737 207.12 95.3825 206.947C106.059 197.741 116.596 193.085 124.162 188.735C127.005 189.465 129.803 190.36 132.542 191.417Z" stroke="white" stroke-width="1.3" stroke-linecap="round" stroke-linejoin="round"/>
<path d="M247.534 242.731C247.486 243.388 247.461 244.067 247.388 244.723C247.367 244.988 247.267 245.241 247.1 245.449C246.933 245.656 246.708 245.809 246.453 245.887C246.197 245.963 245.925 245.961 245.67 245.882C245.417 245.8 245.193 245.645 245.029 245.435C236.287 234.292 232.028 223.882 227.85 216.804C228.12 215.427 228.464 214.1 228.808 212.749" stroke="white" stroke-width="1.3" stroke-linecap="round" stroke-linejoin="round"/>
<path d="M246.317 215.201C246.145 212.883 246.224 210.553 246.552 208.251C241.269 208.424 236.033 207.213 231.364 204.737C230.372 207.515 229.553 209.858 228.808 212.749C233.379 220.441 238.096 231.327 247.534 242.731C248.169 231.382 246.595 220.157 246.317 215.201Z" stroke="white" stroke-width="1.3" stroke-linecap="round" stroke-linejoin="round"/>
<path d="M248.445 105.668L275.504 100.729" stroke="white" stroke-width="1.3" stroke-linecap="round" stroke-linejoin="round"/>
<path d="M97.4467 164.922L102.952 171.386L107.793 160.892" stroke="white" stroke-width="1.3" stroke-linecap="round" stroke-linejoin="round"/>
<path d="M294.87 237.768L294.157 229.535L279.509 230.813L280.222 239.046C280.294 240.017 280.559 240.963 281 241.831C281.441 242.699 282.05 243.471 282.791 244.102C283.533 244.733 284.392 245.21 285.32 245.506C286.247 245.803 287.224 245.912 288.194 245.828C289.164 245.743 290.107 245.466 290.969 245.014C291.831 244.562 292.595 243.943 293.216 243.193C293.837 242.443 294.303 241.577 294.587 240.646C294.871 239.715 294.967 238.736 294.87 237.768Z" stroke="white" stroke-width="1.3" stroke-linecap="round" stroke-linejoin="round"/>
<path d="M279.51 230.812L279.043 225.552C278.901 223.624 279.523 221.718 280.775 220.245C282.028 218.774 283.81 217.855 285.736 217.687C287.661 217.519 289.575 218.115 291.064 219.347C292.553 220.581 293.497 222.351 293.69 224.274" stroke="white" stroke-width="1.3" stroke-linecap="round" stroke-linejoin="round"/>
<path d="M286.244 238.407C286.286 238.745 286.458 239.053 286.723 239.267C286.988 239.482 287.325 239.585 287.664 239.557C288.004 239.528 288.319 239.37 288.544 239.114C288.77 238.859 288.887 238.526 288.873 238.186L288.677 236.116C288.647 235.767 288.481 235.445 288.213 235.219C287.946 234.993 287.6 234.883 287.251 234.912C286.902 234.941 286.58 235.108 286.354 235.375C286.128 235.643 286.018 235.989 286.047 236.337L286.244 238.407Z" stroke="white" stroke-width="1.3" stroke-linecap="round" stroke-linejoin="round"/>
<path d="M142.152 53.0017C142.216 53.5988 142.161 54.2028 141.989 54.7783C141.817 55.3538 141.532 55.8893 141.151 56.3533C140.77 56.8173 140.3 57.2005 139.768 57.4806C139.237 57.7606 138.655 57.9318 138.057 57.9841C137.458 58.0365 136.856 57.9689 136.284 57.7853C135.712 57.6018 135.182 57.3059 134.726 56.9152C134.27 56.5244 133.897 56.0465 133.628 55.5096C133.358 54.9726 133.199 54.3874 133.159 53.7881C133.08 52.6095 133.467 51.4469 134.235 50.5499C135.004 49.6528 136.093 49.0928 137.27 48.9898C138.447 48.8869 139.617 49.2494 140.53 49.9994C141.442 50.7494 142.025 51.8272 142.152 53.0017Z" stroke="white" stroke-width="1.3" stroke-linecap="round" stroke-linejoin="round"/>
<path d="M268.057 116.752C270.588 116.531 271.032 119.947 268.962 120.267C268.79 120.294 263.875 121.151 261.245 121.84C259.844 116.457 257.235 111.542 253.209 108.516C255.101 107.533 257.46 107.14 264.17 105.929C265.128 105.757 267.732 105.236 268.643 105.069C271.122 104.614 271.8 108.136 269.773 108.633C269.553 108.687 267.414 109.15 267.168 109.198C267.291 109.174 268.42 109.122 268.544 109.1C271.188 108.639 271.838 112.246 269.675 112.737L267.586 113.057C267.733 113.032 268.2 112.983 268.348 112.958C270.953 112.663 271.51 116.093 269.383 116.547C269.063 116.624 268.401 116.703 268.057 116.752Z" stroke="white" stroke-width="1.3" stroke-linecap="round" stroke-linejoin="round"/>
<path d="M206.713 84.3857L203.568 74.1864C203.366 73.7348 203.018 73.3637 202.581 73.132C202.144 72.9003 201.642 72.8213 201.155 72.9075C200.668 72.9937 200.223 73.2402 199.892 73.6078C199.561 73.9754 199.362 74.4431 199.328 74.9366C199.163 74.5876 198.911 74.2871 198.596 74.0643C198.281 73.8415 197.914 73.7041 197.53 73.6654C197.146 73.6268 196.758 73.6881 196.405 73.8436C196.052 73.999 195.745 74.2432 195.514 74.5525C195.206 74.9675 195.051 75.4768 195.076 75.9934C193.877 73.3806 189.902 75.2898 191.083 77.75C190.928 77.4687 190.712 77.2258 190.451 77.039C190.19 76.8523 189.89 76.7265 189.574 76.6709C189.257 76.6153 188.933 76.6313 188.624 76.7177C188.314 76.8042 188.028 76.9589 187.787 77.1705C187.381 77.521 187.117 78.0079 187.045 78.5394C186.973 79.071 187.098 79.6105 187.396 80.0563C188.846 82.7843 196.268 97.309 194.597 102.544" stroke="white" stroke-width="1.3" stroke-linecap="round" stroke-linejoin="round"/>
<path d="M291.429 59.2188L291.797 63.5442" stroke="white" stroke-width="1.3" stroke-linecap="round" stroke-linejoin="round"/>
<path d="M288.087 67.9683L283.761 68.3615" stroke="white" stroke-width="1.3" stroke-linecap="round" stroke-linejoin="round"/>
<path d="M300.547 66.8628L296.221 67.256" stroke="white" stroke-width="1.3" stroke-linecap="round" stroke-linejoin="round"/>
<path d="M292.879 76.0051L292.511 71.6797" stroke="white" stroke-width="1.3" stroke-linecap="round" stroke-linejoin="round"/>
<path d="M296.221 67.256C295.417 67.3275 294.609 67.1584 293.9 66.7702C293.192 66.3819 292.615 65.7919 292.242 65.0751C291.995 64.5992 291.844 64.0792 291.797 63.5449C291.844 64.0791 291.786 64.6173 291.625 65.1288C291.464 65.6403 291.203 66.1151 290.859 66.5259C290.514 66.9368 290.092 67.2757 289.616 67.5232C289.14 67.7708 288.621 67.9222 288.086 67.9687C288.891 67.8984 289.698 68.068 290.406 68.4561C291.114 68.8443 291.692 69.4335 292.065 70.1495C292.312 70.6255 292.464 71.1455 292.51 71.6797C292.439 70.8751 292.608 70.0674 292.996 69.3591C293.384 68.6507 293.974 68.0736 294.691 67.7009C295.167 67.4539 295.687 67.3025 296.221 67.256Z" stroke="white" stroke-width="1.3" stroke-linecap="round" stroke-linejoin="round"/>
<path d="M213.57 182.987L199.784 178.204" stroke="white" stroke-width="1.3" stroke-linecap="round" stroke-linejoin="round"/>
<path d="M217.429 146.515L250.509 137.667C252.777 137.061 255.164 137.072 257.426 137.699C259.687 138.326 261.74 139.546 263.372 141.233C265.003 142.92 266.155 145.012 266.706 147.293C267.258 149.574 267.189 151.961 266.509 154.207L250.165 207.887C246.487 208.473 242.732 208.366 239.093 207.572C235.092 206.783 231.334 205.064 228.12 202.554L235.622 171.096C227.195 175.414 215.327 179.932 205.384 179.216C194.013 178.395 185.625 171.087 187.6 157.485C188.062 154.447 188.913 151.482 190.131 148.662" stroke="white" stroke-width="1.3" stroke-linecap="round" stroke-linejoin="round"/>
<path d="M227.579 123.61L228.882 125.478" stroke="white" stroke-width="1.3" stroke-linecap="round" stroke-linejoin="round"/>
<path d="M239.794 19.9708L244.483 7.29834L253.409 17.4885L268.77 101.958L255.179 104.44L239.794 19.9708Z" stroke="white" stroke-width="1.3" stroke-linejoin="round"/>
<path d="M244.492 7.30713L261.945 103.079" stroke="white" stroke-width="1.3" stroke-linecap="round"/>
<path d="M264.272 128.697L268.819 127.861L267.492 120.586C266.165 120.881 264.592 121.104 262.965 121.447L264.272 128.697Z" stroke="white" stroke-width="1.3" stroke-linejoin="round"/>
<path d="M264.788 105.841L264.223 102.793L259.676 103.629L260.241 106.677C261.063 106.529 264.304 105.941 264.788 105.841Z" stroke="white" stroke-width="1.3" stroke-linejoin="round"/>
</g>
<defs>
<linearGradient id="paint0_linear_766_5791" x1="405.874" y1="28.7801" x2="-339.102" y2="175.828" gradientUnits="userSpaceOnUse">
<stop stop-color="#1E1244"/>
<stop offset="1" stop-color="#4B2DAA"/>
</linearGradient>
<clipPath id="clip0_766_5791">
<rect width="415" height="242" fill="white" transform="translate(0 -0.00878906)"/>
</clipPath>
</defs>
</svg>
