<svg width="42" height="43" viewBox="0 0 42 43" fill="none" xmlns="http://www.w3.org/2000/svg">
<path d="M29.1409 2.57667L28.0322 2.14167L27.561 1.97854C27.4937 1.95638 27.4233 1.94516 27.3525 1.94531C27.2477 1.9452 27.1442 1.9695 27.0504 2.0163C26.9326 2.07534 26.8348 2.16803 26.7697 2.28264C26.7045 2.39724 26.6748 2.52861 26.6844 2.6601C26.6939 2.79158 26.7423 2.91728 26.8233 3.02128C26.9043 3.12527 27.0144 3.20288 27.1395 3.24428L28.3645 3.69741L28.6198 3.80314C28.7004 3.83716 28.7869 3.85496 28.8745 3.85553C28.962 3.85611 29.0487 3.83944 29.1298 3.80648C29.2109 3.77352 29.2847 3.72491 29.3469 3.66344C29.4092 3.60196 29.4588 3.52883 29.4928 3.4482C29.5268 3.36756 29.5446 3.28102 29.5452 3.19351C29.5458 3.106 29.5291 3.01923 29.4961 2.93817C29.4632 2.8571 29.4146 2.78332 29.3531 2.72103C29.2916 2.65875 29.2185 2.60918 29.1379 2.57516L29.1409 2.57667Z" fill="url(#paint0_linear_70_2652)"/>
<path d="M11.4284 4.67828L12.8451 3.96988C12.9909 3.88825 13.1006 3.75486 13.1526 3.59613C13.2046 3.4374 13.195 3.26493 13.1259 3.1129C13.0567 2.96087 12.9329 2.84037 12.7791 2.77529C12.6253 2.71022 12.4526 2.70531 12.2953 2.76154L11.3468 3.21467L10.7849 3.51675C10.6301 3.60208 10.5155 3.74542 10.4663 3.91523C10.4172 4.08505 10.4375 4.26744 10.5229 4.42227C10.6082 4.5771 10.7515 4.69168 10.9213 4.74083C11.0911 4.78997 11.2735 4.76965 11.4284 4.68432V4.67828Z" fill="url(#paint1_linear_70_2652)"/>
<path d="M0.598469 20.4788C0.686003 20.4878 0.77444 20.479 0.858517 20.4531C0.942594 20.4271 1.02059 20.3845 1.08785 20.3278C1.15624 20.2721 1.21285 20.2034 1.25434 20.1256C1.29584 20.0478 1.3214 19.9625 1.32953 19.8747L1.50926 18.5681L1.5561 18.3099C1.58814 18.136 1.5498 17.9565 1.44953 17.811C1.34925 17.6654 1.19525 17.5656 1.0214 17.5335C0.847541 17.5015 0.668065 17.5398 0.522468 17.6401C0.376872 17.7403 0.277081 17.8943 0.245034 18.0682L0.0939904 18.9941L0.00336818 19.7402C-0.0143564 19.9159 0.0383638 20.0914 0.149949 20.2282C0.261535 20.365 0.42285 20.4519 0.598469 20.4698V20.4788Z" fill="url(#paint2_linear_70_2652)"/>
<path d="M19.2827 1.16292C19.1644 1.06546 19.016 1.01207 18.8627 1.01187C18.8396 1.01037 18.8164 1.01037 18.7933 1.01187H18.7721L17.4596 1.18708L17.1197 1.2475C17.0337 1.26306 16.9517 1.2955 16.8783 1.34294C16.805 1.39038 16.7417 1.45189 16.6923 1.52391C16.6179 1.63275 16.5775 1.76116 16.576 1.89296C16.5745 2.02476 16.612 2.15405 16.6839 2.26453C16.7558 2.37502 16.8588 2.46175 16.9799 2.5138C17.101 2.56586 17.2348 2.5809 17.3644 2.55704L18.5365 2.38032L18.9292 2.33651C19.0604 2.32331 19.1848 2.27145 19.2865 2.1875C19.3882 2.10355 19.4627 1.99129 19.5006 1.86495C19.5384 1.73861 19.5379 1.60387 19.4991 1.47782C19.4603 1.35176 19.385 1.24006 19.2827 1.15687V1.16292Z" fill="url(#paint3_linear_70_2652)"/>
<path d="M7.13552 6.28613C6.96737 6.28608 6.80545 6.34977 6.68239 6.46436L5.7852 7.34041L5.48312 7.6561C5.39401 7.75307 5.33565 7.87428 5.31541 8.00441C5.29517 8.13455 5.31397 8.26775 5.36941 8.3872C5.42486 8.50666 5.51446 8.607 5.62691 8.67554C5.73937 8.74409 5.8696 8.77776 6.00119 8.77231C6.08888 8.76933 6.1751 8.74882 6.25474 8.71198C6.33438 8.67514 6.40584 8.62272 6.4649 8.55782L7.32735 7.68328L7.58563 7.4401C7.68361 7.34902 7.75191 7.23054 7.7816 7.1001C7.8113 6.96966 7.80104 6.8333 7.75214 6.70878C7.70324 6.58425 7.61797 6.47733 7.50745 6.40195C7.39693 6.32657 7.26628 6.28621 7.1325 6.28613H7.13552Z" fill="url(#paint4_linear_70_2652)"/>
<path d="M22.5059 2.31254C22.682 2.32504 22.8559 2.26744 22.9897 2.15229C23.1235 2.03714 23.2064 1.87378 23.2203 1.69779C23.2285 1.611 23.2194 1.52345 23.1934 1.44022C23.1675 1.35699 23.1253 1.27973 23.0693 1.21294C22.9547 1.07913 22.7918 0.996065 22.6162 0.981846L21.3384 0.919922H20.9305C20.7592 0.92808 20.5975 1.00189 20.4791 1.12606C20.3607 1.25022 20.2947 1.41521 20.2947 1.58677C20.2947 1.75834 20.3607 1.92332 20.4791 2.04748C20.5975 2.17165 20.7592 2.24547 20.9305 2.25363L22.0694 2.28535L22.5059 2.31254Z" fill="url(#paint5_linear_70_2652)"/>
<path d="M24.0073 42.5597C24.0786 42.6103 24.1592 42.6462 24.2445 42.6654C24.3299 42.6846 24.4181 42.6866 24.5042 42.6714L25.9271 42.3693L26.1566 42.3119C26.327 42.2687 26.4735 42.1602 26.5645 42.0099C26.6543 41.8574 26.68 41.6755 26.6358 41.5042C26.5916 41.3328 26.4812 41.186 26.3288 41.096C26.2267 41.0361 26.1104 41.0043 25.992 41.0039C25.9355 41.0042 25.8792 41.0113 25.8243 41.0251L24.6522 41.2879L24.2897 41.3528C24.2014 41.367 24.1168 41.3986 24.0408 41.4458C23.9648 41.4929 23.899 41.5548 23.8472 41.6277C23.7455 41.7722 23.7053 41.9511 23.7353 42.1253C23.7653 42.2994 23.8631 42.4545 24.0073 42.5566V42.5597Z" fill="url(#paint6_linear_70_2652)"/>
<path d="M19.5456 41.5955L18.168 41.4445L17.9747 41.4158C17.9427 41.4111 17.9104 41.4086 17.878 41.4082C17.7085 41.4063 17.5446 41.4692 17.4197 41.5839C17.2949 41.6987 17.2186 41.8568 17.2062 42.0259C17.1939 42.195 17.2465 42.3624 17.3534 42.4941C17.4603 42.6258 17.6133 42.7117 17.7814 42.7344L19.0396 42.8854L19.461 42.9172C19.5494 42.9248 19.6384 42.9146 19.7228 42.8874C19.8073 42.8601 19.8854 42.8162 19.9526 42.7584C20.0199 42.7005 20.0749 42.6298 20.1144 42.5503C20.154 42.4709 20.1772 42.3844 20.1829 42.2958C20.1885 42.2073 20.1764 42.1185 20.1472 42.0347C20.1181 41.9509 20.0725 41.8738 20.0131 41.8078C19.9538 41.7419 19.8818 41.6885 19.8015 41.6507C19.7212 41.613 19.6342 41.5916 19.5456 41.588V41.5955Z" fill="url(#paint7_linear_70_2652)"/>
<path d="M11.3771 40.6895L12.6187 41.2725L12.9087 41.3949C12.9906 41.433 13.0793 41.4542 13.1696 41.4571C13.2599 41.46 13.3498 41.4445 13.4339 41.4116C13.5181 41.3787 13.5946 41.3291 13.659 41.2658C13.7234 41.2024 13.7743 41.1267 13.8086 41.0431C13.8428 40.9595 13.8598 40.8699 13.8584 40.7795C13.857 40.6892 13.8373 40.6001 13.8005 40.5177C13.7637 40.4352 13.7105 40.361 13.6442 40.2997C13.5779 40.2384 13.4998 40.1911 13.4147 40.1608L12.2758 39.6488L11.9738 39.4978C11.8801 39.4504 11.7766 39.4261 11.6717 39.4268C11.5215 39.4261 11.3755 39.4762 11.2574 39.569C11.1393 39.6617 11.056 39.7917 11.021 39.9377C10.986 40.0838 11.0014 40.2373 11.0647 40.3735C11.128 40.5097 11.2354 40.6205 11.3696 40.688L11.3771 40.6895Z" fill="url(#paint8_linear_70_2652)"/>
<path d="M36.275 34.2879L35.3446 35.3618L35.2358 35.4781C35.1684 35.5402 35.1144 35.6156 35.0774 35.6996C35.0404 35.7835 35.0212 35.8742 35.0209 35.9659C35.0206 36.0577 35.0392 36.1485 35.0756 36.2327C35.1121 36.3169 35.1655 36.3926 35.2325 36.4552C35.2996 36.5178 35.3789 36.5658 35.4654 36.5963C35.5519 36.6269 35.6438 36.6392 35.7353 36.6325C35.8267 36.6259 35.9159 36.6004 35.9971 36.5577C36.0782 36.515 36.1497 36.456 36.207 36.3844L37.0725 35.4102L37.3127 35.1171C37.3676 35.049 37.4086 34.9707 37.4333 34.8867C37.458 34.8028 37.4659 34.7147 37.4566 34.6277C37.4472 34.5407 37.4209 34.4563 37.3789 34.3795C37.337 34.3027 37.2804 34.2348 37.2122 34.1799C37.1441 34.125 37.0658 34.084 36.9818 34.0593C36.8979 34.0346 36.8099 34.0267 36.7228 34.036C36.6358 34.0453 36.5514 34.0717 36.4746 34.1136C36.3978 34.1556 36.33 34.2122 36.275 34.2804V34.2879Z" fill="url(#paint9_linear_70_2652)"/>
<path d="M41.2258 16.4352L41.1034 16.0002C41.079 15.9161 41.0379 15.8377 40.9826 15.7698C40.9274 15.7018 40.8591 15.6456 40.7817 15.6045C40.6847 15.5521 40.5763 15.5246 40.466 15.5244C40.4012 15.5246 40.3366 15.5337 40.2742 15.5516C40.19 15.5762 40.1114 15.6172 40.043 15.6722C39.9746 15.7273 39.9178 15.7952 39.8757 15.8723C39.8336 15.9493 39.8071 16.0338 39.7978 16.1211C39.7884 16.2084 39.7963 16.2966 39.8211 16.3808L40.1398 17.6118L40.2047 17.9139C40.2417 18.0866 40.3456 18.2376 40.4937 18.3338C40.6417 18.4301 40.8219 18.4637 40.9947 18.4275C41.0804 18.4095 41.1618 18.3748 41.2341 18.3254C41.3064 18.2759 41.3682 18.2127 41.4161 18.1393C41.4639 18.066 41.4968 17.9839 41.5129 17.8977C41.529 17.8116 41.5279 17.7232 41.5097 17.6375L41.2258 16.4352Z" fill="url(#paint10_linear_70_2652)"/>
<path d="M30.3599 40.5337C30.5294 40.584 30.7119 40.565 30.8674 40.4809L32.0456 39.7967L32.3204 39.6214C32.4684 39.5251 32.5721 39.3739 32.6086 39.2011C32.6451 39.0283 32.6116 38.8481 32.5153 38.7001C32.468 38.6265 32.4065 38.563 32.3344 38.5135C32.2623 38.4639 32.1811 38.4293 32.0954 38.4116C32.0498 38.4014 32.0032 38.3964 31.9564 38.3965C31.8277 38.3961 31.7017 38.4334 31.5939 38.5037L31.5395 38.5385L30.4173 39.2076L30.23 39.3088C30.153 39.3508 30.0851 39.4076 30.0301 39.4759C29.975 39.5442 29.934 39.6227 29.9093 39.7068C29.8846 39.791 29.8768 39.8792 29.8862 39.9664C29.8956 40.0536 29.9221 40.1381 29.9642 40.215C30.0057 40.2917 30.0621 40.3594 30.1301 40.4141C30.198 40.4688 30.2761 40.5095 30.3599 40.5337Z" fill="url(#paint11_linear_70_2652)"/>
<path d="M40.0178 28.377C39.8812 28.3771 39.748 28.419 39.6359 28.497C39.5239 28.575 39.4384 28.6855 39.3909 28.8135L38.8834 30.0505L38.7822 30.2665C38.745 30.346 38.7238 30.432 38.7198 30.5196C38.7158 30.6072 38.7291 30.6948 38.759 30.7773C38.7889 30.8598 38.8347 30.9355 38.8939 31.0003C38.9531 31.0651 39.0245 31.1175 39.104 31.1547C39.264 31.2293 39.4471 31.2374 39.6131 31.1771C39.7791 31.1167 39.9143 30.993 39.9891 30.8329L40.4966 29.6548L40.6476 29.2712C40.7076 29.1053 40.6994 28.9224 40.625 28.7625C40.5506 28.6026 40.4159 28.4787 40.2504 28.4178C40.176 28.39 40.0971 28.3762 40.0178 28.377Z" fill="url(#paint12_linear_70_2652)"/>
<path d="M3.54838 12.6592L3.69942 12.3918C3.74197 12.3152 3.76883 12.2308 3.77843 12.1437C3.78802 12.0566 3.78016 11.9684 3.75531 11.8843C3.70552 11.7152 3.59087 11.5727 3.43637 11.4878C3.28187 11.4029 3.10006 11.3825 2.93062 11.4312C2.76073 11.4804 2.61731 11.595 2.53186 11.7499L1.9745 12.8253L1.77211 13.2573C1.72035 13.4137 1.72821 13.5836 1.79416 13.7345C1.86011 13.8854 1.9795 14.0066 2.1294 14.0748C2.2793 14.143 2.44911 14.1534 2.6062 14.104C2.7633 14.0546 2.89659 13.9488 2.98046 13.8071L3.54838 12.6592Z" fill="url(#paint13_linear_70_2652)"/>
<path d="M1.45011 24.9447L1.40178 24.6169C1.37958 24.458 1.30073 24.3124 1.17974 24.2069C1.05874 24.1015 0.90374 24.0432 0.743239 24.043C0.71152 24.043 0.681312 24.043 0.649593 24.043C0.474246 24.068 0.315995 24.1616 0.209536 24.3032C0.103076 24.4448 0.0570941 24.6228 0.0816692 24.7982L0.290109 26.0488L0.376196 26.4597C0.415518 26.6321 0.521387 26.7821 0.67076 26.8769C0.820132 26.9716 1.00091 27.0035 1.17371 26.9656C1.34599 26.9267 1.49581 26.8211 1.59037 26.6719C1.68492 26.5227 1.7165 26.3421 1.67819 26.1697L1.45011 24.9447Z" fill="url(#paint14_linear_70_2652)"/>
<path d="M40.6096 22.6325L40.5824 23.208L40.4948 24.1973V24.2139C40.4848 24.3844 40.5404 24.5522 40.6503 24.6829C40.7602 24.8136 40.916 24.8972 41.0856 24.9165C41.2553 24.9359 41.4259 24.8895 41.5624 24.7869C41.6989 24.6843 41.7909 24.5333 41.8195 24.3649L41.9448 22.6733C41.9508 22.5837 41.9387 22.4939 41.9093 22.4092C41.8798 22.3244 41.8335 22.2465 41.7733 22.1801C41.713 22.1136 41.6399 22.06 41.5585 22.0224C41.477 21.9848 41.3888 21.964 41.2991 21.9612C41.2095 21.9585 41.1201 21.9739 41.0365 22.0064C40.9529 22.039 40.8767 22.088 40.8125 22.1507C40.7483 22.2133 40.6973 22.2883 40.6627 22.3711C40.6281 22.4539 40.6106 22.5428 40.6111 22.6325H40.6096Z" fill="url(#paint15_linear_70_2652)"/>
<path d="M29.2045 11.6913C29.1923 11.6045 29.163 11.5211 29.1184 11.4456C29.0739 11.3702 29.0148 11.3043 28.9448 11.2517L27.8527 10.5131L27.5068 10.3092C27.4307 10.2661 27.3467 10.2384 27.2599 10.2277C27.173 10.217 27.0848 10.2235 27.0005 10.2468C26.9161 10.2702 26.8372 10.3099 26.7682 10.3638C26.6992 10.4176 26.6414 10.4845 26.5983 10.5607C26.5552 10.6369 26.5274 10.7208 26.5167 10.8077C26.506 10.8946 26.5125 10.9827 26.5359 11.0671C26.5592 11.1514 26.599 11.2304 26.6528 11.2994C26.7067 11.3684 26.7736 11.4261 26.8498 11.4692L27.9464 12.1731L28.1457 12.3242C28.2512 12.4027 28.3776 12.4483 28.509 12.4551C28.6404 12.462 28.7708 12.4298 28.8839 12.3626C28.997 12.2954 29.0877 12.1962 29.1445 12.0775C29.2012 11.9589 29.2216 11.826 29.203 11.6958L29.2045 11.6913Z" fill="url(#paint16_linear_70_2652)"/>
<path d="M31.2512 15.7657L31.8554 16.9242L31.9475 17.1281C32.0194 17.2895 32.1525 17.4158 32.3175 17.4791C32.4825 17.5424 32.6659 17.5376 32.8274 17.4657C32.9888 17.3938 33.1151 17.2607 33.1784 17.0957C33.2417 16.9307 33.2368 16.7473 33.1649 16.5859L32.591 15.4289L32.375 15.0573C32.3295 14.9825 32.2697 14.9174 32.199 14.8658C32.1283 14.8141 32.0482 14.7769 31.9631 14.7562C31.878 14.7355 31.7897 14.7318 31.7032 14.7452C31.6167 14.7586 31.5337 14.789 31.4589 14.8345C31.3841 14.88 31.3191 14.9398 31.2674 15.0105C31.2157 15.0812 31.1785 15.1613 31.1578 15.2464C31.1371 15.3315 31.1334 15.4198 31.1468 15.5063C31.1603 15.5928 31.1906 15.6758 31.2361 15.7506L31.2512 15.7657Z" fill="url(#paint17_linear_70_2652)"/>
<path d="M33.976 23.7609C34.0449 23.7057 34.1019 23.6371 34.1435 23.5592C34.185 23.4813 34.2103 23.3958 34.2177 23.3078L34.2872 22.0995V21.9484V21.6055C34.2829 21.4318 34.2108 21.2666 34.0863 21.1452C33.9619 21.0239 33.7949 20.956 33.6211 20.9561H33.606C33.5186 20.9582 33.4325 20.9776 33.3526 21.0131C33.2726 21.0486 33.2005 21.0995 33.1403 21.1629C33.0801 21.2264 33.033 21.301 33.0018 21.3827C32.9705 21.4643 32.9556 21.5514 32.958 21.6388V21.9484L32.8961 23.1794C32.8865 23.267 32.8942 23.3557 32.9189 23.4403C32.9437 23.5249 32.9849 23.6037 33.0402 23.6724C33.0955 23.741 33.1638 23.798 33.2412 23.8402C33.3186 23.8823 33.4036 23.9088 33.4912 23.918C33.5784 23.9259 33.6664 23.916 33.7497 23.889C33.833 23.862 33.91 23.8184 33.976 23.7609Z" fill="url(#paint18_linear_70_2652)"/>
<path d="M32.4445 27.3222C32.3514 27.2726 32.2478 27.2462 32.1424 27.2451C32.0753 27.2454 32.0086 27.2556 31.9445 27.2753C31.8607 27.3011 31.7829 27.3431 31.7155 27.3991C31.6481 27.4551 31.5924 27.5239 31.5518 27.6016L30.8676 28.7299L30.7437 28.9081C30.691 28.9799 30.6533 29.0616 30.6328 29.1482C30.6123 29.2349 30.6095 29.3248 30.6244 29.4126C30.6384 29.499 30.6696 29.5817 30.716 29.6559C30.7624 29.73 30.8232 29.7942 30.8948 29.8446C30.9656 29.8958 31.0459 29.9325 31.131 29.9526C31.216 29.9727 31.3043 29.9758 31.3906 29.9618C31.4768 29.9478 31.5595 29.9168 31.6338 29.8708C31.7082 29.8248 31.7727 29.7645 31.8237 29.6935L32.5245 28.6015L32.7314 28.2284C32.7732 28.1507 32.7991 28.0654 32.8077 27.9776C32.8162 27.8898 32.8072 27.8012 32.7812 27.7169C32.7552 27.6325 32.7127 27.5542 32.6562 27.4865C32.5997 27.4187 32.5303 27.3629 32.452 27.3222H32.4445Z" fill="url(#paint19_linear_70_2652)"/>
<path d="M28.099 33.2201C28.2089 33.1486 28.2953 33.0463 28.3473 32.926C28.3993 32.8057 28.4146 32.6727 28.3914 32.5437C28.3682 32.4147 28.3074 32.2954 28.2167 32.2008C28.126 32.1062 28.0094 32.0404 27.8815 32.0117C27.832 32.0006 27.7813 31.995 27.7305 31.9951C27.6035 31.9954 27.4793 32.0321 27.3725 32.1008L26.2654 32.7277L26.0146 32.8485C25.9353 32.8861 25.8641 32.9389 25.8052 33.004C25.7463 33.0691 25.7008 33.1452 25.6712 33.2279C25.6417 33.3105 25.6288 33.3982 25.6332 33.4859C25.6375 33.5736 25.6591 33.6596 25.6967 33.7389C25.7343 33.8183 25.7871 33.8894 25.8522 33.9483C25.9173 34.0072 25.9933 34.0528 26.076 34.0823C26.1587 34.1118 26.2464 34.1248 26.3341 34.1204C26.4218 34.116 26.5077 34.0944 26.5871 34.0569L27.7093 33.4633L28.099 33.2201Z" fill="url(#paint20_linear_70_2652)"/>
<path d="M22.2412 34.592C22.2315 34.4157 22.1526 34.2504 22.0216 34.1319C21.8907 34.0134 21.7183 33.9513 21.5419 33.9592L20.9226 33.9758L19.9952 33.9395C19.908 33.9327 19.8202 33.9431 19.7369 33.9702C19.6537 33.9973 19.5766 34.0405 19.51 34.0973C19.3756 34.2122 19.2924 34.3758 19.2785 34.552C19.2647 34.7283 19.3215 34.9028 19.4363 35.0372C19.5512 35.1716 19.7147 35.2549 19.891 35.2687L20.4952 35.3019H20.9257L21.6129 35.2853C21.7877 35.2756 21.9517 35.1973 22.0693 35.0676C22.1869 34.9378 22.2487 34.767 22.2412 34.592Z" fill="url(#paint21_linear_70_2652)"/>
<path d="M15.4553 33.9364C15.5801 33.8941 15.6897 33.8159 15.7701 33.7115C15.8505 33.6071 15.8983 33.4813 15.9073 33.3498C15.9164 33.2184 15.8863 33.0871 15.8209 32.9727C15.7556 32.8583 15.6578 32.7658 15.5399 32.7069L14.4388 32.0801L14.2017 31.929C14.0545 31.8311 13.8743 31.7956 13.701 31.8305C13.5276 31.8653 13.3752 31.9676 13.2773 32.1148C13.1793 32.262 13.1439 32.4421 13.1787 32.6155C13.2136 32.7888 13.3159 32.9412 13.4631 33.0392L14.1307 33.4606L14.9463 33.9062C15.1053 33.983 15.2883 33.9939 15.4553 33.9364Z" fill="url(#paint22_linear_70_2652)"/>
<path d="M8.9857 27.9571L9.6231 29.0809L9.83457 29.4056C9.93389 29.5518 10.087 29.6527 10.2605 29.6864C10.4339 29.72 10.6137 29.6837 10.7605 29.5854C10.9066 29.486 11.0075 29.3329 11.0412 29.1595C11.0749 28.986 11.0386 28.8063 10.9402 28.6595L10.2424 27.4859L10.1578 27.3197C10.1181 27.2417 10.0635 27.1722 9.99695 27.1153C9.93043 27.0583 9.85335 27.0151 9.77011 26.9879C9.68686 26.9608 9.5991 26.9503 9.51181 26.9571C9.42452 26.9639 9.3394 26.9878 9.26135 27.0274C9.1833 27.0671 9.11384 27.1218 9.05691 27.1883C8.99998 27.2548 8.9567 27.3319 8.92956 27.4151C8.90242 27.4984 8.89195 27.5861 8.89873 27.6734C8.90551 27.7607 8.92942 27.8458 8.96909 27.9239L8.9857 27.9571Z" fill="url(#paint23_linear_70_2652)"/>
<path d="M8.27434 20.6221H8.2396C8.06866 20.6222 7.90428 20.6879 7.78035 20.8057C7.65643 20.9234 7.58239 21.0842 7.5735 21.2549L7.55688 21.9437L7.59616 22.9708C7.6106 23.1467 7.69425 23.3097 7.82875 23.4239C7.89569 23.4802 7.97318 23.5225 8.0567 23.5485C8.14021 23.5744 8.22808 23.5834 8.31512 23.575C8.49022 23.5588 8.65187 23.4743 8.76499 23.3397C8.87811 23.2051 8.93356 23.0313 8.9193 22.856L8.89966 21.3108C8.9055 21.1372 8.84347 20.9682 8.72671 20.8396C8.60996 20.711 8.44769 20.633 8.27434 20.6221Z" fill="url(#paint24_linear_70_2652)"/>
<path d="M18.9548 9.38168C18.9641 9.46879 18.9904 9.55323 19.0323 9.63016C19.0742 9.70709 19.1309 9.775 19.1991 9.83C19.2672 9.885 19.3456 9.92601 19.4297 9.95068C19.5137 9.97535 19.6018 9.98319 19.6889 9.97376L20.9229 9.91033L22.1539 9.97376L22.456 10.007C22.5427 10.019 22.6309 10.0138 22.7156 9.99172C22.8003 9.96964 22.8797 9.93109 22.9495 9.87828C23.0193 9.82547 23.078 9.75945 23.1222 9.68396C23.1665 9.60847 23.1955 9.525 23.2075 9.43832C23.2195 9.35164 23.2143 9.26344 23.1922 9.17877C23.1701 9.09409 23.1316 9.0146 23.0788 8.94482C23.0259 8.87504 22.9599 8.81635 22.8844 8.77209C22.8089 8.72783 22.7255 8.69888 22.6388 8.68688L21.4395 8.58719L20.9229 8.57812L19.7267 8.631L19.5575 8.6461C19.4693 8.65402 19.3835 8.67942 19.3051 8.72083C19.2268 8.76225 19.1575 8.81884 19.1013 8.8873C19.0451 8.95577 19.003 9.03473 18.9776 9.11961C18.9522 9.20449 18.944 9.29358 18.9533 9.38168H18.9548Z" fill="url(#paint25_linear_70_2652)"/>
<path d="M25.6851 17.1793C24.5834 16.0784 23.1341 15.3935 21.584 15.2412C20.034 15.089 18.4791 15.4788 17.1842 16.3442C15.8893 17.2097 14.9344 18.4972 14.4823 19.9876C14.0301 21.478 14.1086 23.0791 14.7044 24.5182C15.3001 25.9572 16.3763 27.1452 17.7497 27.8799C19.123 28.6145 20.7086 28.8504 22.2363 28.5472C23.764 28.2441 25.1394 27.4208 26.1282 26.2174C27.117 25.0141 27.6581 23.5052 27.6593 21.9477C27.6623 21.0618 27.4893 20.184 27.1504 19.3655C26.8116 18.5469 26.3135 17.8038 25.6851 17.1793ZM24.7426 25.763C23.8585 26.6469 22.6952 27.1969 21.451 27.3191C20.2068 27.4413 18.9588 27.1283 17.9195 26.4334C16.8803 25.7385 16.1142 24.7047 15.7519 23.5082C15.3895 22.3116 15.4533 21.0265 15.9324 19.8718C16.4115 18.717 17.2762 17.7642 18.3791 17.1756C19.4821 16.587 20.7551 16.3991 21.981 16.644C23.207 16.8889 24.3101 17.5513 25.1023 18.5185C25.8945 19.4856 26.3268 20.6975 26.3256 21.9477C26.3271 22.6567 26.1879 23.359 25.9162 24.0139C25.6445 24.6688 25.2456 25.2633 24.7426 25.763Z" fill="url(#paint26_linear_70_2652)"/>
<path d="M9.10688 15.8094C9.69766 16.4006 10.4751 16.7687 11.3069 16.8509C12.1386 16.9332 12.9731 16.7246 13.6683 16.2606C14.3634 15.7966 14.8762 15.1059 15.1193 14.3063C15.3624 13.5066 15.3207 12.6474 15.0013 11.8751C14.682 11.1027 14.1047 10.4649 13.3679 10.0704C12.6311 9.6759 11.7803 9.54904 10.9604 9.71146C10.1406 9.87387 9.40238 10.3155 8.87162 10.9611C8.34085 11.6068 8.05035 12.4164 8.04958 13.2522C8.04798 13.7272 8.14061 14.1978 8.32209 14.6367C8.50358 15.0756 8.77032 15.4742 9.10688 15.8094ZM10.0494 11.6376C10.4229 11.2644 10.9142 11.0322 11.4396 10.9807C11.9651 10.9291 12.4921 11.0613 12.931 11.3548C13.3699 11.6482 13.6935 12.0848 13.8467 12.59C13.9998 13.0953 13.973 13.638 13.7709 14.1258C13.5688 14.6135 13.2038 15.0161 12.7382 15.2649C12.2725 15.5137 11.735 15.5934 11.2172 15.4904C10.6994 15.3874 10.2333 15.108 9.89835 14.6999C9.5634 14.2918 9.3803 13.7802 9.38026 13.2522C9.37853 12.9526 9.43626 12.6556 9.55007 12.3785C9.66389 12.1013 9.83155 11.8495 10.0433 11.6376H10.0494Z" fill="url(#paint27_linear_70_2652)"/>
<path d="M36.3866 3.16899C35.2034 3.17076 34.0573 3.58264 33.1437 4.33448C32.23 5.08632 31.6052 6.13163 31.3756 7.29241C31.1461 8.45318 31.326 9.65762 31.8848 10.7006C32.4435 11.7436 33.3466 12.5607 34.4401 13.0127C35.5336 13.4647 36.75 13.5236 37.8821 13.1795C39.0142 12.8354 39.992 12.1095 40.649 11.1254C41.306 10.1413 41.6016 8.95991 41.4854 7.78238C41.3692 6.60485 40.8484 5.50402 40.0117 4.66735C39.5369 4.18985 38.9719 3.81149 38.3496 3.55426C37.7273 3.29704 37.06 3.16608 36.3866 3.16899ZM39.0631 10.9628C38.4439 11.5832 37.6286 11.9696 36.7564 12.0562C35.8841 12.1428 35.0088 11.9242 34.2797 11.4377C33.5505 10.9513 33.0126 10.227 32.7577 9.38831C32.5028 8.54966 32.5466 7.64855 32.8816 6.83857C33.2167 6.02858 33.8223 5.35987 34.5951 4.94638C35.368 4.53289 36.2604 4.40023 37.1201 4.571C37.9799 4.74178 38.7538 5.20541 39.31 5.8829C39.8662 6.56039 40.1702 7.40979 40.1703 8.28634C40.1715 8.78346 40.0744 9.27591 39.8843 9.73529C39.6943 10.1947 39.4152 10.6119 39.0631 10.9628Z" fill="url(#paint28_linear_70_2652)"/>
<path d="M4.69764 37.7627C5.58106 37.7631 6.4373 37.4572 7.12043 36.897C7.80357 36.3369 8.27134 35.5572 8.44405 34.6908C8.61676 33.8245 8.4837 32.925 8.06757 32.1457C7.65144 31.3664 6.97797 30.7556 6.16192 30.4172C5.34587 30.0788 4.43774 30.0339 3.59227 30.29C2.74679 30.5461 2.01629 31.0875 1.52523 31.8219C1.03417 32.5562 0.812952 33.4382 0.89925 34.3173C0.985547 35.1965 1.37402 36.0186 1.9985 36.6435C2.35179 36.9996 2.77235 37.2819 3.23572 37.4741C3.69908 37.6662 4.19602 37.7643 4.69764 37.7627ZM2.94403 32.1892C3.35043 31.7821 3.88545 31.5284 4.45791 31.4716C5.03037 31.4147 5.60483 31.5581 6.08339 31.8773C6.56196 32.1966 6.91499 32.6719 7.08234 33.2223C7.24969 33.7727 7.22098 34.3641 7.00112 34.8957C6.78126 35.4273 6.38384 35.8662 5.87661 36.1376C5.36938 36.409 4.78371 36.4962 4.21945 36.3841C3.65519 36.2721 3.14725 35.9678 2.7822 35.5232C2.41715 35.0786 2.21758 34.5211 2.2175 33.9459C2.21647 33.6196 2.28016 33.2963 2.40487 32.9948C2.52957 32.6933 2.71282 32.4195 2.94403 32.1892Z" fill="url(#paint29_linear_70_2652)"/>
<defs>
<linearGradient id="paint0_linear_70_2652" x1="26.6775" y1="3.77288" x2="29.6474" y2="3.58813" gradientUnits="userSpaceOnUse">
<stop stop-color="#2B0AFF"/>
<stop offset="0.49" stop-color="#FF5B8A"/>
<stop offset="0.55" stop-color="#FF5B8A"/>
<stop offset="0.77" stop-color="#FBA64B"/>
<stop offset="1" stop-color="#F99B52"/>
</linearGradient>
<linearGradient id="paint1_linear_70_2652" x1="10.4351" y1="4.67863" x2="13.2859" y2="4.5197" gradientUnits="userSpaceOnUse">
<stop stop-color="#2B0AFF"/>
<stop offset="0.49" stop-color="#FF5B8A"/>
<stop offset="0.55" stop-color="#FF5B8A"/>
<stop offset="0.77" stop-color="#FBA64B"/>
<stop offset="1" stop-color="#F99B52"/>
</linearGradient>
<linearGradient id="paint2_linear_70_2652" x1="-0.00281536" y1="20.3542" x2="1.62859" y2="20.3183" gradientUnits="userSpaceOnUse">
<stop stop-color="#2B0AFF"/>
<stop offset="0.49" stop-color="#FF5B8A"/>
<stop offset="0.55" stop-color="#FF5B8A"/>
<stop offset="0.77" stop-color="#FBA64B"/>
<stop offset="1" stop-color="#F99B52"/>
</linearGradient>
<linearGradient id="paint3_linear_70_2652" x1="16.5706" y1="2.50068" x2="19.6269" y2="2.26012" gradientUnits="userSpaceOnUse">
<stop stop-color="#2B0AFF"/>
<stop offset="0.49" stop-color="#FF5B8A"/>
<stop offset="0.55" stop-color="#FF5B8A"/>
<stop offset="0.77" stop-color="#FBA64B"/>
<stop offset="1" stop-color="#F99B52"/>
</linearGradient>
<linearGradient id="paint4_linear_70_2652" x1="5.30302" y1="8.66526" x2="7.89267" y2="8.55759" gradientUnits="userSpaceOnUse">
<stop stop-color="#2B0AFF"/>
<stop offset="0.49" stop-color="#FF5B8A"/>
<stop offset="0.55" stop-color="#FF5B8A"/>
<stop offset="0.77" stop-color="#FBA64B"/>
<stop offset="1" stop-color="#F99B52"/>
</linearGradient>
<linearGradient id="paint5_linear_70_2652" x1="20.2894" y1="2.25388" x2="23.3165" y2="1.98994" gradientUnits="userSpaceOnUse">
<stop stop-color="#2B0AFF"/>
<stop offset="0.49" stop-color="#FF5B8A"/>
<stop offset="0.55" stop-color="#FF5B8A"/>
<stop offset="0.77" stop-color="#FBA64B"/>
<stop offset="1" stop-color="#F99B52"/>
</linearGradient>
<linearGradient id="paint6_linear_70_2652" x1="23.7203" y1="42.6089" x2="26.7574" y2="42.3886" gradientUnits="userSpaceOnUse">
<stop stop-color="#2B0AFF"/>
<stop offset="0.49" stop-color="#FF5B8A"/>
<stop offset="0.55" stop-color="#FF5B8A"/>
<stop offset="0.77" stop-color="#FBA64B"/>
<stop offset="1" stop-color="#F99B52"/>
</linearGradient>
<linearGradient id="paint7_linear_70_2652" x1="17.1991" y1="42.8542" x2="20.2819" y2="42.6019" gradientUnits="userSpaceOnUse">
<stop stop-color="#2B0AFF"/>
<stop offset="0.49" stop-color="#FF5B8A"/>
<stop offset="0.55" stop-color="#FF5B8A"/>
<stop offset="0.77" stop-color="#FBA64B"/>
<stop offset="1" stop-color="#F99B52"/>
</linearGradient>
<linearGradient id="paint8_linear_70_2652" x1="10.9976" y1="41.3695" x2="13.9618" y2="41.1965" gradientUnits="userSpaceOnUse">
<stop stop-color="#2B0AFF"/>
<stop offset="0.49" stop-color="#FF5B8A"/>
<stop offset="0.55" stop-color="#FF5B8A"/>
<stop offset="0.77" stop-color="#FBA64B"/>
<stop offset="1" stop-color="#F99B52"/>
</linearGradient>
<linearGradient id="paint9_linear_70_2652" x1="35.0165" y1="36.5217" x2="37.5534" y2="36.4229" gradientUnits="userSpaceOnUse">
<stop stop-color="#2B0AFF"/>
<stop offset="0.49" stop-color="#FF5B8A"/>
<stop offset="0.55" stop-color="#FF5B8A"/>
<stop offset="0.77" stop-color="#FBA64B"/>
<stop offset="1" stop-color="#F99B52"/>
</linearGradient>
<linearGradient id="paint10_linear_70_2652" x1="39.7908" y1="18.3155" x2="41.5918" y2="18.2711" gradientUnits="userSpaceOnUse">
<stop stop-color="#2B0AFF"/>
<stop offset="0.49" stop-color="#FF5B8A"/>
<stop offset="0.55" stop-color="#FF5B8A"/>
<stop offset="0.77" stop-color="#FBA64B"/>
<stop offset="1" stop-color="#F99B52"/>
</linearGradient>
<linearGradient id="paint11_linear_70_2652" x1="29.8774" y1="40.4676" x2="32.724" y2="40.318" gradientUnits="userSpaceOnUse">
<stop stop-color="#2B0AFF"/>
<stop offset="0.49" stop-color="#FF5B8A"/>
<stop offset="0.55" stop-color="#FF5B8A"/>
<stop offset="0.77" stop-color="#FBA64B"/>
<stop offset="1" stop-color="#F99B52"/>
</linearGradient>
<linearGradient id="paint12_linear_70_2652" x1="38.7156" y1="31.0942" x2="40.7638" y2="31.0353" gradientUnits="userSpaceOnUse">
<stop stop-color="#2B0AFF"/>
<stop offset="0.49" stop-color="#FF5B8A"/>
<stop offset="0.55" stop-color="#FF5B8A"/>
<stop offset="0.77" stop-color="#FBA64B"/>
<stop offset="1" stop-color="#F99B52"/>
</linearGradient>
<linearGradient id="paint13_linear_70_2652" x1="1.73461" y1="14.0166" x2="3.86152" y2="13.9505" gradientUnits="userSpaceOnUse">
<stop stop-color="#2B0AFF"/>
<stop offset="0.49" stop-color="#FF5B8A"/>
<stop offset="0.55" stop-color="#FF5B8A"/>
<stop offset="0.77" stop-color="#FBA64B"/>
<stop offset="1" stop-color="#F99B52"/>
</linearGradient>
<linearGradient id="paint14_linear_70_2652" x1="0.072287" y1="26.8541" x2="1.7575" y2="26.8155" gradientUnits="userSpaceOnUse">
<stop stop-color="#2B0AFF"/>
<stop offset="0.49" stop-color="#FF5B8A"/>
<stop offset="0.55" stop-color="#FF5B8A"/>
<stop offset="0.77" stop-color="#FBA64B"/>
<stop offset="1" stop-color="#F99B52"/>
</linearGradient>
<linearGradient id="paint15_linear_70_2652" x1="40.491" y1="24.7927" x2="42.0034" y2="24.7619" gradientUnits="userSpaceOnUse">
<stop stop-color="#2B0AFF"/>
<stop offset="0.49" stop-color="#FF5B8A"/>
<stop offset="0.55" stop-color="#FF5B8A"/>
<stop offset="0.77" stop-color="#FBA64B"/>
<stop offset="1" stop-color="#F99B52"/>
</linearGradient>
<linearGradient id="paint16_linear_70_2652" x1="26.5069" y1="12.3594" x2="29.3098" y2="12.2188" gradientUnits="userSpaceOnUse">
<stop stop-color="#2B0AFF"/>
<stop offset="0.49" stop-color="#FF5B8A"/>
<stop offset="0.55" stop-color="#FF5B8A"/>
<stop offset="0.77" stop-color="#FBA64B"/>
<stop offset="1" stop-color="#F99B52"/>
</linearGradient>
<linearGradient id="paint17_linear_70_2652" x1="31.1352" y1="17.4028" x2="33.3033" y2="17.3355" gradientUnits="userSpaceOnUse">
<stop stop-color="#2B0AFF"/>
<stop offset="0.49" stop-color="#FF5B8A"/>
<stop offset="0.55" stop-color="#FF5B8A"/>
<stop offset="0.77" stop-color="#FBA64B"/>
<stop offset="1" stop-color="#F99B52"/>
</linearGradient>
<linearGradient id="paint18_linear_70_2652" x1="32.8896" y1="23.7923" x2="34.3421" y2="23.764" gradientUnits="userSpaceOnUse">
<stop stop-color="#2B0AFF"/>
<stop offset="0.49" stop-color="#FF5B8A"/>
<stop offset="0.55" stop-color="#FF5B8A"/>
<stop offset="0.77" stop-color="#FBA64B"/>
<stop offset="1" stop-color="#F99B52"/>
</linearGradient>
<linearGradient id="paint19_linear_70_2652" x1="30.611" y1="29.8525" x2="32.8954" y2="29.7761" gradientUnits="userSpaceOnUse">
<stop stop-color="#2B0AFF"/>
<stop offset="0.49" stop-color="#FF5B8A"/>
<stop offset="0.55" stop-color="#FF5B8A"/>
<stop offset="0.77" stop-color="#FBA64B"/>
<stop offset="1" stop-color="#F99B52"/>
</linearGradient>
<linearGradient id="paint20_linear_70_2652" x1="25.6273" y1="34.0292" x2="28.5035" y2="33.8737" gradientUnits="userSpaceOnUse">
<stop stop-color="#2B0AFF"/>
<stop offset="0.49" stop-color="#FF5B8A"/>
<stop offset="0.55" stop-color="#FF5B8A"/>
<stop offset="0.77" stop-color="#FBA64B"/>
<stop offset="1" stop-color="#F99B52"/>
</linearGradient>
<linearGradient id="paint21_linear_70_2652" x1="19.2712" y1="35.2429" x2="22.3347" y2="34.9665" gradientUnits="userSpaceOnUse">
<stop stop-color="#2B0AFF"/>
<stop offset="0.49" stop-color="#FF5B8A"/>
<stop offset="0.55" stop-color="#FF5B8A"/>
<stop offset="0.77" stop-color="#FBA64B"/>
<stop offset="1" stop-color="#F99B52"/>
</linearGradient>
<linearGradient id="paint22_linear_70_2652" x1="13.1607" y1="33.8796" x2="16.0099" y2="33.729" gradientUnits="userSpaceOnUse">
<stop stop-color="#2B0AFF"/>
<stop offset="0.49" stop-color="#FF5B8A"/>
<stop offset="0.55" stop-color="#FF5B8A"/>
<stop offset="0.77" stop-color="#FBA64B"/>
<stop offset="1" stop-color="#F99B52"/>
</linearGradient>
<linearGradient id="paint23_linear_70_2652" x1="8.89285" y1="29.5799" x2="11.1367" y2="29.5067" gradientUnits="userSpaceOnUse">
<stop stop-color="#2B0AFF"/>
<stop offset="0.49" stop-color="#FF5B8A"/>
<stop offset="0.55" stop-color="#FF5B8A"/>
<stop offset="0.77" stop-color="#FBA64B"/>
<stop offset="1" stop-color="#F99B52"/>
</linearGradient>
<linearGradient id="paint24_linear_70_2652" x1="7.55443" y1="23.4501" x2="8.97517" y2="23.4229" gradientUnits="userSpaceOnUse">
<stop stop-color="#2B0AFF"/>
<stop offset="0.49" stop-color="#FF5B8A"/>
<stop offset="0.55" stop-color="#FF5B8A"/>
<stop offset="0.77" stop-color="#FBA64B"/>
<stop offset="1" stop-color="#F99B52"/>
</linearGradient>
<linearGradient id="paint25_linear_70_2652" x1="18.9419" y1="9.95118" x2="23.3166" y2="9.41161" gradientUnits="userSpaceOnUse">
<stop stop-color="#2B0AFF"/>
<stop offset="0.49" stop-color="#FF5B8A"/>
<stop offset="0.55" stop-color="#FF5B8A"/>
<stop offset="0.77" stop-color="#FBA64B"/>
<stop offset="1" stop-color="#F99B52"/>
</linearGradient>
<linearGradient id="paint26_linear_70_2652" x1="14.1681" y1="28.0932" x2="28.17" y2="27.512" gradientUnits="userSpaceOnUse">
<stop stop-color="#2B0AFF"/>
<stop offset="0.49" stop-color="#FF5B8A"/>
<stop offset="0.55" stop-color="#FF5B8A"/>
<stop offset="0.77" stop-color="#FBA64B"/>
<stop offset="1" stop-color="#F99B52"/>
</linearGradient>
<linearGradient id="paint27_linear_70_2652" x1="8.03658" y1="16.5558" x2="15.5495" y2="16.2439" gradientUnits="userSpaceOnUse">
<stop stop-color="#2B0AFF"/>
<stop offset="0.49" stop-color="#FF5B8A"/>
<stop offset="0.55" stop-color="#FF5B8A"/>
<stop offset="0.77" stop-color="#FBA64B"/>
<stop offset="1" stop-color="#F99B52"/>
</linearGradient>
<linearGradient id="paint28_linear_70_2652" x1="31.2601" y1="12.9579" x2="41.8981" y2="12.5163" gradientUnits="userSpaceOnUse">
<stop stop-color="#2B0AFF"/>
<stop offset="0.49" stop-color="#FF5B8A"/>
<stop offset="0.55" stop-color="#FF5B8A"/>
<stop offset="0.77" stop-color="#FBA64B"/>
<stop offset="1" stop-color="#F99B52"/>
</linearGradient>
<linearGradient id="paint29_linear_70_2652" x1="0.867262" y1="37.4322" x2="8.80735" y2="37.1026" gradientUnits="userSpaceOnUse">
<stop stop-color="#2B0AFF"/>
<stop offset="0.49" stop-color="#FF5B8A"/>
<stop offset="0.55" stop-color="#FF5B8A"/>
<stop offset="0.77" stop-color="#FBA64B"/>
<stop offset="1" stop-color="#F99B52"/>
</linearGradient>
</defs>
</svg>
