<svg width="58" height="57" viewBox="0 0 58 57" fill="none" xmlns="http://www.w3.org/2000/svg">
<rect x="1.0332" y="0.623901" width="55.6814" height="55.7578" rx="6.21696" stroke="url(#paint0_linear_70_1007)"/>
<path d="M47.3916 26.5792C47.1599 26.4443 46.9038 26.3566 46.638 26.3213C46.3723 26.286 46.1021 26.3037 45.8433 26.3735L44.9285 26.6186L44.8789 26.5504C44.2732 25.6969 43.4612 25.0107 42.5187 24.5556C41.5763 24.1005 40.5339 23.8913 39.4888 23.9477L39.3952 23.954L39.3711 23.8639C38.4625 21.107 36.5335 18.8023 33.9796 17.4226C31.4257 16.0428 28.4407 15.6927 25.6368 16.444C22.833 17.1953 20.4229 18.991 18.9011 21.4628C17.3792 23.9346 16.8609 26.8951 17.4526 29.7369L17.4767 29.827L17.3925 29.8684C16.4592 30.3421 15.6611 31.0444 15.0725 31.9098C14.4838 32.7751 14.1238 33.7754 14.0259 34.8175L14.0182 34.901L13.1023 35.1464C12.6004 35.2803 12.1691 35.6019 11.8975 36.0447L11.8658 36.0996C11.5983 36.5578 11.5211 37.1025 11.6508 37.617C11.7804 38.1314 12.1066 38.5746 12.5592 38.8513L12.6109 38.8851C12.8424 39.0212 13.0985 39.11 13.3646 39.1464C13.6307 39.1827 13.9013 39.1658 14.1608 39.0966L15.0767 38.8512L15.1251 38.9197C15.8015 39.8738 16.7343 40.6167 17.8155 41.0623C19.0611 41.5836 20.4447 41.6756 21.7483 41.3237L22.284 41.1802L22.199 41.401C21.9509 42.0511 21.9143 42.7629 22.0946 43.435L22.1341 43.5824C22.1756 43.7375 22.2771 43.8697 22.4162 43.95C22.5552 44.0303 22.7205 44.0521 22.8756 44.0105L41.8324 38.9311C41.9861 38.8882 42.1167 38.7865 42.1958 38.6479C42.2748 38.5093 42.296 38.3451 42.2547 38.191L42.2152 38.0437C42.0353 37.3715 41.6477 36.7733 41.1078 36.3344L40.9249 36.1853L41.4595 36.0421C42.7646 35.6948 43.9172 34.9233 44.7359 33.8491C45.4485 32.922 45.8848 31.8125 45.9945 30.6483L46.0022 30.5648L46.9169 30.3197C47.4191 30.1855 47.8508 29.8639 48.1229 29.421L48.1535 29.3665C48.2894 29.1351 48.3781 28.8792 48.4145 28.6133C48.4508 28.3475 48.4341 28.0771 48.3653 27.8178C48.2303 27.3159 47.9079 26.8849 47.4647 26.6136C47.4411 26.6005 47.4167 26.589 47.3916 26.5792ZM18.58 29.2844C18.1079 26.7667 18.6037 24.1635 19.9683 21.9956C21.3329 19.8277 23.4657 18.255 25.9401 17.592C28.4144 16.929 31.0478 17.2246 33.3136 18.4198C35.5793 19.6149 37.3103 21.6214 38.1602 24.0379L38.2031 24.1605L18.6042 29.4121L18.58 29.2844ZM15.2899 34.3785C15.4449 33.6413 15.763 32.9483 16.2208 32.35C16.8777 31.4892 17.801 30.8698 18.8466 30.5883L38.5813 25.3004C39.6272 25.0214 40.7361 25.0964 41.7351 25.5135C42.4308 25.8023 43.0529 26.2435 43.5554 26.8047L43.6863 26.9515L15.25 34.571L15.2899 34.3785ZM23.1667 42.6825L23.1708 42.5197C23.181 42.1636 23.28 41.8156 23.4586 41.5073C23.5976 41.2645 23.7834 41.0515 24.0051 40.8809C24.2269 40.7102 24.4802 40.5852 24.7506 40.513L38.4295 36.8477C38.8742 36.7306 39.3448 36.7595 39.7718 36.9302C40.1988 37.1009 40.5596 37.4043 40.801 37.7957L40.8859 37.9347L23.1667 42.6825ZM44.7032 31.0883C44.549 31.8257 44.2309 32.519 43.7724 33.1168C43.1127 33.982 42.184 34.6031 41.1324 34.8823L21.427 40.1623C20.3768 40.4462 19.2619 40.3726 18.2581 39.9533C17.5623 39.6645 16.9402 39.2233 16.4377 38.6621L16.3068 38.5153L44.7432 30.8958L44.7032 31.0883ZM47.1852 28.1252C47.2147 28.2314 47.2229 28.3424 47.2091 28.4518C47.1954 28.5611 47.16 28.6667 47.1052 28.7622L47.0455 28.8672L47.0366 28.8621C46.925 29.0062 46.769 29.1097 46.5927 29.1565L13.8401 37.9326C13.7339 37.9619 13.6229 37.9699 13.5136 37.9562C13.4043 37.9425 13.2987 37.9072 13.2031 37.8525L13.1752 37.8374L13.1633 37.8306C12.9895 37.7168 12.8636 37.5431 12.8094 37.3425C12.7799 37.2363 12.7717 37.1253 12.7855 37.0159C12.7992 36.9066 12.8346 36.801 12.8894 36.7054L12.9491 36.6004L12.9591 36.6053C13.0704 36.4612 13.226 36.3579 13.4019 36.3111L46.1545 27.5351C46.2607 27.5057 46.3717 27.4977 46.481 27.5115C46.5903 27.5252 46.6959 27.5604 46.7915 27.6151L46.8206 27.6299C46.9998 27.7435 47.13 27.9203 47.1852 28.1252Z" fill="url(#paint1_linear_70_1007)"/>
<path d="M24.1301 20.1455C24.0419 20.1282 23.951 20.1312 23.8641 20.1541C23.7993 20.1719 23.7379 20.2003 23.6822 20.238C22.5639 20.9966 21.6372 22.0049 20.9753 23.1831C20.3134 24.3613 19.9345 25.6772 19.8684 27.027C19.8605 27.1075 19.8692 27.1887 19.8937 27.2658C19.9182 27.3429 19.9581 27.4142 20.011 27.4753C20.0639 27.5365 20.1287 27.5863 20.2014 27.6217C20.2742 27.6571 20.3533 27.6773 20.4341 27.6811C20.5149 27.685 20.5956 27.6724 20.6714 27.6441C20.7471 27.6158 20.8164 27.5725 20.8749 27.5166C20.9334 27.4608 20.9799 27.3936 21.0117 27.3192C21.0434 27.2449 21.0597 27.1648 21.0596 27.0839C21.1179 25.919 21.4458 24.7835 22.0175 23.7669C22.5892 22.7502 23.3891 21.8801 24.3542 21.2251C24.4843 21.1355 24.5735 20.998 24.6024 20.8427C24.6313 20.6873 24.5974 20.5269 24.5083 20.3965C24.465 20.3317 24.4093 20.2762 24.3444 20.2331C24.2794 20.19 24.2066 20.1603 24.1301 20.1455Z" fill="url(#paint2_linear_70_1007)"/>
<path d="M26.8605 19.1445L26.8382 19.1266L26.8986 19.0202L26.8257 19.1174L26.661 19.0362L26.5545 19.0133C26.4775 19.0032 26.3992 19.0084 26.3242 19.0286C26.2423 19.0506 26.1265 19.0816 25.9758 19.132C25.8251 19.1824 25.7149 19.2157 25.6302 19.2459C25.4859 19.3035 25.3695 19.4149 25.3057 19.5565C25.2419 19.6982 25.2356 19.8591 25.2881 20.0054C25.3406 20.1516 25.4479 20.2717 25.5872 20.3404C25.7266 20.4091 25.8872 20.421 26.0352 20.3736L26.3278 20.2726L26.6343 20.1905C26.7304 20.1651 26.8187 20.116 26.891 20.0478C26.9634 19.9796 27.0176 19.8944 27.0487 19.7999L27.067 19.7373C27.0846 19.6532 27.084 19.5664 27.0654 19.4825C27.0469 19.3987 27.0107 19.3197 26.9592 19.2509L27.054 19.1741L26.9574 19.2489L26.8605 19.1445Z" fill="url(#paint3_linear_70_1007)"/>
<defs>
<linearGradient id="paint0_linear_70_1007" x1="0.431375" y1="54.4255" x2="59.3645" y2="51.9823" gradientUnits="userSpaceOnUse">
<stop stop-color="#2B0AFF"/>
<stop offset="0.49" stop-color="#FF5B8A"/>
<stop offset="0.55" stop-color="#FF5B8A"/>
<stop offset="0.77" stop-color="#FBA64B"/>
<stop offset="1" stop-color="#F99B52"/>
</linearGradient>
<linearGradient id="paint1_linear_70_1007" x1="13.6447" y1="45.323" x2="51.1111" y2="32.7987" gradientUnits="userSpaceOnUse">
<stop stop-color="#2B0AFF"/>
<stop offset="0.49" stop-color="#FF5B8A"/>
<stop offset="0.55" stop-color="#FF5B8A"/>
<stop offset="0.77" stop-color="#FBA64B"/>
<stop offset="1" stop-color="#F99B52"/>
</linearGradient>
<linearGradient id="paint2_linear_70_1007" x1="19.9577" y1="27.5509" x2="26.1863" y2="25.608" gradientUnits="userSpaceOnUse">
<stop stop-color="#2B0AFF"/>
<stop offset="0.49" stop-color="#FF5B8A"/>
<stop offset="0.55" stop-color="#FF5B8A"/>
<stop offset="0.77" stop-color="#FBA64B"/>
<stop offset="1" stop-color="#F99B52"/>
</linearGradient>
<linearGradient id="paint3_linear_70_1007" x1="25.4113" y1="20.4866" x2="27.304" y2="19.8449" gradientUnits="userSpaceOnUse">
<stop stop-color="#2B0AFF"/>
<stop offset="0.49" stop-color="#FF5B8A"/>
<stop offset="0.55" stop-color="#FF5B8A"/>
<stop offset="0.77" stop-color="#FBA64B"/>
<stop offset="1" stop-color="#F99B52"/>
</linearGradient>
</defs>
</svg>
