<svg width="58" height="57" viewBox="0 0 58 57" fill="none" xmlns="http://www.w3.org/2000/svg">
<rect x="1.30054" y="0.623901" width="55.6814" height="55.7578" rx="6.21696" stroke="url(#paint0_linear_70_1019)"/>
<path d="M44.036 14.487L43.9201 14.4695V13.831C43.9212 13.4924 43.7936 13.1659 43.5632 12.9178L43.5241 12.88C43.3999 12.7532 43.2518 12.6523 43.0883 12.5829C42.9249 12.5136 42.7494 12.4772 42.5718 12.476H37.1355C36.7783 12.476 36.4357 12.6179 36.1831 12.8705C35.9305 13.1231 35.7886 13.4657 35.7886 13.8229V14.2014H19.9659C19.5577 14.2018 19.1663 14.3641 18.8776 14.6527C18.589 14.9414 18.4267 15.3328 18.4263 15.741V16.238H14.6333L14.6037 16.1437C14.4947 15.7962 14.3077 15.4783 14.0568 15.2143L14.0177 15.1712C13.5852 14.7354 12.9989 14.4869 12.385 14.4791C11.7711 14.4713 11.1786 14.7048 10.7352 15.1295L10.6921 15.1699C10.4724 15.3876 10.2981 15.6467 10.1793 15.9323C10.0604 16.2178 9.99941 16.5241 9.99976 16.8334V21.4629C10.0006 22.0653 10.2336 22.6442 10.6503 23.0792L10.6921 23.125C10.9794 23.4098 11.3353 23.6158 11.7254 23.7231C12.1155 23.8304 12.5267 23.8353 12.9193 23.7374C13.3118 23.6396 13.6726 23.4422 13.9667 23.1643C14.2608 22.8865 14.4783 22.5375 14.5983 22.1511L14.6279 22.0555H18.4209V22.5539C18.4209 22.7558 18.4609 22.9556 18.5386 23.142C18.6163 23.3283 18.7301 23.4974 18.8735 23.6395L18.9301 23.6961C19.2112 23.9545 19.5787 24.0987 19.9605 24.1002H25.9167V24.1931L26.0407 24.1662C26.1506 24.668 26.3864 25.1336 26.726 25.5192C27.0655 25.9047 27.4977 26.1974 27.9816 26.3698L28.1244 26.421L20.1019 42.6639C20.0674 42.7337 20.047 42.8096 20.0419 42.8873C20.0367 42.9649 20.0469 43.0429 20.0718 43.1166C20.0968 43.1903 20.136 43.2584 20.1873 43.317C20.2386 43.3756 20.3009 43.4235 20.3706 43.458C20.4404 43.4924 20.5163 43.5129 20.594 43.518C20.6717 43.5232 20.7496 43.513 20.8233 43.488C20.897 43.4631 20.9651 43.4239 21.0237 43.3726C21.0823 43.3213 21.1302 43.259 21.1647 43.1892L28.4301 28.4778L28.4679 39.9633C28.4679 40.1201 28.5302 40.2705 28.6411 40.3814C28.7519 40.4923 28.9024 40.5546 29.0592 40.5546C29.216 40.5546 29.3664 40.4923 29.4773 40.3814C29.5882 40.2705 29.6505 40.1201 29.6505 39.9633L29.6141 28.5142L36.8621 43.196C36.8965 43.2659 36.9444 43.3284 37.003 43.3798C37.0616 43.4312 37.1297 43.4705 37.2036 43.4955C37.2774 43.5205 37.3554 43.5308 37.4332 43.5256C37.511 43.5204 37.5869 43.5 37.6568 43.4654C37.7268 43.4313 37.7893 43.3837 37.8407 43.3251C37.892 43.2666 37.9312 43.1984 37.9558 43.1246C38.0058 42.9756 37.9946 42.8128 37.9248 42.672L29.9037 26.4291L30.0451 26.3779C30.5322 26.2041 30.9667 25.9087 31.3073 25.5197C31.648 25.1307 31.8835 24.6611 31.9915 24.1554L32.1168 24.1837V24.0894H35.7845V24.4544C35.7845 24.8117 35.9264 25.1543 36.179 25.4069C36.4316 25.6595 36.7742 25.8014 37.1315 25.8014H42.5678C42.925 25.8014 43.2676 25.6595 43.5202 25.4069C43.7728 25.1543 43.9147 24.8117 43.9147 24.4544V23.8146L44.0306 23.7971C45.1377 23.6199 46.1453 23.0539 46.8728 22.2008C47.6002 21.3477 47.9998 20.2632 47.9998 19.142C47.9998 18.0209 47.6002 16.9364 46.8728 16.0833C46.1453 15.2301 45.1377 14.6642 44.0306 14.487H44.036ZM13.5194 21.4575C13.5198 21.6878 13.4517 21.9131 13.3238 22.1047C13.196 22.2964 13.0141 22.4457 12.8012 22.5337C12.5883 22.6218 12.354 22.6446 12.1282 22.5992C11.9023 22.5539 11.695 22.4425 11.5326 22.2791L11.5083 22.2576C11.3038 22.0414 11.1895 21.7551 11.1891 21.4575V16.828C11.1889 16.6749 11.2191 16.5232 11.2781 16.3819C11.337 16.2406 11.4236 16.1125 11.5326 16.005L11.5541 15.9821L11.5636 15.9727C11.7788 15.7736 12.0611 15.663 12.3542 15.6629C12.507 15.6626 12.6583 15.6927 12.7994 15.7514C12.9405 15.8102 13.0684 15.8964 13.1759 16.005L13.2001 16.0279C13.4045 16.2442 13.5187 16.5304 13.5194 16.828V21.4575ZM18.4263 20.8634H14.7087V17.422H18.4263V20.8634ZM25.7416 23.9736L25.7349 23.9359C25.7349 23.9224 25.7349 23.9103 25.7349 23.8981C25.7349 23.886 25.7349 23.8739 25.7349 23.8618L26.0043 23.8321C26.0043 23.8321 26.0043 23.8416 26.0043 23.8456C26.0043 23.8496 26.0043 23.8524 26.0043 23.855C26.0043 23.8577 26.0043 23.8806 26.0043 23.8927L26.0124 23.9372L25.7416 23.9736ZM26.0002 23.0994C26.0002 23.1196 26.0002 23.1385 25.9922 23.1587L25.7228 23.1304C25.7228 23.1034 25.7228 23.0778 25.7349 23.0509V23.0145L26.0043 23.0536L26.0002 23.0994ZM30.3347 24.8087C30.0317 25.1145 29.6321 25.3057 29.2038 25.3498C28.7756 25.3939 28.3453 25.288 27.9864 25.0504C27.6275 24.8127 27.3621 24.4579 27.2355 24.0464C27.1089 23.635 27.1289 23.1923 27.2922 22.794C27.4554 22.3957 27.7518 22.0663 28.1307 21.862C28.5097 21.6578 28.9477 21.5912 29.3702 21.6738C29.7927 21.7564 30.1735 21.983 30.4476 22.3149C30.7218 22.6468 30.8723 23.0636 30.8735 23.4941C30.8752 23.7379 30.8284 23.9797 30.7359 24.2054C30.6434 24.4311 30.5071 24.6361 30.3347 24.8087ZM32.3161 23.8658C32.3161 23.8793 32.3161 23.8941 32.3161 23.9076C32.3168 23.917 32.3168 23.9264 32.3161 23.9359V23.9763L32.0467 23.9386L32.0535 23.8914C32.0535 23.882 32.0535 23.8725 32.0535 23.8645C32.0535 23.8564 32.0535 23.8483 32.0535 23.8416V23.8335L32.3228 23.8631L32.3161 23.8658ZM32.0467 23.1668C32.0467 23.1465 32.04 23.1263 32.0373 23.1061L32.0306 23.0603L32.3 23.0213V23.0617C32.3 23.0859 32.308 23.1102 32.3107 23.1358L32.0467 23.1668ZM35.7845 22.9068H32.1262V22.8125L32.0009 22.8408C31.8516 22.1632 31.4754 21.557 30.9345 21.1224C30.3937 20.6878 29.7207 20.4509 29.0268 20.4509C28.333 20.4509 27.66 20.6878 27.1192 21.1224C26.5783 21.557 26.2021 22.1632 26.0528 22.8408L25.9289 22.8125V22.9068H19.9659C19.9195 22.9059 19.8737 22.8958 19.8312 22.8772L19.8056 22.8987L19.7153 22.7977C19.6534 22.7328 19.6195 22.6462 19.6211 22.5566V15.7423C19.6209 15.6963 19.6298 15.6507 19.6474 15.6081C19.6649 15.5655 19.6907 15.5269 19.7232 15.4943C19.7558 15.4617 19.7945 15.436 19.837 15.4184C19.8796 15.4009 19.9252 15.3919 19.9713 15.3921H35.7872L35.7845 22.9068ZM42.7294 13.8606V24.4612C42.7288 24.5031 42.7119 24.5432 42.6823 24.573C42.6675 24.5879 42.6499 24.5998 42.6304 24.6079C42.611 24.616 42.5902 24.6201 42.5691 24.6201H37.1355C37.0944 24.6196 37.055 24.6038 37.0251 24.5757C37.0098 24.5608 36.9976 24.543 36.9893 24.5233C36.9809 24.5036 36.9766 24.4825 36.9766 24.4612V13.8377C36.9764 13.8169 36.9805 13.7962 36.9886 13.777C36.9967 13.7578 37.0087 13.7404 37.0237 13.7259C37.0383 13.711 37.0557 13.6992 37.0749 13.6911C37.0941 13.683 37.1147 13.6788 37.1355 13.6788H42.5718C42.5927 13.6781 42.6135 13.6817 42.633 13.6893C42.6525 13.697 42.6701 13.7085 42.685 13.7232L42.7739 13.8121L42.7294 13.8606ZM45.8167 21.642C45.3414 22.1186 44.7392 22.4487 44.0818 22.5929L43.9174 22.628V15.6696L44.0818 15.706C44.6992 15.8422 45.2686 16.1418 45.7304 16.5736C46.1923 17.0054 46.5295 17.5534 46.7069 18.1603C46.8843 18.7671 46.8952 19.4105 46.7386 20.023C46.582 20.6356 46.2635 21.1947 45.8167 21.642Z" fill="url(#paint1_linear_70_1019)"/>
<defs>
<linearGradient id="paint0_linear_70_1019" x1="0.698709" y1="54.4255" x2="59.6318" y2="51.9823" gradientUnits="userSpaceOnUse">
<stop stop-color="#2B0AFF"/>
<stop offset="0.49" stop-color="#FF5B8A"/>
<stop offset="0.55" stop-color="#FF5B8A"/>
<stop offset="0.77" stop-color="#FBA64B"/>
<stop offset="1" stop-color="#F99B52"/>
</linearGradient>
<linearGradient id="paint1_linear_70_1019" x1="9.93149" y1="42.1831" x2="49.4071" y2="40.1777" gradientUnits="userSpaceOnUse">
<stop stop-color="#2B0AFF"/>
<stop offset="0.49" stop-color="#FF5B8A"/>
<stop offset="0.55" stop-color="#FF5B8A"/>
<stop offset="0.77" stop-color="#FBA64B"/>
<stop offset="1" stop-color="#F99B52"/>
</linearGradient>
</defs>
</svg>
