<svg width="106" height="99" viewBox="0 0 106 99" fill="none" xmlns="http://www.w3.org/2000/svg">
<path d="M90.5855 48.26C92.6126 48.7489 94.5539 49.1592 96.3315 49.5002C94.5539 49.8413 92.6126 50.2516 90.5855 50.7405C82.3197 52.734 72.3167 56.1037 66.3214 61.6377C60.309 67.1877 56.643 76.4594 54.4768 84.1126C53.8822 86.213 53.3948 88.2138 53 90.0139C52.6052 88.2138 52.1178 86.213 51.5232 84.1126C49.357 76.4594 45.691 67.1877 39.6786 61.6377C33.6834 56.1037 23.6803 52.734 15.4145 50.7405C13.3874 50.2516 11.4461 49.8413 9.66847 49.5002C11.4461 49.1592 13.3874 48.7489 15.4145 48.26C23.6803 46.2665 33.6833 42.8968 39.6786 37.3627C45.691 31.8128 49.357 22.541 51.5232 14.8879C52.1178 12.7874 52.6052 10.7867 53 8.98659C53.3948 10.7867 53.8822 12.7874 54.4768 14.8879C56.643 22.541 60.309 31.8128 66.3214 37.3627C72.3167 42.8968 82.3197 46.2665 90.5855 48.26Z" fill="url(#paint0_linear_574_14420)" stroke="url(#paint1_linear_574_14420)" stroke-width="2.9291"/>
<defs>
<linearGradient id="paint0_linear_574_14420" x1="-0.190428" y1="94.1889" x2="109.987" y2="89.234" gradientUnits="userSpaceOnUse">
<stop stop-color="#2B0AFF"/>
<stop offset="0.49" stop-color="#FF5B8A"/>
<stop offset="0.55" stop-color="#FF5B8A"/>
<stop offset="0.77" stop-color="#FBA64B"/>
<stop offset="1" stop-color="#F99B52"/>
</linearGradient>
<linearGradient id="paint1_linear_574_14420" x1="-0.190428" y1="94.1889" x2="109.987" y2="89.234" gradientUnits="userSpaceOnUse">
<stop stop-color="#2B0AFF"/>
<stop offset="0.49" stop-color="#FF5B8A"/>
<stop offset="0.55" stop-color="#FF5B8A"/>
<stop offset="0.77" stop-color="#FBA64B"/>
<stop offset="1" stop-color="#F99B52"/>
</linearGradient>
</defs>
</svg>
