<svg width="32" height="32" viewBox="0 0 32 32" fill="none" xmlns="http://www.w3.org/2000/svg">
<path d="M30.4537 0H1.32408C0.595833 0 0 0.595833 0 1.32407V30.4537C0 31.1819 0.595833 31.7777 1.32408 31.7777H30.4537C31.1819 31.7777 31.7777 31.1819 31.7777 30.4537V1.32407C31.7777 0.595833 31.1819 0 30.4537 0ZM9.40092 27.0774H4.70046V11.9167H9.40092V27.0774ZM7.08379 9.86435C5.56112 9.86435 4.36945 8.67268 4.36945 7.15C4.36945 5.62731 5.56112 4.43564 7.08379 4.43564C8.60648 4.43564 9.79815 5.62731 9.79815 7.15C9.79815 8.60648 8.60648 9.86435 7.08379 9.86435ZM27.0773 27.0774H22.3768V19.7287C22.3768 17.9412 22.3768 15.6903 19.9273 15.6903C17.4778 15.6903 17.0806 17.6102 17.0806 19.5963V27.0774H12.3801V11.9167H16.882V13.969H16.9482C17.544 12.7773 19.1329 11.5194 21.3838 11.5194C26.1505 11.5194 27.0111 14.631 27.0111 18.7357V27.0774H27.0773Z" fill="#F8F1DE"/>
</svg>
