<svg width="36" height="47" viewBox="0 0 36 47" fill="none" xmlns="http://www.w3.org/2000/svg">
<path d="M18.9513 0.919922C17.9257 0.920757 16.9024 1.01493 15.8939 1.20128C14.9499 1.37696 14.0227 1.63364 13.1228 1.96849H13.0933C12.9595 1.99151 12.8348 2.05159 12.7334 2.14189C10.9588 3.59665 9.52673 5.42473 8.53913 7.49602C7.17711 10.3653 6.73126 13.5843 7.26214 16.7158C7.79303 19.8473 9.27492 22.7395 11.5065 24.9996L11.5834 25.0765L4.91573 40.99H4.81594C3.50579 41.0978 2.28384 41.6935 1.39199 42.6593C0.500132 43.6251 0.00336069 44.8905 0 46.2051C0.00214505 46.3948 0.0788272 46.5762 0.213487 46.7099C0.348146 46.8437 0.529989 46.9191 0.719777 46.9199H29.9425C30.134 46.9199 30.3177 46.844 30.4532 46.7087C30.5888 46.5735 30.6652 46.39 30.6656 46.1985C30.6607 44.8841 30.1632 43.6193 29.2713 42.6538C28.3794 41.6883 27.1579 41.0923 25.848 40.9834H25.7499L20.9421 29.5129L21.212 29.5358C21.6406 29.5701 22.0741 29.5881 22.5027 29.5881C24.6804 29.592 26.8339 29.1325 28.8204 28.2402C30.8142 27.3437 32.5976 26.0385 34.0551 24.409C34.0673 24.3955 34.0788 24.3813 34.0894 24.3665L34.2923 24.1358C34.3484 24.0688 34.3921 23.9924 34.4215 23.9101C34.8244 22.9205 35.1312 21.8945 35.3376 20.8462C35.546 19.7818 35.6512 18.6999 35.6517 17.6154C35.6495 13.1907 33.8908 8.94793 30.7621 5.81923C27.6334 2.69054 23.3907 0.931894 18.966 0.929727L18.9513 0.919922ZM28.112 43.5272C28.5962 44.0095 28.941 44.6137 29.1099 45.2759L29.1622 45.4804H1.51643L1.56877 45.2759C1.73834 44.614 2.08305 44.0099 2.56665 43.5272C2.91666 43.1744 3.33308 42.8945 3.79186 42.7036C4.25064 42.5127 4.7427 42.4145 5.23962 42.4148H25.4456C25.9409 42.4158 26.4311 42.5146 26.8881 42.7055C27.3451 42.8964 27.7599 43.1756 28.1088 43.5272H28.112ZM24.186 40.9703H6.48122L12.7154 26.0841L12.879 26.2199C14.7254 27.6868 16.8823 28.7129 19.1852 29.2201L19.267 29.2381L24.186 40.9703ZM30.2566 25.8061C27.7029 27.4987 24.6649 28.3083 21.6075 28.111C18.55 27.9137 15.6414 26.7204 13.3263 24.7135C11.0113 22.7066 9.41736 19.9967 8.78828 16.9981C8.15921 13.9996 8.52964 10.8775 9.8429 8.10946C10.2209 7.31957 10.6716 6.56656 11.1892 5.86017L11.6047 5.29254L11.2137 8.86358V8.96992C11.2085 11.1607 11.6373 13.3308 12.4754 15.3549C13.3135 17.379 14.5443 19.217 16.0967 20.7627L15.997 20.8936L16.1131 20.7774C17.6594 22.3305 19.4982 23.5617 21.5232 24.3999C23.5482 25.238 25.7192 25.6665 27.9108 25.6605L30.1487 25.5083L30.8553 25.4118L30.2566 25.8061ZM20.4644 15.1109L20.5315 15.2188L16.6153 19.2218L16.4991 19.0909C14.3124 16.6429 12.982 13.5497 12.7089 10.2786L12.6876 10.0201L19.9868 12.7651L19.9737 12.8927C19.9578 13.0246 19.9502 13.1573 19.9508 13.2902C19.9498 13.933 20.1276 14.5634 20.4644 15.1109ZM21.5637 16.2282L21.6733 16.2936C22.3315 16.6763 23.0965 16.8337 23.8523 16.7418L23.9783 16.7271L26.8442 24.1817L26.5841 24.1604C23.309 23.8853 20.2126 22.5507 17.7637 20.3587L17.6361 20.2442L21.5637 16.2282ZM21.4002 13.2836C21.3998 12.8143 21.5616 12.3593 21.8583 11.9956C22.155 11.6319 22.5683 11.382 23.0281 11.2881C23.488 11.1942 23.9662 11.2622 24.3816 11.4805C24.7971 11.6988 25.1244 12.054 25.308 12.4859C25.4916 12.9179 25.5202 13.4 25.3891 13.8506C25.2579 14.3013 24.975 14.6927 24.5883 14.9587C24.2016 15.2247 23.7349 15.3488 23.2671 15.31C22.7994 15.2713 22.3594 15.0721 22.0218 14.7461L21.9972 14.7216C21.8071 14.5346 21.6559 14.3119 21.5523 14.0662C21.4487 13.8205 21.3948 13.5568 21.3936 13.2902L21.4002 13.2836ZM33.9226 20.5599C33.7441 21.4738 33.4813 22.3692 33.1374 23.2345L33.1112 23.3048L30.6394 23.9706C29.9368 24.0966 29.2262 24.1725 28.5128 24.198H28.395L25.3213 16.2004L25.426 16.1267C25.5918 16.0114 25.7468 15.881 25.8889 15.7374C26.231 15.3961 26.4983 14.9872 26.6735 14.5369C26.8487 14.0865 26.9281 13.6046 26.9066 13.1218C26.8852 12.639 26.7632 12.1661 26.5487 11.7331C26.3342 11.3001 26.0317 10.9165 25.6606 10.607C25.2895 10.2974 24.8579 10.0687 24.3935 9.93527C23.929 9.80187 23.4418 9.76679 22.963 9.83225C22.4842 9.89771 22.0243 10.0623 21.6127 10.3154C21.2011 10.5686 20.8468 10.9048 20.5724 11.3026L20.4988 11.4073L12.6615 8.47753L12.9036 6.18734L13.3943 4.24068L13.6577 3.49964L13.7477 3.269L13.818 3.24445C16.1199 2.4241 18.5853 2.16868 21.0065 2.4997C23.4277 2.83071 25.734 3.73846 27.7313 5.14656C29.7286 6.55467 31.3585 8.42194 32.4837 10.5912C33.6089 12.7605 34.1967 15.1683 34.1974 17.6121C34.1987 18.6036 34.1045 19.593 33.916 20.5664L33.9226 20.5599Z" fill="url(#paint0_linear_70_2703)"/>
<defs>
<linearGradient id="paint0_linear_70_2703" x1="-0.064048" y1="44.9292" x2="37.0292" y2="43.7358" gradientUnits="userSpaceOnUse">
<stop stop-color="#2B0AFF"/>
<stop offset="0.49" stop-color="#FF5B8A"/>
<stop offset="0.55" stop-color="#FF5B8A"/>
<stop offset="0.77" stop-color="#FBA64B"/>
<stop offset="1" stop-color="#F99B52"/>
</linearGradient>
</defs>
</svg>
