<svg width="42" height="43" viewBox="0 0 42 43" fill="none" xmlns="http://www.w3.org/2000/svg">
<path d="M41.3293 6.34365L36.5765 1.59083C36.1442 1.16111 35.5593 0.919922 34.9498 0.919922C34.3402 0.919922 33.7554 1.16111 33.323 1.59083L24.8024 10.1131L24.8149 10.1271L24.6851 10.2335C24.2564 10.6641 24.0158 11.2471 24.0158 11.8547C24.0158 12.4624 24.2564 13.0453 24.6851 13.476L26.58 15.3724L25.2182 16.7342L22.4275 13.9435C22.0609 13.5778 21.567 13.3684 21.0493 13.359C20.5316 13.3497 20.0304 13.5412 19.6509 13.8934C19.6321 13.909 19.6144 13.9257 19.5977 13.9435L16.8054 16.7342L15.4452 15.3724L17.3307 13.476C17.7522 13.0532 17.9928 12.483 18.0015 11.8861C18.0103 11.2892 17.7866 10.7122 17.3777 10.2772L17.3307 10.2241L8.80068 1.69559L8.79131 1.70497L8.68656 1.58301C8.25431 1.157 7.67137 0.91883 7.06447 0.920294C6.45756 0.921758 5.87577 1.16273 5.44558 1.59083V1.60021L0.702149 6.34521C0.271 6.77649 0.028799 7.36134 0.028799 7.97117C0.028799 8.581 0.271 9.16586 0.702149 9.59714L9.33382 18.2288C9.75624 18.6509 10.3263 18.8919 10.9234 18.901C11.5204 18.91 12.0976 18.6863 12.5326 18.2773C12.5518 18.2622 12.57 18.246 12.5873 18.2288L14.4759 16.3402L15.8361 17.7019L13.1548 20.3754L13.0251 20.4927C12.6526 20.8678 12.4436 21.375 12.4436 21.9037C12.4436 22.4323 12.6526 22.9395 13.0251 23.3146L15.8158 26.1054L14.4556 27.4671L12.567 25.5785C12.1443 25.1563 11.574 24.9152 10.9766 24.9062C10.3793 24.8971 9.80193 25.1209 9.36666 25.53L9.31349 25.5785L0.78345 34.1101V34.1179L0.669323 34.2195C0.240655 34.6502 0 35.2332 0 35.8408C0 36.4485 0.240655 37.0314 0.669323 37.4621L5.44871 42.2211C5.66228 42.4349 5.91588 42.6044 6.195 42.7201C6.47412 42.8358 6.77332 42.8953 7.07546 42.8953C7.3776 42.8953 7.67677 42.8358 7.9559 42.7201C8.23502 42.6044 8.48863 42.4349 8.70221 42.2211L17.2276 33.6974L17.3323 33.5879C17.7627 33.1562 18.0044 32.5715 18.0044 31.9619C18.0044 31.3524 17.7627 30.7677 17.3323 30.336L15.4437 28.4489L16.8039 27.0872L19.4898 29.7716L19.5977 29.8873C19.9729 30.2602 20.4805 30.4695 21.0095 30.4695C21.5385 30.4695 22.046 30.2602 22.4213 29.8873L25.2182 27.0981L26.58 28.4599L24.7992 30.225L24.8164 30.2422L24.6851 30.3438C24.2564 30.7745 24.0158 31.3574 24.0158 31.9651C24.0158 32.5727 24.2564 33.1557 24.6851 33.5863L33.2136 42.1148L33.223 42.107L33.3277 42.2258C33.7588 42.6538 34.3416 42.8939 34.949 42.8939C35.5564 42.8939 36.1392 42.6538 36.5703 42.2258L41.3231 37.473C41.7527 37.0409 41.9939 36.4564 41.9939 35.8471C41.9939 35.2377 41.7527 34.6532 41.3231 34.2211L32.6898 25.5894C32.2672 25.1673 31.6968 24.9262 31.0995 24.9171C30.5022 24.9081 29.9248 25.1318 29.4895 25.541L29.4364 25.5894L27.5493 27.478L26.1876 26.1163L28.9798 23.3256C29.3456 22.959 29.555 22.4648 29.5641 21.947C29.5731 21.4292 29.3811 20.9281 29.0283 20.5489L28.9798 20.4942L26.1876 17.7035L27.5493 16.3418L29.3316 18.1241L29.4395 18.2382C29.8703 18.6678 30.4539 18.9091 31.0623 18.9091C31.6707 18.9091 32.2543 18.6678 32.6852 18.2382L41.2121 9.71126V9.70345L41.3325 9.59714C41.7601 9.16558 42 8.58262 42 7.97508C42 7.36754 41.7601 6.78458 41.3325 6.35303L41.3293 6.34365ZM14.4978 9.34073L11.9588 11.8782L9.99047 9.90982L12.5295 7.37082L14.4978 9.34073ZM9.58553 4.42845L11.5539 6.39681L9.01489 8.93581L7.04653 6.96745L9.58553 4.42845ZM6.42428 2.56954C6.50936 2.4837 6.61069 2.41571 6.72237 2.36954C6.83405 2.32336 6.95383 2.29994 7.07468 2.30063C7.31852 2.29988 7.55279 2.3954 7.72661 2.56641L7.8345 2.67429L8.61621 3.456L6.07408 5.99188L4.5388 4.45659L6.42428 2.56954ZM1.67147 8.62313C1.50065 8.44943 1.40493 8.21557 1.40493 7.97195C1.40493 7.72834 1.50065 7.49448 1.67147 7.32079L1.77935 7.21135L3.5601 5.43217L5.09537 6.96589L2.55637 9.50489L1.67147 8.62313ZM3.53195 10.482L6.07408 7.94147L8.04243 9.90982L5.50342 12.4504L3.53195 10.482ZM8.44424 15.3959L6.47587 13.426L9.01489 10.887L10.9832 12.8553L8.44424 15.3959ZM11.6055 17.2485L11.5805 17.2751L11.5695 17.2861C11.392 17.4392 11.1634 17.5203 10.929 17.5134C10.6946 17.5065 10.4713 17.412 10.3032 17.2485L9.41982 16.3652L11.9588 13.8262L13.4941 15.3599L11.6055 17.2485ZM12.9344 12.8491L15.4734 10.3101L16.3849 11.22C16.5394 11.3917 16.6251 11.6144 16.6256 11.8453C16.6263 11.966 16.603 12.0857 16.5571 12.1973C16.5112 12.3089 16.4436 12.4104 16.3583 12.4957L14.4697 14.3843L12.9344 12.8491ZM10.3375 26.5228C10.51 26.3706 10.733 26.2882 10.9629 26.2914C11.0837 26.2904 11.2034 26.3136 11.3151 26.3595C11.4268 26.4054 11.5282 26.4731 11.6133 26.5587L13.5019 28.4474L11.9666 29.9811L9.42762 27.4421L10.3375 26.5228ZM8.44424 28.4177L10.9832 30.9567L9.01489 32.925L6.47587 30.386L8.44424 28.4177ZM5.50029 31.3616L8.0393 33.9006L6.07408 35.8752L3.53508 33.3362L5.50029 31.3616ZM1.67147 36.4928L1.78248 36.3818L1.67147 36.4912C1.50065 36.3175 1.40493 36.0836 1.40493 35.84C1.40493 35.5964 1.50065 35.3626 1.67147 35.1889L1.77935 35.081L2.56106 34.2993L5.10007 36.8398L3.56477 38.3736L1.67147 36.4928ZM7.72507 41.244C7.55137 41.4148 7.31751 41.5106 7.07389 41.5106C6.83028 41.5106 6.59641 41.4148 6.42272 41.244L6.30859 41.1314L4.53411 39.3554L6.06938 37.8217L8.60839 40.3607L7.72507 41.244ZM9.58553 39.3851L7.04653 36.8461L9.01489 34.8762L11.5539 37.4167L9.58553 39.3851ZM12.5295 36.4412L9.99047 33.9006L11.9588 31.9448L14.4978 34.4838L12.5295 36.4412ZM16.3583 31.3194C16.5303 31.4927 16.6265 31.7272 16.6256 31.9713C16.6268 32.092 16.6039 32.2116 16.5583 32.3233C16.5127 32.435 16.4452 32.5364 16.3599 32.6217L16.252 32.7546L16.2379 32.7405L15.4734 33.5051L12.9344 30.966L14.4697 29.4323L16.3583 31.3194ZM27.5274 34.4806L30.0664 31.9448L32.0348 33.9131L29.4958 36.4537L27.5274 34.4806ZM32.4397 39.3945L30.4714 37.4167L33.0104 34.8762L34.9787 36.8461L32.4397 39.3945ZM35.6009 41.2534C35.4261 41.422 35.1927 41.5162 34.9498 41.5162C34.7069 41.5162 34.4735 41.422 34.2986 41.2534L34.1845 41.1393L33.4137 40.3685L35.9527 37.8295L37.488 39.3632L35.6009 41.2534ZM40.3538 35.1998C40.525 35.3733 40.6209 35.6072 40.6209 35.851C40.6209 36.0947 40.525 36.3286 40.3538 36.5021L38.4652 38.3892L36.9299 36.8555L39.4689 34.3149L40.3538 35.1998ZM38.4933 33.3409L35.9543 35.8799L33.9859 33.91L36.5249 31.371L38.4933 33.3409ZM33.581 28.427L35.5494 30.3954L33.0104 32.9344L31.042 30.966L33.581 28.427ZM30.4448 26.5416C30.6157 26.3857 30.8389 26.2998 31.0701 26.3008C31.1909 26.2998 31.3106 26.3229 31.4223 26.3688C31.534 26.4148 31.6354 26.4825 31.7205 26.5681L32.6054 27.4515L30.0664 29.9905L28.5311 28.4567L30.4448 26.5416ZM29.0908 30.966L26.555 33.5082L25.6701 32.6248C25.4992 32.4511 25.4035 32.2173 25.4035 31.9737C25.4035 31.7301 25.4992 31.4962 25.6701 31.3225L25.792 31.199L27.5587 29.4339L29.0908 30.966ZM28.0433 21.5073C28.1449 21.6268 28.1979 21.78 28.1918 21.9366C28.1857 22.0933 28.121 22.2419 28.0105 22.3531L21.4441 28.9101C21.327 29.0261 21.1688 29.0912 21.004 29.0912C20.8392 29.0912 20.681 29.0261 20.5639 28.9101L20.456 28.8038L14.0053 22.3547C13.8896 22.2372 13.825 22.0787 13.8255 21.9138C13.8248 21.8324 13.8401 21.7517 13.8707 21.6763C13.9013 21.6009 13.9465 21.5323 14.0038 21.4745L14.1117 21.3651L20.5842 14.8925C20.704 14.7884 20.8583 14.7329 21.0169 14.737C21.1754 14.741 21.3268 14.8043 21.441 14.9144L28.0433 21.5073ZM34.2971 2.57266C34.4699 2.40082 34.7037 2.30435 34.9474 2.30435C35.1912 2.30435 35.425 2.40082 35.5978 2.57266L37.4864 4.46129L35.9511 5.99657L33.4121 3.45756L34.2971 2.57266ZM32.4397 4.42845L34.9787 6.96745L33.0104 8.93581L30.4714 6.39681L32.4397 4.42845ZM29.4958 7.37239L32.0348 9.91139L30.0664 11.8797L27.5274 9.3423L29.4958 7.37239ZM25.6669 12.502C25.4961 12.3283 25.4004 12.0944 25.4004 11.8508C25.4004 11.6072 25.4961 11.3733 25.6669 11.1996L25.7811 11.0855L26.5518 10.3148L29.0908 12.8538L27.5556 14.389L25.6669 12.502ZM31.7143 17.2485C31.5406 17.4194 31.3067 17.5151 31.0631 17.5151C30.8195 17.5151 30.5856 17.4194 30.4119 17.2485L30.3009 17.1391L28.5311 15.3724L30.0664 13.8387L32.6054 16.3777L31.7143 17.2485ZM33.5747 15.3896L31.0357 12.8491L33.0041 10.8807L35.5431 13.4197L33.5747 15.3896ZM36.5187 12.4457L33.9797 9.90514L35.948 7.93678L38.487 10.4758L36.5187 12.4457ZM40.3491 8.61687L40.2412 8.72631L39.4595 9.50802L36.9205 6.96902L38.4558 5.4353L40.3428 7.32235C40.514 7.49585 40.61 7.72978 40.61 7.97352C40.61 8.21726 40.514 8.45119 40.3428 8.62469L40.3491 8.61687Z" fill="url(#paint0_linear_70_2691)"/>
<path d="M18.1297 24.7903C18.8946 25.5544 19.9315 25.9837 21.0127 25.9837C22.0939 25.9837 23.1308 25.5544 23.8957 24.7903L23.9207 24.7637C24.6716 24.0003 25.0918 22.9719 25.0903 21.901C25.0889 20.8302 24.6659 19.8029 23.9129 19.0416L23.8957 19.0228C23.5171 18.6441 23.0677 18.3436 22.573 18.1386C22.0784 17.9336 21.5482 17.8281 21.0127 17.8281C20.4772 17.8281 19.947 17.9336 19.4524 18.1386C18.9577 18.3436 18.5083 18.6441 18.1297 19.0228C17.3672 19.7869 16.939 20.8224 16.939 21.9019C16.939 22.9814 17.3672 24.0168 18.1297 24.7809V24.7903ZM19.0866 20.0187L19.1053 19.9999C19.6113 19.4943 20.2974 19.2103 21.0127 19.2103C21.728 19.2103 22.4141 19.4943 22.9201 19.9999L22.931 20.0125C23.4308 20.5174 23.7112 21.1992 23.7112 21.9097C23.7112 22.6202 23.4308 23.3019 22.931 23.8069V23.8163C22.425 24.3219 21.739 24.6059 21.0236 24.6059C20.3083 24.6059 19.6223 24.3219 19.1163 23.8163L19.0897 23.7881C18.597 23.2845 18.3212 22.608 18.3212 21.9034C18.3212 21.1989 18.597 20.5224 19.0897 20.0187H19.0866Z" fill="url(#paint1_linear_70_2691)"/>
<defs>
<linearGradient id="paint0_linear_70_2691" x1="-0.0754527" y1="41.0788" x2="43.5927" y2="39.2649" gradientUnits="userSpaceOnUse">
<stop stop-color="#2B0AFF"/>
<stop offset="0.49" stop-color="#FF5B8A"/>
<stop offset="0.55" stop-color="#FF5B8A"/>
<stop offset="0.77" stop-color="#FBA64B"/>
<stop offset="1" stop-color="#F99B52"/>
</linearGradient>
<linearGradient id="paint1_linear_70_2691" x1="16.9243" y1="25.6307" x2="25.3995" y2="25.2791" gradientUnits="userSpaceOnUse">
<stop stop-color="#2B0AFF"/>
<stop offset="0.49" stop-color="#FF5B8A"/>
<stop offset="0.55" stop-color="#FF5B8A"/>
<stop offset="0.77" stop-color="#FBA64B"/>
<stop offset="1" stop-color="#F99B52"/>
</linearGradient>
</defs>
</svg>
