<svg width="435" height="395" viewBox="0 0 435 395" fill="none" xmlns="http://www.w3.org/2000/svg">
<g clip-path="url(#clip0_70_1392)">
<path d="M428.984 206.594C424.83 191.591 418.306 176.796 409.842 164.446C400.376 150.635 389.521 140.475 376.604 130.11C362.872 119.093 349.433 107.607 337.376 94.7506C325.39 81.97 317.172 67.4815 306.993 53.4822C287.975 27.3248 258.154 11.0779 226.809 5.09993C177.154 -4.36957 123.725 6.29898 82.4601 35.802C39.408 66.5822 13.4654 117.103 4.8481 168.561C-1.14714 204.359 1.00517 242.141 14.0661 276.203C15.2111 279.189 16.4355 282.145 17.7585 285.057C36.5276 326.391 73.4006 360.899 115.203 378.277C189.475 409.154 276.264 387.458 328.005 368.264C393.874 343.83 449.478 280.608 428.984 206.594Z" fill="url(#paint0_linear_70_1392)" fill-opacity="0.4" stroke="url(#paint1_linear_70_1392)" stroke-opacity="0.4" stroke-width="2.29703" stroke-miterlimit="10"/>
<path d="M297.433 203.62H275.151L281.221 154.886V146.16H291.364V154.886L297.433 203.62Z" fill="white" stroke="#263238" stroke-width="1.14851" stroke-miterlimit="10" stroke-linecap="round" stroke-linejoin="round"/>
<path d="M336.577 203.62H315.481L320.958 155.096V146.16H331.101V154.886L336.577 203.62Z" fill="white" stroke="#263238" stroke-width="1.14851" stroke-miterlimit="10" stroke-linecap="round" stroke-linejoin="round"/>
<path d="M287.599 41.3427C287.208 40.2126 285.61 40.2126 285.218 41.3427L283.529 46.2205C281.712 51.4657 280.784 56.9775 280.784 62.5282V151.762H292.034V62.5282C292.034 56.9775 291.106 51.4657 289.289 46.2205L287.599 41.3427Z" fill="white" stroke="#263238" stroke-width="1.14851" stroke-miterlimit="10" stroke-linecap="round" stroke-linejoin="round"/>
<path d="M293.768 151.031H279.049V157.969H293.768V151.031Z" fill="#263238" stroke="white" stroke-width="1.14851" stroke-miterlimit="10" stroke-linecap="round" stroke-linejoin="round"/>
<path d="M327.405 41.3427C327.013 40.2126 325.416 40.2126 325.024 41.3427L323.335 46.2193C321.518 51.4646 320.59 56.9763 320.59 62.5271V151.761H331.839V62.5271C331.839 56.9763 330.911 51.4646 329.094 46.2193L327.405 41.3427Z" fill="white" stroke="#263238" stroke-width="1.14851" stroke-miterlimit="10" stroke-linecap="round" stroke-linejoin="round"/>
<path d="M307.534 16.4198C307.034 15.6882 305.955 15.6882 305.454 16.4198L301.75 22.6424C297.588 29.6357 295.391 37.6225 295.391 45.7597V130.945H317.597V45.7597C317.597 37.6225 315.399 29.6346 311.237 22.6424L307.534 16.4198Z" fill="#263238" stroke="white" stroke-width="1.14851" stroke-miterlimit="10" stroke-linecap="round" stroke-linejoin="round"/>
<path d="M333.575 151.031H318.855V157.969H333.575V151.031Z" fill="#263238" stroke="white" stroke-width="1.14851" stroke-miterlimit="10" stroke-linecap="round" stroke-linejoin="round"/>
<path d="M299.635 70.1799C299.635 70.1799 293.658 100.335 281.976 112.018C276.339 117.655 273.296 121.521 271.656 124.012C270.411 125.903 269.751 128.112 269.751 130.378V141.902H302.081V66.9204L299.635 70.1799Z" fill="white" stroke="#263238" stroke-width="1.14851" stroke-miterlimit="10" stroke-linecap="round" stroke-linejoin="round"/>
<path d="M270.023 137.283H299.092" stroke="#263238" stroke-width="1.14851" stroke-miterlimit="10" stroke-linecap="round" stroke-linejoin="round"/>
<path d="M313.354 70.5876C313.354 70.5876 319.331 100.743 331.013 112.426C336.649 118.063 339.693 121.928 341.333 124.42C342.578 126.311 343.237 128.521 343.237 130.786V142.31H310.909V67.3281L313.354 70.5876Z" fill="white" stroke="#263238" stroke-width="1.14851" stroke-miterlimit="10" stroke-linecap="round" stroke-linejoin="round"/>
<path d="M313.761 137.283H342.83" stroke="#263238" stroke-width="1.14851" stroke-miterlimit="10" stroke-linecap="round" stroke-linejoin="round"/>
<path d="M307.186 48.7615C306.781 48.7201 306.371 48.7201 305.965 48.7615C303.481 49.0164 301.569 51.0907 301.237 53.5646L301.183 53.8276C300.111 59.0545 298.793 65.833 298.793 71.7616V143.648H314.358V71.7616C314.358 65.833 313.039 59.0556 311.968 53.8276L311.914 53.5646C311.582 51.0895 309.669 49.0153 307.186 48.7615Z" fill="white" stroke="#263238" stroke-width="1.14851" stroke-miterlimit="10" stroke-linecap="round" stroke-linejoin="round"/>
<path d="M305.214 143.068H297.354V132.669C297.354 130.566 299.058 128.861 301.161 128.861H301.408C303.511 128.861 305.215 130.566 305.215 132.669V143.068H305.214Z" fill="white" stroke="#263238" stroke-width="1.14851" stroke-miterlimit="10" stroke-linecap="round" stroke-linejoin="round"/>
<path d="M306.426 142.337H296.141V149.276H306.426V142.337Z" fill="#263238" stroke="#263238" stroke-width="1.14851" stroke-miterlimit="10" stroke-linecap="round" stroke-linejoin="round"/>
<path d="M315.81 143.068H307.949V132.669C307.949 130.566 309.654 128.861 311.757 128.861H312.004C314.107 128.861 315.811 130.566 315.811 132.669V143.068H315.81Z" fill="white" stroke="#263238" stroke-width="1.14851" stroke-miterlimit="10" stroke-linecap="round" stroke-linejoin="round"/>
<path d="M317.021 142.337H306.736V149.276H317.021V142.337Z" fill="#263238" stroke="#263238" stroke-width="1.14851" stroke-miterlimit="10" stroke-linecap="round" stroke-linejoin="round"/>
<path d="M307.186 48.7615C306.781 48.7201 306.371 48.7201 305.965 48.7615C303.652 48.9981 301.852 50.8185 301.346 53.065H311.807C311.298 50.8185 309.498 48.9981 307.186 48.7615Z" fill="#263238" stroke="#263238" stroke-width="1.14851" stroke-miterlimit="10" stroke-linecap="round" stroke-linejoin="round"/>
<path d="M303.437 61.6382C301.333 62.9762 299.906 65.5696 299.906 68.5499C299.906 68.7337 299.918 68.9129 299.929 69.0932C300.091 66.346 301.467 63.9903 303.437 62.7327V61.6382Z" fill="#263238"/>
<path d="M309.143 61.2071C308.384 60.866 307.562 60.6719 306.698 60.6719C305.834 60.6719 305.012 60.866 304.253 61.2071V62.2901C305.012 61.949 305.836 61.7584 306.698 61.7584C307.561 61.7584 308.384 61.949 309.143 62.2901V61.2071Z" fill="#263238"/>
<path d="M309.958 61.6382V62.7327C311.929 63.9903 313.305 66.346 313.466 69.0932C313.477 68.9129 313.491 68.7337 313.491 68.5499C313.489 65.5696 312.062 62.9762 309.958 61.6382Z" fill="#263238"/>
<path d="M311.471 52.0361C310.717 50.2823 309.133 48.9603 307.186 48.7605C306.781 48.7192 306.371 48.7192 305.965 48.7605C304.069 48.9546 302.516 50.2145 301.74 51.9005" stroke="white" stroke-width="0.574257" stroke-miterlimit="10" stroke-linecap="round" stroke-linejoin="round"/>
<mask id="mask0_70_1392" style="mask-type:luminance" maskUnits="userSpaceOnUse" x="1" y="1" width="433" height="393">
<path d="M428.984 206.594C424.83 191.591 418.306 176.796 409.842 164.446C400.376 150.635 389.521 140.475 376.604 130.11C362.872 119.093 349.433 107.607 337.376 94.7506C325.39 81.97 317.172 67.4815 306.993 53.4822C287.975 27.3248 258.154 11.0779 226.809 5.09993C177.154 -4.36957 123.725 6.29898 82.4601 35.802C39.408 66.5822 13.4654 117.103 4.8481 168.561C-1.14714 204.359 1.00517 242.141 14.0661 276.203C15.2111 279.189 16.4355 282.145 17.7585 285.057C36.5276 326.391 73.4006 360.899 115.203 378.277C189.475 409.154 276.264 387.458 328.005 368.264C393.874 343.83 449.478 280.608 428.984 206.594Z" fill="white"/>
</mask>
<g mask="url(#mask0_70_1392)">
<path d="M451.917 204.661C434.134 197.005 413.51 205.214 405.854 222.999C405.772 223.189 405.702 223.381 405.624 223.571C404.859 223.323 404.085 223.153 403.31 223.036C402.456 215.584 397.764 208.782 390.381 205.603C379.69 200.999 367.357 205.706 362.356 216.097C361.372 214.981 360.141 214.055 358.685 213.427C357.058 212.727 355.352 212.478 353.703 212.617C354.839 205.488 351.084 198.227 344.149 195.242C339.344 193.173 334.096 193.633 329.859 196.007C328.691 194.152 326.972 192.618 324.807 191.686C319.11 189.234 312.504 191.864 310.052 197.56C309.47 198.913 309.182 200.316 309.147 201.705C307.892 201.069 306.505 200.658 305.035 200.532C304.903 199.532 304.644 198.532 304.224 197.56C301.772 191.863 295.166 189.233 289.469 191.686C287.304 192.619 285.585 194.153 284.417 196.007C280.18 193.633 274.933 193.173 270.127 195.242C263.194 198.227 259.437 205.488 260.574 212.617C258.925 212.478 257.219 212.727 255.592 213.427C254.135 214.055 252.904 214.983 251.92 216.097C246.919 205.706 234.586 201.001 223.895 205.603C216.512 208.782 211.821 215.584 210.966 223.036C210.191 223.153 209.418 223.323 208.652 223.571C208.574 223.381 208.505 223.189 208.422 222.999C200.766 205.214 180.142 197.005 162.359 204.661C150.87 209.608 143.385 219.967 141.584 231.475C133.449 236.226 127.262 243.942 124.509 253.147C123.747 253.111 122.981 253.088 122.21 253.088C102.678 253.088 85.8608 264.666 78.2163 281.329C55.2311 282.607 36.9846 301.646 36.9846 324.952C36.9846 349.084 56.5484 368.647 80.681 368.647C86.2754 368.647 91.6183 367.585 96.5339 365.669C105.31 377.96 119.68 385.981 135.933 385.981C148.521 385.981 159.985 381.171 168.593 373.293C175.455 391.67 193.164 404.76 213.935 404.76C225.424 404.76 235.97 400.748 244.27 394.06C252.569 400.748 263.116 404.76 274.604 404.76C288.667 404.76 301.323 398.755 310.164 389.178C316.086 391.762 322.62 393.204 329.495 393.204C352.961 393.204 372.521 376.499 376.944 354.334C382.969 357.027 389.638 358.536 396.664 358.536C423.388 358.536 445.054 336.871 445.054 310.146C445.054 307.795 444.877 305.487 444.553 303.225C456.985 297.5 465.619 284.941 465.619 270.357C465.619 266.846 465.109 263.456 464.177 260.246C466.641 257.491 468.717 254.307 470.258 250.724C477.912 232.941 469.701 212.317 451.917 204.661Z" fill="white"/>
</g>
<mask id="mask1_70_1392" style="mask-type:luminance" maskUnits="userSpaceOnUse" x="1" y="1" width="433" height="393">
<path d="M428.984 206.594C424.83 191.591 418.306 176.796 409.842 164.446C400.376 150.635 389.521 140.475 376.604 130.11C362.872 119.093 349.433 107.607 337.376 94.7506C325.39 81.97 317.172 67.4815 306.993 53.4822C287.975 27.3248 258.154 11.0779 226.809 5.09993C177.154 -4.36957 123.725 6.29898 82.4601 35.802C39.408 66.5822 13.4654 117.103 4.8481 168.561C-1.14714 204.359 1.00517 242.141 14.0661 276.203C15.2111 279.189 16.4355 282.145 17.7585 285.057C36.5276 326.391 73.4006 360.899 115.203 378.277C189.475 409.154 276.264 387.458 328.005 368.264C393.874 343.83 449.478 280.608 428.984 206.594Z" fill="white"/>
</mask>
<g mask="url(#mask1_70_1392)">
<path opacity="0.5" d="M466.152 331.757C473.165 324.663 477.273 314.692 476.521 303.767C475.887 294.568 471.731 286.277 465.414 280.227C465.546 278.972 465.616 277.698 465.616 276.407C465.616 256.428 449.419 240.23 429.439 240.23C422.574 240.23 416.158 242.143 410.689 245.462C406.458 239.301 399.367 235.258 391.329 235.258C386.658 235.258 382.31 236.629 378.653 238.98C373.351 229.824 363.456 223.66 352.114 223.66C351.116 223.66 350.131 223.712 349.158 223.807C346.881 220.39 342.996 218.138 338.582 218.138C336.134 218.138 333.854 218.843 331.914 220.043C331.931 219.777 331.954 219.512 331.954 219.241C331.954 212.225 326.267 206.538 319.251 206.538C316.29 206.538 313.572 207.559 311.412 209.257C309.433 207.566 306.87 206.538 304.061 206.538C299.132 206.538 294.951 209.693 293.396 214.089C291.564 212.814 289.341 212.061 286.939 212.061C281.128 212.061 276.345 216.441 275.698 222.079C273.889 221.319 271.903 220.897 269.817 220.897C262.381 220.897 256.217 226.25 254.91 233.307C252.87 231.912 250.405 231.094 247.749 231.094C246.131 231.094 244.591 231.408 243.169 231.961C243.03 231.958 242.894 231.944 242.754 231.944C241.122 231.944 239.539 232.147 238.022 232.514C236.401 231.615 234.544 231.094 232.559 231.094C227.631 231.094 223.449 234.249 221.894 238.645C220.063 237.371 217.839 236.617 215.437 236.617C213.978 236.617 212.585 236.894 211.304 237.397C208.549 236.727 205.674 236.363 202.711 236.363C188.428 236.363 176.072 244.582 170.092 256.544C162.499 256.977 156.043 261.613 152.989 268.162C146.382 263.223 138.052 260.461 129.051 260.982C110.89 262.031 96.0781 276.669 94.8411 294.818C94.4736 300.207 95.2833 305.366 97.0302 310.068C91.0246 306.502 83.9165 304.6 76.3271 305.039C58.1668 306.089 43.3544 320.726 42.1174 338.875C40.892 356.862 52.7228 372.299 69.0742 376.656C69.0501 376.925 69.0179 377.194 68.9996 377.466C67.549 398.754 84.3885 416.473 105.366 416.473C122.202 416.473 136.365 405.057 140.554 389.545C146.045 399.037 156.3 405.427 168.055 405.427C174.288 405.427 180.098 403.624 185.003 400.522C190.86 406.929 199.286 410.95 208.652 410.95C218.004 410.95 226.418 406.941 232.276 400.548C237.332 414.967 251.053 425.31 267.199 425.31C282.555 425.31 295.727 415.954 301.327 402.633C307.704 412.927 319.098 419.787 332.098 419.787C348.734 419.787 362.736 408.553 366.961 393.262C368.356 393.422 369.766 393.532 371.204 393.532C386.56 393.532 399.731 384.176 405.33 370.854C411.708 381.148 423.101 388.009 436.101 388.009C456.93 388.009 473.646 370.408 472.19 349.268C471.744 342.835 469.574 336.848 466.152 331.757Z" fill="#263238"/>
</g>
<mask id="mask2_70_1392" style="mask-type:luminance" maskUnits="userSpaceOnUse" x="1" y="1" width="433" height="393">
<path d="M428.984 206.594C424.83 191.591 418.306 176.796 409.842 164.446C400.376 150.635 389.521 140.475 376.604 130.11C362.872 119.093 349.433 107.607 337.376 94.7506C325.39 81.97 317.172 67.4815 306.993 53.4822C287.975 27.3248 258.154 11.0779 226.809 5.09993C177.154 -4.36957 123.725 6.29898 82.4601 35.802C39.408 66.5822 13.4654 117.103 4.8481 168.561C-1.14714 204.359 1.00517 242.141 14.0661 276.203C15.2111 279.189 16.4355 282.145 17.7585 285.057C36.5276 326.391 73.4006 360.899 115.203 378.277C189.475 409.154 276.264 387.458 328.005 368.264C393.874 343.83 449.478 280.608 428.984 206.594Z" fill="white"/>
</mask>
<g mask="url(#mask2_70_1392)">
<path d="M470.603 306.195H470.383C468.86 287.617 453.31 273.01 434.339 273.01C427.474 273.01 421.058 274.922 415.59 278.242C411.358 272.081 404.267 268.038 396.229 268.038C391.558 268.038 387.21 269.408 383.553 271.759C378.251 262.603 368.356 256.439 357.014 256.439C356.016 256.439 355.031 256.492 354.058 256.585C351.78 253.168 347.896 250.916 343.482 250.916C341.034 250.916 338.754 251.621 336.814 252.822C336.83 252.555 336.854 252.291 336.854 252.021C336.854 245.005 331.167 239.317 324.151 239.317C321.19 239.317 318.472 240.34 316.312 242.037C314.333 240.345 311.77 239.317 308.961 239.317C304.033 239.317 299.851 242.472 298.296 246.869C296.464 245.594 294.241 244.841 291.839 244.841C286.028 244.841 281.244 249.221 280.598 254.859C278.789 254.099 276.803 253.677 274.717 253.677C266.409 253.677 259.67 260.35 259.541 268.627C256.206 266.185 252.105 264.725 247.654 264.725C239.56 264.725 232.6 269.505 229.392 276.387C223.316 271.844 215.783 269.144 207.611 269.144C190.822 269.144 176.693 280.497 172.459 295.944C165.743 297.44 160.704 303.377 160.593 310.52C157.258 308.077 153.157 306.617 148.706 306.617C140.612 306.617 133.652 311.397 130.444 318.279C124.368 313.736 116.835 311.035 108.663 311.035C88.5306 311.035 72.209 327.356 72.209 347.489C72.209 347.689 72.2205 347.886 72.224 348.086H72.0586V414.014H371.657V372.125H470.604V306.195H470.603Z" fill="#263238"/>
</g>
<path d="M181.547 37.1639C181.547 38.8924 180.146 40.2936 178.417 40.2936C176.689 40.2936 175.288 38.8924 175.288 37.1639C175.288 35.4354 176.689 34.0342 178.417 34.0342C180.146 34.0353 181.547 35.4354 181.547 37.1639Z" fill="white"/>
<path d="M373.317 159.362C373.317 161.09 371.915 162.491 370.187 162.491C368.458 162.491 367.057 161.09 367.057 159.362C367.057 157.633 368.458 156.232 370.187 156.232C371.915 156.232 373.317 157.633 373.317 159.362Z" fill="white"/>
<path d="M38.5186 183.306C40.2471 183.306 41.6483 181.905 41.6483 180.177C41.6483 178.448 40.2471 177.047 38.5186 177.047C36.7901 177.047 35.3889 178.448 35.3889 180.177C35.3889 181.905 36.7901 183.306 38.5186 183.306Z" fill="white"/>
<path d="M89.8643 80.6139C91.5928 80.6139 92.994 79.2127 92.994 77.4842C92.994 75.7557 91.5928 74.3545 89.8643 74.3545C88.1358 74.3545 86.7346 75.7557 86.7346 77.4842C86.7346 79.2127 88.1358 80.6139 89.8643 80.6139Z" fill="white"/>
<path d="M217.223 24.334C217.223 25.1977 216.523 25.8983 215.659 25.8983C214.794 25.8983 214.095 25.1977 214.095 24.334C214.095 23.4691 214.795 22.7686 215.659 22.7686C216.522 22.7686 217.223 23.4691 217.223 24.334Z" fill="white"/>
<path d="M265.645 77.0215C265.645 77.8852 264.944 78.5858 264.081 78.5858C263.216 78.5858 262.516 77.8852 262.516 77.0215C262.516 76.1567 263.217 75.4561 264.081 75.4561C264.944 75.4572 265.645 76.1578 265.645 77.0215Z" fill="white"/>
<path d="M51.9334 115.129C52.7974 115.129 53.4977 114.429 53.4977 113.565C53.4977 112.701 52.7974 112 51.9334 112C51.0695 112 50.3691 112.701 50.3691 113.565C50.3691 114.429 51.0695 115.129 51.9334 115.129Z" fill="white"/>
<path d="M105.13 72.3948C105.13 73.2597 104.43 73.9591 103.565 73.9591C102.701 73.9591 102 73.2585 102 72.3948C102 71.5312 102.701 70.8306 103.565 70.8306C104.43 70.8306 105.13 71.5312 105.13 72.3948Z" fill="white"/>
<path d="M177.292 21.4035C178.156 21.4035 178.857 20.7031 178.857 19.8392C178.857 18.9753 178.156 18.2749 177.292 18.2749C176.428 18.2749 175.728 18.9753 175.728 19.8392C175.728 20.7031 176.428 21.4035 177.292 21.4035Z" fill="white"/>
<path d="M217.822 107.728C218.686 107.728 219.386 107.028 219.386 106.164C219.386 105.3 218.686 104.6 217.822 104.6C216.958 104.6 216.258 105.3 216.258 106.164C216.258 107.028 216.958 107.728 217.822 107.728Z" fill="white"/>
<path d="M17.2401 243.904C18.104 243.904 18.8043 243.204 18.8043 242.34C18.8043 241.476 18.104 240.776 17.2401 240.776C16.3761 240.776 15.6758 241.476 15.6758 242.34C15.6758 243.204 16.3761 243.904 17.2401 243.904Z" fill="white"/>
<path d="M43.3211 267.318C44.185 267.318 44.8854 266.618 44.8854 265.754C44.8854 264.89 44.185 264.189 43.3211 264.189C42.4572 264.189 41.7568 264.89 41.7568 265.754C41.7568 266.618 42.4572 267.318 43.3211 267.318Z" fill="white"/>
<path d="M32.9669 276.856C33.8308 276.856 34.5311 276.155 34.5311 275.291C34.5311 274.427 33.8308 273.727 32.9669 273.727C32.1029 273.727 31.4026 274.427 31.4026 275.291C31.4026 276.155 32.1029 276.856 32.9669 276.856Z" fill="white"/>
<path d="M139.362 27.2409C140.226 27.2409 140.926 26.5405 140.926 25.6766C140.926 24.8127 140.226 24.1123 139.362 24.1123C138.498 24.1123 137.797 24.8127 137.797 25.6766C137.797 26.5405 138.498 27.2409 139.362 27.2409Z" fill="white"/>
<path d="M167.116 102.177C167.98 102.177 168.68 101.477 168.68 100.613C168.68 99.7492 167.98 99.0488 167.116 99.0488C166.252 99.0488 165.552 99.7492 165.552 100.613C165.552 101.477 166.252 102.177 167.116 102.177Z" fill="white"/>
<path d="M196.72 89.6974C190.632 88.8693 189.961 88.1986 189.133 82.1104C188.305 88.1986 187.634 88.8693 181.546 89.6974C187.634 90.5255 188.305 91.1962 189.133 97.2845C189.961 91.1962 190.632 90.5255 196.72 89.6974Z" fill="white"/>
<path d="M34.5414 147.796C28.4531 146.967 27.7824 146.297 26.9543 140.208C26.1262 146.297 25.4555 146.967 19.3672 147.796C25.4555 148.624 26.1262 149.294 26.9543 155.383C27.7812 149.294 28.4531 148.624 34.5414 147.796Z" fill="white"/>
<path d="M83.8508 118.099C80.0642 117.584 79.6473 117.166 79.1316 113.379C78.6171 117.166 78.199 117.583 74.4124 118.099C78.199 118.613 78.6159 119.031 79.1316 122.818C79.6473 119.031 80.0653 118.613 83.8508 118.099Z" fill="white"/>
<path d="M261.944 157.88C258.158 157.366 257.741 156.948 257.225 153.161C256.711 156.948 256.293 157.365 252.506 157.88C256.293 158.395 256.709 158.813 257.225 162.6C257.741 158.812 258.158 158.395 261.944 157.88Z" fill="white"/>
<path d="M264.35 35.8516C260.563 35.337 260.147 34.919 259.631 31.1323C259.116 34.919 258.698 35.3359 254.912 35.8516C258.698 36.3661 259.115 36.7842 259.631 40.5708C260.147 36.7842 260.563 36.3673 264.35 35.8516Z" fill="white"/>
<mask id="mask3_70_1392" style="mask-type:luminance" maskUnits="userSpaceOnUse" x="1" y="1" width="433" height="393">
<path d="M428.984 206.594C424.83 191.591 418.306 176.796 409.842 164.446C400.376 150.635 389.521 140.475 376.604 130.11C362.872 119.093 349.433 107.607 337.376 94.7506C325.39 81.97 317.172 67.4815 306.993 53.4822C287.975 27.3248 258.154 11.0779 226.809 5.09993C177.154 -4.36957 123.725 6.29898 82.4601 35.802C39.408 66.5822 13.4654 117.103 4.8481 168.561C-1.14714 204.359 1.00517 242.141 14.0661 276.203C15.2111 279.189 16.4355 282.145 17.7585 285.057C36.5276 326.391 73.4006 360.899 115.203 378.277C189.475 409.154 276.264 387.458 328.005 368.264C393.874 343.83 449.478 280.608 428.984 206.594Z" fill="white"/>
</mask>
<g mask="url(#mask3_70_1392)">
<path opacity="0.5" d="M207.431 146.152C198.451 140.298 187.933 137.098 177.213 137.075C177.155 137.075 177.097 137.075 177.039 137.075C132.323 137.075 96.2009 173.87 97.2978 218.836C98.3222 260.802 132.279 295.118 174.234 296.559C198.06 297.378 219.632 287.725 234.754 271.868C243.779 257.693 249.011 240.866 249.011 222.817C249.01 190.707 232.462 162.469 207.431 146.152Z" fill="white" stroke="#263238" stroke-width="1.14851" stroke-miterlimit="10"/>
<path d="M200.623 146.152C200.487 146.064 200.348 145.982 200.213 145.895C221.191 164.43 234.636 192.957 234.636 224.963C234.636 244.618 229.557 262.956 220.787 278.481C223.3 276.416 225.702 274.219 227.945 271.866C236.97 257.691 242.201 240.865 242.201 222.816C242.201 190.708 225.653 162.469 200.623 146.152Z" fill="white"/>
<path d="M234.753 271.866C219.631 287.722 198.059 297.376 174.233 296.557C132.279 295.115 98.3211 260.8 97.2966 218.833C96.1997 173.869 132.322 137.074 177.038 137.074C177.095 137.074 177.154 137.074 177.211 137.074C187.932 137.097 198.45 140.297 207.43 146.151C223.278 156.482 235.718 171.596 242.718 189.442C228.889 153.136 193.759 127.339 152.599 127.339C99.3524 127.339 56.189 170.504 56.189 223.75C56.189 276.996 99.3536 320.161 152.599 320.161C205.845 320.161 249.01 276.996 249.01 223.75C249.01 223.566 249.004 223.384 249.003 223.201C248.928 241.104 243.714 257.792 234.753 271.866Z" fill="#FDFAF7" stroke="#263238" stroke-width="1.14851" stroke-miterlimit="10"/>
<path d="M70.6421 183.184C64.9145 195.514 61.717 209.259 61.717 223.75C61.717 248.18 70.8041 270.488 85.7819 287.479" fill="#FDFAF7"/>
<path d="M70.6421 183.184C64.9145 195.514 61.717 209.259 61.717 223.75C61.717 248.18 70.8041 270.488 85.7819 287.479" stroke="#263238" stroke-width="2.29703" stroke-miterlimit="10" stroke-linecap="round" stroke-linejoin="round"/>
<path d="M82.6724 163.732C80.1686 166.875 77.8567 170.18 75.7549 173.626L82.6724 163.732Z" fill="#FDFAF7"/>
<path d="M82.6724 163.732C80.1686 166.875 77.8567 170.18 75.7549 173.626" stroke="#263238" stroke-width="2.29703" stroke-miterlimit="10" stroke-linecap="round" stroke-linejoin="round"/>
<mask id="mask4_70_1392" style="mask-type:luminance" maskUnits="userSpaceOnUse" x="97" y="137" width="153" height="160">
<path d="M207.431 146.151C198.451 140.297 187.933 137.098 177.213 137.075C177.155 137.075 177.097 137.075 177.039 137.075C132.323 137.075 96.2009 173.87 97.2978 218.835C98.3222 260.802 132.279 295.117 174.234 296.559C198.06 297.377 219.632 287.724 234.754 271.868C243.779 257.693 249.011 240.866 249.011 222.817C249.01 190.707 232.462 162.468 207.431 146.151Z" fill="white"/>
</mask>
<g mask="url(#mask4_70_1392)">
<path d="M101.416 162.84C116.304 148.509 137.17 142.258 157.657 144.961C160.674 145.36 163.873 145.903 167.205 146.637C187.206 151.037 198.806 171.838 200.406 173.038C202.006 174.238 198.006 185.838 198.006 185.838C198.006 185.838 214.007 232.64 212.006 239.84C210.005 247.04 185.204 255.041 185.204 255.041L188.805 269.842L112.801 284.643C112.801 284.643 106.4 255.841 97.9998 244.241C89.5996 232.64 83.1461 219.565 85.1996 195.439C86.401 181.338 93.2817 170.67 101.416 162.84Z" fill="white"/>
<mask id="mask5_70_1392" style="mask-type:luminance" maskUnits="userSpaceOnUse" x="84" y="144" width="129" height="141">
<path d="M101.415 162.84C116.303 148.509 137.169 142.257 157.657 144.961C160.674 145.359 163.872 145.903 167.204 146.637C187.206 151.037 198.806 171.837 200.405 173.038C202.005 174.238 198.005 185.838 198.005 185.838C198.005 185.838 214.006 232.64 212.005 239.84C210.005 247.04 185.204 255.04 185.204 255.04L188.804 269.841L112.8 284.642C112.8 284.642 106.4 255.841 97.9993 244.241C89.5991 232.64 83.1456 219.565 85.1991 195.438C86.4005 181.338 93.2812 170.669 101.415 162.84Z" fill="white"/>
</mask>
<g mask="url(#mask5_70_1392)">
<path opacity="0.5" d="M187.292 251.504C175.24 252.234 152.233 240.548 143.469 222.288C134.705 204.029 118.271 196.724 118.271 196.724C118.271 196.724 103.207 191.853 85.3714 193.898C85.3117 194.41 85.2439 194.916 85.1991 195.438C83.1456 219.565 89.5991 232.639 97.9993 244.24C106.4 255.84 112.8 284.642 112.8 284.642L188.804 269.841L185.204 255.04C185.204 255.04 195.883 251.594 203.791 247.192C198.748 249.236 192.692 251.176 187.292 251.504Z" fill="black"/>
</g>
<path d="M101.416 162.84C116.304 148.509 137.17 142.258 157.657 144.961C160.674 145.36 163.873 145.903 167.205 146.637C187.206 151.037 198.806 171.838 200.406 173.038C202.006 174.238 198.006 185.838 198.006 185.838C198.006 185.838 214.007 232.64 212.006 239.84C210.005 247.04 185.204 255.041 185.204 255.041L188.805 269.842L112.801 284.643C112.801 284.643 106.4 255.841 97.9998 244.241C89.5996 232.64 83.1461 219.565 85.1996 195.439C86.401 181.338 93.2817 170.67 101.416 162.84Z" stroke="#263238" stroke-width="1.14851" stroke-miterlimit="10"/>
</g>
<mask id="mask6_70_1392" style="mask-type:luminance" maskUnits="userSpaceOnUse" x="97" y="137" width="153" height="160">
<path d="M207.431 146.151C198.451 140.297 187.933 137.098 177.213 137.075C177.155 137.075 177.097 137.075 177.039 137.075C132.323 137.075 96.2009 173.87 97.2978 218.835C98.3222 260.802 132.279 295.117 174.234 296.559C198.06 297.377 219.632 287.724 234.754 271.868C243.779 257.693 249.011 240.866 249.011 222.817C249.01 190.707 232.462 162.468 207.431 146.151Z" fill="white"/>
</mask>
<g mask="url(#mask6_70_1392)">
<path d="M179.205 167.438C179.205 167.438 180.006 168.239 172.805 168.239C165.604 168.239 153.204 167.038 149.204 170.639C145.204 174.239 138.803 184.639 141.203 184.639C143.604 184.639 146.804 181.039 149.204 181.039C151.604 181.039 154.804 180.239 154.804 180.239C154.804 180.239 144.804 186.239 148.403 186.64C152.004 187.04 168.004 184.64 172.405 181.839C176.805 179.039 180.006 177.038 180.406 174.639C180.805 172.239 182.005 170.638 179.205 167.438Z" fill="#263238" stroke="#263238" stroke-width="1.14851" stroke-miterlimit="10"/>
</g>
<mask id="mask7_70_1392" style="mask-type:luminance" maskUnits="userSpaceOnUse" x="97" y="137" width="153" height="160">
<path d="M207.431 146.151C198.451 140.297 187.933 137.098 177.213 137.075C177.155 137.075 177.097 137.075 177.039 137.075C132.323 137.075 96.2009 173.87 97.2978 218.835C98.3222 260.802 132.279 295.117 174.234 296.559C198.06 297.377 219.632 287.724 234.754 271.868C243.779 257.693 249.011 240.866 249.011 222.817C249.01 190.707 232.462 162.468 207.431 146.151Z" fill="white"/>
</mask>
<g mask="url(#mask7_70_1392)">
<path d="M195.944 167.166C195.629 167.792 194.052 170.594 191.206 170.238C188.007 169.839 186.406 167.838 186.406 167.838C186.406 167.838 186.805 169.038 186.805 172.238C186.805 175.438 187.205 177.838 189.206 180.238C191.206 182.639 198.007 185.839 198.007 185.839C198.007 185.839 200.407 178.639 200.407 173.038C199.901 172.659 198.395 170.322 195.944 167.166Z" fill="#263238" stroke="#263238" stroke-width="1.14851" stroke-miterlimit="10"/>
</g>
<mask id="mask8_70_1392" style="mask-type:luminance" maskUnits="userSpaceOnUse" x="97" y="137" width="153" height="160">
<path d="M207.431 146.151C198.451 140.297 187.933 137.098 177.213 137.075C177.155 137.075 177.097 137.075 177.039 137.075C132.323 137.075 96.2009 173.87 97.2978 218.835C98.3222 260.802 132.279 295.117 174.234 296.559C198.06 297.377 219.632 287.724 234.754 271.868C243.779 257.693 249.011 240.866 249.011 222.817C249.01 190.707 232.462 162.468 207.431 146.151Z" fill="white"/>
</mask>
<g mask="url(#mask8_70_1392)">
<path d="M185.205 179.04C185.205 179.04 201.206 186.64 202.006 189.04C202.806 191.44 198.005 200.64 198.005 200.64" fill="white"/>
<path d="M185.205 179.04C185.205 179.04 201.206 186.64 202.006 189.04C202.806 191.44 198.005 200.64 198.005 200.64" stroke="#263238" stroke-width="1.14851" stroke-miterlimit="10"/>
</g>
<mask id="mask9_70_1392" style="mask-type:luminance" maskUnits="userSpaceOnUse" x="97" y="137" width="153" height="160">
<path d="M207.431 146.151C198.451 140.297 187.933 137.098 177.213 137.075C177.155 137.075 177.097 137.075 177.039 137.075C132.323 137.075 96.2009 173.87 97.2978 218.835C98.3222 260.802 132.279 295.117 174.234 296.559C198.06 297.377 219.632 287.724 234.754 271.868C243.779 257.693 249.011 240.866 249.011 222.817C249.01 190.707 232.462 162.468 207.431 146.151Z" fill="white"/>
</mask>
<g mask="url(#mask9_70_1392)">
<path d="M202.006 189.04C202.006 189.04 178.004 203.84 181.205 205.84C184.405 207.84 193.206 204.64 195.606 202.64C198.006 200.64 202.407 194.24 202.006 189.04Z" fill="#263238" stroke="#263238" stroke-width="1.14851" stroke-miterlimit="10"/>
</g>
<mask id="mask10_70_1392" style="mask-type:luminance" maskUnits="userSpaceOnUse" x="97" y="137" width="153" height="160">
<path d="M207.431 146.151C198.451 140.297 187.933 137.098 177.213 137.075C177.155 137.075 177.097 137.075 177.039 137.075C132.323 137.075 96.2009 173.87 97.2978 218.835C98.3222 260.802 132.279 295.117 174.234 296.559C198.06 297.377 219.632 287.724 234.754 271.868C243.779 257.693 249.011 240.866 249.011 222.817C249.01 190.707 232.462 162.468 207.431 146.151Z" fill="white"/>
</mask>
<g mask="url(#mask10_70_1392)">
<path d="M198.711 210.278C198.711 210.278 190.047 212.588 187.234 212.88C184.421 213.173 179.071 216.973 181.469 217.063C183.867 217.155 192.829 213.094 195.227 213.185C197.625 213.277 201.612 213.373 201.881 212.349C202.389 210.418 198.711 210.278 198.711 210.278Z" fill="#263238" stroke="#263238" stroke-width="1.14851" stroke-miterlimit="10"/>
</g>
<mask id="mask11_70_1392" style="mask-type:luminance" maskUnits="userSpaceOnUse" x="97" y="137" width="153" height="160">
<path d="M207.431 146.151C198.451 140.297 187.933 137.098 177.213 137.075C177.155 137.075 177.097 137.075 177.039 137.075C132.323 137.075 96.2009 173.87 97.2978 218.835C98.3222 260.802 132.279 295.117 174.234 296.559C198.06 297.377 219.632 287.724 234.754 271.868C243.779 257.693 249.011 240.866 249.011 222.817C249.01 190.707 232.462 162.468 207.431 146.151Z" fill="white"/>
</mask>
<g mask="url(#mask11_70_1392)">
<path d="M185.542 256.427C184.581 256.518 183.692 256.584 182.91 256.617C174.146 256.982 162.609 256.326 151.504 250.775C147.339 248.692 142.637 244.906 138.201 239.934C145.796 235.722 158.301 229.931 175.161 225.964C178.4 225.202 180.409 221.958 179.647 218.718C178.884 215.478 175.639 213.474 172.401 214.232C153.149 218.762 139.16 225.451 130.911 230.182C122.13 216.072 117.164 197.246 125.575 179.562C137.189 155.143 161.666 148.938 170.309 147.479C169.296 147.159 168.265 146.871 167.205 146.638C163.873 145.905 160.675 145.36 157.658 144.962C137.17 142.258 116.304 148.51 101.416 162.841C93.2834 170.669 86.4015 181.339 85.2013 195.439C83.1478 219.566 89.6013 232.641 98.0015 244.242C106.402 255.842 112.802 284.643 112.802 284.643L188.806 269.842L185.542 256.427Z" fill="#263238"/>
</g>
<path d="M207.431 146.151C198.451 140.297 187.933 137.098 177.213 137.075C177.155 137.075 177.097 137.075 177.039 137.075C132.323 137.075 96.2009 173.87 97.2978 218.835C98.3222 260.802 132.279 295.117 174.234 296.559C198.06 297.377 219.632 287.724 234.754 271.868C243.779 257.693 249.011 240.866 249.011 222.817C249.01 190.707 232.462 162.468 207.431 146.151Z" stroke="#263238" stroke-width="1.14851" stroke-miterlimit="10"/>
<path d="M87.4661 240.717C95.3282 240.477 101.425 231.213 101.084 220.025C100.742 208.837 94.0919 199.961 86.2297 200.201C78.3676 200.441 72.2709 209.705 72.6123 220.893C72.9537 232.081 79.604 240.957 87.4661 240.717Z" fill="#263238"/>
<path d="M88.5079 289.484C88.5079 289.484 75.3609 291.128 77.0044 297.153C78.6479 303.178 81.3871 305.917 81.3871 310.848C81.3871 315.778 70.9793 322.351 66.5965 323.447C62.2138 324.543 18.3911 349.193 18.3911 349.193L35.9197 412.189H303.787L302.691 326.734L257.225 310.3C257.225 310.3 249.008 305.369 248.46 297.153C247.912 288.936 249.008 285.649 249.008 285.649C249.008 285.649 196.969 252.235 88.5079 289.484Z" fill="#FDFAF7" stroke="#263238" stroke-width="1.14851" stroke-miterlimit="10"/>
<path d="M88.5083 289.484C88.5083 289.484 75.3612 291.127 77.0047 297.153C78.6483 303.178 81.3875 305.917 81.3875 310.847C81.3875 311.751 81.0314 312.711 80.433 313.682C106.496 305.826 184.816 285.179 248.706 298.887C248.592 298.325 248.501 297.751 248.462 297.154C247.914 288.937 249.01 285.65 249.01 285.65C249.01 285.65 196.969 252.234 88.5083 289.484Z" fill="#263238" stroke="#263238" stroke-width="1.14851" stroke-miterlimit="10" stroke-linejoin="round"/>
<path d="M77.4043 317.119C73.9875 320.171 69.2189 322.791 66.5968 323.447C65.9916 323.599 64.634 324.199 62.7458 325.121C90.332 346.932 106.598 400.697 109.822 412.189H128.506C114.382 355.128 87.7283 326.462 77.4043 317.119Z" fill="#263238" stroke="#263238" stroke-width="1.14851" stroke-miterlimit="10"/>
<path d="M76.386 306.28C73.6663 306.28 70.9868 305.019 69.2732 302.647C66.4387 298.723 67.3219 293.245 71.2464 290.41C86.4297 279.444 120.468 270.159 160.08 266.18C199.185 262.248 234.179 264.485 251.409 272.012C255.845 273.95 257.871 279.116 255.933 283.552C253.997 287.988 248.831 290.013 244.393 288.076C232.583 282.918 202.472 279.539 161.833 283.622C120.711 287.754 91.8599 297.145 81.5106 304.621C79.959 305.74 78.1639 306.28 76.386 306.28Z" fill="#FDFAF7" stroke="#263238" stroke-width="1.14851" stroke-miterlimit="10"/>
<path d="M143.746 281.745C146.976 281.441 150.258 281.235 153.575 281.142" stroke="#263238" stroke-width="2.29703" stroke-miterlimit="10" stroke-linecap="round" stroke-linejoin="round"/>
<path d="M73.7183 302.64C73.7183 302.64 100.24 288.047 134.516 282.875" stroke="#263238" stroke-width="2.29703" stroke-miterlimit="10" stroke-linecap="round" stroke-linejoin="round"/>
<path d="M-13.7452 362.364C-15.7299 357.337 -13.6361 351.625 -8.87093 349.077C8.68755 339.692 48.4296 318.901 55.6411 319.065C79.7438 319.613 107.132 379.87 117.541 416.023H7.43567L-13.7452 362.364Z" fill="#FDFAF7" stroke="#263238" stroke-width="1.14851" stroke-miterlimit="10"/>
<path d="M282.719 412.188H291.259C288.692 388.175 283.314 341.948 277.604 317.665L263.181 312.452C267.497 327.752 279.438 372.656 282.719 412.188Z" fill="#263238" stroke="#263238" stroke-width="1.14851" stroke-miterlimit="10" stroke-linejoin="round"/>
<path d="M276.537 322.172L288.997 414.379H330.08L343.578 350.526C344.043 348.326 343.195 346.052 341.391 344.709C334.492 339.574 315.418 326.753 284.171 315.943C280.097 314.534 275.959 317.899 276.537 322.172Z" fill="#FDFAF7" stroke="#263238" stroke-width="1.14851" stroke-miterlimit="10"/>
<path d="M225.454 323.995L235.862 372.201L287.353 375.488L281.328 332.212L225.454 323.995Z" fill="#FDFAF7" stroke="#263238" stroke-width="1.14851" stroke-miterlimit="10"/>
<path d="M225.454 323.995L218.88 333.855L228.74 382.608L235.862 372.201L225.454 323.995Z" fill="#263238" stroke="#263238" stroke-width="1.14851" stroke-miterlimit="10" stroke-linejoin="round"/>
<path d="M228.74 382.608L279.685 384.252L287.353 375.487L235.862 372.2L228.74 382.608Z" fill="#263238" stroke="#263238" stroke-width="1.14851" stroke-miterlimit="10" stroke-linejoin="round"/>
<path d="M134.496 360.018C141.757 360.018 147.643 354.786 147.643 348.332C147.643 341.878 141.757 336.646 134.496 336.646C127.235 336.646 121.349 341.878 121.349 348.332C121.349 354.786 127.235 360.018 134.496 360.018Z" fill="#263238"/>
<path d="M166.632 355.635C173.893 355.635 179.779 350.403 179.779 343.949C179.779 337.495 173.893 332.263 166.632 332.263C159.371 332.263 153.485 337.495 153.485 343.949C153.485 350.403 159.371 355.635 166.632 355.635Z" fill="#263238"/>
</g>
</g>
<defs>
<linearGradient id="paint0_linear_70_1392" x1="0.890098" y1="376.789" x2="449.506" y2="356.284" gradientUnits="userSpaceOnUse">
<stop stop-color="#2B0AFF"/>
<stop offset="0.49" stop-color="#FF5B8A"/>
<stop offset="0.55" stop-color="#FF5B8A"/>
<stop offset="0.77" stop-color="#FBA64B"/>
<stop offset="1" stop-color="#F99B52"/>
</linearGradient>
<linearGradient id="paint1_linear_70_1392" x1="0.890098" y1="376.789" x2="449.506" y2="356.284" gradientUnits="userSpaceOnUse">
<stop stop-color="#2B0AFF"/>
<stop offset="0.49" stop-color="#FF5B8A"/>
<stop offset="0.55" stop-color="#FF5B8A"/>
<stop offset="0.77" stop-color="#FBA64B"/>
<stop offset="1" stop-color="#F99B52"/>
</linearGradient>
<clipPath id="clip0_70_1392">
<rect width="434.659" height="395" fill="white"/>
</clipPath>
</defs>
</svg>
