<svg width="180" height="182" viewBox="0 0 180 182" fill="none" xmlns="http://www.w3.org/2000/svg">
<g clip-path="url(#clip0_520_306)">
<path d="M89.6808 -70.2691C91.6621 -70.2691 93.2673 -68.6637 93.2673 -66.6824C93.2673 -64.7011 91.6621 -63.0958 89.6808 -63.0958C87.6994 -63.0958 86.094 -64.7011 86.094 -66.6824C86.094 -68.6637 87.7024 -70.2691 89.6808 -70.2691ZM86.094 -85.0694C86.094 -87.0507 87.6994 -88.6561 89.6808 -88.6561C91.6621 -88.6561 93.2673 -87.0507 93.2673 -85.0694C93.2673 -83.0881 91.6621 -81.4827 89.6808 -81.4827C87.7024 -81.4857 86.094 -83.0911 86.094 -85.0694ZM79.9859 -110.785C79.9859 -116.141 84.3275 -120.483 89.6837 -120.483C95.0398 -120.483 99.3814 -116.141 99.3814 -110.785C99.3814 -105.429 95.0398 -101.087 89.6837 -101.087C84.3275 -101.087 79.9859 -105.429 79.9859 -110.785ZM132.596 129.06L179.682 101.489C180.07 98.1767 180.249 94.775 180.249 91.3733C180.249 81.8546 178.787 72.6939 176.042 64.0704L23.6524 153.32C40.1535 170.955 63.6371 181.936 89.6868 181.936C127.225 181.936 159.391 159.109 173.147 126.614L141.876 144.905C140.443 145.741 138.832 146.158 137.28 146.158C134.117 146.158 131.044 144.517 129.313 141.623C126.747 137.236 128.239 131.627 132.596 129.06ZM125.255 8.06201L57.6392 47.6886C56.1771 48.5241 54.5956 48.9419 52.9843 48.9419C49.8512 48.9419 46.7778 47.3007 45.077 44.3764C42.5108 39.9901 43.9729 34.3803 48.3592 31.8141L100.25 1.40787H100.16C100.011 1.34819 99.8619 1.31833 99.7127 1.25865C96.3409 -0.292984 94.461 -3.93338 94.461 -7.66328V-26.4322H105.352C106.934 -26.4322 108.038 -27.9839 107.531 -29.4758L105.233 -36.13C107.292 -37.8905 109.052 -40.6059 110.365 -44.6939L125.345 -41.5906C128.149 -40.9938 130.388 -43.9777 129.045 -46.5141L112.991 -76.6219C111.529 -113.175 98.1313 -152.205 89.6868 -152.205C81.2124 -152.205 67.8444 -113.175 66.3524 -76.6219L50.3287 -46.5141C48.986 -43.9777 51.194 -40.9938 54.0288 -41.5906L69.0082 -44.6939C70.3211 -40.6059 72.0517 -37.8905 74.1106 -36.13L71.8427 -29.4758C71.3355 -27.9839 72.4396 -26.4322 73.9913 -26.4322H84.9124V-7.66328C84.9124 -3.93338 83.0026 -0.292984 79.6606 1.25865C79.4816 1.34818 79.3026 1.37801 79.1235 1.43768C34.096 6.65956 -0.87561 44.9434 -0.87561 91.3733C-0.87561 95.0137 -0.66667 98.6243 -0.248919 102.175L101.563 42.5264C103.025 41.6611 104.606 41.2732 106.188 41.2732C109.321 41.2732 112.424 42.9143 114.125 45.8087C116.691 50.1951 115.229 55.8347 110.843 58.4009L4.04795 120.944C6.19638 127.18 9.03107 133.118 12.4029 138.609L168.671 47.0918C158.944 29.7552 143.696 15.9396 125.255 8.06201Z" fill="url(#paint0_linear_520_306)"/>
</g>
<defs>
<linearGradient id="paint0_linear_520_306" x1="-21.1845" y1="213.679" x2="182.438" y2="184.847" gradientUnits="userSpaceOnUse">
<stop stop-color="#2B0AFF"/>
<stop offset="0.49" stop-color="#FF5B8A"/>
<stop offset="0.55" stop-color="#FF5B8A"/>
<stop offset="0.77" stop-color="#FBA64B"/>
<stop offset="1" stop-color="#F99B52"/>
</linearGradient>
<clipPath id="clip0_520_306">
<rect width="180" height="181.935" fill="white"/>
</clipPath>
</defs>
</svg>
